<?xml version="1.0" encoding="UTF-8" standalone="no"?>
<!-- Created with Inkscape (http://www.inkscape.org/) -->

<svg
   version="1.1"
   id="svg2"
   width="1354.6667"
   height="200"
   viewBox="0 0 1354.6667 200"
   xmlns="http://www.w3.org/2000/svg"
   xmlns:svg="http://www.w3.org/2000/svg">
  <defs
     id="defs6" />
  <g
     id="g8">
    <path
       style="fill:#000000;stroke-width:1.33333"
       d="M 76.850413,191.88647 C 68.623212,189.90492 52.627775,181.78811 43.960634,175.19669 28.761131,163.63739 17.921071,149.071 12.503025,132.92541 9.1098873,122.81397 8.8407204,120.44141 8.8901553,101.07996 8.9195326,89.573941 9.5697001,78.473941 10.334971,76.413296 11.100241,74.352649 12.702959,69.346451 13.896566,65.288411 16.25139,57.282447 30.632095,36.74328 36.63802,32.808047 c 1.874097,-1.227956 5.473753,-4.2393 7.999234,-6.691876 5.596011,-5.434467 12.707127,-9.259514 26.567953,-14.290816 11.879615,-4.3121486 14.475691,-4.6197046 16.670631,-1.9749627 1.233446,1.4862097 0.412718,2.4973677 -4.170073,5.1376367 -3.13817,1.807986 -9.905763,4.878771 -15.039097,6.82397 -11.334649,4.295092 -23.199124,10.95349 -24.209498,13.586482 -0.40836,1.06417 -1.46058,1.934852 -2.338265,1.934852 -1.595009,0 -10.118904,8.081622 -10.118904,9.593871 0,0.440139 -2.4,4.750732 -5.333334,9.579097 -2.933333,4.828364 -5.333333,9.313416 -5.333333,9.96678 0,0.653366 -1.295704,4.114208 -2.879344,7.690762 C 16.870351,77.740396 15.434966,83.066667 15.264244,86 c -0.170721,2.933333 -0.739049,8.933333 -1.262952,13.333333 -1.227667,10.310577 0.704784,20.435317 6.815481,35.708507 3.929198,9.82072 6.831033,14.45915 15.026411,24.01891 6.773637,7.90132 12.377448,13.02881 16.823484,15.39349 3.666667,1.95017 7.028767,4.03895 7.471333,4.64172 0.442567,0.60279 2.242567,1.27953 4.000001,1.50388 3.173112,0.40508 19.019452,5.19353 24.966734,7.54448 8.105705,3.20415 -1.856773,6.24644 -12.254323,3.74215 z m 19.773568,0.29306 c -0.343188,-0.34318 -0.623979,-1.72397 -0.623979,-3.06842 0,-2.35895 7.216938,-2.45171 206.333338,-2.65212 500.91604,-0.50418 809.62896,-0.40507 868.33336,0.27877 61.6136,0.71772 63.3333,0.80823 63.3333,3.33333 0,2.49339 -1.0498,2.5861 -26.6666,2.35466 -37.3769,-0.3377 -457.34475,-0.72231 -518.00005,-0.4744 -27.5,0.1124 -115.1,0.16174 -194.66667,0.1096 -79.56667,-0.0521 -201.53589,0.0937 -271.0427,0.3239 -69.5068,0.23023 -126.656811,0.1378 -126.999999,-0.20538 z M 1246.6667,191.59036 c 0,-1.05016 3.8424,-2.71409 9.6667,-4.18607 17.5078,-4.42477 27.3523,-9.98801 40.6393,-22.96569 3.1317,-3.05877 5.694,-6.07627 5.694,-6.70555 0,-0.62928 1.9915,-3.22664 4.4255,-5.77193 5.8828,-6.15168 12.1256,-17.45559 15.0739,-27.29445 3.2647,-10.89481 3.2627,-36.951967 0,-47.333337 C 1320.8931,73.3 1319.4953,68.5 1319.056,66.666667 c -2.0401,-8.513654 -17.6938,-27.670131 -27.9461,-34.19982 -2.0771,-1.322888 -4.0765,-2.719111 -4.4432,-3.102716 -1.6345,-1.709996 -6.8444,-4.030798 -9.0486,-4.030798 -1.3299,0 -2.9881,-0.507852 -3.6847,-1.128561 -1.1119,-0.990615 -12.3775,-3.745123 -25.6,-6.259349 -5.1565,-0.980486 -6.0263,-5.18071 -1.3334,-6.438375 13.3287,-3.5719557 43.4225,9.081269 60.403,25.397041 3.995,3.838639 7.2637,7.345603 7.2637,7.793256 0,0.447652 1.4482,2.72388 3.2181,5.058284 3.8075,5.021712 8.5981,17.602956 10.2129,26.821628 1.2574,7.178415 4.3292,11.529256 6.5629,9.295594 1.6477,-1.647791 1.7724,-26.79575 0.2538,-51.206184 -0.6158,-9.9 -0.8536,-19.05 -0.5282,-20.333334 0.6825,-2.692137 6.3449,-3.211861 7.2633,-0.666666 0.3308,0.916666 0.5449,40.48667 0.476,87.933343 -0.092,63.64156 -0.5321,86.67332 -1.676,87.81716 -3.9325,3.93248 -4.4379,-0.37418 -4.0473,-34.49274 0.4142,-36.19279 5e-4,-42.25776 -2.8831,-42.25776 -1.6864,0 -2.5528,2.08208 -6.9354,16.66666 -2.1491,7.15191 -7.4247,17.12907 -11.5837,21.9071 -1.65,1.89558 -3,3.93688 -3,4.5362 0,1.87457 -19.7551,21.26645 -25.6848,25.2126 -8.9548,5.95926 -13.2868,7.68498 -26.3147,10.48292 -10.7637,2.31166 -13.3338,2.33445 -13.3338,0.11821 z m 87.2243,-91.06635 c 2.6818,-1.029137 2.7718,-5.857343 0.109,-5.857343 -1.1,0 -2,0.550928 -2,1.224284 0,0.673354 -0.3642,2.173354 -0.8093,3.333333 -0.8867,2.310846 -0.4644,2.514136 2.7003,1.299726 z m -845.1398,61.21544 c -0.47709,-1.24329 -1.84493,-10.20952 -3.03964,-19.92494 -2.01695,-16.4019 -2.01352,-18.64655 0.048,-31.40612 1.22113,-7.55795 2.58985,-19.741723 3.0416,-27.075057 0.71396,-11.589877 0.45419,-14.301209 -1.98665,-20.735309 -5.13928,-13.547188 -16.78001,-20.942295 -28.67931,-18.219348 -8.38502,1.918764 -17.92935,9.613703 -23.57856,19.00978 -6.89327,11.465263 -7.88996,15.382631 -7.88996,31.01056 V 108.4001 l 3.7777,-5.20005 c 4.80544,-6.61475 6.9597,-8.357422 12.18314,-9.855486 6.76918,-1.941379 10.70582,0.2709 10.70582,6.016375 0,6.747831 -4.47348,10.748191 -14.28574,12.774881 l -7.90359,1.63246 4.42389,8.78253 c 4.98935,9.9051 5.63499,16.85043 2.31962,24.95303 -2.86044,6.99079 -6.69602,9.76396 -13.55418,9.79984 -6.88146,0.036 -10.24296,-2.87399 -12.34729,-10.68884 -1.96051,-7.28079 0.1008,-16.96087 5.47,-25.68683 4.55921,-7.40966 4.37987,-9.51147 -0.92525,-10.84297 -5.60239,-1.40611 -15.19746,-7.43249 -15.19746,-9.54507 0,-2.797801 3.44919,-2.27103 9.02859,1.37887 2.73428,1.7887 6.69943,3.67332 8.81145,4.18806 l 3.84003,0.93588 -0.94812,-11.382041 c -1.03627,-12.440356 1.38357,-24.973288 6.15277,-31.866566 1.34674,-1.946538 2.44862,-4.099246 2.44862,-4.783794 0,-2.342732 11.32761,-12.361259 18,-15.919808 11.96601,-6.381776 27.21395,-4.320356 35.02575,4.73525 11.46614,13.291808 14.16389,27.507478 9.67388,50.976047 -3.78883,19.803602 -3.80023,40.548342 -0.0292,53.210612 1.53468,5.15317 2.42625,9.95848 1.98128,10.67845 -1.31176,2.12248 -5.62751,1.4972 -6.56715,-0.95148 z m -58.43378,-11.58092 c 0.90792,-0.8554 2.34331,-5.00373 3.18975,-9.2185 1.35187,-6.73143 1.23433,-8.34885 -0.96665,-13.30164 -1.37811,-3.10111 -3.60246,-6.83839 -4.94299,-8.30506 -2.43323,-2.66217 -2.44,-2.66219 -4.01743,-0.0105 -3.09549,5.20341 -7.44361,17.40433 -7.51129,21.0768 -0.0787,4.26593 3.05671,11.03669 5.56981,12.02805 2.18723,0.86281 6.57122,-0.28337 8.6788,-2.26907 z m 15.99927,-46.48328 c 2.29949,-2.13926 2.63839,-3.19114 1.47843,-4.588798 -2.49794,-3.009817 -10.13526,0.849019 -13.36926,6.754948 -1.27013,2.31954 -0.98697,2.4367 3.76706,1.55869 2.82724,-0.52215 6.48293,-2.19833 8.12377,-3.72484 z m 682.21691,59.0662 c -16.382,-0.53274 -23.4149,-1.2531 -24.9853,-2.5592 -3.8018,-3.16189 -1.3332,-3.79822 12.2058,-3.14628 l 13.1781,0.63458 3.1701,-6.50195 c 3.8003,-7.79449 3.7799,-13.05992 -0.1103,-28.50193 -1.5703,-6.23334 -3.2844,-14.03334 -3.8091,-17.33334 -0.5246,-3.3 -2.2019,-8.699997 -3.7272,-11.999997 -4.3092,-9.322737 -5.5582,-13.417122 -6.508,-21.333333 -0.4839,-4.033333 -1.6691,-10.792851 -2.6338,-15.021149 -1.9624,-8.601788 -0.8805,-15.015496 3.5949,-21.312184 2.9273,-4.118434 5.7356,-4.557714 11.1568,-1.745151 3.225,1.673133 4.1841,1.673133 7.4196,0 C 1139.5288,32.864683 1142.0656,32 1143.1224,32 c 3.0695,0 6.2077,9.893319 6.2468,19.693648 l 0.036,8.973019 L 1154.8856,64 c 5.3666,3.264057 17.0069,13.919909 21.2577,19.459872 4.0576,5.288269 13.1901,19.061858 13.1901,19.893398 0,0.45811 1.7021,3.34103 3.7826,6.4065 2.0805,3.06546 5.4509,9.02356 7.4898,13.24023 2.0389,4.21667 4.1511,7.66667 4.6938,7.66667 1.9926,0 26.097,16.52454 28.0338,19.21829 4.2242,5.87528 1.027,7.78681 -4.7383,2.83285 -4.0855,-3.5106 -11.2617,-6.63164 -11.2617,-4.8979 0,0.55798 1.8265,2.76448 4.059,4.90332 2.8152,2.69714 3.9388,4.91861 3.6667,7.24945 -0.3899,3.33889 -0.4761,3.36025 -13.3214,3.29827 -10.3759,-0.05 -13.4374,-0.52258 -15.5042,-2.39295 -2.6651,-2.41193 -13.5668,-23.25024 -13.5668,-25.93269 0,-0.83499 -1.284,-2.20535 -2.8534,-3.04526 -2.8274,-1.51316 -2.8449,-1.44054 -1.9193,7.9531 1.0192,10.34341 0.4278,11.09402 -5.894,7.48018 -5.8639,-3.35212 -6.6666,-2.6353 -6.6666,5.9531 0,8.99632 -1.7557,10.91254 -9.5791,10.45502 -2.4315,-0.1422 -14.6808,-0.5922 -27.2207,-1 z m 28.8874,-5.45502 c 3.4545,-1.8488 3.6038,-14.21152 0.2457,-20.35264 l -2.3333,-4.26712 -0.4111,6.44776 -0.4111,6.44776 -6.3492,-0.87324 c -4.5359,-0.62384 -6.7432,-0.37094 -7.7288,0.88557 -2.0606,2.62699 -4.5064,10.56159 -3.6719,11.91197 1.0154,1.64279 17.5149,1.483 20.6597,-0.20006 z m 58.237,0.39872 c 2.9389,-0.62539 2.9506,-0.7062 0.6667,-4.61832 -1.2786,-2.18998 -4.5747,-6.02436 -7.3247,-8.52084 -2.75,-2.49647 -5,-5.09167 -5,-5.76711 0,-1.52255 -8.3374,-6.77888 -10.7523,-6.77888 -0.9741,0 -4.0225,-1.56026 -6.7742,-3.46725 -2.7518,-1.90699 -5.7841,-3.20371 -6.7384,-2.8816 -1.0249,0.34593 -0.038,1.46654 2.4105,2.73771 2.4259,1.25935 4.8309,3.97567 5.7978,6.54826 2.4648,6.55776 6.7005,14.51252 10.3534,19.44407 2.8357,3.82824 3.9473,4.35338 8.8076,4.16084 3.0593,-0.1212 6.9084,-0.5068 8.5536,-0.85688 z M 1172,132.66667 c 0,-4.76667 0.081,-9.09488 0.1797,-9.61825 0.099,-0.52337 -0.9511,-1.56151 -2.3333,-2.30698 -6.887,-3.71446 -15.7626,-9.48713 -19.3696,-12.59796 -8.9726,-7.73826 -19.8101,-24.973055 -19.8101,-31.503795 0,-1.167053 1.2465,-1.973018 3.0514,-1.973018 1.6783,0 5.367,-1.180564 8.1972,-2.623476 2.8302,-1.442912 5.6571,-2.307502 6.2819,-1.921311 2.816,1.740345 0.6184,4.861492 -5.1699,7.342625 -3.4683,1.48669 -6.5337,2.930822 -6.8121,3.209183 -0.2783,0.278361 0.7594,2.283279 2.306,4.455372 1.5467,2.172093 2.8122,4.479075 2.8122,5.126623 0,1.88197 18.794,19.204037 22.5691,20.801447 1.887,0.79848 4.6309,2.45194 6.0975,3.67435 5.2391,4.36657 26,13.91194 26,11.95417 0,-0.69916 -1.285,-3.53946 -2.8555,-6.31176 -12.9919,-22.932681 -28.4465,-42.690243 -38.6441,-49.403399 -1.9248,-1.267104 -5.0291,-3.392875 -6.8984,-4.723935 -3.209,-2.284961 -3.6402,-2.295288 -7.7212,-0.184912 -2.9782,1.540095 -6.3269,2.042589 -10.7682,1.615835 -7.4265,-0.713586 -7.5356,-0.461703 -4.3618,10.071992 3.3411,11.088802 5.9719,15.669853 14.7008,25.598949 10.6328,12.09465 16.4569,19.90893 20.3713,27.33256 3.4492,6.54114 7.434,10.65235 10.3248,10.65235 1.3909,0 1.8523,-2.15902 1.8523,-8.66666 z m -21.8072,5.31174 c 0.4267,-1.11186 0.3616,-5.33641 -0.1446,-9.38788 -0.7761,-6.2116 -1.7925,-8.27584 -6.4843,-13.16866 -3.0601,-3.19129 -6.3124,-6.91674 -7.2272,-8.27878 -1.3979,-2.08136 -1.5372,-1.4129 -0.8732,4.19024 0.4345,3.66667 1.633,9.62557 2.6633,13.242 1.0303,3.61644 1.8732,7.93662 1.8732,9.60042 0,4.95237 8.5304,8.13482 10.1928,3.80266 z m -11.3256,-76.752398 c 4.4191,-2.365015 6.4237,-8.944052 5.0179,-16.468808 -0.6718,-3.595923 -1.4624,-6.778939 -1.7568,-7.073369 -0.2944,-0.294431 -2.9955,0.20176 -6.0024,1.102646 -4.2491,1.273058 -6.2434,1.284235 -8.9519,0.05017 -2.9589,-1.34815 -3.7505,-1.229247 -5.245,0.787772 -3.4515,4.658328 -3.3477,9.087738 0.1377,5.874469 0.6967,-0.642277 5.0256,-1.486188 9.6198,-1.875359 7.1832,-0.60848 8.5371,-0.363829 9.6667,1.746787 2.1628,4.041328 1.5164,5.418517 -2.3532,5.013479 -3.2697,-0.342255 -3.7125,0.09396 -4.0904,4.029877 -0.3165,3.295541 -0.992,4.305427 -2.6667,3.986379 -1.2336,-0.235014 -2.4437,-1.921167 -2.6891,-3.74701 -0.6852,-5.09746 -2.4683,-6.111981 -5.6623,-3.22154 C 1122.3306,52.844177 1120.6664,54 1120.1934,54 c -1.3224,0 -0.4845,1.644839 2.7083,5.316887 3.1932,3.672597 10.9396,4.598894 15.9655,1.909125 z M 321.00001,143.23737 c -4.34424,-2.3568 -4.48914,-4.24004 -1.12975,-14.68383 1.39531,-4.33778 2.96459,-9.98687 3.48729,-12.55354 0.52271,-2.56667 1.4583,-5.30066 2.07907,-6.07555 0.67883,-0.84734 -0.71112,-3.99661 -3.48729,-7.90136 -5.0302,-7.075074 -5.77923,-10.624745 -2.50694,-11.880438 1.15998,-0.445125 2.29483,-0.809319 2.5219,-0.809319 0.22706,0 1.34552,2.330999 2.48546,5.179998 5.82411,14.555899 24.40055,14.044819 32.65015,-0.898267 2.95987,-5.361411 5.85635,-7.049252 7.5088,-4.375537 0.42134,0.68174 -1.05794,4.333056 -3.28729,8.114036 l -4.05335,6.874507 3.69931,-2.61492 c 2.03461,-1.4382 5.73772,-3.056613 8.22912,-3.596463 l 4.52983,-0.981546 -0.8849,4.424439 c -1.38985,6.94928 -5.2234,13.74988 -8.57234,15.20709 -2.20984,0.96155 -2.85542,2.07688 -2.31527,4 0.41195,1.46666 1.10876,5.11702 1.54848,8.11189 0.74783,5.09344 0.46671,5.72292 -4.3514,9.74343 -5.29687,4.42002 -7.86804,4.72512 -17.96652,2.13186 -2.32237,-0.59637 -5.40362,0.034 -9.25044,1.89263 -6.75498,3.26364 -6.25036,3.23176 -10.93392,0.69089 z m 34.85903,-9.11069 c 3.38438,-3.06175 3.42137,-3.76383 0.58894,-11.18042 -1.71756,-4.49736 -2.77132,-5.66505 -4.66533,-5.16975 -3.04468,0.7962 -4.77903,-1.65994 -2.2868,-3.2385 1.01063,-0.64011 4.08749,-1.17303 6.83749,-1.18426 5.29471,-0.0216 10.33334,-3.64575 10.33334,-7.43244 0,-2.12785 -0.34679,-2.02498 -6.54626,1.94188 -2.24545,1.4368 -7.06333,2.12056 -16,2.27074 l -12.78708,0.21488 -2.30977,6.15893 c -2.46395,6.57001 -1.34771,8.41397 1.67472,2.76653 2.09985,-3.92363 7.0024,-4.03453 7.7383,-0.17506 0.71109,3.72931 -3.59381,7.56746 -8.48773,7.56746 -2.95505,0 -4.51483,0.73149 -4.97541,2.33333 -0.36899,1.28333 -1.08612,3.33893 -1.59363,4.56799 -1.10876,2.68522 1.31245,3.09868 18.14588,3.09868 9.46263,0 12.02826,-0.45466 14.33334,-2.53999 z m 198.28109,7.78228 c -8.44205,-3.09375 -9.22925,-4.22619 -6.30945,-9.07652 1.37925,-2.29118 3.52745,-7.30872 4.7738,-11.15009 1.24636,-3.84138 2.82931,-7.3324 3.51768,-7.75784 1.64767,-1.01832 5.22828,-9.65609 5.14873,-12.42068 -0.0344,-1.19377 -3.00226,-4.265375 -6.59534,-6.825783 -6.0642,-4.321294 -8.75518,-8.153956 -6.97496,-9.934174 1.64998,-1.649986 4.8482,-0.53332 9.87478,3.447819 6.73191,5.331769 13.3241,7.675832 21.79463,7.749784 7.01003,0.0612 9.62164,-1.198485 17.76089,-8.566783 4.67124,-4.228776 8.26955,-5.173426 9.18983,-2.412572 0.53445,1.603352 -2.19339,4.700004 -9.51652,10.803183 -4.70716,3.922991 -3.61057,5.255616 1.72915,2.101363 4.67937,-2.764172 5.9111,-2.063703 5.9111,3.361553 0,4.6709 -3.58201,10.53868 -7.26512,11.90115 -2.65229,0.98114 -2.6519,0.99797 0.0777,3.46826 1.9786,1.79061 2.74294,4.12114 2.74294,8.36334 0,6.616 -1.42841,10.02923 -6.44946,15.41108 -3.09882,3.3215 -4.08347,3.62114 -9.50376,2.89207 -3.32572,-0.44733 -8.03439,-1.42371 -10.46371,-2.16972 -3.53901,-1.08679 -4.88496,-0.93283 -6.77165,0.77461 -2.82912,2.56032 -5.76854,2.56959 -12.6713,0.04 z m 10.88375,-6.13283 c 1.18739,-1.18738 2.79156,-1.18738 6.75469,0 2.85863,0.85646 7.9867,1.5572 11.39574,1.5572 5.55038,0 6.48032,-0.45292 8.89705,-4.33333 3.34776,-5.37531 2.56927,-10.82291 -2.26823,-15.87217 -4.28109,-4.46849 -3.40256,-7.4719 2.35108,-8.03765 2.36891,-0.23293 4.52332,-1.08355 4.78759,-1.89025 0.31384,-0.95803 -3.91163,-1.77548 -12.183,-2.3569 -6.96492,-0.48959 -13.5766,-1.24055 -14.69261,-1.6688 -1.36858,-0.52517 -2.47999,0.40726 -3.41419,2.86437 -0.76179,2.00366 -2.50453,5.21517 -3.87279,7.13669 -2.43558,3.42046 -9.44586,19.54097 -9.44586,21.72126 0,1.8363 3.56224,1.23748 5.33333,-0.89655 2.36776,-2.85298 4.43437,-2.47172 3.61367,0.66667 -0.78031,2.98389 0.39416,3.45884 2.74353,1.10946 z m -1.46831,-11.33169 c -1.44873,-1.44873 -1.01357,-6.4531 0.71111,-8.17777 2.38225,-2.38226 4.78901,-1.94349 6.45936,1.17758 1.18591,2.21587 1.01877,3.29443 -0.8264,5.33333 -2.36776,2.61635 -4.76479,3.24615 -6.34407,1.66686 z m -316.12719,13.04268 c -1.24891,-2.02079 -1.455,-43.906965 -0.22203,-45.127175 1.68238,-1.66497 43.47914,-2.121028 45.16114,-0.492768 0.56877,0.550611 0.86877,10.853273 0.66666,22.894813 l -0.36748,21.8937 -6.39542,0.17122 c -3.5175,0.0941 -13.50196,0.59536 -22.18772,1.11376 -10.55106,0.62974 -16.07867,0.47921 -16.65515,-0.45355 z m 27.80196,-13.32045 C 275.6269,123.525 274.46231,123 272.64235,123 c -1.81996,0 -3.30901,0.525 -3.30901,1.16667 0,0.64166 1.16459,1.16666 2.58797,1.16666 1.42339,0 2.91246,-0.525 3.30903,-1.16666 z M 273.33334,112 c -4.76607,-1.52636 -6.66667,-1.52636 -6.66667,0 0,0.73333 2.25,1.27353 5,1.20043 4.4623,-0.11862 4.64154,-0.24771 1.66667,-1.20043 z m -17.33333,-2.66667 c 0,-0.73333 -0.6,-1.33333 -1.33334,-1.33333 -0.73333,0 -1.33333,0.6 -1.33333,1.33333 0,0.73334 0.6,1.33334 1.33333,1.33334 0.73334,0 1.33334,-0.6 1.33334,-1.33334 z m 21.99056,-2.65139 c 0.46712,-0.75581 -0.0681,-0.97934 -1.25464,-0.52402 -2.3099,0.88639 -2.73252,1.84208 -0.81462,1.84208 0.69006,0 1.62123,-0.59313 2.06926,-1.31806 z m 5.64833,-6.15416 c -0.44307,-0.44306 -1.59307,-0.49043 -2.55556,-0.10527 -1.06364,0.42564 -0.74771,0.74158 0.80556,0.80556 1.40555,0.0579 2.19305,-0.25724 1.75,-0.7003 z m 727.3481,27.37183 c -9.6055,-11.455 -12.78826,-12.90374 -15.15799,-6.89961 -3.86116,9.78289 -4.96172,10.05812 -11.73745,2.93534 -3.5483,-3.73002 -6.033,-5.32061 -7.45755,-4.77396 -1.17499,0.45088 -1.77056,1.41162 -1.32351,2.13498 1.57056,2.54121 -1.96796,6.7039 -5.69072,6.69453 -2.63578,-0.007 -4.48198,-1.27519 -6.79162,-4.66667 -1.74454,-2.56165 -3.90352,-4.65755 -4.79775,-4.65755 -0.89424,0 -2.56863,2.4 -3.72087,5.33333 -1.15225,2.93333 -2.74326,5.33333 -3.53558,5.33333 -2.33916,0 -1.64887,-4.70894 1.22606,-8.36382 1.46667,-1.86457 2.66667,-4.34548 2.66667,-5.51315 0,-3.54296 2.94081,-2.40919 8.8864,3.42596 6.24747,6.13143 7.93984,5.87759 11.90243,-1.78521 2.49946,-4.83345 5.28225,-4.78308 7.82897,0.14173 2.10631,4.07315 7.56245,6.88705 8.41203,4.33833 1.12733,-3.38199 6.02017,-8.24384 8.29638,-8.24384 1.3563,0 4.5203,2.4 7.0311,5.33334 2.5109,2.93333 5.1076,5.33331 5.7706,5.33329 0.663,-2e-5 2.881,-2.10002 4.9289,-4.66667 4.3823,-5.49219 5.7159,-5.66253 10.6099,-1.35511 6.2945,5.54014 4.2815,8.3202 -2.2847,3.15526 -2.1121,-1.66143 -4.0095,-2.32513 -4.5131,-1.57869 -0.4779,0.70833 -2.2678,3.49828 -3.9777,6.19989 -1.7098,2.70162 -3.3656,4.91203 -3.6797,4.91203 -0.314,0 -1.6151,-1.24518 -2.8912,-2.76706 z M 632.00002,127.3184 c 0,-3.08056 5.8051,-13.90701 7.47912,-13.94845 0.8135,-0.0201 3.7806,2.66338 6.59352,5.96338 2.81293,3.3 5.60512,6 6.20488,6 0.59976,0 2.40222,-2.7 4.00549,-6 1.63833,-3.37218 3.8206,-5.97296 4.98268,-5.93826 1.1372,0.034 3.86764,2.40618 6.06764,5.2716 4.70416,6.12699 6.36412,6.52109 8.42407,2 1.67,-3.66528 4.2426,-4.48062 4.2426,-1.34464 0,1.09379 -1.2,2.73812 -2.66667,3.65407 -1.46667,0.91595 -2.66667,2.72103 -2.66667,4.0113 0,3.7909 -2.93321,2.71981 -8.1346,-2.97041 l -4.85961,-5.31634 -3.68423,5.31634 c -2.02632,2.92399 -4.68753,5.31634 -5.91378,5.31634 -1.22627,0 -3.98127,-2.32875 -6.12223,-5.175 -4.44949,-5.91529 -6.58003,-5.76124 -9.26719,0.67005 -1.93109,4.62175 -4.68502,6.08542 -4.68502,2.49002 z m 57.75313,-3.27713 c -2.06423,-2.91064 -5.39709,-5.87732 -7.40636,-6.59262 -2.52112,-0.89753 -3.4066,-1.9433 -2.85736,-3.37461 1.28176,-3.34018 4.08948,-2.40349 7.02293,2.34293 1.50142,2.42933 4.22664,5.21804 6.05608,6.19712 3.0766,1.64655 3.60266,1.46515 7.00916,-2.41697 3.7763,-4.30355 9.75575,-5.74419 9.75575,-2.35047 0,1.88493 5.48924,6.15335 7.91328,6.15335 0.73724,0 2.70835,-2.39538 4.38024,-5.32306 1.67189,-2.92769 3.90383,-5.32769 4.95984,-5.33334 1.05603,-0.006 4.13667,2.43909 6.84589,5.43274 l 4.92586,5.443 2.82077,-3.02775 c 1.55144,-1.66526 2.82079,-3.49351 2.82079,-4.06276 0,-2.20757 5.438,-4.03515 7.33128,-2.46387 2.42896,2.01586 7.65372,12.12782 6.73897,13.04257 -1.03769,1.03769 -5.86048,-3.61279 -6.79273,-6.55004 -1.17355,-3.69754 -2.69152,-3.07465 -6.85772,2.81404 -2.06423,2.91768 -4.45272,5.31768 -5.30776,5.33334 -0.85504,0.0156 -3.45547,-2.37154 -5.77871,-5.30487 -2.32324,-2.93333 -5.03527,-5.33333 -6.02672,-5.33333 -0.99147,0 -3.15153,2.4 -4.80016,5.33333 -3.74684,6.66661 -7.02247,6.87102 -10.68312,0.66667 C 709.99367,121.56559 708.0787,120 706.11527,120 c -2.06401,0 -3.62552,1.40674 -5.18007,4.66667 -2.97962,6.24833 -6.44462,6.05454 -11.18205,-0.6254 z m 343.58025,2.72316 c 0,-1.52044 0.6,-2.76443 1.3333,-2.76443 0.7333,0 1.3333,-0.71717 1.3333,-1.59371 0,-2.15434 6.7473,-9.07296 8.8483,-9.07296 2.1006,0 9.1719,9.0909 7.9904,10.27242 -0.4766,0.47658 -2.654,-0.84601 -4.8387,-2.93908 -2.1847,-2.09308 -4.1463,-3.54934 -4.3591,-3.23613 -0.2128,0.3132 -1.5968,2.96659 -3.0756,5.89641 -2.998,5.93995 -7.2319,7.95241 -7.2319,3.43748 z m 21.3333,0.73536 c 0,-2.01246 2.737,-5.23736 9.6178,-11.33243 3.2312,-2.86225 3.7727,-2.96732 5.6448,-1.09523 1.1389,1.1389 2.0707,2.64012 2.0707,3.33604 0,0.69592 0.9,2.01224 2,2.92516 2.2242,1.84591 2.7311,6.66667 0.7009,6.66667 -0.7145,0 -2.2102,-1.76195 -3.3238,-3.91545 -1.1136,-2.1535 -2.6072,-4.27538 -3.319,-4.7153 -1.3642,-0.84318 -5.0509,2.4586 -7.5343,6.74775 -1.8474,3.19069 -5.8571,4.13733 -5.8571,1.38279 z M 95.601566,120.49045 c -0.514193,-0.51419 -0.934897,-1.81158 -0.934897,-2.88308 0,-1.51777 1.148705,-1.76451 5.199304,-1.11679 8.524607,1.36314 25.579907,-0.58019 28.014407,-3.19204 11.53904,-12.37961 13.66056,-16.643545 4.99088,-10.03086 -3.70841,2.82854 -4.92369,3.18934 -6.06747,1.80132 -9.80097,-11.893816 -10.13048,-13.955405 -3.47404,-21.735667 L 127.8927,78 h 13.05365 c 12.6604,0 13.2492,0.135747 19.54483,4.505983 12.92945,8.975249 32.68934,13.820432 36.28865,8.898081 1.26536,-1.730487 3.41279,-2.118895 9.97714,-1.804583 5.20172,0.249068 8.5728,1.030746 8.91498,2.067186 0.30266,0.916666 -0.39972,1.666666 -1.56084,1.666666 -3.28813,0 -2.58094,1.431383 4.01639,8.129437 4.88751,4.96213 6.15517,7.19786 6.26431,11.04815 0.2244,7.91611 -0.52208,8.13317 -27.43965,7.97901 -21.96848,-0.12583 -24.32938,-0.36098 -24.7455,-2.46467 -0.48912,-2.47271 0.31544,-2.51165 -18.20666,0.881 -8.34208,1.528 -57.131112,2.85151 -58.398434,1.58419 z m 46.623904,-4.50552 c 3.05733,-0.70577 11.49631,-2.17502 18.75328,-3.265 15.15132,-2.2757 28.77784,-7.57027 28.11433,-10.92379 -0.2705,-1.36718 -4.32642,-3.477217 -11.09308,-5.771015 -5.86666,-1.988717 -11.77608,-4.094928 -13.13202,-4.680468 -2.23743,-0.96619 -2.29928,-0.798677 -0.66899,1.811827 1.52537,2.44252 1.48809,3.425676 -0.24713,6.517215 -2.49283,4.441271 -6.02764,5.396511 -6.94787,1.877571 -1.08899,-4.164295 -6.56247,-2.104158 -15.934,5.99732 -4.62183,3.99546 -8.60332,7.83153 -8.84776,8.5246 -0.56013,1.58814 2.8724,1.55785 10.00324,-0.0883 z m 77.77454,-1.55402 c 0,-2.31435 -7.77396,-12.64278 -11.21095,-14.894777 -1.84904,-1.21154 -5.17157,-2.2028 -7.3834,-2.2028 -7.80923,0 -6.49124,9.939647 2.06101,15.543307 5.83522,3.82338 16.53334,4.82909 16.53334,1.55427 z m -24.2465,-0.76424 c -0.639,-3.3732 -7.08733,-3.56858 -15.75351,-0.47733 l -7.33333,2.61582 11.76443,0.0974 c 10.51272,0.0871 11.71741,-0.15084 11.32241,-2.23591 z M 139.41495,91.995949 c 4.05352,-2.943894 4.87848,-4.956328 3.26647,-7.968393 -1.84363,-3.444861 -4.13572,-3.418005 -7.13387,0.08359 -1.40279,1.638325 -3.2345,2.449308 -4.46532,1.976996 -4.68163,-1.796511 -7.41259,4.617374 -4.17405,9.803102 1.49339,2.391294 1.78648,2.40739 5.66667,0.311191 2.2505,-1.215793 5.32854,-3.108711 6.8401,-4.206483 z M 147.4,96.102596 c 0.69667,-0.676905 3.06667,-1.426905 5.26667,-1.666667 2.94748,-0.321222 3.89691,-1.049901 3.60821,-2.769262 -0.21548,-1.283334 0.23452,-2.333334 1,-2.333334 0.76548,0 1.39179,-0.9 1.39179,-2 0,-1.1 -1.16459,-2 -2.58797,-2 -1.42339,0 -2.9588,-0.6 -3.41203,-1.333333 -0.45323,-0.733333 -1.67364,-1.333333 -2.71203,-1.333333 -1.35229,0 -1.67816,1.049052 -1.1485,3.697305 0.5386,2.693044 -0.0137,4.378893 -2.03334,6.206651 -2.83134,2.56233 -3.61958,4.76271 -1.70613,4.76271 0.58667,0 1.63667,-0.553832 2.33333,-1.230737 z m 690.60002,19.080854 c -6.95821,-1.79114 -20.66265,-6.54564 -26.66667,-9.2515 -9.60568,-4.32904 -12.39037,-4.68723 -17.49942,-2.25089 -4.21318,2.00912 -4.71675,2.00753 -6.74562,-0.0213 -3.06852,-3.06851 -0.47753,-5.857278 6.54403,-7.043563 3.01333,-0.5091 7.3288,-2.063352 9.58991,-3.453894 2.2611,-1.39054 6.5111,-3.174556 9.44444,-3.96448 2.93333,-0.789922 6.53333,-2.477517 8,-3.750209 7.87082,-6.829873 29.8436,-8.041859 44.92541,-2.478019 4.90897,1.810974 10.30897,4.164018 12,5.228986 10.62131,6.689064 29.60708,12.035099 40.40792,11.378108 3.22334,-0.19607 4.08274,0.339185 4.42607,2.756691 0.39771,2.80033 -0.0904,3.01144 -7.33333,3.17193 -11.59248,0.25686 -13.87024,0.60247 -20.42607,3.09928 -12.72783,4.84743 -19.92359,6.16322 -36.66667,6.70473 -9.53333,0.30834 -18.53333,0.25171 -20,-0.12584 z m 36.11096,-4.61217 c 4.33897,-0.78579 8.80874,-1.9095 9.9328,-2.49712 1.12408,-0.58763 3.9672,-1.49087 6.31806,-2.0072 5.66348,-1.24391 6.47248,-2.90366 1.9623,-4.02586 -2.0116,-0.50052 -8.96844,-3.564521 -15.45965,-6.808899 -13.61862,-6.806732 -15.53114,-7.135252 -15.53114,-2.667834 0,1.777068 -1.55333,5.077068 -3.45185,7.333333 -2.97797,3.53912 -4.33677,4.1023 -9.89771,4.1023 -8.15237,0 -14.65044,-4.783675 -14.65044,-10.785192 0,-3.468688 -0.4487,-3.881475 -4.21928,-3.881475 -5.14017,0 -24.24953,8.829428 -23.10774,10.676877 0.44976,0.72772 1.71212,1.32312 2.80526,1.32312 1.09314,0 3.90772,1.02801 6.25464,2.28447 7.9236,4.24202 13.56279,5.95743 22.93379,6.97633 14.33669,1.55881 27.42311,1.55053 36.11096,-0.0228 z M 853.89226,97.983099 c 5.32143,-4.93174 4.40448,-10.246923 -2.04263,-11.840227 -2.64937,-0.654753 -6.39937,-0.793323 -8.33333,-0.307931 -5.30107,1.330483 -4.87847,7.564884 0.81705,12.053636 2.38334,1.878352 4.69572,3.421843 5.13864,3.429973 0.44291,0.008 2.43203,-1.492822 4.42027,-3.335451 z m -183.3082,-15.69217 c -1.14546,-0.893345 -2.46156,-2.635013 -2.92468,-3.870376 -1.04071,-2.775988 -5.36127,-5.218772 -7.06454,-3.994186 -0.69382,0.498832 -1.922,2.106966 -2.72929,3.573633 -0.88007,1.598891 -3.15475,2.834387 -5.68077,3.085531 -3.37211,0.335261 -4.92438,-0.426576 -7.77722,-3.816978 l -3.56421,-4.235841 -3.55329,4.353664 c -4.79256,5.872096 -7.48362,4.208979 -3.92698,-2.426943 1.45032,-2.705968 2.63694,-5.643417 2.63694,-6.527665 0,-3.818771 3.0814,-2.817355 9.33762,3.0346 3.68691,3.448673 6.86918,6.029561 7.07171,5.735307 0.20255,-0.294255 2.00181,-3.085008 3.99837,-6.201675 1.99658,-3.116667 4.15262,-5.666667 4.7912,-5.666667 0.63859,0 2.2321,1.634598 3.54114,3.632439 6.52146,9.953016 9.00854,10.170377 12.5681,1.098403 2.49812,-6.366736 5.16886,-6.008132 11.93472,1.602492 L 694.87324,78 699.1033,72.999941 c 2.32653,-2.750033 5.28576,-5.000033 6.57605,-5 1.29031,3.2e-5 3.99031,2.377288 6,5.282791 2.00971,2.905501 4.04891,5.305501 4.53157,5.333333 0.48266,0.02783 2.58266,-2.648325 4.66667,-5.947014 2.084,-3.298688 4.60757,-5.998688 5.60793,-6 1.00036,-0.0013 4.0286,2.4877 6.72942,5.531136 l 4.91057,5.53352 4.38263,-5.53352 c 2.41044,-3.043436 5.21057,-5.53352 6.22252,-5.53352 2.74213,0 8.884,9.585358 7.21273,11.256622 -0.91816,0.918159 -2.35922,0.09621 -4.46796,-2.54839 l -3.11269,-3.903678 -3.5147,3.79242 c -1.93308,2.085831 -3.51469,4.304806 -3.51469,4.931056 0,2.513272 -4.12839,0.884422 -8.9258,-3.52166 -2.79081,-2.563164 -5.42281,-4.663164 -5.84889,-4.666666 -0.42608,-0.0035 -1.54212,1.427586 -2.4801,3.180201 -0.93797,1.752613 -3.08474,3.924775 -4.77061,4.827024 -2.71765,1.454439 -3.68955,1.138727 -8.57121,-2.784287 l -5.50599,-4.424737 -3.01736,3.26438 c -1.65955,1.795409 -3.41763,4.314381 -3.90685,5.597715 -1.35735,3.560613 -2.7394,2.902862 -9.1051,-4.333334 -3.22557,-3.666666 -6.26398,-6.666666 -6.75202,-6.666666 -0.48803,0 -2.73326,3 -4.98938,6.666666 -2.25612,3.666667 -4.25758,6.647584 -4.4477,6.624263 -0.19011,-0.02332 -1.28284,-0.773323 -2.42828,-1.666667 z m 339.35894,-0.77497 c -2.2314,-1.36074 -5.0953,-4.058498 -6.3641,-5.995016 C 1002.31,73.584424 1000.7673,72 1000.1506,72 c -0.61667,0 -2.78444,2.4 -4.81724,5.333333 -2.0328,2.933334 -4.32952,5.333334 -5.10383,5.333334 -0.77429,0 -3.5902,-2.340399 -6.25757,-5.200884 l -4.84975,-5.200886 -3.61793,4.534219 c -4.58414,5.745116 -8.55978,5.847736 -13.46056,0.347447 l -3.73043,-4.186771 -4.43991,5.186771 c -4.09273,4.781196 -4.44381,4.94221 -4.48996,2.05916 -0.0276,-1.720186 0.80287,-4.720186 1.84535,-6.666667 1.04248,-1.946481 2.22365,-4.589056 2.62483,-5.872389 1.15226,-3.686064 2.74241,-2.832256 9.09393,4.882881 3.26744,3.968917 6.50748,6.818917 7.20011,6.333333 0.69262,-0.485585 2.38388,-3.432881 3.75834,-6.549548 1.37448,-3.116666 3.07639,-5.666666 3.78204,-5.666666 0.70567,0 3.50456,2.503376 6.2198,5.563057 5.61438,6.326611 7.19388,6.069353 10.29315,-1.676463 1.14873,-2.87096 2.976,-5.219928 4.06061,-5.219928 1.08462,0 4.51192,2.805448 7.61632,6.23433 6.336,6.998362 8.7351,7.087368 12.5042,0.463914 1.2565,-2.208094 2.8119,-4.01851 3.4563,-4.023146 0.6445,-0.0047 3.4962,2.091569 6.3372,4.658236 2.841,2.566666 5.6953,4.666666 6.343,4.666666 0.6477,0 2.1431,-2.034722 3.3232,-4.521605 3.3304,-7.018251 6.055,-7.233639 11.5279,-0.911321 2.5867,2.988109 5.4213,5.432926 6.2991,5.432926 0.8779,0 2.5177,-1.782213 3.6441,-3.960474 1.922,-3.716634 5.6566,-6.706192 8.3777,-6.706192 1.5709,0 9.0701,14.350389 8.0384,15.382112 -0.4363,0.436325 -1.6038,-0.20267 -2.5945,-1.419987 -0.9906,-1.217319 -3.2597,-3.676165 -5.0423,-5.464105 l -3.2411,-3.250799 -3.7913,6.091177 c -4.2508,6.829536 -4.9024,6.773368 -11.6593,-1.005065 -2.3889,-2.75 -4.7606,-5 -5.2706,-5 -0.5099,0 -2.3978,2.383861 -4.1952,5.297471 -1.7974,2.913608 -4.2216,5.313608 -5.3871,5.333333 -1.1655,0.01972 -4.0301,-2.064137 -6.3657,-4.630804 -2.3356,-2.566667 -4.8245,-4.666667 -5.5308,-4.666667 -0.7064,0 -2.7993,2.4 -4.6511,5.333334 -1.8517,2.933333 -3.5092,5.33109 -3.6834,5.328349 -0.1741,-0.0028 -2.1423,-1.118317 -4.3736,-2.479057 z M 264.8937,61.666667 c -0.32835,-0.55 -0.28499,-4.175327 0.0964,-8.05628 0.59845,-6.090259 1.21701,-7.327068 4.51833,-9.03424 4.08519,-2.112538 4.81144,-4.38965 2.22495,-6.976147 -2.36009,-2.360099 -3.73333,-1.952353 -3.73333,1.108513 0,3.308146 -3.82235,5.052344 -5.44748,2.485776 -1.9506,-3.080568 -1.39254,-5.019232 2.10442,-7.310534 4.2026,-2.753646 9.25655,-1.606079 12.1107,2.749894 2.86908,4.378759 1.40429,11.113516 -2.76163,12.697396 -4.17049,1.585622 -5.06784,3.405723 -3.17409,6.438098 0.87392,1.399356 1.21308,3.523761 0.75369,4.720902 -0.84251,2.195518 -5.58572,3.029504 -6.69192,1.176622 z m 72.05641,0.172324 C 335.44929,60.338168 335.84426,56 337.48173,56 c 0.97364,0 1.17897,-1.613795 0.5988,-4.706348 -0.8345,-4.448263 -0.62034,-4.81606 3.90537,-6.707019 4.738,-1.979664 4.89647,-2.731248 1.49638,-7.096937 -1.15888,-1.487993 -1.58054,-1.230788 -2.18584,1.333333 C 340.82244,40.830929 339.58728,42 337.9399,42 c -3.54549,0 -4.36415,-5.904744 -1.14501,-8.258629 5.96091,-4.358723 13.88788,0.176826 13.85137,7.925296 -0.0231,4.883765 -0.82085,6.344737 -4.64625,8.508001 -2.51493,1.422195 -2.76577,2.732447 -1.75343,9.158665 0.31528,2.00131 -0.42405,2.76511 -2.96313,3.061214 -1.86079,0.217 -3.81079,-0.033 -4.33334,-0.555556 z m 166.12476,-2.698468 c -0.48304,-1.25875 0.0209,-2.823394 1.18305,-3.673174 1.48107,-1.082982 1.66121,-2.056314 0.67111,-3.625958 -1.85554,-2.941631 -0.31178,-6.301802 3.57397,-7.779158 4.42621,-1.682846 5.24488,-3.45723 2.74736,-5.95474 C 508.34755,35.204681 506.9278,35.46734 506.42608,39 c -0.50249,3.538168 -3.53931,3.945065 -5.55804,0.744715 -1.09053,-1.728868 -0.8428,-2.895944 1.06135,-5 3.29822,-3.644512 8.90418,-3.491543 12.50488,0.34122 4.43053,4.716094 3.74256,9.308161 -2.10092,14.023125 -4.01654,3.240849 -4.67218,4.367763 -3.33334,5.729327 0.91667,0.932221 1.66667,2.774946 1.66667,4.094946 0,3.13397 -6.40167,3.308679 -7.59181,0.20719 z m 66.54497,-5.323159 c 0.0631,-7.023461 0.31805,-7.610527 3.89052,-8.958983 4.16277,-1.571272 5.21089,-6.046672 2.03364,-8.683553 -2.12247,-1.761491 -3.54399,-0.672859 -3.54399,2.714061 0,1.555555 -0.96969,2.444444 -2.66666,2.444444 -3.05318,0 -3.74976,-5.050238 -1.06667,-7.733333 2.46857,-2.468576 8.77104,-1.895624 11.73333,1.066667 2.98044,2.980441 3.55615,9.839565 1,11.914312 -8.87794,7.205969 -9.6042,8.002546 -7.33333,8.043553 1.58876,0.02869 2.33333,1.105805 2.33333,3.375468 0,2.63648 -0.67396,3.333333 -3.22385,3.333333 -3.03629,0 -3.21992,-0.437266 -3.15632,-7.515969 z M 93.888482,20.111111 c -0.30533,-0.305555 -0.555146,-1.655555 -0.555146,-3 0,-2.29362 1.748193,-2.444566 28.333334,-2.446422 C 137.25,14.663603 167.1,14.373299 188,14.019572 c 30.40185,-0.514545 466.79822,-1.259757 473.00002,-0.807719 0.91666,0.06681 1.66666,1.32148 1.66666,2.788147 0,2.642269 -0.90577,2.667131 -99,2.717316 -54.45,0.02785 -147,0.374945 -205.66667,0.771307 -149.3623,1.009118 -263.456472,1.278029 -264.111528,0.622488 z M 668.90478,16.235568 c -2.31127,-0.445193 -3.06876,-3.564813 -1.15307,-4.748773 0.98667,-0.609793 326.71575,-1.223067 497.91499,-0.937463 60.2951,0.100588 70.3333,0.391551 70.3333,2.038645 0,1.056722 -0.6871,2.345982 -1.5269,2.865024 -1.459,0.90169 -560.93088,1.675822 -565.56832,0.782567 z"
       id="path30" />
  </g>
</svg>
