<?xml version="1.0" encoding="UTF-8" standalone="no"?>
<!-- Created with Inkscape (http://www.inkscape.org/) -->

<svg
   version="1.1"
   id="svg2"
   width="496"
   height="197.33333"
   viewBox="0 0 496 197.33333"
   xmlns="http://www.w3.org/2000/svg"
   xmlns:svg="http://www.w3.org/2000/svg">
  <defs
     id="defs6" />
  <g
     id="g8">
    <path
       style="fill:#000000;stroke-width:1.33333"
       d="m 97.720653,188.41949 c -1.886802,-4.91693 -3.333984,-4.86921 140.947677,-4.64711 92.0074,0.14163 140.98264,0.67859 141.85935,1.5553 0.84511,0.8451 0.87177,1.79574 0.0723,2.57732 -0.75722,0.74028 -57.77056,1.42757 -141.75358,1.70884 -111.42684,0.37318 -140.619055,0.12613 -141.12577,-1.19435 z m 381.440987,0.28055 c -0.41507,-1.08164 -0.39076,-7.83164 0.054,-15 1.51444,-24.4086 2.38112,-60.46895 1.5344,-63.84254 -0.63396,-2.52592 -1.57992,-3.25935 -3.79717,-2.94406 -2.43071,0.34564 -3.66027,2.54189 -6.95322,12.41989 -2.20018,6.6 -5.05018,13.48351 -6.33333,15.29668 -1.28315,1.81316 -2.33299,3.83248 -2.33299,4.48735 0,2.47589 -12.04892,19.10214 -17.57333,24.24938 -7.95673,7.41348 -12.75965,10.56447 -22.08699,14.49028 -9.85178,4.14656 -29.56101,9.3661 -30.77662,8.15047 -1.62566,-1.62564 4.20344,-4.67416 8.93749,-4.67416 2.56164,0 7.24696,-1.2 10.41183,-2.66667 3.16485,-1.46666 8.60429,-3.97529 12.08762,-5.57472 3.48334,-1.59944 6.63334,-3.31572 7,-3.81396 C 429.7,168.77974 431.8,167.40716 434,166.22781 c 2.2,-1.17935 5.5,-4.02576 7.33333,-6.32537 5.59971,-7.02391 11.83651,-13.23578 13.2889,-13.23578 0.75777,0 1.37777,-1.24904 1.37777,-2.77565 0,-1.5266 1.99199,-6.1766 4.42664,-10.33333 3.52251,-6.01404 4.84812,-10.41716 6.49023,-21.55768 1.13496,-7.7 1.9347,-16.100002 1.7772,-18.666668 -1.16167,-18.93026 -4.93147,-33.635181 -10.86395,-42.377176 -1.73989,-2.563889 -3.16345,-5.231773 -3.16345,-5.928633 0,-1.58024 -6.93554,-9.027524 -8.40719,-9.027524 -1.21589,0 -9.49935,-6.452454 -16.68897,-12.999999 -2.61706,-2.383334 -5.72104,-4.333334 -6.89774,-4.333334 -1.17669,0 -2.70944,-0.495672 -3.4061,-1.101493 C 418.57,16.959352 415.3,15.685736 412,14.734914 396.91349,10.388075 393.1716,8.9653965 394.2136,7.9724783 c 1.69417,-1.6143856 14.10904,0.7910422 20.24871,3.9232637 2.9873,1.524008 6.50536,2.777395 7.8179,2.785304 3.21984,0.0194 16.85142,9.800079 25.07411,17.990712 7.84236,7.811773 15.31235,19.048185 15.31235,23.032948 0,1.54252 0.59884,3.174681 1.33074,3.627024 2.65051,1.638109 8.1049,15.129239 7.37282,18.23629 -1.03814,4.406001 0.9611,6.718253 5.36538,6.205413 l 3.7796,-0.440101 -0.2644,-37.765741 c -0.24766,-35.374163 -0.11626,-37.7367399 2.07572,-37.3077709 2.10335,0.4116302 2.35444,2.5465799 2.48147,21.0990759 0.0777,11.352606 0.37697,51.299804 0.66497,88.771544 0.43295,56.32977 0.20698,68.51201 -1.30458,70.33333 -2.26331,2.72711 -4.01912,2.80997 -5.00675,0.23627 z m 0.57244,-92.81417 c 0.446,-3.836801 -3.055,-7.764951 -5.09892,-5.721029 -0.68851,0.688503 -1.64768,3.231091 -2.13151,5.650196 -0.84565,4.228313 -0.73062,4.381353 2.975,3.958333 3.01178,-0.343814 3.94231,-1.193897 4.25543,-3.8875 z M 76,186.41662 c -4.197652,-1.76666 -7.431855,-3.02701 -13.333333,-5.19593 -6.265495,-2.30271 -18.55299,-10.80897 -18.616076,-12.88736 -0.02783,-0.91667 -0.92948,-1.66667 -2.003679,-1.66667 -1.074199,0 -2.595309,-1.2 -3.380245,-2.66666 -2.177108,-4.06796 1.82669,-3.48056 4.544057,0.66666 C 44.411971,166.5 46.322871,168 47.457171,168 c 1.134298,0 4.570466,1.66654 7.635929,3.70345 6.241699,4.1474 14.824375,8.28139 17.285469,8.32583 0.891787,0.0161 4.321431,1.28064 7.621431,2.81009 5.251769,2.43401 5.667453,2.91749 3.333333,3.877 C 79.972748,188.09782 79.996949,188.09881 76,186.41662 Z M 26.179809,152.12964 C 15.960157,136.8975 12.262598,127.15112 10.421289,110.59182 8.9805932,97.635316 9.0634215,94.844458 11.161004,85.667468 13.989607,73.292244 18.178355,59.971668 21.538337,52.666666 26.860469,41.095718 49.046021,20.925093 61.772765,16.086394 71.091167,12.543544 69.283261,15.8998 58.902871,21.414166 40.796516,31.032787 32.896651,39.424609 23.319427,59.213539 13.115,80.298424 10.751923,105.65468 17.176959,125.12334 c 3.472553,10.52226 9.03807,20.881 13.754758,25.60084 4.347432,4.35034 6.347484,10.60915 3.390235,10.60915 -1.081925,0 -4.745889,-4.14167 -8.142143,-9.20369 z m 156.153521,8.14761 C 176.65,160.06306 172,159.31306 172,158.61058 c 0,-0.70249 1.08532,-1.27725 2.41183,-1.27725 1.3265,0 3.47349,-0.77631 4.77109,-1.72513 2.2378,-1.63632 2.19291,-2.1683 -0.87196,-10.33334 -5.34757,-14.24637 -5.83221,-16.41151 -4.76213,-21.27486 1.3395,-6.08777 0.42853,-8.47944 -2.89836,-7.60943 -2.95972,0.77398 -3.33994,-0.61094 -1.24327,-4.52859 0.77396,-1.44616 1.02201,-3.84298 0.55124,-5.32627 -0.69425,-2.1874 -1.58983,-2.5357 -4.74053,-1.84369 -2.91807,0.64091 -3.88458,0.36472 -3.88458,-1.1101 0,-1.0798 0.9,-2.30865 2,-2.73076 2.99114,-1.147803 2.44926,-3.32078 -2.12818,-8.534202 -3.37127,-3.839659 -3.97916,-5.461005 -3.31538,-8.842686 0.83422,-4.24994 3.89379,-7.474273 7.09234,-7.474273 0.99317,0 3.35138,1.545617 5.24048,3.434704 2.94048,2.940481 3.33904,4.283465 2.76984,9.333333 -0.6496,5.763234 -0.5768,5.898629 3.17136,5.898629 2.52108,0 3.83621,0.685641 3.83621,2 0,1.1 -0.83003,2 -1.84449,2 -1.01447,0 -2.21407,1.349995 -2.66578,2.999995 -0.60561,2.21221 0.10774,3.81735 2.71636,6.11256 1.94571,1.7119 5.4663,6.8119 7.82352,11.33333 2.35724,4.52143 5.1149,8.22078 6.12814,8.22078 2.51769,0 5.46236,-12.04537 4.51826,-18.48235 -0.41534,-2.83196 -0.23793,-5.83196 0.39427,-6.66667 0.6322,-0.8347 1.9202,-3.461354 2.86223,-5.837 1.63165,-4.114796 1.50736,-4.511234 -2.62447,-8.370942 -4.08575,-3.816656 -4.29075,-4.444157 -3.53541,-10.821812 0.44101,-3.723625 1.44224,-7.541867 2.22496,-8.484981 0.78272,-0.943115 2.25332,-6.129589 3.26801,-11.525499 2.62343,-13.950743 5.63244,-23.946881 7.88713,-26.201574 C 208.22111,29.874125 210.71705,29 212.69925,29 c 6.1063,0 7.91251,6.106597 3.4749,11.748118 -2.1102,2.682677 -2.28083,3.961879 -1.11236,8.339529 1.82945,6.854081 0.63753,9.579019 -4.19002,9.579019 -5.21224,0 -8.16669,3.42582 -4.97018,5.763156 2.10772,1.54121 2.00476,1.836356 -1.24802,3.577184 -8.788,4.703197 -10.6829,14.241473 -3.51002,17.668197 4.58262,2.189269 5.02752,6.122271 1.47928,13.077387 -2.22739,4.36605 -2.67618,6.91074 -2.00646,11.37681 0.55312,3.68845 0.1644,7.80961 -1.08326,11.48452 -1.19274,3.51308 -1.66992,8.18081 -1.2328,12.05889 0.59577,5.28565 0.34996,6.32719 -1.49324,6.32719 -1.21352,0 -2.73946,-1.40204 -3.39098,-3.11566 C 191.739,132.47324 183.44264,124 180.80072,124 c -3.47481,0 -3.88221,3.22394 -1.46023,11.5553 3.05488,10.50839 6.714,17.31544 10.71826,19.93912 2.72157,1.78326 4.67617,1.97642 10.31617,1.01951 9.91003,-1.68139 11.75352,-5.80617 12.14445,-27.17289 0.25994,-14.20753 0.61648,-16.37959 3.2198,-19.61497 1.61012,-2.00103 2.92667,-5.15801 2.92567,-7.01549 -0.004,-7.618002 -4.10053,-25.894789 -6.77308,-30.21906 -1.57444,-2.547481 -2.49784,-4.996548 -2.05203,-5.442368 1.23742,-1.237406 6.16027,3.736515 6.16027,6.224164 0,1.206341 0.53191,2.763349 1.18201,3.460016 1.73528,1.859539 4.15132,17.570856 4.15132,26.995638 0,6.73838 -0.45677,8.42167 -2.59598,9.56653 -2.27878,1.21957 -2.5864,2.81379 -2.51758,13.04691 0.0431,6.41167 -0.35266,15.65224 -0.8795,20.5346 -0.8486,7.86393 -0.6754,9.02408 1.51757,10.16581 1.36467,0.7105 3.67211,0.80774 5.14216,0.21671 4.12173,-1.65711 7.61985,-1.45376 7.0038,0.40713 -0.6002,1.81302 -27.66392,3.32686 -46.67047,2.61059 z m -2.19493,-44.67219 c -1.71132,-1.71131 -3.44673,-0.38867 -2.17979,1.66131 0.49078,0.79409 1.50314,1.06629 2.2497,0.60489 0.91066,-0.56283 0.88766,-1.30862 -0.0699,-2.2662 z M 169.06741,87.783045 c 0.4294,-3.583774 -2.7151,-7.236854 -5.00901,-5.819144 -1.89847,1.173322 -1.75752,6.470316 0.22493,8.452764 2.3263,2.326299 4.32139,1.228007 4.78408,-2.63362 z M 209.97447,53.83505 c 1.47358,-1.47358 1.90278,-3.358583 1.34401,-5.902681 -0.51073,-2.325339 0.009,-5.343895 1.37708,-7.988254 2.36893,-4.581 1.13412,-7.5982 -2.53361,-6.190758 C 207.92367,34.612263 204,46.385062 204,52.242 c 0,4.27589 2.59871,4.968815 5.97447,1.59305 z m -100.0325,63.41125 c -6.98181,-2.02996 -13.838827,-14.76691 -12.030178,-22.346138 0.468139,-1.961756 1.130919,-5.329672 1.472843,-7.484255 1.852025,-11.670274 19.425795,-18.291087 29.156175,-10.98442 2.26922,1.703985 5.20295,3.49555 6.51939,3.981256 3.23915,1.19509 6.27796,8.913521 6.2512,15.877763 -0.0596,15.506504 -15.23779,25.646044 -31.36943,20.955794 z m 20.97942,-6.76101 c 5.0466,-3.5935 6.63417,-6.93331 6.63417,-13.956477 0,-7.874892 -5.80279,-17.311593 -11.32423,-18.415882 -10.17333,-2.034666 -15.93803,0.29047 -21.47891,8.663306 -4.66912,7.055512 -4.14381,13.917463 1.6113,21.047843 5.84437,7.24097 16.50377,8.39609 24.55767,2.66121 z M 115.5237,99.867173 c -2.64125,-3.770924 -0.63607,-8.222083 3.43035,-7.614753 3.91116,0.584141 6.10689,4.433173 4.22955,7.414245 -2.17429,3.452615 -5.32428,3.535065 -7.6599,0.200508 z M 295.33333,110.0593 C 287.81125,108.20229 271.03068,100.34191 264,95.382094 247.50555,83.746015 245.37824,81.291364 250.18864,79.44544 c 1.20376,-0.461924 28.55296,-0.746965 60.77601,-0.633424 51.159,0.180263 58.68634,0.464357 59.36798,2.240653 0.47521,1.238407 -0.63988,3.256058 -2.85036,5.15744 -4.59832,3.955303 -5.93652,3.946469 -5.17558,-0.03416 l 0.60358,-3.157386 -51.389,0.03783 c -28.26396,0.0208 -52.16878,0.540352 -53.12182,1.154547 -1.28025,0.82508 -0.33996,2.323113 3.60055,5.736162 2.93333,2.540694 5.96676,4.641972 6.74096,4.669506 0.7742,0.02753 3.41493,1.531009 5.86832,3.341056 2.45337,1.810045 9.16984,4.859276 14.92548,6.776086 8.52684,2.8397 12.13152,3.36381 19.46501,2.83018 13.79782,-1.00402 28.54774,-4.37723 35.64794,-8.152433 7.79765,-4.146053 12.3226,-4.62014 7.35229,-0.770312 -14.15745,10.965875 -38.57177,15.885265 -56.66667,11.418115 z M 98.344043,14.4679 C 97.574433,13.99191 97.307117,12.658163 97.750005,11.504014 98.476553,9.6106621 112.34179,9.4346128 239.61096,9.7027814 363.97283,9.9648242 380.66667,10.236698 380.66667,12 c 0,1.723012 -5.26278,2.047261 -38,2.341249 -93.11248,0.836171 -243.049761,0.913895 -244.322627,0.126653 z"
       id="path30" />
  </g>
</svg>
