<?xml version="1.0" encoding="UTF-8" standalone="no"?>
<!-- Created with Inkscape (http://www.inkscape.org/) -->

<svg
   version="1.1"
   id="svg2"
   width="212"
   height="62.666668"
   viewBox="0 0 212 62.666668"
   xmlns="http://www.w3.org/2000/svg"
   xmlns:svg="http://www.w3.org/2000/svg">
  <defs
     id="defs6" />
  <g
     id="g8">
    <path
       style="fill:#000000;stroke-width:1.33333"
       d="M 85.666667,56.450293 C 82.998793,55.373783 83.6453,53.454245 89.817613,44.125753 97.093759,33.12899 111.79839,9.2714953 112.38523,7.5109748 c 0.75377,-2.2613047 3.54045,0.4143139 11.15422,10.7096532 4.0481,5.473857 8.20777,10.277714 9.2437,10.675238 2.6447,1.014867 2.34225,3.509527 -0.65222,5.379605 -2.26072,1.411843 -3.28888,0.570772 -9.47992,-7.754912 -3.8193,-5.136177 -7.23212,-9.050557 -7.58406,-8.698621 -0.35193,0.351936 -2.53597,3.666676 -4.85342,7.366088 C 88.584029,59.715925 89.829316,58.129959 85.666667,56.450293 Z M 193.93576,56.31166 c -0.76867,-0.538079 -2.84137,-3.078326 -4.60601,-5.644992 -1.76464,-2.566667 -6.38574,-8.63302 -10.2691,-13.480786 C 175.17729,32.338117 172,27.978774 172,27.498454 172,26.640341 188.04416,6.6666668 188.73345,6.6666668 189.35617,6.6666668 204,28.816965 204,29.758881 c 0,0.499282 -4.8,0.907786 -10.66667,0.907786 -5.86666,0 -10.66666,0.546444 -10.66666,1.21432 0,0.667876 3.60856,5.617876 8.01902,11.000001 7.51372,9.169037 9.14546,12.984944 5.98098,13.986851 -0.73334,0.232181 -1.96224,-0.01809 -2.73091,-0.556179 z m -0.6968,-30.519923 c 0.31477,-0.270539 -0.49985,-2.734355 -1.81027,-5.475146 l -2.38258,-4.983257 -4.58523,5.294074 c -4.07815,4.708598 -4.32031,5.392687 -2.18972,6.185755 2.20349,0.820203 9.62979,0.1286 10.9678,-1.021426 z M 16.870977,52.330582 C 16.530123,51.779069 16.808511,43.847756 17.489629,34.705443 18.170743,25.56313 18.433044,17.314368 18.072521,16.374862 17.710859,15.432383 15.306385,14.666667 12.708513,14.666667 8.3864695,14.666667 8,14.344735 8,10.744444 V 6.8222211 l 32.758125,-0.107779 32.758124,-0.1077789 -0.42479,3.6966688 c -0.383527,3.337567 -0.993564,3.737391 -6.279848,4.115871 l -5.855056,0.419201 0.83805,9.914133 0.838051,9.91413 h -3.959713 -3.959715 l 0.308813,-9.890128 c 0.169848,-5.439571 -0.02436,-10.223308 -0.431585,-10.630527 -0.40722,-0.40722 -2.956663,-0.128453 -5.665428,0.619467 L 44,16.125344 v 13.270662 c 0,13.180923 -0.02201,13.270662 -3.254644,13.270662 -1.790055,0 -3.505295,-0.45 -3.811647,-1 -0.30635,-0.55 -0.188986,-6.241677 0.260811,-12.648169 0.449797,-6.406492 0.615037,-12.256492 0.367201,-13 C 36.794471,13.716744 25.731069,14.373672 24.809319,16.775716 24.364193,17.935695 24,26.635695 24,36.10905 v 17.224284 h -3.254644 c -1.790055,0 -3.533525,-0.451238 -3.874379,-1.002752 z"
       id="path1335" />
  </g>
</svg>
