<?xml version="1.0" encoding="UTF-8" standalone="no"?>
<!-- Created with Inkscape (http://www.inkscape.org/) -->

<svg
   version="1.1"
   id="svg12"
   width="41.333332"
   height="56"
   viewBox="0 0 41.333332 56"
   xmlns="http://www.w3.org/2000/svg"
   xmlns:svg="http://www.w3.org/2000/svg">
  <defs
     id="defs16" />
  <g
     id="g18">
    <path
       style="fill:#000000;stroke-width:1.33333"
       d="M 6.2622667,48.484489 C 5.7513533,47.973576 5.3333332,39.025535 5.3333332,28.599953 5.3333332,6.5202569 4.081576,8.0485727 22.190681,8.0182063 c 8.151841,-0.013669 11.038041,0.4526705 11.582477,1.8714486 0.97021,2.5283271 -1.857046,3.4436781 -10.636531,3.4436781 -10.029288,0 -12.092766,1.310934 -11.400275,7.242626 l 0.555397,4.757374 h 11.285224 c 10.028075,0 11.235766,0.259928 10.841253,2.333334 -0.365459,1.920704 -2.327999,2.451226 -11.097765,3 l -10.653795,0.666666 -0.412915,6.49315 -0.412915,6.49315 13.079582,-0.49315 C 37.275493,43.360649 37.999999,43.481045 37.999999,46 c 0,2.491245 -1.013348,2.691228 -15.4044,3.040045 C 14.12318,49.245403 6.7731803,48.995405 6.2622667,48.484489 Z"
       id="path1196" />
  </g>
</svg>
