<?xml version="1.0" encoding="UTF-8" standalone="no"?>
<!-- Created with Inkscape (http://www.inkscape.org/) -->

<svg
   version="1.1"
   id="svg22"
   width="70.666664"
   height="46.666668"
   viewBox="0 0 70.666664 46.666668"
   xmlns="http://www.w3.org/2000/svg"
   xmlns:svg="http://www.w3.org/2000/svg">
  <defs
     id="defs26" />
  <g
     id="g28">
    <path
       style="fill:#000000;stroke-width:1.33333"
       d="M 5.9827474,41.102504 C 5.5527005,39.981818 7.0267259,32.525294 9.2583595,24.532447 11.489993,16.539602 13.319803,8.9854104 13.324604,7.7453562 13.329405,6.5053019 13.862521,5.163656 14.509306,4.7639207 16.549139,3.503234 33.968405,11.379027 34.431097,13.771184 34.966391,16.538694 32.449195,16.608718 26.205656,14 c -6.989911,-2.920571 -8.872323,-2.588228 -8.872323,1.566427 0,4.575412 -6.328185,23.177414 -8.7327364,25.670296 -1.5890505,1.647424 -1.9410947,1.629374 -2.6178492,-0.134219 z M 39.05506,38.333334 c 0.939078,-4.028841 8.438308,-24.228663 10.255551,-27.624214 2.9731,-5.5552891 6.028291,-3.2460978 11.270371,8.518434 8.986046,20.166927 6.037363,26.463606 -6.932099,14.802944 -3.730582,-3.354116 -7.066931,-5.633116 -7.414107,-5.064444 -0.347176,0.568671 -1.315154,3.583947 -2.151063,6.700614 -0.973749,3.630609 -2.275824,5.666667 -3.623876,5.666667 -1.500273,0 -1.903384,-0.860873 -1.404777,-3.000001 z m 20.944938,-4.985972 c 0,-2.516086 -6.955701,-18.680695 -8.038384,-18.680695 -0.598479,0 -1.800212,2.157587 -2.670517,4.794638 -1.527472,4.628289 -1.406023,4.975236 3.500528,10 5.091157,5.213819 7.208373,6.355216 7.208373,3.886057 z"
       id="path1057" />
  </g>
</svg>
