<?xml version="1.0" encoding="UTF-8" standalone="no"?>
<!-- Created with Inkscape (http://www.inkscape.org/) -->

<svg
   version="1.1"
   id="svg32"
   width="153.33333"
   height="70.666664"
   viewBox="0 0 153.33333 70.666664"
   xmlns="http://www.w3.org/2000/svg"
   xmlns:svg="http://www.w3.org/2000/svg">
  <defs
     id="defs36" />
  <g
     id="g38">
    <path
       style="fill:#000000;stroke-width:1.33333"
       d="M 8.3333332,65.733303 C 7.0684166,65.261088 6.6666665,57.942883 6.6666665,35.373612 V 5.6361166 L 12.333333,4.9119981 C 24.038457,3.4162515 147.79812,3.9280011 148.7549,5.476105 c 0.50604,0.818787 0.2148,1.9245845 -0.6472,2.4573275 -1.17348,0.7252517 -1.12156,1.3385297 0.20667,2.4408535 1.07296,0.890477 1.71355,4.005177 1.62112,7.882305 -0.084,3.525542 -0.25391,15.560074 -0.37748,26.743407 l -0.22468,20.333333 h -11.86067 -11.86065 l 0.48774,-11 c 0.26825,-6.049999 0.13641,-14.149999 -0.29298,-17.999999 l -0.7807,-7 H 78.513034 c -43.322356,0 -46.52868,0.160062 -46.741101,2.333333 -0.12544,1.283334 -0.361658,3.233334 -0.524935,4.333334 -0.163277,1.1 -0.361484,8.299999 -0.440461,15.999999 l -0.143594,14 -10.331471,0.177749 C 14.649162,66.275509 9.2499998,66.07551 8.3333332,65.733303 Z M 144.27718,35.444568 143.8877,10.886076 l -65.246218,0.01231 -65.246226,0.01231 -0.364295,22.877986 c -0.260089,16.333788 -0.809258,22.877986 -1.91985,22.877986 -0.855556,0 -2.0376139,0.482058 -2.6267961,1.071239 -0.5891823,0.589183 2.8108181,0.889183 7.5555551,0.666667 l 8.626796,-0.404573 0.372033,-17.666666 0.372034,-17.666666 H 78.705365 132 V 40.586178 58.50569 l 5,0.523017 c 2.75,0.287659 5.6,0.624567 6.33333,0.748685 0.86043,0.14563 1.1952,-8.484639 0.94385,-24.332824 z"
       id="path918" />
  </g>
</svg>
