<?xml version="1.0" encoding="UTF-8" standalone="no"?>
<!-- Created with Inkscape (http://www.inkscape.org/) -->

<svg
   version="1.1"
   id="svg42"
   width="405.33334"
   height="57.333332"
   viewBox="0 0 405.33334 57.333332"
   xmlns="http://www.w3.org/2000/svg"
   xmlns:svg="http://www.w3.org/2000/svg">
  <defs
     id="defs46" />
  <g
     id="g48">
    <path
       style="fill:#000000;stroke-width:1.33333"
       d="M 7.3822873,50.745875 C 6.5823912,49.451615 16.62541,19.620142 20.426414,12 c 0.914485,-1.833334 2.979545,-3.5233467 4.589021,-3.7555851 3.174024,-0.457994 3.824537,0.6804762 15.005306,26.2609461 5.708997,13.06161 5.947216,16.161304 1.242038,16.161304 -2.166032,0 -3.641757,-1.857223 -6.356696,-7.999999 -2.919409,-6.605406 -4.120085,-8.024629 -6.887599,-8.141284 -4.529348,-0.190917 -11.243617,0.291371 -11.821268,0.849125 -0.258197,0.249306 -1.158197,3.935812 -2,8.192237 -1.056661,5.34282 -2.214505,7.869297 -3.739567,8.159929 C 9.2426891,51.958209 7.8587764,51.516849 7.3822873,50.745875 Z M 29.333334,29.711243 c 0,-0.525482 -0.981515,-3.525482 -2.181144,-6.666666 -3.15774,-8.268425 -5.047252,-7.672849 -6.607211,2.082598 l -0.8858,5.539491 h 4.837077 c 2.660392,0 4.837078,-0.42994 4.837078,-0.955423 z m 57.012983,20.661038 c -0.298414,-0.895245 2.201586,-5.154237 5.555557,-9.464425 3.35397,-4.310189 6.650096,-8.606435 7.324724,-9.547214 1.238162,-1.726641 0.912912,-2.282767 -7.707803,-13.17877 -4.226798,-5.342392 -3.920415,-8.8499381 0.772693,-8.8459614 2.153892,0.00183 4.367718,1.9479104 7.583856,6.6666664 2.498106,3.665249 4.980556,6.664089 5.516566,6.664089 0.53601,0 3.59211,-3.271612 6.79133,-7.270248 6.01692,-7.5204162 8.6529,-8.9101823 10.04067,-5.293723 0.52971,1.380397 -1.31673,4.258721 -5.37518,8.379133 -3.40013,3.452039 -6.18206,7.230129 -6.18206,8.395753 0,1.165624 3.33259,5.854221 7.40576,10.419105 7.87149,8.821746 8.7363,12.450985 3.12284,13.105267 -2.89258,0.337146 -4.48263,-1.006459 -9.86182,-8.333333 -3.52727,-4.804408 -6.93512,-8.735287 -7.573,-8.735287 -0.63788,0 -1.74734,1.545396 -2.46547,3.434214 -3.926906,10.328548 -13.221165,18.787225 -14.948663,13.604734 z m 46.702003,0.106014 c -0.45673,-1.370181 2.39443,-10.304491 10.76214,-33.723923 2.88588,-8.0769646 4.75369,-10.3407927 8.04664,-9.7526974 2.17268,0.3880266 2.61569,1.130926 8.5463,14.3316624 11.30814,25.170337 12.32772,30.029715 6.10442,29.093515 -2.00566,-0.301718 -3.60148,-2.378018 -5.44372,-7.082713 -3.6206,-9.246265 -4.52418,-10.010806 -11.83135,-10.010806 -6.30688,0 -6.4696,0.103906 -7.82931,4.999999 -0.7637,2.75 -1.39192,6.23 -1.396,7.733334 -0.012,4.619903 -5.68998,8.219015 -6.95912,4.411625 z M 153.08168,22.666666 C 151.55788,19 149.88611,16 149.36662,16 c -0.95398,0 -4.03328,9.025291 -4.03328,11.821359 0,0.87154 2.22776,1.511974 5.25944,1.511974 h 5.25944 z m 29.58499,28.030215 c -1.64003,-1.035086 -2,-5.051145 -2,-22.312915 V 7.3333332 l 16.16381,-0.3869264 c 15.09322,-0.3612987 16.20898,-0.2141991 16.84578,2.2208958 1.15094,4.4012584 -1.64466,5.4993634 -14.00051,5.4993634 h -11.79092 l 0.29921,17.069691 c 0.34567,19.719522 -0.37745,22.20454 -5.51737,18.960524 z m 136.56972,-0.46874 c -0.37396,-0.974521 1.18359,-7.124521 3.46122,-13.666666 2.27764,-6.542145 5.43158,-15.665794 7.00878,-20.274775 2.1473,-6.274922 3.61384,-8.5672504 5.83818,-9.1255243 4.08409,-1.0250393 5.22452,-0.04268 7.55412,6.5070453 1.10822,3.115812 4.25126,10.765112 6.98452,16.998445 5.8648,13.375005 6.58994,19.141824 2.48081,19.729171 -2.72753,0.389867 -3.71624,-1.211727 -8.68113,-14.062505 -0.98331,-2.545138 -2.14943,-2.999999 -7.69104,-2.999999 -7.64296,0 -9.07834,1.307937 -10.31539,9.399485 -1.24109,8.11799 -4.84155,12.182197 -6.64007,7.495323 z m 21.0502,-22.573263 c -0.81536,-4.761635 -4.52316,-11.948872 -5.58721,-10.83034 -1.58328,1.664322 -4.06881,11.371684 -3.25064,12.695512 0.37515,0.607003 2.60265,0.935083 4.95001,0.729065 3.13318,-0.274984 4.16687,-0.964734 3.88784,-2.594237 z M 54.278466,49.83402 C 53.758644,49.314198 53.333334,40.045191 53.333334,29.236227 V 9.5835675 l 6.485439,-0.8919757 c 8.988853,-1.2362834 17.269162,1.1560264 18.906428,5.4623612 3.749091,9.860858 -0.1086,15.299093 -11.524156,16.24576 l -7.424296,0.615681 0.442809,9.492302 c 0.406247,8.708536 0.218274,9.52447 -2.276574,9.88188 -1.495662,0.214267 -3.144695,-0.03573 -3.664518,-0.555556 z M 71.000001,25.644958 c 2.739434,-2.416484 3.076131,-9.452776 0.613488,-12.820641 -1.256708,-1.71865 -3.141739,-2.236093 -7,-1.921506 -5.179807,0.42234 -5.282076,0.531881 -5.381287,5.763855 -0.05563,2.933334 0.175356,7.013221 0.513284,9.066417 0.559892,3.40181 0.982986,3.654862 4.767799,2.851608 2.28436,-0.484812 5.203383,-1.807692 6.486716,-2.939733 z M 227.80699,49.591643 c -4.27281,-0.494799 -4.80796,-2.943663 -4.90608,-22.45045 -0.0428,-8.508608 0.51933,-14.28156 1.51552,-15.563883 2.3204,-2.9868805 26.91691,-3.8190208 26.91691,-0.910644 0,1.517423 -1.93031,2.082811 -8,2.343201 -13.183,0.565553 -14.12718,1.008915 -13.75996,6.461389 0.39624,5.883597 2.27625,6.832801 12.41749,6.269467 9.38104,-0.521106 11.58291,0.08127 10.51067,2.875471 -0.61584,1.604847 -3.06848,2.050472 -11.28546,2.050472 -9.94434,0 -10.54064,0.167473 -11.29478,3.172228 -0.4379,1.744725 -0.59934,4.894725 -0.35874,7 L 230,44.666666 243,44.210098 c 12.31248,-0.432422 13,-0.31386 13,2.24184 0,2.48389 -0.98046,2.732181 -12.33333,3.123234 -6.78333,0.233655 -13.92019,0.241067 -15.85968,0.01647 z m 56.52635,0.191981 c -1.21151,-0.48885 -1.66667,-5.33342 -1.66667,-17.739227 0,-19.270898 0.2048,-18.935676 -10.89589,-17.834527 -6.53139,0.64789 -9.88194,-0.926374 -8.67358,-4.075304 0.66804,-1.7409054 3.22431,-2.1620098 13.86096,-2.2833747 36.07437,-0.4116116 34.77199,-0.5457572 33.24841,3.4246377 -0.60931,1.587849 -2.95634,2.057504 -10.28203,2.057504 h -9.4925 l 0.44248,17.387016 c 0.36424,14.312745 0.0903,17.609666 -1.54936,18.646249 -2.18066,1.378617 -2.53532,1.408246 -4.99182,0.417026 z m 100.33333,-2.575252 c -5.13333,-0.970752 -11.70388,-2.099398 -14.60121,-2.508104 -4.6934,-0.662062 -7.31796,-2.394488 -7.37837,-4.870342 -0.036,-1.47463 3.14706,-3.393144 9.6898,-5.840325 10.08026,-3.77033 9.53236,-4.932354 -4.04355,-8.575835 -4.74327,-1.272991 -5.66667,-2.062083 -5.66667,-4.842468 0,-1.826912 0.75,-3.55356 1.66667,-3.836996 11.35451,-3.510847 34.49428,-9.0178022 35.14745,-8.3646227 2.42054,2.4205327 -1.69832,4.8837067 -12.7206,7.6072127 -6.669,1.64785 -12.42256,3.476822 -12.78569,4.064384 -0.36313,0.58756 3.39405,2.392895 8.34929,4.011855 4.95526,1.61896 9.56712,3.456876 10.24859,4.084258 0.7186,0.661554 -2.92177,3.072264 -8.66667,5.739209 -10.75946,4.994853 -10.68045,5.20863 2.76096,7.470206 12.21218,2.054751 13.33334,2.509639 13.33334,5.409712 0,3.003979 -1.58996,3.050834 -15.33334,0.451856 z"
       id="path779" />
  </g>
</svg>
