<?xml version="1.0" encoding="UTF-8" standalone="no"?>
<!-- Created with Inkscape (http://www.inkscape.org/) -->

<svg
   version="1.1"
   id="svg52"
   width="402.66666"
   height="58.666668"
   viewBox="0 0 402.66666 58.666668"
   xmlns="http://www.w3.org/2000/svg"
   xmlns:svg="http://www.w3.org/2000/svg">
  <defs
     id="defs56" />
  <g
     id="g58">
    <path
       style="fill:#000000;stroke-width:1.33333"
       d="M 7.5309077,52.319684 C 6.9837318,51.434335 6.1666083,19.29053 6.5313672,13 c 0.090685,-1.56392 1.2344609,-2.333333 3.4686326,-2.333333 3.1515152,0 3.3333332,0.4 3.3333332,7.333333 0,5.557687 0.473809,7.333334 1.956807,7.333334 1.076244,0 4.44833,-3.3 7.493526,-7.333334 3.989167,-5.283611 6.423638,-7.333333 8.70986,-7.333333 5.0146,0 3.787787,3.322988 -3.493526,9.462681 -3.666667,3.091779 -6.666667,6.305726 -6.666667,7.142105 0,0.836377 2.408615,3.872637 5.352477,6.747241 2.943863,2.874606 6.970712,7.561668 8.948555,10.415696 3.372278,4.8662 3.45021,5.295804 1.252221,6.903013 -3.400244,2.48632 -7.350308,0.93413 -9.772688,-3.840207 -2.61093,-5.145958 -10.895788,-15.497195 -12.403544,-15.497195 -0.611112,0 -0.820894,3.928218 -0.466184,8.729376 0.423722,5.735255 0.09347,9.393853 -0.96288,10.666667 -1.731099,2.085845 -4.7340011,2.568179 -5.7503823,0.92364 z M 46.740223,50.426069 c 0.04046,-1.701004 3.22925,-11.792735 7.086207,-22.426068 6.395612,-17.632208 7.296608,-19.3333341 10.239834,-19.3333341 2.430511,0 3.94299,1.3669621 6.126782,5.5373201 3.990966,7.621492 15.140286,34.188395 15.140286,36.076685 0,2.289035 -5.179772,3.506627 -7.329113,1.722831 -1.027298,-0.852581 -2.565376,-3.752153 -3.417951,-6.443491 -2.879637,-9.090203 -4.720365,-10.893345 -11.120413,-10.893345 -7.053619,0 -8.196796,1.26125 -9.668104,10.666667 -0.963976,6.162273 -1.624955,7.401373 -4.139126,7.759402 -2.378608,0.338724 -2.97688,-0.207943 -2.918402,-2.666667 z M 67.779779,30.000001 c 0.642983,-2.007634 -2.698823,-11.333334 -4.061228,-11.333334 -1.385089,0 -5.051885,8.260136 -5.051885,11.380306 0,1.604725 1.07505,2.027882 4.343044,1.70949 2.388674,-0.232721 4.535206,-1.023129 4.770069,-1.756462 z m 78.305581,22.138123 c -0.45811,-0.741239 0.95401,-6.025551 3.13804,-11.742915 2.18402,-5.717364 5.45237,-14.84346 7.263,-20.280211 3.3564,-10.078253 5.76744,-12.8859213 9.87384,-11.4981602 3.15365,1.0657799 19.87582,40.3471002 17.98205,42.2408672 -3.15489,3.154899 -7.29755,0.580447 -9.94487,-6.180235 -3.62156,-9.24874 -4.52308,-10.010803 -11.84262,-10.010803 -6.33496,0 -6.47567,0.09071 -7.75595,5.000001 -0.71716,2.75 -1.49028,6.8 -1.71805,9 -0.302,2.916984 -1.19234,4.110896 -3.28832,4.409581 -1.5808,0.22527 -3.249,-0.196888 -3.70712,-0.938125 z M 166.79768,24.30999 c -1.20143,-3.358062 -2.84507,-6.325784 -3.65254,-6.594942 -0.80746,-0.269157 -2.1779,2.329387 -3.0454,5.774541 -1.78966,7.10739 -0.93328,8.366593 5.08898,7.482713 l 3.79337,-0.556748 z m -55.18091,26.862335 c -0.52256,-0.522556 -0.95011,-8.650101 -0.95011,-18.061214 V 16 h -10 c -9.777772,0 -9.999995,-0.07407 -9.999995,-3.333333 V 9.3333335 L 107,9.1794114 c 8.98333,-0.084657 19.63333,-0.2346572 23.66666,-0.3333333 6.65383,-0.1627868 7.37282,0.098571 7.7594,2.8205889 0.38184,2.68856 -0.17184,3.021528 -5.33333,3.207367 -3.16767,0.114053 -7.06432,0.09841 -8.65923,-0.03476 -1.5949,-0.133174 -3.37296,0.523429 -3.95125,1.459112 -0.57828,0.935681 -1.07336,9.201324 -1.10017,18.368095 l -0.0487,16.666853 -3.38323,0.394547 c -1.86078,0.217 -3.81078,-0.033 -4.33333,-0.555556 z m 83.79963,-0.728113 c -1.03023,-3.130366 -2.14018,-36.743965 -1.28675,-38.967941 1.42521,-3.7140678 7.54061,-2.5688813 10.74001,2.011205 2.67816,3.833914 8.69868,11.067179 17.07335,20.512525 l 3.54657,4 -0.52342,-14.275627 c -0.39883,-10.877124 -0.11018,-14.4342099 1.2125,-14.9417681 3.08558,-1.1840495 3.76023,2.2133561 4.27651,21.5358251 0.45945,17.195863 0.2852,19.07031 -1.84895,19.889259 -2.53204,0.971638 -2.31984,1.177758 -18.49313,-17.962615 -5.07113,-6.001457 -9.72416,-10.911741 -10.34007,-10.911741 -0.6159,0 -0.9668,6.69484 -0.77976,14.877421 0.25047,10.957787 -0.0988,15.026749 -1.32589,15.444212 -0.91628,0.311734 -1.92923,-0.233106 -2.25097,-1.210755 z m 43.59316,-1.328202 c 0.38396,-1.713805 2.35982,-7.616009 4.3908,-13.116009 2.03097,-5.5 4.9926,-13.9 6.5814,-18.666667 2.67838,-8.0356338 3.19681,-8.6970886 7.12014,-9.0844785 2.32728,-0.2297963 4.23143,0.2070436 4.23143,0.9707551 0,0.7637116 2.03839,5.7517274 4.52975,11.0844774 6.12336,13.107035 11.47025,26.435497 11.47025,28.592457 0,0.973568 -1.2,1.770123 -2.66667,1.770123 -1.46666,0 -3.05712,0.15 -3.53434,0.333333 -0.47723,0.183333 -2.18227,-3.189677 -3.789,-7.495579 -3.37052,-9.032771 -5.26224,-10.477109 -12.98432,-9.913583 -5.09712,0.371968 -5.70159,0.803074 -6.64956,4.742495 -0.57352,2.383334 -1.5128,6.283334 -2.08727,8.666667 -0.75799,3.144651 -1.90395,4.456594 -4.17761,4.782676 -2.67386,0.383476 -3.03079,-0.0075 -2.435,-2.666667 z M 260.5828,27.000001 c -0.57179,-2.016667 -0.99086,-5.466667 -0.93126,-7.666667 0.0596,-2.2 -0.17638,-3.283707 -0.5244,-2.408236 -0.34802,0.87547 -1.48894,1.263217 -2.53538,0.861661 -1.1182,-0.429096 -2.22223,0.288919 -2.67786,1.741569 -0.42637,1.35942 -1.3217,3.497953 -1.98961,4.752295 -2.05323,3.855979 -0.0606,6.386044 5.02957,6.386044 4.45611,0 4.62124,-0.166854 3.62894,-3.666666 z m 25.82922,24 C 285.92402,49.815602 285.89118,34.418013 286.34376,19 286.65686,8.3334737 286.76472,8.0000002 289.90162,8.0000002 h 3.23496 l 0.45852,19.6666668 c 0.25218,10.816667 -0.0247,20.716667 -0.61521,22.000001 -1.06223,2.308323 -5.7722,3.264488 -6.56788,1.333333 z m 17.14353,-1.222223 c -0.48889,-0.488888 -0.88889,-1.688888 -0.88889,-2.666666 0,-1.283951 2.22223,-1.777778 8,-1.777778 4.4,0 8,-0.553965 8,-1.231033 0,-0.677068 -1.48313,-2.993629 -3.29584,-5.147913 -6.29233,-7.478017 -7.7732,-16.271295 -3.85677,-22.901277 3.2723,-5.539561 8.55424,-8.0531108 16.9227,-8.0531108 8.72534,0 14.20407,3.6958918 16.48219,11.1186938 1.98525,6.468547 0.81661,11.256996 -4.4174,18.10012 -2.47585,3.237014 -4.50155,6.387014 -4.50155,7 0,0.612986 3.3,1.11452 7.33334,1.11452 6.44444,0 7.33333,0.323232 7.33333,2.666667 0,2.444444 -0.88889,2.666667 -10.66667,2.666667 -5.86666,0 -10.66537,-0.45 -10.66381,-1 10e-4,-0.55 1.91291,-4.6 4.24741,-9 5.84858,-11.023235 6.10728,-20.770716 0.67539,-25.446438 -4.405,-3.791777 -8.43083,-4.054853 -12.62727,-0.825156 -4.48114,3.448824 -5.02672,10.172548 -1.76778,21.786703 4.17744,14.887473 4.35277,14.484891 -6.30838,14.484891 -5.01112,0 -9.51112,-0.4 -10,-0.88889 z m 56.44444,-18.335395 c 0,-10.573355 0.36419,-20.173355 0.80932,-21.333333 1.7947,-4.6768841 6.49502,-1.9694486 15.19068,8.749992 10.66062,13.141685 13.1192,15.807625 14.57814,15.807625 0.62749,0 0.82953,-5.918488 0.44896,-13.152195 -0.39028,-7.418124 -0.15596,-13.4834626 0.53746,-13.9120224 3.1597,-1.9527952 4.10796,2.2329632 4.99859,22.0642174 1.24805,27.78988 1.17741,27.793361 -21.22981,1.046179 l -9.33334,-11.141066 -0.37565,15.547445 c -0.34907,14.44776 -0.56127,15.547443 -3,15.547443 -2.48889,0 -2.62435,-0.99221 -2.62435,-19.224285 z"
       id="path640" />
  </g>
</svg>
