<?xml version="1.0" encoding="UTF-8" standalone="no"?>
<!-- Created with Inkscape (http://www.inkscape.org/) -->

<svg
   version="1.1"
   id="svg62"
   width="76"
   height="57.333332"
   viewBox="0 0 76 57.333332"
   xmlns="http://www.w3.org/2000/svg"
   xmlns:svg="http://www.w3.org/2000/svg">
  <defs
     id="defs66" />
  <g
     id="g68">
    <path
       style="fill:#000000;stroke-width:1.33333"
       d="M 4.8888889,52.444443 C 3.1182555,50.673809 4.0724523,49.502018 7.6216027,49.088562 10.112872,48.798343 12.719411,46.709006 15.972988,42.394296 22.198011,34.139027 34.609645,12.387423 33.645369,11.423147 33.229305,11.007083 30.888889,10.666666 28.444444,10.666666 25.261444,10.666666 24,10.061887 24,8.5358474 24,6.666435 26.195251,6.46197 41.894267,6.8691808 c 16.780661,0.435267 18.108288,0.665314 21.333333,3.6965712 1.891487,1.77783 3.439067,4.546914 3.439067,6.153521 0,3.535155 -4.789559,9.947393 -7.430107,9.947393 -2.543107,0 -2.401971,0.945337 0.736892,4.935756 1.452065,1.846001 3.029364,6.290638 3.505108,9.876972 0.584263,4.404385 1.491481,6.520605 2.795371,6.520605 1.41089,0 1.816925,-1.316913 1.508782,-4.893519 -0.261452,-3.034668 0.206222,-5.102793 1.231176,-5.444444 1.076208,-0.358736 1.707888,0.999515 1.810755,3.893519 0.239285,6.73194 -0.147843,8.294515 -2.505023,10.11111 -3.178036,2.449203 -5.383085,2.057748 -9.046894,-1.606059 -2.643167,-2.643168 -3.276655,-4.630944 -3.293144,-10.333334 -0.02537,-8.775103 -0.805328,-10.018795 -6.64625,-10.597913 l -4.666666,-0.462693 -0.39699,9.120016 c -0.424322,9.74796 0.930716,13.01377 4.962202,11.959513 1.35694,-0.354848 2.870289,0.0071 3.362998,0.804313 0.608784,0.985033 -2.120038,1.513576 -8.516188,1.649491 -5.176612,0.11 -10.112022,0.26 -10.967578,0.333333 C 32.255556,52.606665 31.305556,51.916665 31,50.999999 c -0.348865,-1.046595 0.725925,-1.666667 2.888889,-1.666667 2.905702,0 3.444444,-0.600101 3.444444,-3.83674 0,-5.168148 -2.561664,-6.954389 -9.125456,-6.363154 -6.609109,0.595317 -9.54121,2.765888 -9.54121,7.063154 0,2.488802 0.887478,3.380903 3.978358,3.999079 2.188098,0.437618 3.652687,1.322618 3.254644,1.966666 -0.838173,1.356194 -19.6836591,1.609227 -21.0107801,0.282106 z M 37.171667,27.333333 c -0.135551,-9.035584 -1.335296,-10.753241 -3.958039,-5.666667 -0.850775,1.65 -2.602924,4.2 -3.893665,5.666667 -1.290742,1.466666 -2.756196,4.016666 -3.256567,5.666666 -0.850695,2.80522 -0.515397,3 5.164263,3 h 6.074025 L 37.171671,27.333333 Z M 56.228345,24.460015 C 60.797305,20.325164 58.497976,10.249373 52.650512,8.7817533 45.525751,6.993552 44,8.635285 44,18.08985 v 8.576816 h 4.895012 c 2.692257,0 5.992257,-0.992992 7.333333,-2.206651 z"
       id="path501" />
  </g>
</svg>
