<?xml version="1.0" encoding="UTF-8" standalone="no"?>
<!-- Created with Inkscape (http://www.inkscape.org/) -->

<svg
   version="1.1"
   id="svg72"
   width="293.33334"
   height="57.333332"
   viewBox="0 0 293.33334 57.333332"
   xmlns="http://www.w3.org/2000/svg"
   xmlns:svg="http://www.w3.org/2000/svg">
  <defs
     id="defs76" />
  <g
     id="g78">
    <path
       style="fill:#000000;stroke-width:1.33333"
       d="M 67.781438,50.754412 C 65.09456,50.224219 61.294445,48.740911 59.336736,47.458171 48.550681,40.390875 49.545302,15.610141 60.873107,9.1799203 65.902308,6.3250976 77.668231,6.0677641 83.197677,8.6916581 89.833351,11.840491 93.907225,20.907636 92.82469,30.118319 90.907215,46.433042 82.208187,53.601197 67.781438,50.754412 Z m 11.368368,-4.42108 C 84.048202,41.312407 85.333267,37.785894 85.331263,29.369991 85.328493,17.732797 82.417577,11.904992 75.475627,9.6384952 69.643278,7.7342754 65.844809,9.2782889 62.02688,15.105185 c -4.959563,7.56925 -3.525568,23.517338 2.671845,29.71475 3.535278,3.535277 11.649511,4.385045 14.451081,1.513397 z M 103,51.025811 c -1.2296,-0.428911 -1.66666,-5.633133 -1.66666,-19.845436 0,-16.132918 0.33442,-19.392398 2.0575,-20.053606 1.13163,-0.434247 2.38341,-0.463635 2.78173,-0.06531 0.39833,0.398327 0.90397,9.434536 1.12365,20.080465 0.40021,19.394661 -0.0272,21.372991 -4.29622,19.883885 z m 11.66667,-0.802159 c 0,-2.300494 6.46255,-20.612843 9.96031,-28.223653 1.01107,-2.199999 2.51265,-6.196942 3.33683,-8.882095 2.63675,-8.5904581 6.52333,-7.9049445 11.20195,1.9758 7.10364,15.002141 14.16758,31.671344 14.16758,33.432135 0,1.616452 -3.7962,4.167684 -4.72022,3.172212 -0.18618,-0.200596 -2.30345,-5.164719 -4.70502,-11.031385 -5.2381,-12.795867 -5.84243,-13.600967 -8.53308,-11.367929 -1.13923,0.94548 -4.01466,2.730576 -6.38984,3.966881 -2.81858,1.467099 -5.6014,4.749805 -8.01213,9.451388 -4.35509,8.493622 -6.30638,10.816289 -6.30638,7.506646 z M 132.1518,29.087811 c 5.86712,-3.297508 5.92479,-3.553922 2.62816,-11.684378 -2.32016,-5.722208 -2.46065,-5.82476 -4.01094,-2.928005 -1.58187,2.955741 -5.39308,14.572749 -5.42125,16.524571 -0.0227,1.569399 1.24151,1.214122 6.80403,-1.912188 z m 60.63767,21.777554 c -0.38568,-0.624048 -1.08121,-8.874047 -1.54563,-18.333332 -0.46442,-9.459286 -1.44942,-17.574379 -2.1889,-18.033541 -1.34922,-0.837759 -17.51031,-0.111054 -20.8225,0.936318 -1.21346,0.383716 -1.64724,2.515743 -1.3837,6.801073 0.38953,6.334454 -0.72186,7.978288 -3.99394,5.90735 -2.11492,-1.338564 -3.56816,-11.786124 -2.32718,-16.730551 l 0.85652,-3.4126822 h 17.21808 c 19.52806,0 18.43881,-0.7060952 18.51185,12.0000002 0.0232,4.033333 0.44552,11.995329 0.93852,17.693324 0.63912,7.386892 0.42636,10.926302 -0.74137,12.333334 -1.84199,2.219458 -3.48056,2.523385 -4.52175,0.838707 z m 46.81219,0.291838 c -0.51424,-0.51424 -0.9402,-5.784981 -0.94657,-11.71276 -0.007,-5.927777 -0.39267,-13.950648 -0.85842,-17.828602 l -0.84681,-7.050825 -10.80827,0.384158 -10.80825,0.384159 -0.39594,7.534614 c -0.39281,7.47543 -0.42424,7.527035 -4,6.569812 -3.49714,-0.93618 -3.59633,-1.229216 -3.34324,-9.877943 0.14346,-4.902228 0.60984,-9.47788 1.03644,-10.1681165 0.42659,-0.6902361 8.24446,-1.2738649 17.37306,-1.2969526 14.40104,-0.036423 16.75932,0.2633073 17.82079,2.2649711 1.71253,3.229446 1.86692,22.018935 0.17232,20.971609 -0.73155,-0.452121 -1.3301,-0.22204 -1.3301,0.511294 0,0.733333 0.59431,1.700638 1.3207,2.149566 0.72638,0.448928 1.17638,4.527377 1,9.06322 -0.24163,6.213583 -0.82986,8.344353 -2.38571,8.641882 -1.13576,0.217192 -2.48576,-0.02584 -3,-0.540086 z m 13.37643,0.04311 c -0.86672,-0.866725 1.43088,-7.038541 3.42502,-9.200306 0.76303,-0.827164 0.88587,-0.194453 0.32358,1.666667 -1.60635,5.316824 2.42737,3.147969 14.30361,-7.690776 l 3.69695,-3.373995 -3.14255,-7.724221 c -1.7284,-4.248322 -3.67088,-7.727544 -4.31661,-7.731605 -0.64574,-0.004 -2.18368,2.886413 -3.41767,6.423274 -1.23399,3.536856 -3.22371,8.530652 -4.42159,11.097319 l -2.17796,4.666666 0.79963,-4.26863 c 0.4398,-2.347748 2.51895,-8.733629 4.62033,-14.19085 2.10139,-5.45722 3.50784,-11.1186213 3.12546,-12.5808905 -0.3824,-1.4622691 -0.0553,-3.0541331 0.72668,-3.5374753 2.52718,-1.5618923 6.14449,1.5424021 7.91397,6.7916008 1.52917,4.536367 3.49472,9.763049 6.93937,18.452912 0.58139,1.466667 2.39596,6.058768 4.0324,10.204671 1.63644,4.145902 2.59075,8.540246 2.12068,9.765209 -1.61433,4.20689 -5.45425,1.492756 -8.4225,-5.953203 -1.5966,-4.005112 -3.49972,-7.480958 -4.22916,-7.724105 -0.72944,-0.243147 -5.33584,3.191556 -10.23643,7.632672 -8.84425,8.015008 -10.12461,8.813653 -11.66321,7.275062 z M 6.6666668,29.999999 V 9.3333331 h 3.7860492 c 3.780015,0 6.44597,2.7306939 20.632281,21.1333079 2.063414,2.676681 4.313414,5.066692 5,5.311136 0.722411,0.257199 1.248337,-5.219718 1.248337,-13 0,-10.558205 0.39599,-13.4444439 1.844564,-13.4444439 2.587963,0 3.07936,3.9247669 2.942163,23.4988939 -0.09913,14.142652 -0.470703,17.196836 -2.131193,17.517496 -1.717423,0.331654 -8.773653,-7.487147 -23.670453,-26.228536 -4.515202,-5.680493 -5.726937,-2.61147 -4.985706,12.627545 0.645103,13.2627 0.551203,13.917933 -1.9945344,13.917933 -2.5582179,0 -2.6715078,-0.876405 -2.6715078,-20.666666 z"
       id="path362" />
  </g>
</svg>
