<?xml version="1.0" encoding="UTF-8" standalone="no"?>
<!-- Created with Inkscape (http://www.inkscape.org/) -->

<svg
   version="1.1"
   id="svg82"
   width="282.66666"
   height="58.666668"
   viewBox="0 0 282.66666 58.666668"
   xmlns="http://www.w3.org/2000/svg"
   xmlns:svg="http://www.w3.org/2000/svg">
  <defs
     id="defs86" />
  <g
     id="g88">
    <path
       style="fill:#000000;stroke-width:1.33333"
       d="m 5.8208752,51.347337 c -0.458628,-1.195165 1.6899385,-8.887247 4.7745918,-17.093515 3.084654,-8.206268 6.388961,-17.003278 7.342905,-19.54891 2.104498,-5.615929 5.200141,-7.9013505 8.167329,-6.0296966 2.784702,1.7565456 18.378835,38.8055926 17.403394,41.3475506 -0.417305,1.087479 -2.197173,1.977235 -3.955263,1.977235 -2.69387,0 -3.655216,-1.258003 -6.11347,-8 -1.930132,-5.293567 -3.682092,-8.052031 -5.178655,-8.1538 -1.24394,-0.08459 -3.161708,-0.240068 -4.261708,-0.345507 -1.1,-0.10544 -3.499999,0.154637 -5.333333,0.577948 -2.87832,0.664594 -3.519917,1.84929 -4.700206,8.67884 -1.150749,6.658617 -1.836861,7.976678 -4.3392944,8.336035 C 7.8165818,53.353523 6.328808,52.670989 5.8208752,51.347337 Z M 26.406365,30.855758 c 1.408344,-0.893245 1.31728,-2.159139 -0.478106,-6.646249 -1.219793,-3.048563 -2.657685,-5.542842 -3.195316,-5.542842 -1.402112,0 -4.346267,10.468276 -3.382659,12.027427 0.979596,1.58502 4.678325,1.669763 7.056081,0.161664 z m 27.2603,21.594535 C 52.432152,51.952157 51.999999,46.322017 51.999999,30.736789 V 9.6957976 l 6.186094,-0.8478987 c 10.764805,-1.4754807 29.560024,-1.0040442 30.655782,0.7689325 0.549592,0.8892576 1.255455,6.4980286 1.568586,12.4639376 0.48938,9.323908 0.249597,10.969797 -1.707558,11.720828 -3.598172,1.380748 -4.255458,0.193898 -5.140309,-9.281756 -0.457071,-4.894667 -0.995639,-9.059309 -1.196817,-9.254759 -0.201179,-0.195451 -5.465779,-0.03527 -11.699112,0.355958 l -11.333333,0.711323 0.461195,18.500486 c 0.431105,17.293482 0.300621,18.493618 -2,18.395223 -1.353658,-0.05789 -3.211195,-0.407895 -4.127862,-0.777779 z M 113.97447,51.88528 c -1.45262,-0.56561 -4.26934,-1.377143 -6.25936,-1.803407 -5.72678,-1.226681 -10.381779,-10.384563 -10.381779,-20.424296 0,-13.94149 7.406279,-21.5420027 21.296429,-21.8549415 5.84847,-0.1317627 7.4502,0.4107179 10.88953,3.6881055 10.58939,10.090795 10.37384,28.826139 -0.42441,36.888193 -4.16325,3.108313 -11.67119,4.849366 -15.12041,3.506346 z m 10.01745,-6.092603 c 4.91557,-2.9037 6.79514,-11.593892 4.72967,-21.867698 -1.87353,-9.319099 -2.50786,-10.223211 -8.2934,-11.820676 -5.92932,-1.637165 -8.54389,-0.389229 -12.46,5.947161 -2.41664,3.910212 -2.84296,6.225811 -2.40692,13.073591 0.93559,14.693226 8.37062,20.610228 18.43065,14.667622 z M 144,50.008365 C 144,48.286261 147.60222,39.784004 158.8323,15 c 1.90426,-4.202551 3.33515,-5.6666665 5.53808,-5.6666665 2.5076,0 4.38606,2.9602855 12.0565,19.0000005 9.33088,19.511891 9.85125,22.515128 4.05264,23.389067 -2.12423,0.320154 -3.84818,-2.454803 -9.73296,-15.666667 C 166.81322,27.225081 163.13274,20 162.56769,20 161.70926,20 156.89701,31.530081 150.74236,48.333334 149.29837,52.275639 144,53.591936 144,50.008365 Z m 46.66666,0.714753 c 0,-0.702285 3.85943,-10.152285 8.57652,-21 7.59986,-17.477124 8.9663,-19.7711546 11.99935,-20.1449518 2.62626,-0.323664 3.71733,0.3527562 4.68829,2.9065578 0.696,1.830616 4.63401,10.079302 8.75115,18.330414 7.78312,15.598104 8.68162,21.184863 3.40713,21.184863 -1.85161,0 -3.93039,-2.940016 -7.77997,-11.003228 -2.88928,-6.051776 -5.72163,-12.501776 -6.29411,-14.333334 -1.64331,-5.257392 -4.23814,-8.459807 -5.37037,-6.627823 -0.93095,1.50631 -7.34277,18.675613 -10.31873,27.631052 -1.07622,3.238577 -2.2256,4.333333 -4.54963,4.333333 -1.71029,0 -3.10963,-0.574597 -3.10963,-1.276883 z m 56.66667,-1.0889 c -5.68383,-3.602686 -7.56907,-6.272392 -9.33187,-13.215007 -3.46597,-13.650397 2.05925,-25.563326 13.25444,-28.5778768 16.10812,-4.3374651 27.43216,4.3720128 27.67195,21.2828648 0.11786,8.310977 -1.9938,13.661217 -7.37603,18.688637 -4.75552,4.442027 -18.45817,5.472552 -24.21849,1.821382 z m 18.10714,-5.341537 c 3.54251,-3.165236 4.24674,-4.871133 4.8162,-11.666667 0.91422,-10.909655 -0.809,-16.653462 -6.05874,-20.194933 -5.34038,-3.6026095 -10.48103,-2.9585233 -14.40363,1.804671 -7.26279,8.819149 -5.32424,27.029357 3.381,31.760132 5.12148,2.783221 7.63456,2.434241 12.26517,-1.703203 z"
       id="path223" />
  </g>
</svg>
