<?xml version="1.0" encoding="UTF-8" standalone="no"?>
<!-- Created with Inkscape (http://www.inkscape.org/) -->

<svg
   version="1.1"
   id="svg92"
   width="44"
   height="49.333332"
   viewBox="0 0 44 49.333332"
   xmlns="http://www.w3.org/2000/svg"
   xmlns:svg="http://www.w3.org/2000/svg">
  <defs
     id="defs96" />
  <g
     id="g98">
    <path
       style="fill:#000000;stroke-width:1.33333"
       d="M 4,24.692069 V 4.0508054 L 7.5407883,3.162124 C 10.028017,2.5378694 11.545785,2.9082853 12.641681,4.407012 14.173908,6.5024572 23.72558,17.616273 31.053544,25.830073 l 3.720211,4.169926 -0.386878,-13.333333 C 34.013925,3.813271 34.10542,3.318333 36.928723,2.9166058 39.812027,2.5063409 39.86372,2.7958251 40.262056,21.583271 c 0.389483,18.369885 -0.274188,23.750061 -2.929688,23.750061 -0.68226,0 -6.740651,-6.45 -13.463089,-14.333333 C 17.14684,23.116666 11.126164,16.466666 10.489998,16.222222 9.8538324,15.977777 9.3333333,22.427777 9.3333333,30.555555 c 0,13.888888 -0.160401,14.777777 -2.6666666,14.777777 C 4.1148365,45.333332 4,44.444443 4,24.692069 Z"
       id="path102" />
  </g>
</svg>
