<?xml version="1.0" encoding="UTF-8" standalone="no"?>
<!-- Created with Inkscape (http://www.inkscape.org/) -->

<svg
   version="1.1"
   id="svg2"
   width="232"
   height="121.33333"
   viewBox="0 0 232 121.33333"
   xmlns="http://www.w3.org/2000/svg"
   xmlns:svg="http://www.w3.org/2000/svg">
  <defs
     id="defs6" />
  <g
     id="g8">
    <path
       style="fill:#000000;stroke-width:1.33333"
       d="m 66.933333,114.4 c -3.599188,-3.59919 -1.745532,-5.06667 6.4,-5.06667 4.4,0 8,-0.51908 8,-1.15352 0,-0.63444 -1.215964,-2.69937 -2.702141,-4.58874 C 75.187793,99.213499 72,91.613245 72,87.781156 c 0,-4.444849 6.348233,-12.742618 10.985544,-14.359193 5.091729,-1.774986 13.099779,-1.830456 17.593706,-0.121866 10.30184,3.91675 11.60339,21.4214 2.22392,29.909693 -4.654959,4.21269 -3.518006,5.94303 4.19683,6.38719 6.09826,0.3511 7.05489,0.78948 7.42607,3.40302 0.41165,2.89846 0.0619,3 -10.33334,3 -10.273763,0 -10.758671,-0.13541 -10.743337,-3 0.0088,-1.65 1.56402,-5.7 3.455971,-9 1.896492,-3.30793 3.762416,-9.089543 4.158696,-12.885853 0.64005,-6.131588 0.34115,-7.26348 -2.728699,-10.333333 -7.389758,-7.389759 -16.902028,-2.231543 -16.902028,9.165458 0,3.072659 1.447948,9.843796 3.217663,15.046968 1.769713,5.20318 2.869713,9.80827 2.444444,10.23354 C 85.512516,116.7097 68.543737,116.0104 66.933333,114.4 Z m 56.721187,-0.0438 c -0.90582,-2.36052 0.0407,-39.451001 1.04835,-41.081437 1.34187,-2.171184 4.61871,-1.412925 7.69107,1.779712 1.61666,1.679955 6.82469,7.679955 11.57338,13.333333 4.74868,5.653384 9.16857,10.278876 9.82199,10.278876 0.6534,0 0.9681,-5.85 0.69934,-13 C 154.01368,73.030453 154.08395,72.654742 157,72.240597 l 3,-0.426068 v 21.203844 c 0,11.662117 -0.35865,21.562507 -0.79703,22.000867 -1.73822,1.73824 -4.98784,-1.20956 -16.72193,-15.168861 -6.72565,-8.001079 -12.55831,-14.217559 -12.96147,-13.8144 -0.40315,0.403159 -0.75999,7.148329 -0.79296,14.989271 -0.0507,12.06309 -0.39309,14.32159 -2.22551,14.68095 -1.19106,0.23359 -2.47202,-0.37392 -2.84658,-1.35001 z M 8.3333333,47.839556 C 7.1526269,46.630827 6.6666667,40.40576 6.6666667,26.48985 c 0,-22.830132 -0.7849864,-21.7393656 15.3069103,-21.2694933 9.732298,0.2841763 13.311279,2.020548 15.333978,7.4394003 1.241172,3.325125 -0.825707,9.536704 -3.516935,10.569424 -1.660481,0.637186 -1.392689,1.525449 1.494233,4.956362 4.830959,5.741268 4.36468,13.654301 -1.041528,17.675364 -4.604565,3.424812 -23.116448,4.838494 -25.9099917,1.978649 z M 25.820188,41.236559 c 4.193152,-3.298335 4.484167,-6.932205 0.846479,-10.569893 -2.801188,-2.801188 -11.41565,-3.746561 -12.222223,-1.341299 -0.244444,0.728954 -0.236536,4.328953 0.01757,8 0.435544,6.292164 0.673548,6.674632 4.153523,6.674632 2.030327,0 5.272419,-1.243548 7.204648,-2.76344 z m 0.513145,-20.233998 c 2.141527,-1.707756 2.139302,-6.513184 -0.0044,-9.444833 C 25.40986,10.300822 22.40986,8.9076384 19.662267,8.4617652 l -4.9956,-0.8106785 v 7.2855673 c 0,4.007063 0.296585,7.582153 0.659078,7.944647 1.007867,1.007866 9.125107,-0.377559 11.007588,-1.87874 z m 20.38207,26.389495 c -1.197214,-1.442555 -1.364356,-6.923173 -0.6506,-21.333333 0.939093,-18.959534 1.027682,-19.3920565 3.971872,-19.3920565 1.656245,0 3.281013,0.75 3.610594,1.6666666 0.894907,2.4890029 0.04563,38.0061909 -0.947208,39.6126319 -1.223721,1.980022 -4.102837,1.713546 -5.984658,-0.553909 z m 15.146278,0.06161 c -0.890501,-2.320606 1.152018,-6.017922 12.160835,-22.013219 4.754283,-6.907752 8.644151,-13.094083 8.644151,-13.747402 0,-0.665837 -3.977239,-0.795946 -9.050244,-0.296065 -7.437176,0.73284 -9.367446,0.509584 -10.829927,-1.252598 C 59.232813,5.8624598 62.904045,4.5845191 79.930211,4.17673 100.95632,3.6731391 100.92024,1.4482384 80.3815,31.999999 l -5.826257,8.666667 11.048233,0.392521 c 6.076528,0.215887 11.557183,0.901471 12.179233,1.523521 0.62205,0.622049 0.454304,2.395415 -0.372766,3.940812 -1.406142,2.6274 -2.585432,2.809812 -18.165368,2.809812 -13.106218,0 -16.815516,-0.401096 -17.382894,-1.879657 z m 57.274619,-0.35513 c -1.03795,-2.950069 -11.99892,-28.747646 -14.74269,-34.698175 -2.00912,-4.3572663 -1.48622,-7.0830993 1.35175,-7.0466107 3.42007,0.043973 5.25105,2.6858368 10.23503,14.7677947 2.84626,6.899816 5.6496,12.439991 6.22963,12.311501 0.58003,-0.128494 2.90643,-5.786035 5.16976,-12.572323 4.06142,-12.1775521 7.1683,-16.5126432 9.88634,-13.7946016 1.96267,1.9626673 -12.26703,42.4602866 -15.12035,43.0324196 -1.18461,0.237531 -2.53887,-0.662469 -3.00947,-2 z m 25.32375,0.177147 c -0.43428,-1.131704 -0.35938,-8.181704 0.16644,-15.666667 1.26334,-17.983479 1.27498,-18.407021 0.61168,-22.2756829 -0.48278,-2.8158718 -0.002,-3.3988278 3.09516,-3.7552297 C 151.93892,5.1632343 152,5.2780137 152,12.469053 c 0,11.363476 0.16667,11.530946 11.47599,11.530946 h 9.85734 V 14.62482 c 0,-7.1385831 0.48119,-9.5598265 2.01698,-10.1491675 4.88777,-1.8756122 5.74357,1.5450619 5.4834,21.9175165 -0.13771,10.783757 -0.71704,20.35683 -1.2874,21.273496 -0.57036,0.916667 -2.17638,1.666667 -3.56891,1.666667 -2.23568,0 -2.57745,-1.208956 -2.92132,-10.333333 L 172.66667,28.666666 163,28.274919 c -10.78523,-0.437076 -9.85387,-1.444957 -10.29949,11.145732 -0.13147,3.71469 -0.67828,7.46469 -1.21514,8.333333 -1.40121,2.267221 -6.09438,1.947704 -7.02532,-0.478296 z m 45.45463,-1.140922 c -1.05132,-4.188799 0.0609,-37.2711934 1.32161,-39.3110919 1.57112,-2.5421107 4.97942,-1.6512468 8.32627,2.1763253 1.76339,2.0166666 6.8752,8.2952136 11.35959,13.9523266 4.48438,5.657114 8.64374,9.982631 9.24301,9.612263 0.59927,-0.370368 0.72253,-6.261141 0.27392,-13.090605 -0.83656,-12.7356287 -0.14876,-14.9688419 4.10727,-13.3356532 1.80974,0.6944655 2.12032,3.7873538 2.12032,21.1154362 0,11.165986 -0.33475,20.636535 -0.74387,21.045665 -2.00148,2.001474 -6.24795,-1.749232 -17.0736,-15.080323 -6.49961,-8.003841 -12.28279,-14.552438 -12.85149,-14.552438 -0.56872,0 -0.95086,6.736704 -0.8492,14.970452 0.1625,13.162705 -0.0912,15.024969 -2.10087,15.421925 -1.52796,0.301804 -2.56657,-0.667626 -3.13296,-2.924276 z"
       id="path1371" />
  </g>
</svg>
