<?xml version="1.0" encoding="UTF-8" standalone="no"?>
<!-- Created with Inkscape (http://www.inkscape.org/) -->

<svg
   version="1.1"
   id="svg12"
   width="224"
   height="58.666668"
   viewBox="0 0 224 58.666668"
   xmlns="http://www.w3.org/2000/svg"
   xmlns:svg="http://www.w3.org/2000/svg">
  <defs
     id="defs16" />
  <g
     id="g18">
    <path
       style="fill:#000000;stroke-width:1.33333"
       d="m 189.54344,52.29226 c -3.14687,-1.048958 -1.28461,-3.030299 9.12323,-9.706652 5.86666,-3.763311 10.66666,-7.311663 10.66666,-7.88523 0,-0.573567 -4.03853,-2.057295 -8.9745,-3.297172 -12.50264,-3.140563 -14.31372,-4.863785 -10.0255,-9.53919 6.72332,-7.330362 27.03286,-18.0142952 26.98834,-14.1973492 -0.0133,1.0861461 -13.85983,10.2868882 -17.655,11.7308602 -4.39042,1.670448 -2.32639,3.18554 9.079,6.664398 9.90434,3.021009 11.35785,3.84555 11,6.240022 -0.22679,1.517476 -1.58826,3.420323 -3.0255,4.22855 -1.43724,0.808228 -7.79268,4.80102 -14.12322,8.872873 -6.33054,4.071854 -12.20462,7.171854 -13.05351,6.88889 z M 9.539282,49.488833 C 6.979774,47.866716 5.6029395,12.888281 7.9855909,10.017362 9.219096,8.5310794 12.405347,8.0000002 20.088908,8.0000002 c 8.937041,0 10.906769,0.4291897 13.768236,2.9999998 4.816387,4.327156 5.101272,9.384906 0.80748,14.33569 l -2.668709,3.077048 2.752866,1.928183 c 6.41416,4.492652 5.723804,13.896392 -1.325892,18.060749 -4.129034,2.439082 -20.569615,3.187443 -23.883607,1.087163 z m 18.08369,-5.729211 c 2.048833,-1.70038 2.230435,-6.963165 0.360824,-10.456565 -1.587251,-2.965806 -9.917003,-4.90496 -12.360057,-2.877404 -1.025858,0.851385 -1.58918,4.131888 -1.44626,8.422276 0.182989,5.493204 0.771436,7.220425 2.69498,7.910353 2.557317,0.917246 7.791204,-0.542652 10.750513,-2.99866 z m 0.269264,-21.313053 c 1.730783,-3.083603 1.706744,-3.842547 -0.214585,-6.774867 -2.089272,-3.18863 -9.323568,-5.7932718 -11.814592,-4.253734 -0.658016,0.406676 -1.196392,4.048391 -1.196392,8.0927 v 7.35329 l 5.63822,-0.472385 c 4.420012,-0.370322 6.059353,-1.222688 7.587349,-3.945004 z M 54.810832,48.378153 C 48.2161,45.129573 44.778817,36.697462 45.737861,26.120951 c 0.662986,-7.311507 1.24777,-8.565039 6.112666,-13.102965 5.2541,-4.9009713 9.16033,-6.0261134 18.059554,-5.2018346 4.074266,0.3773735 11.530278,6.7809996 13.564726,11.6501196 4.209237,10.074123 0.525144,23.467191 -7.861923,28.581051 -5.293811,3.227804 -14.619996,3.376126 -20.802052,0.330831 z m 17.643881,-3.116309 c 4.598582,-3.617246 6.36304,-10.70667 5.045754,-20.27335 C 76.218816,15.680626 72.223477,10.663402 66.100915,10.67329 56.263091,10.68918 50.704988,21.595462 53.592447,35.217802 56.057631,46.84795 64.633092,51.414332 72.454713,45.261844 Z m 20.146666,3.715482 C 92.244836,48.048188 93.633315,39.802621 95.686888,30.653843 100.16413,10.707517 101.6798,9.5047809 107.36061,21.3904 c 2.14234,4.482307 4.28648,8.391489 4.76474,8.687069 0.47825,0.295578 2.21204,-3.200932 3.85286,-7.770026 3.59921,-10.02255 4.22075,-10.791912 6.98455,-8.645772 2.2207,1.724409 10.71127,34.041718 9.4709,36.048682 C 131.52877,51.174496 128,48.128557 128,45.883338 c 0,-0.98458 -0.83418,-4.361113 -1.85373,-7.503408 -1.01956,-3.142295 -2.23099,-7.363263 -2.69207,-9.379929 -0.46109,-2.016667 -1.28227,-3.666667 -1.82486,-3.666667 -0.54259,0 -2.39546,3.928565 -4.11749,8.730145 -1.72204,4.801581 -3.74498,8.525479 -4.49542,8.27533 -0.75045,-0.250148 -2.89205,-4.178713 -4.75912,-8.730146 -1.86707,-4.55143 -3.76872,-8.275329 -4.22589,-8.275329 -0.45717,0 -1.58079,3.75 -2.49695,8.333333 -0.91615,4.583334 -2.282723,10.283334 -3.036833,12.666667 -1.372656,4.338219 -4.677452,5.820151 -5.896258,2.643992 z m 56.065291,-1.37404 c -6.12556,-3.468042 -8.86854,-8.296894 -9.7146,-17.102077 -1.34348,-13.98187 6.2254,-22.7385226 20.3373,-23.5288307 9.93646,-0.5564703 15.28883,2.3469056 19.48322,10.5685887 5.24673,10.284442 1.02017,26.406414 -8.16843,31.158026 -5.71204,2.953811 -15.66273,2.456807 -21.93749,-1.095707 z M 168.67672,42.41156 C 171.50312,39.052572 172,37.111644 172,29.429998 c 0,-12.17624 -1.68179,-16.538159 -7.13707,-18.510814 -6.77864,-2.4511887 -9.67336,-1.9255738 -13.33033,2.420488 -6.83965,8.128474 -6.40621,23.424876 0.85377,30.130426 5.62466,5.195098 11.3408,4.823666 16.29035,-1.058538 z"
       id="path1232" />
  </g>
</svg>
