<?xml version="1.0" encoding="UTF-8" standalone="no"?>
<!-- Created with Inkscape (http://www.inkscape.org/) -->

<svg
   version="1.1"
   id="svg22"
   width="381.33334"
   height="61.333332"
   viewBox="0 0 381.33334 61.333332"
   xmlns="http://www.w3.org/2000/svg"
   xmlns:svg="http://www.w3.org/2000/svg">
  <defs
     id="defs26" />
  <g
     id="g28">
    <path
       style="fill:#000000;stroke-width:1.33333"
       d="m 7.0136381,51.733583 c -1.0560927,-1.285732 0.8177374,-6.814239 7.2533939,-21.40025 7.79965,-17.677416 9.010216,-19.666667 11.968227,-19.666667 2.913031,0 4.28366,2.079375 11.937624,18.110516 4.755712,9.960784 8.454115,19.110784 8.218672,20.333333 -0.256938,1.33418 -1.699894,2.222817 -3.609374,2.222817 -2.788844,0 -3.989047,-1.891572 -9.729004,-15.333333 C 29.451939,27.566666 25.970466,20.12539 25.316568,19.463832 24.015671,18.147692 23.89403,18.396894 16.594094,37.333333 11.080859,51.63497 9.22452,54.425207 7.0136381,51.733583 Z m 62.3196969,1.216115 c 0,-0.210999 -2.152692,-5.460999 -4.783759,-11.666667 -2.631068,-6.205668 -6.524828,-15.400422 -8.652802,-20.432789 -2.127972,-5.032366 -3.53987,-9.682367 -3.13755,-10.333333 0.402318,-0.6509669 2.100685,-1.1835759 3.774148,-1.1835759 2.533404,0 3.688448,1.6179209 6.901094,9.6666669 2.12214,5.316666 4.831063,11.698822 6.019829,14.182567 l 2.161389,4.515902 4.021083,-11.182568 c 2.211594,-6.150412 4.420906,-12.47714 4.909581,-14.059393 0.997237,-3.2289038 3.600225,-4.6806792 5.873386,-3.2757887 1.062714,0.6567938 0.29794,4.2806387 -2.576789,12.2099727 -2.248416,6.201786 -5.608618,15.925974 -7.467118,21.609307 -2.038742,6.234521 -4.10565,10.333333 -5.21079,10.333333 -1.007437,0 -1.831702,-0.172636 -1.831702,-0.383634 z M 177.93155,51.26472 c -2.23765,-1.10434 -5.23765,-3.940678 -6.66667,-6.302973 -4.87069,-8.051698 -2.67194,-29.874639 3.3873,-33.619456 1.76386,-1.090127 6.25962,-2.1896025 12.01449,-2.9382426 3.894,-0.5065638 5.31507,0.072012 8.58279,3.4944366 4.2731,4.475395 3.74874,5.766381 -0.58279,1.434848 -3.10932,-3.109315 -10.14901,-3.4792929 -13.78448,-0.724455 -2.45671,1.861612 -5.3008,10.968443 -4.055,12.984188 0.36495,0.59048 3.57904,1.0736 7.14245,1.0736 7.72659,0 10.69703,0.965243 10.69703,3.475985 0,2.08631 -1.05755,2.325256 -8.66667,1.958191 -2.93333,-0.141505 -6.41261,0.541276 -7.73173,1.517291 -2.15196,1.592241 -2.22047,2.317665 -0.66667,7.060277 3.00474,9.171242 11.26018,10.845182 17.93991,3.637638 2.42427,-2.615832 3.12516,-2.879896 3.12516,-1.177413 0,4.278716 -8.46412,10.244828 -14.42013,10.164337 -1.23559,-0.01669 -4.07734,-0.933912 -6.31499,-2.038252 z m 108.08018,0.844468 c -6.17219,-0.599469 -8.08897,-1.306326 -8.43111,-3.109189 -0.37835,-1.993663 0.6275,-2.333333 6.9096,-2.333333 4.04383,0 7.67691,-0.525044 8.07351,-1.166766 0.39661,-0.641721 -1.08727,-3.663149 -3.2975,-6.714284 -2.21024,-3.051134 -4.36357,-7.272378 -4.78521,-9.380541 -1.09119,-5.455974 1.6978,-12.757527 6.37696,-16.694774 3.37209,-2.8374321 5.36527,-3.3769679 12.47536,-3.3769679 7.10507,0 9.1042,0.5403211 12.46635,3.3693769 7.38142,6.211068 7.1354,18.054972 -0.56184,27.04748 -2.51415,2.937209 -4.57118,5.695002 -4.57118,6.128428 0,0.433426 3.64174,0.788048 8.09274,0.788048 7.62982,0 8.06836,0.171604 7.66666,3 -0.39273,2.765308 -1.175,3.019486 -9.99938,3.249089 -13.09082,0.340612 -13.85403,-0.853617 -7.81748,-12.232353 6.55116,-12.348779 6.32841,-21.039829 -0.64483,-25.159021 -9.5826,-5.6605817 -18.5672,5.586948 -14.22591,17.808952 2.61574,7.364039 4.90723,17.621907 4.19426,18.775526 -0.41623,0.67346 -1.47136,1.123609 -2.34475,1.000329 -0.87339,-0.12328 -5.18271,-0.573278 -9.57625,-1 z m 49.61474,-0.49274 c -0.38998,-1.016289 -0.50393,-10.795744 -0.25321,-21.732123 0.45067,-19.658595 0.49103,-19.8887651 3.55549,-20.2754264 2.48818,-0.3139479 5.3326,2.2503504 14.41879,12.9987944 6.22552,7.364442 11.83568,13.390438 12.46701,13.391101 0.63134,6.63e-4 0.93134,-5.848795 0.66667,-12.998794 -0.45425,-12.271515 -0.33179,-13.0000002 2.18545,-13.0000002 2.53826,0 2.68435,1.0112852 3.03386,20.9999992 0.34889,19.953655 0.23952,21 -2.1952,21 -2.60219,0 -3.64772,-1.074523 -18.62278,-19.139072 -4.64792,-5.606844 -8.9318,-10.194261 -9.51972,-10.194261 -0.58792,0 -0.98506,6.736364 -0.88254,14.969697 0.15992,12.844101 -0.12107,15.030627 -1.97918,15.398789 -1.19106,0.236002 -2.48465,-0.402416 -2.87464,-1.418704 z M 94.545198,46.421895 c -0.259804,-12.309494 0.290624,-32.535233 0.945838,-34.755229 0.573863,-1.9443589 2.285151,-2.3299293 10.265484,-2.3129158 10.3828,0.022135 11.72709,0.4903921 14.04388,4.8919278 4.55668,8.656986 -0.34322,15.993247 -11.13373,16.669715 L 102,31.333333 l -0.0587,9.999999 c -0.0579,9.85995 -0.10925,10.00591 -3.666668,10.421896 -3.414306,0.399254 -3.614462,0.113014 -3.729414,-5.333333 z M 112.30369,24.868097 c 5.0606,-6.300467 1.41529,-14.201431 -6.55218,-14.201431 -5.54843,0 -6.338447,1.761546 -5.12951,11.437519 l 0.92386,7.39435 4.22707,-0.88117 c 2.32489,-0.484644 5.26373,-2.171815 6.53076,-3.749268 z m 17.1528,24.12249 c -1.5756,-4.144147 -1.72172,-35.864396 -0.1764,-38.29464 1.61219,-2.535407 19.79513,-3.6414898 23.88451,-1.4529145 6.78959,3.6336735 8.41992,11.6486325 3.39219,16.6763765 -1.91896,1.918954 -1.80043,2.4689 1.33533,6.195537 1.89267,2.249309 3.43303,5.393619 3.42302,6.987353 -0.0628,9.989261 -4.56119,12.8977 -19.94859,12.8977 -9.94775,0 -10.85283,-0.228693 -11.91006,-3.009412 z m 15.77309,-2.487545 c 10.602,-3.695876 6.66009,-15.836376 -5.14192,-15.836376 H 136 v 7.777777 c 0,10.265805 0.8269,10.987791 9.22958,8.058599 z M 148.87,23.210134 c 2.08564,-3.183089 2.0964,-3.734077 0.13606,-6.964893 -2.27638,-3.751678 -7.84255,-6.3103565 -11.05004,-5.079527 C 136.5631,11.700227 136,14.039469 136,19.291486 v 7.37518 h 5.3026 c 4.23519,0 5.7585,-0.695796 7.5674,-3.456532 z m 58.25735,26.733869 c -1.41256,-3.681069 0.75368,-39.713092 2.45059,-40.7618429 3.99554,-2.4693848 5.08834,0.4114756 5.29565,13.9604909 0.11387,7.438208 0.2638,16.824015 0.33333,20.857348 0.12147,7.048531 -0.0163,7.349747 -3.54784,7.755961 -2.48222,0.285518 -3.95242,-0.302326 -4.53173,-1.811957 z m 34.71023,0.459859 c -0.54255,-0.877875 -1.02796,-9.127875 -1.07868,-18.333333 L 240.66667,15.333333 236,15.11486 c -2.56666,-0.12016 -6.61666,-0.27016 -9,-0.333334 -3.31433,-0.08785 -4.33333,-0.705366 -4.33333,-2.626018 0,-3.472865 2.45579,-3.8689447 25.333,-4.0858039 17.19052,-0.1629536 20.15336,0.110968 20.85049,1.9276795 1.19267,3.1080354 0.20211,3.5585574 -9.54432,4.3409064 l -8.8435,0.709872 0.43549,17.032707 c 0.38399,15.01775 0.16161,17.203438 -1.87973,18.475918 -3.03787,1.893661 -5.95404,1.831556 -7.18052,-0.152925 z"
       id="path1093" />
  </g>
</svg>
