<?xml version="1.0" encoding="UTF-8" standalone="no"?>
<!-- Created with Inkscape (http://www.inkscape.org/) -->

<svg
   version="1.1"
   id="svg32"
   width="204"
   height="132"
   viewBox="0 0 204 132"
   xmlns="http://www.w3.org/2000/svg"
   xmlns:svg="http://www.w3.org/2000/svg">
  <defs
     id="defs36" />
  <g
     id="g38">
    <path
       style="fill:#000000;stroke-width:1.33333"
       d="M 26.333333,124.29571 C 8.5410664,123.9357 8,123.83961 8,121.03993 c 0,-2.94718 6.39428,-14.57594 16.929616,-30.788513 3.846005,-5.918525 6.642671,-8.937276 8.029068,-8.666666 2.272676,0.443602 13.551241,17.696554 20.519009,31.388169 4.923895,9.67541 4.145378,12.08734 -3.82339,11.84526 -2.7432,-0.0833 -13.237636,-0.31845 -23.32097,-0.52247 z M 48,114.82993 c 0,-1.37688 -0.860721,-3.21775 -1.912715,-4.09082 -1.051993,-0.87308 -3.078666,-3.79655 -4.503717,-6.4966 -5.326821,-10.092739 -7.622477,-13.559217 -8.984951,-13.567413 -0.77076,-0.0047 -3.952814,4.475971 -7.071232,9.956903 -3.118418,5.48094 -6.237796,10.31635 -6.931952,10.74536 -0.694154,0.42901 -1.2621,1.94461 -1.2621,3.368 0,2.41172 1.044296,2.58797 15.333334,2.58797 C 46.777791,117.33333 48,117.13379 48,114.82993 Z m 19,9.09024 c -2.91946,-1.13623 -3,-1.6865 -3,-20.49696 0,-22.635877 -0.847163,-21.445321 15.587268,-21.905497 9.832441,-0.275314 11.0671,-0.03205 12.390832,2.441367 1.86634,3.487287 0.867973,3.870741 -11.311433,4.34452 l -9.333334,0.363067 -0.41053,4.944829 -0.410532,4.944829 11.077198,0.388504 c 10.335132,0.362478 11.10574,0.589475 11.503266,3.388501 0.382609,2.694 -0.161391,3.01659 -5.333334,3.1626 -3.16767,0.0894 -8.159401,0.23943 -11.092734,0.33333 L 71.333333,106 v 6 6 h 12.637251 c 10.979465,0 12.697764,0.30662 13.098541,2.33737 0.253711,1.28555 -0.333052,2.59936 -1.303916,2.91957 C 91.960223,124.51192 69.831428,125.02213 67,123.92017 Z m 38.84,-0.52299 c -1.30651,-3.40471 0.81566,-4.73051 7.57202,-4.73051 7.48234,0 7.96864,-1.02225 3.37232,-7.08897 C 112.5138,105.941 111.08638,96.279945 113.76993,91.175619 117.60324,83.884367 121.1355,82 130.9697,82 c 7.87654,0 9.39121,0.421508 12.42831,3.458621 7.40952,7.409523 6.65071,19.470749 -1.77865,28.271149 -2.99668,3.12859 -3.25392,3.92961 -1.59595,4.96956 1.08712,0.68189 3.0699,0.89932 4.40615,0.48317 4.10984,-1.27989 8.90377,0.60971 8.90377,3.50957 0,2.41269 -0.92308,2.64126 -10.66666,2.64126 -12.62833,0 -12.78804,-0.31329 -6.33334,-12.42356 5.64572,-10.59245 6.0323,-19.738399 1,-23.659185 -5.00517,-3.89966 -10.6045,-2.875748 -14.29077,2.613259 -3.47462,5.173861 -3.81967,9.905856 -1.24757,17.109176 3.89491,10.90794 4.75939,14.12997 4.08425,15.22237 -0.38681,0.62587 -4.88671,1.13794 -9.99978,1.13794 -6.8973,0 -9.48823,-0.49967 -10.03946,-1.93615 z m 56.99251,-17.71335 c 0.0883,-10.807226 0.45126,-20.407226 0.80665,-21.333333 2.08348,-5.429473 10.42871,1.438968 25.46225,20.956403 1.70578,2.21454 3.62056,4.02643 4.25507,4.02643 0.63451,0 0.83723,-6 0.45048,-13.33333 L 193.1038,82.666667 H 196.55189 200 v 20.708513 c 0,28.6021 -0.24063,28.62648 -21.84028,2.21258 C 173.84756,100.31449 169.70692,96 168.95831,96 c -0.8823,0 -1.10692,4.57331 -0.6385,13 0.81568,14.67399 0.50127,16.33333 -3.09492,16.33333 -2.40672,0 -2.54369,-1.12494 -2.39238,-19.6495 z M 150.27847,52.500688 c -0.51983,-0.519823 -0.94514,-10.145132 -0.94514,-21.389577 V 10.666667 h 3.87356 3.87356 l -0.72541,8 c -0.51609,5.691578 -0.26879,8 0.85707,8 1.83542,0 6.9125,-5.434312 10.89974,-11.666667 2.0893,-3.265729 3.731,-4.333333 6.66356,-4.333333 5.86694,0 4.84374,2.980072 -3.45849,10.072886 l -7.34975,6.279083 5.0021,6.104384 c 2.75114,3.357412 6.69293,7.834104 8.75953,9.948204 4.7694,4.879031 4.45355,9.420793 -0.69644,10.014216 -2.91441,0.335823 -4.15395,-0.456509 -6.25765,-4 -1.44284,-2.430325 -4.9074,-7.718773 -7.69903,-11.752107 L 158,30 157.33333,41.333333 c -0.5961,10.133712 -0.95473,11.37457 -3.3882,11.722911 -1.49684,0.214267 -3.14684,-0.03573 -3.66666,-0.555556 z m 39.48748,-1.296507 c -1.22755,-3.19892 0.84805,-39.672657 2.34308,-41.174213 0.84509,-0.8487789 2.09872,-0.7975973 3.59433,0.146746 1.96537,1.240949 2.3188,3.929069 2.45028,18.636698 0.20108,22.493713 -0.15437,24.519921 -4.30143,24.519921 -1.79808,0 -3.6369,-0.958118 -4.08626,-2.129152 z M 8.4126239,49.818769 C 7.4494987,47.308905 7.7581527,46.811227 16.495299,36.786119 l 6.495298,-7.452786 -6.161965,-7.212656 C 10.188691,14.348544 8.8262352,9.3333333 13.354761,9.3333333 c 2.506328,0 5.241079,2.4370317 11.96976,10.6666667 l 2.725387,3.333333 3.641713,-4.648972 c 6.327255,-8.077308 9.397212,-10.6944914 11.567672,-9.8616082 3.344438,1.2833812 2.432242,4.0218482 -3.371389,10.1211042 -2.994985,3.147546 -5.998497,6.388519 -6.674471,7.202164 -0.811182,0.976392 1.264334,4.602935 6.104664,10.666667 7.143783,8.949383 8.748036,12.831683 6.003304,14.52802 -2.856453,1.765385 -6.8932,-1.171516 -12.052198,-8.768477 C 27.468885,34.030884 24.644677,32.797439 22.685683,37.949984 18.599181,48.698297 10.550851,55.3909 8.4126239,49.818769 Z m 45.7518211,1.113975 c -0.993349,-1.607272 0.316152,-5.666651 8.25802,-25.599411 6.242411,-15.6674047 6.859779,-16.6666663 10.29706,-16.6666663 4.338487,0 4.075459,-0.4256495 12.659035,20.4857463 7.335061,17.869752 7.878919,22.18092 2.798137,22.18092 -2.54923,0 -3.65971,-1.280729 -5.771084,-6.655864 -3.583369,-9.122544 -4.565812,-10.010802 -11.07228,-10.010802 -6.826104,0 -8.171276,1.404989 -9.612701,10.040168 -0.888192,5.320909 -1.667277,6.707196 -3.954233,7.03608 -1.566459,0.225269 -3.187338,-0.139308 -3.601954,-0.810171 z M 74.801028,24.333333 C 73.432761,20.85 71.792785,18.068516 71.156636,18.152256 c -1.351081,0.177853 -4.408573,10.041551 -3.569171,11.514411 0.313452,0.55 2.62448,1 5.135616,1 h 4.565704 z m 25.684982,23.569966 c 0.48035,-2.401756 2.74886,-8.312536 5.04113,-13.135064 2.29228,-4.82253 5.86132,-12.518235 7.93122,-17.101568 4.59982,-10.1853106 8.14506,-11.2199577 11.42174,-3.333334 1.14255,2.75 5.01194,10.937683 8.59863,18.194851 6.91588,13.993289 7.73958,17.385669 4.52127,18.620651 -3.93909,1.511573 -5.75308,-0.848422 -11.9604,-15.560472 -3.46267,-8.206934 -6.8094,-15.462972 -7.43718,-16.124531 -1.04124,-1.097263 -1.83273,0.275771 -5.30502,9.202835 -0.57047,1.466666 -2.78533,7.166069 -4.92191,12.66534 -2.60968,6.716986 -4.68522,10.152842 -6.32377,10.468398 -2.095579,0.403572 -2.316081,-0.145265 -1.56571,-3.897106 z"
       id="path954" />
  </g>
</svg>
