<?xml version="1.0" encoding="UTF-8" standalone="no"?>
<!-- Created with Inkscape (http://www.inkscape.org/) -->

<svg
   version="1.1"
   id="svg42"
   width="122.66667"
   height="53.333332"
   viewBox="0 0 122.66667 53.333332"
   xmlns="http://www.w3.org/2000/svg"
   xmlns:svg="http://www.w3.org/2000/svg">
  <defs
     id="defs46" />
  <g
     id="g48">
    <path
       style="fill:#000000;stroke-width:1.33333"
       d="M 54.013007,48.021043 C 53.516747,47.218076 53.220856,41.634856 53.355471,35.613886 53.852835,13.368158 53.677539,12.064863 50.000001,10.666666 46.717979,9.4188436 45.68826,7.4287349 47.685844,6.19416 48.246391,5.8477232 59.796391,5.3623131 73.352511,5.1154707 97.814405,4.670046 98.003116,4.6885316 98.413452,7.5703725 98.743136,9.8857844 98.067799,10.561121 95.080119,10.903706 l -3.746783,0.429627 -0.370123,18.204798 c -0.309619,15.228884 -0.718672,18.33855 -2.502331,19.023004 -4.649593,1.784217 -5.357728,-1.193696 -4.724402,-19.8675 l 0.611388,-18.026969 -9.173934,0.01821 c -16.00804,0.03177 -15.043394,-1.2014506 -15.47059,19.777817 -0.319173,15.674332 -0.673509,18.22907 -2.579026,18.594573 -1.21496,0.233045 -2.61505,-0.233254 -3.111311,-1.03622 z M 106.66667,28.266666 c 0,-22.1955778 0.77135,-25.3748297 5.53759,-22.8240156 2.23647,1.1969177 2.46241,3.2710299 2.46241,22.6042606 v 21.286421 h -4 -4 z M 10.666667,46.878016 C 8.8333336,46.613911 6.8925211,45.708314 6.3537506,44.865579 4.7561972,42.366714 5.1355161,8.2796363 6.7721325,7.2681518 7.5634718,6.7790772 13.85273,6.0666005 20.748261,5.6848704 31.635145,5.0821827 33.398178,5.2842156 34.140848,7.2195784 c 1.477337,3.8498806 0.16787,4.2534936 -15.050997,4.6391146 -5.993319,0.15186 -8.115198,2.810241 -6.444545,8.074003 0.65402,2.060635 2.261585,2.682395 7.756517,2.999999 6.028012,0.348416 6.987047,0.791678 7.357579,3.400638 0.398337,2.804741 -0.05999,3 -7.041847,3 -8.386705,0 -9.541095,1.192105 -8.180017,8.447271 l 0.830546,4.427194 12.315958,-0.103907 c 11.461703,-0.09669 12.315959,0.08107 12.315959,2.562775 0,2.468214 -0.893035,2.667591 -12,2.679103 -6.6,0.0068 -13.500001,-0.203648 -15.333334,-0.467753 z"
       id="path815" />
  </g>
</svg>
