<?xml version="1.0" encoding="UTF-8" standalone="no"?>
<!-- Created with Inkscape (http://www.inkscape.org/) -->

<svg
   version="1.1"
   id="svg52"
   width="134.66667"
   height="52"
   viewBox="0 0 134.66667 52"
   xmlns="http://www.w3.org/2000/svg"
   xmlns:svg="http://www.w3.org/2000/svg">
  <defs
     id="defs56" />
  <g
     id="g58">
    <path
       style="fill:#000000;stroke-width:1.33333"
       d="M 7.9793521,47.088563 C 7.9679957,46.489853 7.8179957,37 7.6460187,26 L 7.3333335,6 11,5.5781036 c 3.643418,-0.4192215 3.666667,-0.3706095 3.666667,7.6666664 0,4.44871 0.560189,8.088563 1.244865,8.088563 0.684676,0 4.073187,-3.6 7.530023,-8 5.058867,-6.4391297 7.027216,-7.9999997 10.088468,-7.9999997 2.091821,0 3.803311,0.6007158 3.803311,1.3349238 0,0.7342081 -3.425592,4.5746149 -7.612427,8.5342379 l -7.612428,7.199314 7.406227,8.465763 C 40.496198,43.420076 42.036012,48 35.274792,48 c -3.615993,0 -3.926418,-0.314819 -11.61267,-11.777049 -3.114167,-4.644044 -6.260544,-8.244044 -6.991951,-8 -0.731405,0.244044 -1.331405,4.643716 -1.333333,9.777049 -0.0035,9.189661 -0.05995,9.339828 -3.670171,9.755229 -2.0166668,0.232044 -3.6759584,-0.06796 -3.6873149,-0.666666 z M 46.705544,46.431099 c 0.04412,-2.002718 5.033643,-13.919903 12.601407,-30.097766 3.587721,-7.6695913 5.857007,-10.9999997 7.495219,-10.9999997 2.57971,0 6.933689,5.4398877 8.537389,10.6666667 0.56251,1.833333 3.36973,8.428933 6.238264,14.656889 3.361383,7.297991 4.94697,12.393542 4.460114,14.333334 -0.99589,3.967936 -5.556286,3.974496 -6.797208,0.0097 C 78.724293,43.35 76.510865,38.1 74.321999,33.333333 72.133135,28.566667 69.604863,22.566667 68.703616,20 67.80237,17.433333 66.250124,15.333333 65.254182,15.333333 c -1.084935,0 -3.86654,5.61197 -6.939181,14 -2.820608,7.7 -5.609677,14.9 -6.197933,16 -1.377568,2.575964 -5.462351,3.404591 -5.411524,1.097766 z m 50.897293,0.07432 C 95.164921,45.60358 94.971818,44.187788 94.91058,26.766245 94.831692,4.3238241 94.230258,5.0536676 112.33903,5.6167076 122.23769,5.9244779 124.66667,6.3940704 124.66667,8 c 0,1.5770655 -2.24229,2.083378 -10.60349,2.394282 -5.83192,0.216855 -11.30429,0.975896 -12.16082,1.686757 -0.96804,0.803402 -1.22548,2.924612 -0.68034,5.605718 L 102.09903,22 l 11.17825,0.666667 c 6.8855,0.410648 11.37792,1.272045 11.69818,2.243061 0.91306,2.768391 -4.63422,4.536412 -11.69892,3.728667 -10.3289,-1.180959 -11.9432,-0.239336 -11.9432,6.966465 v 6.091827 l 12.33333,-0.636104 c 6.78333,-0.349858 13.08333,-0.381612 14,-0.07056 2.814,0.954853 1.85015,4.33956 -1.61043,5.655269 -3.74391,1.423432 -24.50326,1.321389 -28.453403,-0.139863 z"
       id="path676" />
  </g>
</svg>
