<?xml version="1.0" encoding="UTF-8" standalone="no"?>
<!-- Created with Inkscape (http://www.inkscape.org/) -->

<svg
   version="1.1"
   id="svg62"
   width="112"
   height="52"
   viewBox="0 0 112 52"
   xmlns="http://www.w3.org/2000/svg"
   xmlns:svg="http://www.w3.org/2000/svg">
  <defs
     id="defs66" />
  <g
     id="g68">
    <path
       style="fill:#000000;stroke-width:1.33333"
       d="M 19.437748,46.3832 C 12.949462,45.014149 11.184141,43.574767 7.75883,36.860601 5.6664139,32.759127 5.1747655,29.761187 5.6093232,23.753487 6.2032667,15.542301 8.6580676,10.951829 14.978679,6.2328113 19.848183,2.5972019 31.480375,2.4958503 36.279631,6.0472155 c 5.415053,4.0070445 9.053702,11.4463395 9.053702,18.5104815 0,15.795702 -10.906742,24.9882 -25.895585,21.825503 z M 33.761685,40.152969 C 39.790808,34.151829 39.073501,13.718385 32.668792,9.0204171 30.089647,7.1285673 21.749319,7.9930965 18.921811,10.445381 c -7.270068,6.305296 -7.306603,24.03235 -0.06344,30.780386 3.345212,3.116538 11.267368,2.546272 14.90331,-1.072798 z m 44.903867,-0.486302 c -3.646624,-3.85 -7.004179,-8.2 -7.461233,-9.666667 -0.457054,-1.466667 -3.315002,-4.848239 -6.350996,-7.514603 l -5.51999,-4.847937 -1.4537,13.190525 C 56.480023,43.527713 55.581655,46.692767 53.864092,44.975203 52.624391,43.735501 53.306215,7.4937853 54.593456,6.2065437 57.555693,3.2443069 66.638175,10.821575 78.028831,25.758043 c 2.69474,3.533589 5.290648,6.031257 5.768682,5.55037 0.478035,-0.480886 0.869154,-6.672005 0.869154,-13.758042 0,-10.5632927 0.360209,-12.8837043 2,-12.8837043 1.677578,0 2.059194,3.385418 2.36719,21.0000003 0.429906,24.586712 0.09171,25.043373 -10.368305,14 z m 20.649099,5.636437 C 98.237465,43.560181 98.973133,6.9948376 100.12281,5.1346203 c 0.47487,-0.7683511 1.9915,-1.1803667 3.37029,-0.9155903 2.30802,0.44322 2.53603,2.14606 2.87409,21.464525 l 0.36719,20.983112 h -3.2885 c -1.80868,0 -3.667729,-0.613604 -4.131229,-1.363563 z"
       id="path537" />
  </g>
</svg>
