<?xml version="1.0" encoding="UTF-8" standalone="no"?>
<!-- Created with Inkscape (http://www.inkscape.org/) -->

<svg
   version="1.1"
   id="svg72"
   width="261.33334"
   height="62.666668"
   viewBox="0 0 261.33334 62.666668"
   xmlns="http://www.w3.org/2000/svg"
   xmlns:svg="http://www.w3.org/2000/svg">
  <defs
     id="defs76" />
  <g
     id="g78">
    <path
       style="fill:#000000;stroke-width:1.33333"
       d="m 252.61998,58.591119 c -0.52675,-0.852306 -0.87268,-7.333978 -0.76872,-14.403715 0.20156,-13.706665 -0.68584,-16.735734 -4.67769,-15.967047 -3.17462,0.611316 -6.28008,9.567534 -5.35583,15.446311 0.37471,2.383333 0.16807,4.333333 -0.45917,4.333333 -0.62726,0 -2.13106,0.380125 -3.34178,0.844721 -1.9439,0.745948 -2.17124,-0.384385 -1.94424,-9.666666 0.18536,-7.579666 -0.18782,-10.409403 -1.33804,-10.145731 -0.9659,0.221418 -1.42537,-0.830483 -1.16481,-2.666667 0.59065,-4.162235 5.86884,-4.901814 7.10849,-0.996039 l 0.90723,2.858408 3.22663,-3.031268 c 2.65581,-2.495 3.86177,-2.807901 6.81677,-1.768683 4.58509,1.612491 5.93441,7.537017 5.41697,23.784749 -0.36046,11.318883 -1.94494,15.39242 -4.42581,11.378294 z M 50.048153,29.348961 C 40.754228,7.716154 40.211814,4.4082642 46.145877,5.5510601 c 2.753075,0.530194 3.926403,2.6538737 10.018106,18.1324069 2.384662,6.059242 4.792369,10.559242 5.350457,10 0.55809,-0.55924 1.887466,-4.3168 2.95417,-8.350133 2.370745,-8.964066 7.060094,-20.0073404 8.484009,-19.9795835 0.57606,0.011227 1.876226,0.5453671 2.889256,1.1869727 1.556271,0.9856686 1.520084,2.0679288 -0.23337,6.9795838 -1.141384,3.197164 -4.493317,12.713027 -7.448737,21.14636 -2.955421,8.433334 -6.170724,15.502354 -7.145118,15.708935 -1.144339,0.24261 -5.027301,-7.202397 -10.966497,-21.026641 z M 13.140269,47.074142 C 8.1913467,44.003192 5.287196,37.085027 5.1602152,28.064345 5.0361552,19.251155 8.8441966,9.0691801 13.120263,6.7806989 c 6.109265,-3.26958 20.213071,-0.477514 20.213071,4.0014901 0,0.713704 -1.747892,0.0054 -3.884204,-1.5740715 -3.852047,-2.847942 -3.926368,-2.851032 -8.977512,-0.3732498 -3.63414,1.7826863 -5.435343,3.7184523 -6.287195,6.7568903 -1.924155,6.863205 -0.562733,8.405456 7.440398,8.42866 3.873016,0.0112 7.868716,0.544147 8.879333,1.184261 3.382816,2.14264 0.07261,4.128456 -6.916176,4.149072 -9.294732,0.02741 -10.829687,1.162958 -9.701446,7.176999 1.585531,8.451608 11.233738,11.972787 17.269394,6.302584 3.789011,-3.559592 5.369982,-3.640689 3.518127,-0.180466 -3.313722,6.191744 -14.86018,8.562441 -21.533784,4.421274 z M 84.663778,46.419893 C 84.243682,44.722286 84.072474,34.933334 84.283318,24.666667 L 84.666669,6.0000001 94.930037,6.063366 c 12.681083,0.078293 15.736633,2.1371138 15.736633,10.603301 0,6.563639 -2.66575,9.602287 -9.42082,10.738666 -11.796052,1.984398 -10.907253,0.986822 -10.383849,11.654706 0.444991,9.069685 0.306289,9.630098 -2.481537,10.026521 -2.161331,0.307337 -3.157619,-0.407486 -3.716686,-2.666667 z M 101.66667,22.95259 c 2.70522,-2.356504 3.17503,-10.910891 0.73333,-13.3525898 -0.88,-0.88 -3.879997,-1.6 -6.666664,-1.6 -4.784814,0 -5.078203,0.2410584 -5.274034,4.3333338 -0.245352,5.127124 0.09948,10.408616 0.816252,12.50186 0.672079,1.962717 7.369785,0.749264 10.391116,-1.882604 z m 18.38181,24.439151 c -2.66245,-3.208052 -0.29832,-4.725073 7.36355,-4.725073 5.55968,0 7.25464,-0.467276 7.25464,-2 0,-1.1 -0.45,-2.004101 -1,-2.009111 -1.78974,-0.01631 -6.65894,-8.543596 -7.50307,-13.139915 -0.98938,-5.387188 2.92877,-15.247946 6.90411,-17.3754833 1.45853,-0.7805815 5.86497,-1.7871439 9.79208,-2.2368052 6.12008,-0.7007597 7.80695,-0.3652023 11.80688,2.3486724 9.57981,6.4997051 10.14116,20.0726551 1.2164,29.4115591 -2.17273,2.273552 -3.48527,4.592888 -2.91675,5.15408 0.56852,0.561192 4.03368,1.206345 7.70035,1.433676 4.85333,0.300901 6.66667,0.957325 6.66667,2.413327 0,1.572236 -2.21011,2.083289 -10.33334,2.389418 -9.75298,0.367548 -10.33333,0.231116 -10.33333,-2.42924 0,-1.550262 1.54043,-5.447206 3.42319,-8.659876 2.00138,-3.415124 3.73533,-8.865748 4.17474,-13.123276 0.67827,-6.571678 0.41527,-7.618371 -2.6959,-10.729544 -1.89612,-1.896116 -4.90828,-3.447483 -6.69371,-3.447483 -9.25807,0 -12.51361,10.913476 -7.70011,25.812875 4.21559,13.048684 4.31179,12.853792 -6.34495,12.853792 -6.40197,0 -9.65649,-0.586093 -10.78145,-1.941593 z m 63.50708,1.052704 c -0.48889,-0.488888 -0.88889,-8.888888 -0.88889,-18.666667 V 12 h -4.09273 c -3.48167,0 -4.02912,-0.447913 -3.66667,-2.9999998 0.42521,-2.9939806 0.47824,-3.0000001 26.42607,-3.0000001 21.86413,0 26,0.308581 26,1.9398867 0,1.0669378 -1.5,2.2932962 -3.33333,2.7252402 -2.7546,0.649 -3.48143,1.816907 -4.1863,6.72678 -0.46912,3.267784 -0.62517,10.268284 -0.34677,15.556664 0.55191,10.48405 -0.92485,16.384763 -4.1006,16.384763 -1.71015,0 -2.03589,-2.593826 -2.0512,-16.333333 -0.0263,-23.583246 0.57851,-22.514943 -12.48403,-22.051195 L 190,11.333334 l -0.36994,19 c -0.33672,17.293738 -0.58618,19 -2.77778,19 -1.3243,0 -2.80784,-0.4 -3.29672,-0.888889 z"
       id="path398" />
  </g>
</svg>
