<?xml version="1.0" encoding="UTF-8" standalone="no"?>
<!-- Created with Inkscape (http://www.inkscape.org/) -->

<svg
   version="1.1"
   id="svg82"
   width="533.33331"
   height="62.666668"
   viewBox="0 0 533.33331 62.666668"
   xmlns="http://www.w3.org/2000/svg"
   xmlns:svg="http://www.w3.org/2000/svg">
  <defs
     id="defs86" />
  <g
     id="g88">
    <path
       style="fill:#000000;stroke-width:1.33333"
       d="m 441.33331,52.165908 c 0,-2.270066 2.45935,-8.510244 9.26138,-23.499241 1.33114,-2.933333 3.5419,-8.181084 4.91278,-11.661669 2.69199,-6.834792 5.28074,-7.9572951 8.96431,-3.886996 2.12844,2.3519 15.5282,34.505062 15.5282,37.26042 0,1.591376 -3.79147,3.241171 -5.30251,2.307299 -0.58402,-0.360947 -1.4684,-2.823324 -1.96528,-5.471951 -0.49689,-2.648628 -1.89014,-6.884841 -3.09613,-9.413809 l -2.19268,-4.598124 -4.27447,5.065748 -4.27445,5.065749 -4.06857,-3.872693 -4.06859,-3.872692 -1.38653,3.646868 c -0.76259,2.005777 -2.05422,6.298489 -2.87028,9.539359 -1.47943,5.875322 -5.16718,8.295961 -5.16718,3.391732 z m 23.99338,-23.219025 c 0.008,-2.844202 -4.96362,-12.956643 -6.3538,-12.924128 -1.10326,0.0258 -6.99327,13.143338 -6.98095,15.547139 0.004,0.863441 1.64768,2.859637 3.65169,4.435992 l 3.64366,2.8661 3.01638,-3.769327 c 1.65902,-2.073129 3.01938,-4.843228 3.02302,-6.155776 z M 59.229516,51.543592 c -0.771839,-2.011379 0.483869,-5.747391 6.792852,-20.210258 0.959682,-2.2 3.371634,-7.733177 5.359894,-12.29595 3.839576,-8.811281 7.430393,-11.4628205 10.868022,-8.025191 1.074115,1.074115 5.177966,9.959542 9.119668,19.745396 5.303678,13.167155 6.794574,18.240881 5.735128,19.517435 -2.932456,3.533394 -4.973415,1.550742 -7.878208,-7.653142 -1.627881,-5.157965 -3.418633,-9.661704 -3.979449,-10.008308 -0.560816,-0.346604 -2.319848,1.473551 -3.908959,4.044785 -3.216077,5.203723 -5.657381,5.871461 -8.262862,2.260032 -3.656249,-5.067882 -4.862461,-4.504012 -7.239642,3.384327 -2.772833,9.201259 -5.277336,12.704474 -6.606444,9.240874 z M 81.004915,31.768515 c 1.885985,-3.118657 1.930507,-4.247461 0.355729,-9.019085 -2.711738,-8.216648 -4.947513,-9.397198 -7.269981,-3.838748 -3.629397,8.686371 -3.903866,11.682431 -1.330704,14.525743 3.043476,3.363002 5.503499,2.865353 8.244956,-1.66791 z M 199.21694,52.076289 c -5.84326,-1.396915 -6.76211,-2.158644 -10.69103,-8.862839 -2.99802,-5.115748 -3.42226,-7.135821 -2.92944,-13.949005 0.69288,-9.579063 3.58862,-14.086653 11.71903,-18.242232 14.68646,-7.5064807 29.43862,4.38883 27.71314,22.346314 -0.80417,8.369137 -6.82141,16.214735 -14.11108,18.398773 -5.74301,1.72065 -5.79045,1.721902 -11.70062,0.308989 z m 13.30041,-5.233996 c 4.77332,-4.125352 6.31767,-10.211495 5.33705,-21.032924 -0.6748,-7.446759 -1.46282,-10.236893 -3.04888,-10.79517 -1.17637,-0.414076 -3.16486,-1.632941 -4.41888,-2.70859 -3.64858,-3.129658 -10.82629,-1.062351 -14.91261,4.295106 -3.13541,4.110727 -3.38263,5.308004 -2.67684,12.964139 1.19055,12.914503 2.85949,17.078572 7.68087,19.163888 4.60962,1.993736 8.2007,1.431044 12.03929,-1.886449 z m 74.4136,5.120083 c -2.97864,-1.223715 -3.06262,-1.727254 -2.85067,-17.092273 0.12013,-8.707276 0.52112,-17.415116 0.89115,-19.350757 L 285.64419,12 h 13.1779 c 10.8248,0 13.1779,0.357129 13.1779,2 0,1.59859 -1.99126,2 -9.92131,2 -5.45672,0 -10.27593,-0.573796 -10.70937,-1.275101 -0.90408,-1.462838 -4.70266,-0.351448 -4.70266,1.375907 0,0.63186 0.9,0.803473 2,0.381362 1.59943,-0.613754 2,0.462836 2,5.37518 0,6.862678 -0.8042,6.482073 13.0065,6.155567 6.67953,-0.157913 8.50993,0.246124 9.19429,2.029527 1.30059,3.38928 -1.98352,4.612639 -11.15223,4.154305 -4.55662,-0.22778 -8.94554,-0.0057 -9.75316,0.493367 -0.82284,0.508539 -1.28381,3.487223 -1.04856,6.775366 l 0.41983,5.867854 12.15107,-0.436577 c 10.00341,-0.359413 12.29081,-0.07239 12.94176,1.623967 0.43489,1.1333 0.36692,2.30167 -0.15106,2.596381 -2.26137,1.286652 -26.56569,1.986748 -29.34414,0.845271 z m 39.31904,0.509848 c -0.50418,-0.504167 -0.91667,-9.816667 -0.91667,-20.694446 V 12 h 3.92325 c 3.35144,0 5.40583,1.84329 14.09509,12.646743 5.59451,6.955708 10.72904,12.991119 11.41007,13.412023 0.73077,0.451637 1.23825,-4.73152 1.23825,-12.646743 0,-12.580607 0.16747,-13.412023 2.7014,-13.412023 2.61042,0 2.689,0.681116 2.33334,20.223774 -0.25574,14.051532 -0.84754,20.383122 -1.93907,20.74589 -0.86405,0.287162 -6.17887,-5.063535 -11.81072,-11.89044 -5.63184,-6.826907 -11.52489,-13.912557 -13.09566,-15.74589 L 331.33332,22 330.66665,37.226135 c -0.6143,14.030226 -1.7415,17.921252 -4.41666,15.246089 z m 45.30555,-0.02777 c -1.03949,-1.039488 -0.89462,-16.826084 0.28538,-31.098516 0.65224,-7.888951 1.29709,-10.076991 3.0691,-10.413775 3.76139,-0.714876 4.50375,3.606909 4.0197,23.40118 -0.45722,18.696943 -0.51264,19.000001 -3.47496,19.000001 -1.65568,0 -3.41034,-0.4 -3.89922,-0.88889 z m 36.08743,-0.617736 c -2.00613,-1.122697 -2.30965,-3.57302 -2.30965,-18.646081 V 15.827104 l -8.58959,0.385752 c -9.17416,0.412006 -10.8746,-0.211378 -9.60456,-3.521057 1.17584,-3.0641937 45.52748,-2.439228 45.52748,0.641535 0,1.530153 -2.02788,2.095076 -8.6321,2.40471 -4.77002,0.223642 -9.11503,1.118455 -9.71153,2 -0.59368,0.87741 -0.92653,8.697173 -0.73966,17.377253 0.27644,12.840883 -0.0301,15.989005 -1.64548,16.892961 -1.10776,0.619934 -3.00612,0.539688 -4.29491,-0.181549 z m 83.02368,-18.919629 c 0,-17.620587 0.30858,-20.740195 2.12032,-21.435425 2.58311,-0.991237 4.39347,0.03096 7.87967,4.449136 1.46667,1.858759 5.12207,6.150495 8.12311,9.53719 3.00105,3.386696 6.32905,7.403451 7.39557,8.926124 1.06652,1.522672 2.79092,2.95916 3.83199,3.192193 1.55719,0.348562 1.81751,-1.903653 1.46793,-12.700354 -0.39426,-12.177442 -0.24677,-13.089745 2.04491,-12.648407 2.27245,0.437634 2.46983,2.063602 2.46983,20.346275 0,13.711908 -0.47206,20.027979 -1.52304,20.378308 -1.8049,0.601631 -8.28074,-6.008187 -18.82014,-19.209486 -4.21125,-5.274881 -8.25682,-9.424612 -8.99016,-9.221622 -0.77977,0.215846 -1.33333,6.126964 -1.33333,14.237936 0,12.147924 -0.28953,13.924768 -2.33333,14.319388 -2.14107,0.413401 -2.33333,-1.248725 -2.33333,-20.171256 z M 25.147596,50.546372 c -1.38991,-0.86323 -1.735733,-4.631816 -1.478516,-16.112063 0.443982,-19.816043 0.464262,-19.767642 -8.282946,-19.767642 -5.356766,0 -7.3073196,-0.538101 -7.9415341,-2.190838 C 6.9822132,11.270869 6.7988365,10.090052 7.0370961,9.8517926 7.2753558,9.613533 16.89053,9.2804618 28.404151,9.1116343 42.366623,8.9068987 49.83137,9.2980393 50.819492,10.286161 c 2.889906,2.889906 -0.364825,4.380506 -9.56485,4.380506 -10.708194,0 -9.631021,-2.496133 -9.271866,21.485698 0.195219,13.035307 0.0055,14.206369 -2.404484,14.836576 -1.439037,0.376317 -3.43285,0.177161 -4.430696,-0.442569 z m 95.384124,-1.942658 c -0.46883,-1.867957 -0.49093,-5.656857 -0.0491,-8.419778 0.73358,-4.587543 0.1111,-5.966543 -7.17298,-15.890406 -4.38696,-5.976803 -7.97628,-11.417924 -7.97628,-12.09138 0,-1.825921 4.36301,-2.6199551 7.67134,-1.396124 1.59787,0.591091 4.78277,4.401545 7.07755,8.467676 2.29478,4.06613 4.86506,7.376933 5.71172,7.35734 0.84666,-0.0196 3.64241,-3.761959 6.21277,-8.316367 4.51352,-7.997477 8.17503,-10.666266 10.89799,-7.943302 0.8286,0.828604 -0.95829,4.083813 -5.00907,9.125041 -3.46345,4.310305 -6.86952,8.573929 -7.56904,9.47472 -0.69953,0.900789 -1.48896,5.875367 -1.7543,11.054616 -0.54771,10.691128 -1.04337,11.974251 -4.62558,11.974251 -1.6341,0 -2.87143,-1.230555 -3.41499,-3.396287 z m 32.07698,1.96918 c -1.67641,-2.71249 -0.70851,-39.012345 1.07259,-40.225722 0.90862,-0.6190023 5.77424,-0.9266515 10.81248,-0.6836647 7.77804,0.3751237 9.55344,0.9271257 11.76464,3.6578527 4.64382,5.734879 0.42786,17.345307 -6.2984,17.345307 -1.628,0 -4.83502,0.375 -7.12668,0.833334 l -4.16667,0.833333 v 9.024015 c 0,6.998735 -0.47333,9.205652 -2.10905,9.833333 -2.78275,1.067844 -2.92044,1.046303 -3.94891,-0.617788 z m 16.30536,-24.138645 c 3.46387,-3.254137 4.2052,-10.512151 1.31843,-12.907965 -0.97214,-0.806797 -3.89739,-1.805393 -6.50056,-2.219104 -4.2902,-0.681823 -4.79491,-0.428599 -5.39422,2.706455 -0.36364,1.90226 -0.36034,6.127391 0.007,9.389177 0.59768,5.296962 1.03309,5.930522 4.07641,5.930522 1.87403,0 4.796,-1.304588 6.49327,-2.899085 z m 65.13678,24.314703 C 232.75548,48.653004 234.81128,12.925037 236.33802,11 c 2.9851,-3.7638637 6.39925,-1.6406586 12.48205,7.762376 3.35479,5.185974 6.29108,9.235974 6.52509,9.000001 0.23402,-0.235974 2.48824,-4.329043 5.00938,-9.09571 4.6771,-8.8429381 8.35699,-11.2824616 12.20351,-8.090135 2.72983,2.265565 2.50579,40.021412 -0.24374,41.07651 -2.6954,1.034319 -6.36103,-1.490457 -6.12156,-4.216346 1.62846,-18.537403 1.8985,-28.770029 0.75926,-28.770029 -0.73459,0 -3.91617,5.136807 -7.07015,11.415128 -3.154,6.27832 -6.17228,11.685671 -6.70731,12.016335 -0.53503,0.330666 -3.07916,-3.756143 -5.65363,-9.081793 -8.51982,-17.624439 -9.04709,-17.524966 -8.58721,1.620009 0.35116,14.61933 0.13173,16.689386 -1.8094,17.073824 -1.21496,0.240614 -2.59803,-0.191934 -3.07347,-0.961218 z"
       id="path259" />
  </g>
</svg>
