<?xml version="1.0" encoding="UTF-8" standalone="no"?>
<!-- Created with Inkscape (http://www.inkscape.org/) -->

<svg
   version="1.1"
   id="svg92"
   width="380"
   height="53.333332"
   viewBox="0 0 380 53.333332"
   xmlns="http://www.w3.org/2000/svg"
   xmlns:svg="http://www.w3.org/2000/svg">
  <defs
     id="defs96" />
  <g
     id="g98">
    <path
       style="fill:#000000;stroke-width:1.33333"
       d="m 294.12732,49.53934 c -1.15061,-1.861735 -0.68465,-39.5588642 0.51292,-41.4965879 0.55695,-0.9011569 2.14073,-1.4225751 3.51953,-1.1587067 2.20088,0.421197 2.55346,1.9659088 2.88836,12.6544826 0.29912,9.546437 -0.0607,12.616874 -1.66666,14.222858 -2.63232,2.632321 -2.6224,4.077618 0.0211,3.063244 1.73631,-0.666284 2.00442,0.329541 1.66667,6.190681 -0.34489,5.985433 -0.81367,7.043284 -3.27667,7.394269 -1.5808,0.225269 -3.23012,-0.166339 -3.66516,-0.87024 z M 240,30.666666 V 12 h -3.42607 c -2.79032,0 -3.347,-0.556693 -3,-3.0000002 0.41956,-2.9541617 0.75203,-3.0044605 21.7594,-3.291935 11.73334,-0.1605643 23.28334,0.016624 25.66667,0.3937508 5.234,0.8282028 6.01832,4.5648504 0.95816,4.5648504 -1.85636,0 -3.66072,0.75 -4.00969,1.666667 -0.34899,0.916667 -0.78015,9.466666 -0.95816,19 l -0.32364,17.333332 h -3.23775 -3.23775 l -0.0956,-18.666666 -0.0956,-18.666666 -10.50629,-0.427043 c -5.77845,-0.234873 -10.98484,0.06513 -11.56975,0.666667 -0.58486,0.60154 -1.21164,8.593709 -1.39278,17.760376 -0.37638,19.044788 -0.56775,19.999999 -4.00714,19.999999 -2.35626,0 -2.52401,-1.240555 -2.52401,-18.666666 z m 114.66667,10.078689 c 0,-4.723388 -0.60382,-8.96115 -1.3418,-9.417252 C 351.13133,29.972419 340,12.307446 340,10.182067 c 0,-2.2782693 2.36653,-3.3320693 5.60001,-2.4936463 1.24668,0.3232559 4.81352,4.4967723 7.92632,9.2744813 6.40122,9.824959 5.94252,9.920475 13.44084,-2.79885 2.79584,-4.7425541 4.41012,-6.1640522 7,-6.1640522 1.85139,0 3.36616,0.3394449 3.36616,0.754322 0,1.6484092 -3.35262,6.9388882 -8.86898,13.9953242 -5.26994,6.741229 -5.79768,8.096707 -5.79768,14.89095 0,9.562019 -0.87639,11.692736 -4.80932,11.692736 -3.03511,0 -3.19068,-0.418747 -3.19068,-8.587977 z M 6.0021993,46.670224 c -0.4520153,-0.731376 1.2342786,-6.581376 3.7473195,-13 C 12.26256,27.251601 15.376371,18.7 16.669099,14.666666 19.541868,5.7035808 20.812937,3.9999999 24.627673,3.9999999 c 2.169774,0 3.528708,1.3445005 5.053679,4.9999999 9.393911,22.5180932 14.27752,35.8506662 13.691335,37.3782402 -0.381754,0.994835 -2.043746,1.616708 -3.693316,1.381941 -2.225502,-0.316733 -3.725539,-2.252114 -5.814711,-7.502266 -1.548521,-3.891479 -3.417849,-7.677772 -4.154063,-8.413985 -0.736212,-0.736212 -4.272274,-1.152275 -7.857916,-0.924583 l -6.519348,0.413986 -1.900029,8.333333 c -1.449882,6.359033 -2.457875,8.333333 -4.2546437,8.333333 -1.2950383,0 -2.7244456,-0.598399 -3.176461,-1.329775 z M 27.230148,21.666666 c -1.176435,-2.75 -2.44868,-5.75 -2.827212,-6.666666 -1.218132,-2.949875 -2.610049,-1.791675 -4.191885,3.488026 -2.302515,7.685108 -2.072795,8.17864 3.806842,8.17864 h 5.351227 z m 28.436519,25.24477 c -2.016667,-0.232044 -3.660899,-1.132044 -3.65385,-2 0.0071,-0.867957 3.065684,-5.64259 6.796966,-10.610297 3.73128,-4.967705 6.421188,-9.767705 5.977573,-10.666666 C 64.34374,22.735513 61.342221,18.7 58.117315,14.666666 54.040452,9.567806 52.649219,6.8519697 53.551416,5.7535428 54.475387,4.6286072 59.525448,4.3528279 71.091159,4.7957132 88.606211,5.4664163 91.286084,5.9190727 90.00582,7.9905827 89.537715,8.7479931 83.331061,9.3333331 75.767964,9.3333331 H 62.359973 L 64.685924,13 c 1.279272,2.016666 3.748279,5.199497 5.48668,7.072958 1.738401,1.87346 3.160729,4.298536 3.160729,5.389056 0,1.09052 -2.673982,4.60708 -5.942185,7.814577 -3.268201,3.207497 -5.638087,6.323852 -5.266412,6.925235 0.371673,0.601381 6.966672,0.807682 14.655552,0.458448 11.817407,-0.536756 14.103061,-0.31371 14.776789,1.442 0.438356,1.142334 0.230054,2.643928 -0.462892,3.336873 -1.218152,1.218152 -27.973016,2.330024 -35.427518,1.472289 z M 101.33333,26.573931 V 5.147864 l 3,0.4260679 c 2.69864,0.3832668 3.04011,1.2721565 3.39927,8.8485331 0.2196,4.632356 0.94902,8.232356 1.62093,8 0.67191,-0.232356 4.09224,-3.977767 7.60073,-8.323133 6.95126,-8.6093441 8.05055,-9.3516329 11.04574,-7.4586044 1.63573,1.0338206 0.72507,2.5552862 -5,8.3535854 -6.74215,6.828388 -8.28801,9.616994 -5.85465,10.561242 C 119.40018,26.430519 132,42.591164 132,44.608256 c 0,1.376616 -1.26511,2.058409 -3.8195,2.058409 -3.29298,0 -4.79959,-1.470383 -10.92947,-10.666666 -3.91048,-5.866666 -7.67233,-10.666666 -8.35966,-10.666666 -0.72292,0 -0.96586,3.966745 -0.57636,9.410593 0.69446,9.705993 -0.66518,13.256073 -5.07692,13.256073 -1.57177,0 -1.90476,-3.745697 -1.90476,-21.426068 z m 39.40248,20.204622 c -0.80105,-1.296134 0.26718,-4.606391 4.44778,-13.782847 12.57032,-27.5920697 11.82921,-26.3290395 15.44906,-26.3290395 2.08952,0 3.77031,0.9205544 4.26031,2.3333333 0.44509,1.2833332 4.07292,9.3694572 8.06185,17.9691632 7.354,15.854449 8.16534,19.983541 4.08114,20.770086 -1.70918,0.329155 -3.73807,-2.711942 -8.24784,-12.362581 -3.28959,-7.039517 -6.73318,-14.87907 -7.65244,-17.421228 -0.91926,-2.542159 -2.08115,-4.622107 -2.582,-4.622107 -0.94648,0 -3.74022,6.73532 -10.09319,24.333333 -3.42608,9.490407 -5.77692,12.26341 -7.72467,9.111887 z m 48.34752,-16.023324 c -0.1375,-9.582043 -0.2875,-19.071896 -0.33333,-21.0885626 -0.0684,-3.0076948 0.55664,-3.740656 3.4776,-4.0783603 3.41651,-0.3949958 3.59559,-0.097563 4.41539,7.3333329 0.46994,4.259765 0.97373,8.645027 1.11952,9.745027 0.35906,2.709279 18.11456,3.666745 19.76438,1.065797 0.60442,-0.952854 1.10814,-5.482463 1.11936,-10.065797 0.0141,-5.7779374 0.5315,-8.327072 1.68708,-8.3129157 4.68515,0.057393 5.07908,1.9066946 4.70364,22.0811207 l -0.3703,19.898461 h -3.33334 c -3.55768,0 -3.3654,0.687833 -3.82038,-13.666666 l -0.17962,-5.666667 H 206.92567 196.518 l -0.0197,9.666667 c -0.0193,9.484158 -0.0872,9.674631 -3.59234,10.088562 l -3.5726,0.421897 z M 315.077,41.073695 c -4.50639,-2.177625 -7.5338,-10.982874 -5.69341,-16.559298 3.04777,-9.234835 13.79604,-11.633339 20.54837,-4.585423 3.35127,3.497976 3.68555,4.626692 3.04728,10.289339 -1.14897,10.193733 -9.18619,15.067257 -17.90224,10.855382 z m 10.51368,-3.407029 c 4.86112,-5.660025 4.27443,-15.049793 -1.16295,-18.612496 -3.02414,-1.981501 -3.49349,-1.943552 -6.83738,0.552854 -2.30263,1.719046 -3.87338,4.419999 -4.37948,7.530675 -1.55334,9.547323 6.98564,16.809668 12.37981,10.528967 z"
       id="path120" />
  </g>
</svg>
