<?xml version="1.0" encoding="UTF-8" standalone="no"?>
<!-- Created with Inkscape (http://www.inkscape.org/) -->

<svg
   version="1.1"
   id="svg2"
   width="337.33334"
   height="54.666668"
   viewBox="0 0 337.33334 54.666668"
   xmlns="http://www.w3.org/2000/svg"
   xmlns:svg="http://www.w3.org/2000/svg">
  <defs
     id="defs6" />
  <g
     id="g8">
    <path
       style="fill:#000000;stroke-width:1.33333"
       d="m 254.66667,48.387421 c -9.45761,-3.477504 -14.80539,-19.36303 -10.13195,-30.096913 1.98051,-4.548821 8.11394,-11.6238412 10.07686,-11.6238412 0.64368,0 2.2694,-0.3897878 3.61271,-0.8661953 1.58805,-0.563205 0.96452,0.6210571 -1.78258,3.3855938 -4.96671,4.9982327 -6.47117,11.6289357 -5.12885,22.6045727 1.17737,9.626928 4.52745,13.542696 11.58623,13.542696 12.09824,0 16.64849,-14.549488 9.77754,-31.263836 -1.79302,-4.3617771 -2.97642,-8.2141429 -2.62976,-8.5608136 1.14166,-1.1416484 7.49506,5.7253096 10.22662,11.0532456 2.03649,3.972203 2.54924,7.045047 2.13382,12.787923 -0.60054,8.302583 -3.64538,13.399571 -10.49188,17.563171 -3.8137,2.319253 -12.85029,3.091687 -17.24876,1.474397 z m 36.7342,-0.09767 c -1.74193,-1.741934 -0.32944,-4.637673 5.93247,-12.162123 3.66667,-4.405949 6.66667,-8.698941 6.66667,-9.539983 0,-0.841043 -2.7,-4.532219 -6,-8.202614 -9.9779,-11.0978187 -9.30712,-11.7183682 12.66666,-11.7183682 18.10247,0 18.66667,0.085037 18.66667,2.8134802 0,2.71314 -0.47552,2.792998 -13.33333,2.239165 -9.6794,-0.416926 -13.33334,-0.14321 -13.33334,0.9988 0,0.865214 2.48707,4.398578 5.52683,7.851922 l 5.52683,6.278807 -6.1935,6.288045 c -3.40642,3.458426 -6.19349,6.91135 -6.19349,7.673164 0,0.906186 4.83671,1.187778 13.9882,0.81439 12.17275,-0.496658 14.09923,-0.281384 14.84371,1.658705 0.47053,1.226189 0.25326,2.831683 -0.48282,3.567763 -1.3917,1.391703 -36.99069,2.729721 -38.28156,1.438847 z M 6.6666668,45.648538 C 6.6666668,43.915241 13.618012,34.562524 19,29.054599 22.064364,25.918531 21.945307,24.683369 18.297206,21.763441 13.259012,17.730888 6.3239419,8.2998967 7.2705312,6.7682831 7.835011,5.8549356 14.914083,5.3333335 26.745357,5.3333335 c 17.592475,0 18.587977,0.1404009 18.587977,2.6215578 0,2.4183877 -1.098505,2.6508867 -14.174347,2.9999997 l -14.174347,0.378443 6.174347,6.862572 c 3.395891,3.774416 6.174347,7.440372 6.174347,8.146571 0,0.706198 -1.531179,2.41804 -3.40262,3.804093 -1.87144,1.386053 -4.900575,4.468262 -6.73141,6.84935 l -3.328789,4.329253 15.064743,-0.329253 c 14.721774,-0.321756 15.074443,-0.260954 15.490811,2.670748 0.488213,3.437573 1.220599,3.326653 -24.092735,3.648864 C 9.6996933,47.476344 6.6666668,47.153618 6.6666668,45.648538 Z M 56.23953,46.288617 c -2.741689,-3.303535 0.312236,-5.23588 6.749325,-4.27058 7.615089,1.141953 8.992466,-0.737377 4.475105,-6.105956 C 62.518199,30.034378 60.675064,22.112135 62.895848,16.277223 65.733191,8.8223549 70.700143,5.9952141 80.903095,6.0276708 c 8.112176,0.025806 8.958985,0.3192812 12.564336,4.3543692 6.256687,7.002448 5.013146,19.213138 -2.664257,26.161092 -4.861122,4.399254 -3.585507,6.123536 4.530161,6.123536 6.444445,0 7.333335,0.323232 7.333335,2.666666 0,2.444444 -0.88889,2.666667 -10.666668,2.666667 -6.927058,0 -10.666667,-0.518881 -10.666667,-1.480031 0,-0.814016 1.907109,-5.058133 4.238021,-9.431372 7.684542,-14.417675 5.18151,-26.408287 -5.576564,-26.714163 -3.107458,-0.08835 -5.168144,0.783632 -6.89676,2.918381 -4.020607,4.96524 -4.267116,8.99691 -1.252533,20.485287 1.571454,5.988711 2.849085,11.638565 2.83918,12.555231 -0.02511,2.323347 -16.513003,2.283375 -18.445149,-0.04472 z M 131,47.11696 c -1.2126,-0.489295 -1.66666,-5.364523 -1.66666,-17.894737 V 12 h -9.42607 c -9.01254,0 -9.40738,-0.131613 -9,-2.9999998 0.42071,-2.9622658 0.71536,-3.0045887 23.42607,-3.3648186 20.0735,-0.3183996 23,-0.1010108 23,1.7085131 0,2.6760933 -1.62194,3.1957403 -11.33334,3.6310453 l -8,0.358594 -0.37526,17.280559 C 137.22314,47.10708 136.43448,49.309821 131,47.11696 Z m 34.3031,-4.028396 c -0.0166,-2.79871 -0.25907,-12.438563 -0.53874,-21.421897 L 164.25587,5.3333335 h 3.97403 c 3.74441,0 3.96066,0.2888945 3.74288,5.0000005 -0.12707,2.75 -0.17302,6.95 -0.102,9.333333 L 172,24.000001 h 10.66667 10.66667 l 0.24874,-4.333334 c 0.1368,-2.383333 0.2868,-6.433333 0.33334,-9 0.0677,-3.7397359 0.61098,-4.6666669 2.73477,-4.6666669 3.36648,0 4.45611,6.6567409 4.19945,25.6554939 -0.18742,13.874976 -1.40448,17.440193 -5.42668,15.89673 -1.62476,-0.623476 -2.08962,-2.89999 -2.08962,-10.233128 v -9.431267 l -10.22656,0.38942 -10.22658,0.389418 -0.1771,9.333334 c -0.17255,9.093164 -0.26964,9.344189 -3.77343,9.755229 -3.34743,0.392698 -3.59843,0.06971 -3.62657,-4.666666 z m 44.97537,4.078792 c -0.51983,-0.519823 -0.94513,-9.563963 -0.94513,-20.09809 0,-22.0205827 -0.65922,-20.9635793 13.11501,-21.0290871 7.29592,-0.034697 8.79643,0.3892002 11,3.1075333 C 234.85176,10.878954 236,14.215816 236,16.562964 c 0,6.392489 -3.93237,9.736782 -12.7434,10.837647 l -7.49482,0.936416 0.45244,9.498154 c 0.41541,8.72052 0.22964,9.530049 -2.26908,9.887731 -1.49684,0.214267 -3.14684,-0.03573 -3.66667,-0.555556 z m 16.97927,-24.797363 c 2.4654,-3.519865 2.72609,-10.519496 0.4756,-12.7699928 -0.88,-0.88 -3.81191,-1.6 -6.51534,-1.6 -4.52164,0 -4.96804,0.3470747 -5.57332,4.3333338 -0.36189,2.383333 -0.35149,6.283333 0.0231,8.666667 0.60981,3.879678 1.14348,4.333333 5.09772,4.333333 3.05251,0 5.05767,-0.915251 6.49221,-2.963341 z"
       id="path1392" />
  </g>
</svg>
