<?xml version="1.0" encoding="UTF-8" standalone="no"?>
<!-- Created with Inkscape (http://www.inkscape.org/) -->

<svg
   version="1.1"
   id="svg12"
   width="144"
   height="57.333332"
   viewBox="0 0 144 57.333332"
   xmlns="http://www.w3.org/2000/svg"
   xmlns:svg="http://www.w3.org/2000/svg">
  <defs
     id="defs16" />
  <g
     id="g18">
    <path
       style="fill:#000000;stroke-width:1.33333"
       d="M 89.666667,51.116957 C 88.431309,50.61848 88,44.952435 88,29.222222 V 7.9999998 h 15.85735 c 13.41455,0 15.98556,0.3341297 16.68967,2.1689972 C 122.25435,14.618224 118.87762,16 106.29745,16 H 94.254747 l 0.823186,17.209653 c 0.707628,14.793766 0.534059,17.320602 -1.236422,17.999999 -1.132787,0.434691 -2.160539,0.742979 -2.283894,0.685084 -0.123356,-0.0579 -0.974284,-0.407895 -1.89095,-0.777779 z m 41.750783,-0.31418 c -1.01661,-1.644914 -0.89585,-26.352604 0.17207,-35.205136 0.67113,-5.563371 1.14176,-6.3496311 3.59141,-5.9999994 C 137.91224,9.9874747 138,10.643335 138,30.666666 c 0,20.148495 -0.0721,20.676935 -2.87419,21.076247 -1.5808,0.22527 -3.24956,-0.197792 -3.70836,-0.940136 z M 41.404572,29.333333 41.536628,7.9999998 h 3.231685 c 2.932232,0 3.254283,0.5868601 3.475538,6.3333332 0.134118,3.483333 0.133862,7.968384 -5.7e-4,9.96678 -0.229272,3.408265 0.02417,3.583392 4.089483,2.825758 5.587224,-1.041265 5.298885,-1.044746 7.887939,0.09521 1.221386,0.537777 3.921386,0.783032 6,0.545012 C 69.969728,27.336799 70,27.258573 70,18 70,8.8093485 70.056053,8.6602167 73.666667,8.2447701 L 77.333333,7.8228736 V 27.135719 c 0,21.024828 -0.42518,23.530946 -3.992189,23.530946 -2.001449,0 -2.456924,-1.475467 -2.905359,-9.411637 -0.292492,-5.176401 -1.19835,-9.826401 -2.013018,-10.333333 -0.814668,-0.506933 -5.800182,-0.720221 -11.078919,-0.473974 l -9.597705,0.447721 0.883888,4.711527 c 0.486138,2.591338 0.490517,7.039863 0.0097,9.885611 -0.735591,4.353912 -1.388787,5.174085 -4.120704,5.174085 H 41.272516 L 41.404569,29.333333 Z M 7.5363045,48.328414 C 6.9914573,47.446832 6.1744957,16.535548 6.5321236,10.333333 6.6474212,8.3337666 8.0759667,7.9999998 16.518955,7.9999998 c 12.441026,0 16.087105,2.3611592 16.087105,10.4178252 0,7.965057 -3.283063,10.915508 -12.146044,10.915508 h -7.126683 v 9.999999 c 0,9.009759 -0.256272,10 -2.587977,10 -1.4233876,0 -2.8674607,-0.452213 -3.2090515,-1.004918 z M 23.748585,25.281393 C 27.134176,22.127234 27.715543,14.530341 24.759097,12.07671 22.61468,10.297002 15.850151,9.7778542 13.525481,11.214579 c -1.686723,1.042452 -1.97097,6.224642 -0.692148,12.618754 0.685174,3.425866 1.47017,4.166666 4.415252,4.166666 1.970055,0 4.895055,-1.223373 6.5,-2.718606 z"
       id="path1253" />
  </g>
</svg>
