<?xml version="1.0" encoding="UTF-8" standalone="no"?>
<!-- Created with Inkscape (http://www.inkscape.org/) -->

<svg
   version="1.1"
   id="svg22"
   width="153.33333"
   height="52"
   viewBox="0 0 153.33333 52"
   xmlns="http://www.w3.org/2000/svg"
   xmlns:svg="http://www.w3.org/2000/svg">
  <defs
     id="defs26" />
  <g
     id="g28">
    <path
       style="fill:#000000;stroke-width:1.33333"
       d="m 58.681803,46.824479 c -3.037154,-0.538332 -4.813226,-1.669731 -5.117429,-3.259919 -0.413263,-2.160285 0.413545,-2.400793 7.318195,-2.128771 8.884772,0.350034 9.057943,-0.113413 3.110302,-8.323893 -4.53621,-6.262055 -5.264054,-13.452796 -2.000487,-19.763837 3.106401,-6.0071179 7.023468,-8.0147257 15.637622,-8.0147257 7.209435,0 8.045267,0.3419408 13.036659,5.3333337 3.835753,3.835753 5.333333,6.448941 5.333333,9.306352 0,5.832585 -3.755117,14.226501 -7.446389,16.645116 -1.771152,1.160504 -3.220278,3.051616 -3.220278,4.202473 0,1.711392 1.396228,2.009323 7.666667,1.635929 6.929957,-0.412668 7.666662,-0.20029 7.666662,2.21013 0,2.37052 -1.02183,2.71096 -9.201157,3.065505 -5.060638,0.219361 -9.791706,-0.191707 -10.513483,-0.913484 -0.860874,-0.860873 0.05908,-3.979472 2.674224,-9.065505 4.913685,-9.556319 6.042425,-15.059971 4.18273,-20.394694 -1.40592,-4.033028 -6.945893,-8.0251557 -11.136702,-8.0251557 -1.169751,0 -3.599547,1.4727277 -5.399547,3.2727277 -4.184116,4.184116 -4.338396,11.720528 -0.474177,23.163107 1.539202,4.557827 2.458033,9.174331 2.041846,10.258895 -0.789502,2.05741 -5.537546,2.324486 -14.158591,0.796416 z m 52.901527,0.31441 c -0.50417,-0.504166 -0.91667,-9.776234 -0.91667,-20.604594 0,-18.8313963 0.12186,-19.7266027 2.80089,-20.5768939 1.54048,-0.4889314 3.27331,-0.379364 3.85072,0.243483 2.97883,3.2132232 19.0693,22.5683449 20.71509,24.9180319 1.04792,1.496109 2.29673,2.328765 2.77514,1.850349 0.47843,-0.478417 0.75798,-6.892218 0.62123,-14.25289 -0.23591,-12.6985199 -0.10833,-13.3830417 2.49416,-13.3830417 2.64972,0 2.74277,0.6984523 2.74277,20.5879777 0,11.323388 -0.54585,20.925334 -1.21301,21.337658 -2.31316,1.429614 -4.84632,-0.902428 -16.70405,-15.377813 -6.55438,-8.001303 -12.32044,-14.547823 -12.81347,-14.547823 -0.49303,0 -0.83036,6.698942 -0.74961,14.886536 0.13713,13.904846 -0.78778,17.734431 -3.60319,14.91902 z M 33.044531,38.995024 C 29.58569,34.781093 24.862199,29.233333 22.547884,26.666667 20.233569,24.1 17.444524,20.65 16.350006,19 15.255488,17.35 13.82898,16 13.179987,16 12.530994,16 12,22.6 12,30.666667 c 0,12.148148 -0.343435,14.666666 -2.0000002,14.666666 -1.6888889,0 -2,-3.11111 -2,-20 V 5.3333333 h 3.2212942 c 2.211584,0 4.598646,1.7762076 7.615482,5.6666667 2.416804,3.116667 6.673966,8.066667 9.460363,11 2.786396,2.933333 5.399863,6.383333 5.807702,7.666667 C 34.512679,30.95 35.705934,32 36.756517,32 c 1.530633,0 1.910149,-2.649116 1.910149,-13.333333 0,-10.9629633 0.355556,-13.3333337 2,-13.3333337 2.267021,0 2.138186,-0.7071666 2.79348,15.3333337 0.612098,14.983161 -0.471346,26.001628 -2.556088,25.995024 -0.863899,-0.0028 -4.400687,-3.452738 -7.859527,-7.666667 z"
       id="path1114" />
  </g>
</svg>
