<?xml version="1.0" encoding="UTF-8" standalone="no"?>
<!-- Created with Inkscape (http://www.inkscape.org/) -->

<svg
   version="1.1"
   id="svg32"
   width="458.66666"
   height="54.666668"
   viewBox="0 0 458.66666 54.666668"
   xmlns="http://www.w3.org/2000/svg"
   xmlns:svg="http://www.w3.org/2000/svg">
  <defs
     id="defs36" />
  <g
     id="g38">
    <path
       style="fill:#000000;stroke-width:1.33333"
       d="m 291.33208,47.997983 c -1.02612,-1.660309 -0.9595,-37.110132 0.0729,-38.78057 0.90267,-1.4605423 5.86912,-1.6384568 6.06905,-0.2174128 0.5731,4.0735558 0.8562,36.1470518 0.33542,38.0000008 -0.70559,2.510446 -5.12206,3.190902 -6.47736,0.997982 z m 35.24548,0.353652 c -1.76911,-0.383694 -2.07547,-3.049386 -2,-17.402368 L 324.66666,14 315.787,13.60849 c -6.38226,-0.281398 -9.09478,-0.952046 -9.64447,-2.384514 -1.23809,-3.2264137 3.03641,-3.8925478 24.77793,-3.8613709 19.34244,0.027737 20.41287,0.1656702 20.41287,2.6303642 0,2.2646777 -1.11792,2.6602847 -8.64359,3.0587577 -4.75397,0.251715 -8.95397,0.770832 -9.33333,1.153592 -0.37936,0.38276 -0.56853,8.080696 -0.42039,17.106524 0.23779,14.486521 0.003,16.474043 -2,16.951744 -1.24814,0.297632 -3.20946,0.337253 -4.35846,0.08805 z m 34.31133,0.09281 c -0.4889,-0.488891 -0.8889,-1.688891 -0.8889,-2.66667 0,-1.28395 2.22223,-1.777777 8,-1.777777 4.4,0 8,-0.351913 8,-0.782029 0,-0.430118 -1.84685,-3.353719 -4.1041,-6.496894 -10.30103,-14.343928 -4.04867,-28.7032025 12.50365,-28.7160937 11.33165,-0.00883 18.26712,5.6955427 18.26712,15.0245707 0,5.939954 -2.34419,10.993592 -7.20665,15.536198 -1.903,1.777831 -3.46002,3.697888 -3.46002,4.266795 0,0.568906 3.45,1.214318 7.66667,1.434248 5.7482,0.29981 7.66667,0.90034 7.66667,2.399872 0,1.546035 -2.08851,2.090529 -9.20116,2.398839 -5.06064,0.219361 -9.72128,-0.12128 -10.35698,-0.756967 -0.65217,-0.652184 0.38599,-4.021334 2.3826,-7.732172 4.4253,-8.224745 6.00315,-14.647146 4.98488,-20.290094 -1.50998,-8.367867 -13.68706,-10.7413418 -18.37797,-3.582111 -2.61496,3.990928 -2.71585,13.628366 -0.19637,18.757654 1.04592,2.129335 2.31269,6.121517 2.81505,8.871517 l 0.91339,5.000001 h -9.2595 c -5.09273,0 -9.6595,-0.4 -10.14838,-0.88889 z M 417.33333,31.44238 c 0,-9.840021 0.36418,-18.840022 0.80932,-19.999999 1.70405,-4.4406974 5.872,-1.8784191 15.60458,9.593034 15.07103,17.76368 14.25276,17.666268 14.25276,1.696744 0,-12.228724 0.2344,-13.5493718 2.33334,-13.1465236 2.07598,0.3984441 2.37402,2.6150186 2.7023,20.0977666 0.34978,18.627176 0.23552,19.64993 -2.1952,19.64993 -1.4103,0 -4.45908,-2.250001 -6.77505,-5.000001 C 429.07642,26.535315 424.49993,21.50725 423.21503,21.42559 c -0.98936,-0.06288 -1.29532,4.366008 -0.96078,13.907744 0.46769,13.339979 0.36326,14.000001 -2.21504,14.000001 -2.58451,0 -2.70588,-0.802468 -2.70588,-17.890952 z M 204.0915,45.664596 c -6.50084,-3.312478 -10.09777,-10.920715 -10.06649,-21.292631 0.0235,-7.797657 0.33008,-8.607111 5.11581,-13.508157 4.28992,-4.3932788 6.17382,-5.3217364 11.97499,-5.9017568 8.58792,-0.8586478 17.62816,3.1432671 21.29899,9.4285788 3.65085,6.251119 3.31124,18.684007 -0.67818,24.827752 -5.31932,8.191824 -18.28569,11.215286 -27.64512,6.446214 z m 16.48724,-2.396259 c 8.32023,-5.451625 9.25942,-26.864453 1.47208,-33.5628269 -4.93169,-4.2420634 -11.82892,-4.0749401 -15.7263,0.3810569 -3.68766,4.216188 -4.68754,7.431548 -4.85828,15.622926 -0.30943,14.844849 9.5002,23.85706 19.1125,17.558844 z m 22.66423,2.976973 c -0.76192,-1.985538 14.75016,-35.671663 17.09323,-37.1197628 3.16877,-1.9584098 6.51512,2.0592688 12.78334,15.3478908 7.34742,15.576518 8.57487,19.451612 6.97919,22.033486 -2.22347,3.597632 -4.60543,0.441069 -11.34285,-15.031491 -3.76622,-8.649167 -7.36163,-15.819434 -7.9898,-15.933929 -0.62816,-0.114493 -1.56426,0.69183 -2.0802,1.79183 -0.51595,1.1 -1.63134,3.341859 -2.47864,4.981908 -0.84732,1.640049 -1.54058,3.63176 -1.54058,4.426024 0,2.774729 -8.25969,21.258735 -9.4996,21.258735 -0.68792,0 -1.55376,-0.789611 -1.92409,-1.754691 z M 52.296446,27.71215 52.666666,8.6666669 h 13.98174 c 12.255869,0 14.037207,0.2880207 14.431098,2.3333331 0.401471,2.084668 -0.84808,2.333334 -11.72507,2.333334 H 57.180005 L 57.590002,19 l 0.409997,5.666667 9,0.394254 c 6.462751,0.283106 9,0.900696 9,2.190681 0,2.758677 -3.836908,3.627325 -11.688896,2.646285 l -7.147145,-0.892977 0.41802,5.830879 0.418021,5.830879 h 11.333333 c 10.444444,0 11.333333,0.20915 11.333333,2.666666 0,2.478284 -1.015161,2.693428 -14.370219,3.045483 L 51.926227,46.757634 Z M 97.121901,44.709462 C 85.387695,38.088156 83.709556,17.213987 94.172891,8.0270575 98.141453,4.5426128 99.795176,4.0000001 106.44617,4.0000001 c 6.06949,0 8.84158,0.7488309 13.17583,3.5592128 6.4202,4.1629341 8.38079,7.7942371 8.37056,15.5035251 -0.0112,8.453956 -2.19777,14.662912 -6.67392,18.951339 -3.41733,3.274011 -5.29769,3.925953 -12.34177,4.279045 -5.59543,0.280476 -9.468206,-0.236873 -11.854969,-1.58366 z M 115.9884,39.802249 C 119.79641,35.817532 120,35.036414 120,24.410723 c 0,-9.897712 -0.36231,-11.584501 -3.12913,-14.5684009 -1.93852,-2.0906052 -5.12668,-3.6425549 -8.37903,-4.078786 -7.2628,-0.9741466 -13.030448,4.2892869 -14.351185,13.0965959 -0.957563,6.385486 0.824162,16.198164 3.613922,19.903325 4.827843,6.412 12.671833,6.858877 18.233823,1.038792 z m 26.36089,5.245641 c -0.29677,-0.890328 -0.30236,-8.990328 -0.012,-18 l 0.52679,-16.381223 h -3.4739 c -3.25261,0 -6.00952,-3.1584418 -4.27281,-4.8951459 0.97552,-0.9755292 48.76881,-0.6659055 50.37431,0.3263446 2.15245,1.330285 1.21262,3.1752164 -2.03238,3.9896573 -4.18416,1.05016 -4.75264,3.619483 -4.77444,21.579144 l -0.0182,15.000001 H 175.33333 172 V 28.666667 c 0,-15.111111 0.32098,-18 2,-18 1.1,0 2,-0.664193 2,-1.4759852 C 176,8.2534843 175.14825,8.117519 173.66666,8.8182107 172.38333,9.4251436 166.23333,9.9915084 160,10.076799 l -11.33334,0.155075 -0.37096,18.217397 c -0.34289,16.838842 -0.56149,18.217397 -2.88889,18.217397 -1.38485,0 -2.76075,-0.72845 -3.05752,-1.618778 z M 6.2222222,44.444445 C 5.7333332,43.955557 5.3333333,35.329024 5.3333333,25.274371 c 0,-19.7594498 1.0225401,-22.9616824 6.4112427,-20.0777361 2.717468,1.4543446 13.662225,13.7830711 18.763985,21.1366991 1.653496,2.383333 3.913318,4.333333 5.021826,4.333333 1.685826,0 1.946254,-2.056237 1.592271,-12.571952 -0.422753,-12.558717 0.110693,-15.1379276 2.788633,-13.4828729 2.049487,1.2666526 1.928,38.9180799 -0.12968,40.1897949 -0.9019,0.557405 -2.932232,-0.66596 -4.848289,-2.921311 -1.813112,-2.134178 -6.769856,-7.780325 -11.014984,-12.546992 -4.245128,-4.766667 -8.943436,-10.166667 -10.440684,-12 L 10.755385,14 10.711026,29.666667 c -0.03439,12.144487 -0.444039,15.666667 -1.8221372,15.666667 -0.9777778,0 -2.1777778,-0.4 -2.6666666,-0.888889 z"
       id="path975" />
  </g>
</svg>
