<?xml version="1.0" encoding="UTF-8" standalone="no"?>
<!-- Created with Inkscape (http://www.inkscape.org/) -->

<svg
   version="1.1"
   id="svg42"
   width="605.33331"
   height="57.333332"
   viewBox="0 0 605.33331 57.333332"
   xmlns="http://www.w3.org/2000/svg"
   xmlns:svg="http://www.w3.org/2000/svg">
  <defs
     id="defs46" />
  <g
     id="g48">
    <path
       style="fill:#000000;stroke-width:1.33333"
       d="m 524.51309,49.28189 c -8.49803,-4.206519 -12.68826,-15.97234 -9.70056,-27.238421 2.57754,-9.719481 10.16778,-15.3768025 20.63053,-15.3768025 13.07755,0 21.46195,10.1036715 20.17372,24.3104485 -1.54045,16.988395 -16.26131,25.65174 -31.10369,18.304775 z m 16.2178,-2.302308 c 4.74257,-3.324152 6.86261,-9.160935 6.65162,-18.312916 -0.27697,-12.014417 -2.12456,-16.277123 -8.14536,-18.7927758 -4.37612,-1.828458 -5.13693,-1.7910288 -9.00849,0.4431818 -10.43651,6.022744 -11.86261,25.107542 -2.63784,35.300796 2.19041,2.420382 10.41383,3.272579 13.14007,1.361714 z m 34.52895,3.654197 c -7.88278,-2.403492 -12.5932,-10.869525 -12.5932,-22.63378 0,-3.447805 0.62608,-8.064721 1.3913,-10.25981 4.38068,-12.566435 27.8743,-14.8072313 33.8613,-3.229655 1.98327,3.835231 1.94967,4.132451 -0.62278,5.50919 -2.3906,1.279406 -2.89667,0.94603 -4.18826,-2.758996 -0.98064,-2.813074 -2.94645,-4.831527 -5.9125,-6.07082 -6.72666,-2.8105794 -9.20062,-2.2956651 -13.72427,2.856486 -3.79717,4.32475 -4.13812,5.492718 -4.13812,14.175955 0,11.042939 2.89767,17.11191 9.46999,19.834253 6.19784,2.567227 10.57404,0.430144 14.53001,-7.095616 3.06699,-5.834573 6.41757,-7.740107 7.55089,-4.29432 0.65914,2.00408 -4.33629,9.579828 -7.82057,11.860165 -4.027,2.635536 -12.70281,3.662254 -17.80379,2.106948 z M 8.8050234,49.557199 C 8.376059,48.86312 9.1782644,45.378808 10.587702,41.814284 11.99714,38.24976 15.047105,30.233333 17.365401,23.999999 19.683698,17.766666 22.112014,11.316666 22.761658,9.6666664 23.55348,7.655553 25.056556,6.6666665 27.32156,6.6666665 c 3.651995,0 5.010756,2.421645 14.817325,26.4080875 5.025537,12.29225 5.543009,15.95269 2.424392,17.149417 -2.778463,1.066196 -4.967953,-1.523119 -7.788181,-9.210383 -1.275149,-3.475749 -2.902385,-6.680434 -3.61608,-7.121522 -1.743183,-1.077345 -12.965265,-1.197129 -14.012823,-0.149572 -0.457627,0.457628 -1.524924,4.302732 -2.371771,8.544677 -1.245176,6.237219 -2.080113,7.79098 -4.364593,8.122209 -1.553678,0.225269 -3.1758411,-0.158303 -3.6048056,-0.852381 z M 31.999999,28.904185 C 31.999999,26.621563 27.450914,16 26.473294,16 c -1.769472,0 -5.464204,9.231858 -4.598067,11.488977 0.589332,1.535776 10.124772,2.868609 10.124772,1.415208 z M 70.22222,49.777776 c -0.488889,-0.488888 -0.888889,-4.96801 -0.888889,-9.953604 0,-7.993501 -0.440792,-9.582287 -3.730024,-13.444445 C 55.108449,14.056849 53.016667,10.654792 54.692874,8.6350867 c 0.898504,-1.0826311 2.139298,-1.9684202 2.757321,-1.9684202 2.495332,0 10.236482,8.2033065 12.520186,13.2676555 1.339038,2.969456 2.917024,5.399011 3.506635,5.399011 0.589612,0 3.545373,-4.234965 6.56836,-9.411033 3.809346,-6.5225026 6.17583,-9.2801752 7.710169,-8.9846887 3.121691,0.6011831 3.416309,3.9973887 0.61868,7.1318527 -1.305826,1.463045 -4.324228,5.444021 -6.707561,8.846613 -3.894292,5.559726 -4.333334,7.139093 -4.333334,15.588314 0,7.930661 -0.403545,9.617756 -2.579012,10.782029 -3.037622,1.625687 -3.362542,1.660913 -4.532098,0.491356 z m 31.9141,-0.229866 c -0.29751,-0.484684 -0.74942,-9.881244 -1.00425,-20.881244 L 100.66875,8.6666665 104.33437,8.2447701 C 107.97651,7.8255764 108,7.8746908 108,15.911437 c 0,4.448709 0.5423,8.088562 1.20512,8.088562 0.66282,0 4.11282,-3.597759 7.66667,-7.995023 4.42834,-5.479295 7.40552,-7.996589 9.46154,-7.9999997 4.34677,-0.00721 3.78338,1.3236612 -3.66667,8.6616897 -3.66666,3.611532 -6.65725,7.188977 -6.64575,7.949877 0.0115,0.760902 2.76011,4.383456 6.10802,8.050123 8.20116,8.982002 10.30849,12.270236 9.39285,14.656373 -1.19889,3.124237 -5.80952,2.370668 -8.45954,-1.382641 -6.97882,-9.884323 -13.74651,-18.259781 -13.8768,-17.173453 -0.0813,0.67818 -0.0306,5.216266 0.11283,10.084635 0.18174,6.170548 -0.27828,9.188067 -1.51878,9.962507 -2.37304,1.481472 -4.97644,1.820012 -5.64317,0.733823 z m 94.42159,-0.101778 c -6.37856,-2.744193 -10.75024,-10.489149 -10.09852,-17.890719 0.1184,-1.344523 -0.31617,-3.394183 -0.96568,-4.5548 -3.0736,-5.492227 6.73146,-20.3339465 13.43346,-20.3339465 2.42132,0 2.24876,0.4794965 -1.5595,4.3333335 -4.25632,4.30726 -4.27894,4.401878 -3.76069,15.725707 0.55844,12.201921 2.68839,17.012315 8.78908,19.849792 4.62613,2.151647 6.27683,1.778007 10.79625,-2.44378 2.27756,-2.127553 4.14101,-3.132143 4.14101,-2.232419 0,0.899724 -1.46263,3.009942 -3.2503,4.689372 -3.56927,3.35314 -12.85409,4.867029 -17.52511,2.85746 z m 39.12551,-0.86665 c -10.48108,-5.686976 -11.86656,-30.367304 -2.16307,-38.532249 5.57124,-4.6878877 16.64015,-4.8438249 20.91389,-0.2946316 1.5945,1.6972646 2.88,3.6472636 2.85668,4.3333326 -0.0233,0.68607 -0.77333,0.295404 -1.66666,-0.868144 -2.64376,-3.4433876 -7.33286,-5.3417343 -10.95134,-4.4335562 -4.41416,1.1078846 -8.67293,6.6217472 -8.67293,11.2289112 0,3.025277 0.71648,3.796817 4.16667,4.486854 2.29166,0.458334 6.12748,0.833334 8.52401,0.833334 4.43577,0 7.21619,3.076134 4.37023,4.835037 -0.81912,0.50624 -4.99291,0.794004 -9.27511,0.639475 l -7.7858,-0.280962 v 4.556747 c 0,4.978178 3.88324,10.943094 7.96815,12.239592 2.86792,0.910244 10.12925,-2.346758 11.06218,-4.961836 0.33252,-0.932096 1.00086,-1.330598 1.48518,-0.885558 1.54762,1.422084 -0.48167,4.595898 -4.42971,6.928062 -4.67284,2.760315 -11.50396,2.833443 -16.40237,0.175592 z m 37.25156,1.244388 c -0.51424,-0.51424 -0.93499,-8.893251 -0.93499,-18.620025 0,-17.324913 -0.0611,-17.693719 -3,-18.111111 -1.96909,-0.279655 -3,-1.342433 -3,-3.0927342 0,-2.5617734 1.0096,-2.6809108 25.66667,-3.0287904 24.70507,-0.348557 25.66666,-0.2644585 25.66666,2.2447703 0,1.8527173 -1.06077,2.7289483 -3.66667,3.0287903 l -3.66666,0.421896 -0.66667,18 -0.66667,18 h -3.33333 -3.33333 L 302.46772,30.333333 302.93544,12 h -12.09778 -12.09779 l -0.36993,18.983347 c -0.30959,15.885879 -0.7069,19.047975 -2.43496,19.379425 -1.13576,0.217844 -2.48576,-0.02467 -3,-0.538902 z m 62.39834,-0.41768 c -8.88107,-3.634948 -13.52247,-18.136836 -9.93691,-31.047454 2.88384,-10.3839223 17.26391,-16.1049166 26.27024,-10.4514097 2.38334,1.4960793 4.33334,3.3289637 4.33334,4.0730757 0,1.983339 -1.17176,1.673575 -4.96951,-1.313736 -4.45563,-3.5048015 -8.72889,-3.371624 -13.12415,0.409018 -4.35353,3.744744 -5.7717,10.772865 -4.22224,20.924315 1.31172,8.593747 3.82454,12.959056 8.47816,14.728359 5.06398,1.925322 9.83671,0.09248 12.78899,-4.911276 2.9502,-5.000208 3.71541,-5.484292 3.71541,-2.350416 0,1.173333 -2.04,4.173333 -4.53333,6.666666 -3.81152,3.811518 -5.45683,4.519876 -10.33333,4.448819 -3.19,-0.04648 -7,-0.575665 -8.46667,-1.175961 z m 40.35009,-0.826708 c -4.75398,-2.579486 -7.73208,-8.517376 -8.62864,-17.204284 -0.87522,-8.480109 1.16195,-15.23119 6.23476,-20.661657 3.27883,-3.5099953 4.70619,-4.0468745 10.75918,-4.0468745 5.76897,0 7.52541,0.5897759 10.13171,3.4020295 4.17366,4.503454 4.00363,5.460701 -0.36025,2.028077 -6.82412,-5.3678524 -15.50456,-2.6887747 -17.56292,5.420508 -1.61932,6.3796 0.25143,7.816052 10.1791,7.816052 4.58294,0 6.84213,0.600577 7.36275,1.9573 1.1175,2.912165 -1.62281,4.0427 -9.79911,4.0427 -7.33139,0 -7.33344,0.0012 -7.75819,4.427698 -0.55025,5.734664 2.60777,10.441081 7.76625,11.574073 3.24231,0.71213 5.06214,0.165114 8.71185,-2.618657 5.71063,-4.355713 6.1433,-2.240812 0.51111,2.49836 -4.71822,3.970132 -11.7394,4.516166 -17.5476,1.364675 z m 44.15736,0.50908 c -0.0876,-0.965376 -0.0356,-5.148927 0.11547,-9.296779 0.2688,-7.380233 0.0999,-7.761549 -7.89856,-17.826705 -4.49528,-5.656837 -7.95098,-10.96314 -7.67931,-11.791785 0.27165,-0.8286446 2.00808,-1.6878379 3.85873,-1.9093184 3.65303,-0.4371833 8.9435,4.7151404 13.55762,13.2035994 l 2.46141,4.528188 3.23369,-3.997881 C 429.26836,19.799046 431.07577,16.65 431.5063,15 c 0.43052,-1.65 1.31772,-3 1.97156,-3 0.65383,0 1.18879,-0.859568 1.18879,-1.91015 0,-2.1414502 4.58241,-4.0446525 6.65473,-2.7638908 2.6515,1.6387147 1.2339,4.8801658 -5.9355,13.5719618 -7.25964,8.801209 -7.2819,8.85623 -7.66667,18.964447 -0.37909,9.958932 -0.45052,10.145068 -4.05256,10.559527 -2.30313,0.265005 -3.72587,-0.230826 -3.82588,-1.333333 z m 31.77101,0.745458 c -1.66766,-1.667664 -1.08834,-27.824145 0.65487,-29.567354 1.07391,-1.073909 1.11996,-1.6 0.14005,-1.6 -0.80298,0 -1.68884,-2.4 -1.96857,-5.333333 -0.49844,-5.2266351 -0.42244,-5.3333332 3.79903,-5.3333332 h 4.30765 L 458.93906,17 l 0.39426,8.999999 10.33333,0.436974 10.33333,0.436973 V 17.436973 7.9999998 h 10.41525 c 8.61964,0 10.91555,0.4661009 13.31719,2.7035692 3.87696,3.611933 4.93203,8.47332 2.9024,13.373268 -2.15297,5.197729 -4.93205,6.589829 -13.15544,6.589829 h -6.69591 l -0.39174,9.666666 c -0.35555,8.773276 -0.66035,9.704908 -3.29799,10.080448 -2.518,0.358505 -3.02824,-0.399825 -3.81956,-5.676672 -0.50232,-3.349749 -0.58556,-7.343821 -0.18496,-8.875717 1.45219,-5.553124 -0.11731,-6.528058 -10.50913,-6.528058 h -9.80127 l -0.38942,10.333333 c -0.34802,9.234949 -0.6787,10.374744 -3.11095,10.72291 -1.49684,0.214267 -3.14684,-0.03573 -3.66667,-0.555556 z m 46.72153,-24.891318 c 3.33215,-3.044331 4.1047,-10.375185 1.33334,-12.652254 -1.51622,-1.245781 -7.13542,-2.120923 -11.33334,-1.765065 -1.15677,0.09806 -1.66666,2.926005 -1.66666,9.243693 v 9.102409 l 4.33333,-0.593955 c 2.38333,-0.326675 5.68333,-1.827348 7.33333,-3.334828 z M 138.04127,48.066794 c -0.43052,-0.696598 3.05984,-9.846598 7.75635,-20.333333 11.85801,-26.4775128 11.89981,-26.4690172 26.80305,5.447429 6.22602,13.333488 6.44094,16.546256 1.06306,15.891236 -2.61775,-0.318839 -3.8855,-1.829714 -5.93412,-7.072127 C 161.32294,25.605363 157.00427,16 156.03977,16 c -1.0725,0 -5.67522,10.051619 -7.32652,15.999999 -3.58436,12.911595 -8.26596,19.959806 -10.67198,16.066795 z m 74.15211,-36.756496 c -1.72697,-1.8206642 -4.27697,-3.3102982 -5.66667,-3.3102982 -1.38969,0 -2.52672,-0.6 -2.52672,-1.3333333 0,-2.0753629 2.9252,-1.5722081 7.66667,1.3187194 2.38333,1.4531467 4.33333,3.5509041 4.33333,4.6616831 0,2.610113 -0.0943,2.577023 -3.80661,-1.336771 z"
       id="path836" />
  </g>
</svg>
