<?xml version="1.0" encoding="UTF-8" standalone="no"?>
<!-- Created with Inkscape (http://www.inkscape.org/) -->

<svg
   version="1.1"
   id="svg52"
   width="201.33333"
   height="52"
   viewBox="0 0 201.33333 52"
   xmlns="http://www.w3.org/2000/svg"
   xmlns:svg="http://www.w3.org/2000/svg">
  <defs
     id="defs56" />
  <g
     id="g58">
    <path
       style="fill:#000000;stroke-width:1.33333"
       d="m 187.05412,28.498825 c 0.41152,-11.45898 1.35237,-21.4386493 2.09076,-22.1770435 0.7384,-0.7383943 2.28286,-0.9816963 3.43216,-0.5406714 1.77704,0.6819115 2.08962,3.999416 2.08962,22.1770429 v 21.37518 h -4.18038 -4.18039 z M 7.1568667,46.020929 C 6.091975,43.245867 8.5783311,38.566501 14.985141,31.287981 17.743313,28.154532 20,25.014176 20,24.309412 20,23.604648 18.174917,20.996719 15.944262,18.514012 10.036391,11.938587 7.3499392,6.5591383 9.3551941,5.3198225 12.284809,3.5092211 15.3041,5.403056 20.01138,12.003861 22.571788,15.594204 25.266666,18.364573 26,18.160236 26.733333,17.9559 29.733333,14.730892 32.666666,10.99355 35.599999,7.2562081 38.714589,4.1537469 39.587977,4.0991916 43.15767,3.8762139 42.263581,6.63161 36.621383,13.241615 c -3.275094,3.836872 -5.954717,7.892062 -5.954717,9.011534 0,1.119472 3,5.805555 6.666667,10.413518 7.498273,9.423206 8.598033,14 3.36407,14 -2.143373,0 -4.128718,-1.287014 -5.656197,-3.666667 -1.294481,-2.016667 -2.814844,-4.266667 -3.378583,-5 -0.563738,-0.733333 -2.28411,-3.011447 -3.823049,-5.062473 -1.538938,-2.051027 -3.310781,-3.551027 -3.937428,-3.333334 -0.626645,0.217694 -3.716944,4.247794 -6.867329,8.955778 -6.126598,9.155682 -8.5307897,10.971604 -9.8779503,7.460958 z M 52.439958,45.889996 c -0.445326,-1.160492 2.273505,-10.065932 6.041846,-19.789861 3.76834,-9.723928 6.851528,-18.6629982 6.851528,-19.8645997 0,-2.4350485 6.238113,-4.588159 7.93244,-2.7379141 C 74.350392,4.6820524 80.068093,17.846893 83.473232,27 c 1.023055,2.75 2.836675,7.367735 4.030267,10.261632 2.490762,6.038929 1.748182,9.405035 -2.074799,9.405035 -1.976676,0 -3.075128,-1.447759 -4.299448,-5.666667 C 78.219,30.971505 76.531595,29.333333 69.11195,29.333333 c -6.249648,0 -6.678728,0.233047 -8.51332,4.623842 -1.06258,2.543113 -1.931964,6.023113 -1.931964,7.733333 0,5.227759 -4.63307,8.352451 -6.226708,4.199495 z M 74.666665,24.369633 c 0,-0.373118 -1.041802,-3.611657 -2.315116,-7.196754 -2.543559,-7.161557 -4.450761,-7.7256221 -5.882761,-1.739859 -0.513198,2.145172 -1.336713,5.204855 -1.83003,6.799293 -0.758379,2.451138 -0.31056,2.972312 2.898817,3.373672 3.937634,0.492436 7.12909,-0.06104 7.12909,-1.236352 z m 23.219863,21.815462 c -0.429847,-1.120164 3.107982,-10.620059 7.861832,-21.110878 11.59806,-25.59460425 11.8237,-25.59865015 23.31609,-0.41806 8.57585,18.790274 9.13881,22.05485 3.97875,23.072432 -1.43017,0.282035 -3.84046,-4.110237 -8.41427,-15.333333 -3.52548,-8.650724 -7.17782,-16.575753 -8.11632,-17.611176 -1.99116,-2.196801 -2.26853,-1.633271 -10.71726,21.774067 -3.7595,10.415761 -6.381428,13.607276 -7.908822,9.626948 z M 146.66666,26.666667 V 5.3333333 H 150 c 3.1815,0 3.33333,0.3608015 3.33333,7.9213107 0,4.356721 0.51012,8.236581 1.1336,8.621913 0.62348,0.385331 3.17348,-1.799637 5.66667,-4.855486 8.11878,-9.9510387 10.06454,-11.5606055 13.03593,-10.7835717 l 2.79685,0.7313928 -2.74282,3.8519419 c -1.50856,2.118568 -4.80099,5.421781 -7.31654,7.340473 -2.51553,1.918692 -4.57369,3.897872 -4.57369,4.398177 0,0.500307 3.54055,5.084719 7.86788,10.187583 9.64013,11.367818 10.54764,14.417653 4.4646,15.004141 -3.63847,0.350799 -4.54835,-0.145387 -5.66831,-3.091112 -1.17946,-3.102211 -7.31265,-12.196471 -9.4372,-13.993429 C 158.12678,30.3 157.09162,28.8 156.25993,27.333333 154.92386,24.97722 154.71513,25.287773 154.46761,30 c -0.15407,2.933333 -0.14015,7.333085 0.0309,9.777227 C 154.85381,44.851584 152.81357,48 149.17008,48 c -2.34468,0 -2.50342,-1.35264 -2.50342,-21.333333 z"
       id="path697" />
  </g>
</svg>
