<?xml version="1.0" encoding="UTF-8" standalone="no"?>
<!-- Created with Inkscape (http://www.inkscape.org/) -->

<svg
   version="1.1"
   id="svg62"
   width="204"
   height="52"
   viewBox="0 0 204 52"
   xmlns="http://www.w3.org/2000/svg"
   xmlns:svg="http://www.w3.org/2000/svg">
  <defs
     id="defs66" />
  <g
     id="g68">
    <path
       style="fill:#000000;stroke-width:1.33333"
       d="M 74.628152,47.474609 C 62.271684,43.422324 59.394279,19.005721 70.020895,8.3791055 73.657087,4.7429139 75.405335,4 80.325948,4 c 6.178408,0 13.007385,4.1495627 13.007385,7.903813 0,1.071692 -1.343201,0.369575 -3.269668,-1.709116 -3.624138,-3.9105109 -5.10116,-4.1896453 -11.101317,-2.0979794 -2.740489,0.9553399 -4.576957,2.7918074 -5.532297,5.5322974 -2.758736,7.913717 -2.209836,8.68699 6.903282,9.725117 9.740404,1.109585 10.465174,1.417531 9.465783,4.021901 -0.551971,1.438412 -3.010835,1.9573 -9.275101,1.9573 -7.956224,0 -8.522802,0.199832 -8.505808,3 0.03496,5.761371 1.681965,9.121219 5.418385,11.053398 5.189639,2.683666 8.738673,2.438004 12.007852,-0.831175 1.527779,-1.527779 3.144445,-2.411112 3.592593,-1.962964 1.484108,1.484108 -4.55745,6.24674 -9.27345,7.310371 -2.769431,0.624608 -6.451076,0.451978 -9.135435,-0.428354 z M 5.404758,46.300309 C 5.4440416,45.401805 9.0296901,38.966667 13.372865,32 17.716041,25.033333 22.879257,16.483333 24.84668,13 c 2.862376,-5.0678571 4.284693,-6.3333333 7.118276,-6.3333333 2.751204,0 4.050368,1.067854 5.823893,4.7869733 1.255511,2.632835 5.89687,10.804305 10.31413,18.158821 4.417258,7.354516 7.843213,14.350379 7.613232,15.54636 -0.366367,1.90523 -3.51187,2.211702 -25.400514,2.474822 C 11.293281,47.862308 5.3503728,47.544216 5.404758,46.300309 Z M 44.557617,40.524015 C 47.655376,39.335293 47.267899,38.063025 40.730172,27.956733 37.4651,22.909448 33.787699,16.834504 32.558171,14.456857 L 30.322663,10.133863 27.93074,13.087762 C 24.357443,17.500597 12,38.3261 12,39.935199 c 0,1.509862 28.800069,2.030722 32.557617,0.588816 z m 62.876273,4.125154 C 102.7414,39.585885 101.49455,34.048408 102.83689,24.233027 104.23407,14.016581 107.14878,8 110.70091,8 c 3.31707,0 3.31148,1.7553319 -0.0276,8.652868 -1.463,3.022139 -3.02685,9.061573 -3.47524,13.420965 -0.70588,6.862908 -0.4255,8.418034 2.0901,11.592834 2.92719,3.694242 7.09976,4.646018 10.61507,2.421326 1.3687,-0.866197 1.81191,-3.443222 1.57797,-9.175188 -0.28541,-6.9933 0.0489,-8.232816 2.72673,-10.10841 1.67862,-1.175751 3.46226,-2.137728 3.96364,-2.137728 0.50139,0 0.81788,3.832904 0.70333,8.517562 -0.16386,6.700771 0.33349,9.118167 2.3317,11.333334 5.05146,5.599932 12.98075,2.957148 16.87742,-5.625139 4.05042,-8.920912 2.63348,-19.875539 -3.19619,-24.710166 C 142.27717,10.017151 143.15653,8 146.71112,8 c 4.27789,0 7.24085,7.431503 7.17665,18 -0.0961,15.833677 -5.92892,22.965341 -17.52846,21.432028 -8.73925,-1.15522 -12.02675,-1.165257 -19.27145,-0.05884 -5.7066,0.871517 -6.53956,0.636485 -9.65397,-2.724019 z m 55.53172,-17.544781 c 0.34784,-19.9637708 0.51223,-21.1251041 3.04138,-21.4876901 2.57408,-0.369027 12.95848,10.6727631 21.84008,23.2226611 1.74921,2.471686 3.69921,4.493974 4.33333,4.493974 0.63411,0 1.15293,-6.343994 1.15293,-14.097765 0,-12.7081053 0.23,-14.0536351 2.33334,-13.6500704 2.07836,0.3987735 2.3725,2.6213529 2.6918,20.3393034 0.23506,13.044488 -0.14148,20.38217 -1.09391,21.316738 -1.53575,1.506956 -11.40132,-8.297126 -21.90493,-21.768396 -2.91887,-3.743563 -5.76887,-6.806476 -6.33334,-6.806476 -1.02254,0 -1.45198,5.503329 -1.60985,20.63092 -0.0681,6.522677 -0.51168,8.049953 -2.45083,8.437721 -2.20044,0.440017 -2.34174,-1.017535 -2,-20.63092 z"
       id="path558" />
  </g>
</svg>
