<?xml version="1.0" encoding="UTF-8" standalone="no"?>
<!-- Created with Inkscape (http://www.inkscape.org/) -->

<svg
   version="1.1"
   id="svg72"
   width="136"
   height="54.666668"
   viewBox="0 0 136 54.666668"
   xmlns="http://www.w3.org/2000/svg"
   xmlns:svg="http://www.w3.org/2000/svg">
  <defs
     id="defs76" />
  <g
     id="g78">
    <path
       style="fill:#000000;stroke-width:1.33333"
       d="m 95.128595,48.613921 c -0.474838,-1.237407 0.468493,-5.331751 2.096292,-9.098543 1.627798,-3.76679 5.089343,-12.698711 7.692313,-19.848711 4.40072,-12.0881405 4.98648,-13.0000002 8.35097,-13.0000002 3.26379,0 4.09741,1.103143 8.5084,11.2592172 2.68955,6.19257 4.8901,11.916473 4.8901,12.719785 0,0.803312 1.2,3.812761 2.66666,6.687665 3.08073,6.038715 3.38191,9.746554 0.95529,11.760471 -2.63397,2.186 -4.50276,0.215718 -7.56933,-7.98042 -2.80815,-7.505455 -2.82455,-7.520056 -9.09959,-8.102528 -7.82365,-0.726222 -9.37739,0.606505 -11.41748,9.793397 -1.64459,7.405881 -5.306868,10.413762 -7.073625,5.809667 z M 116.15796,23.060079 c -3.02877,-7.710657 -4.74212,-8.460823 -6.67307,-2.921707 -2.70056,7.746839 -2.09798,9.194962 3.82617,9.194962 h 5.31106 z M 6.219074,48.354471 C 5.8361511,47.734888 5.3302091,37.951666 5.0947585,26.613978 L 4.6666667,6.0000001 8.27325,5.5839015 c 3.598766,-0.4151968 3.607436,-0.3949659 4,9.3333335 L 12.666667,24.666667 23,25.056086 C 34.689793,25.496625 33.779496,26.615573 33.350337,12.333334 33.140863,5.3620996 33.156833,5.3333335 37.236665,5.3333335 h 4.096668 L 41.201467,19.666667 c -0.07252,7.883334 -0.522524,17.633334 -1,21.666667 -0.736928,6.22498 -1.312847,7.396589 -3.810519,7.751851 -2.791637,0.397076 -2.962409,-0.11524 -3.333333,-10 L 32.666667,28.666667 h -10 -10 L 12,38.654102 C 11.472469,46.557126 10.872304,48.729135 9.1243155,49.061261 7.9093556,49.292108 6.6019969,48.974053 6.219074,48.354471 Z M 55.890277,38.426069 C 55.829931,32.325065 55.595705,23.608059 55.369777,19.054946 54.794273,7.4568692 56.114691,6.0428811 67.419709,6.1511024 c 8.10128,0.077552 9.331311,0.4535848 12.131172,3.7086188 5.834638,6.7831698 2.201242,18.1402798 -5.803482,18.1402798 -1.51107,0 -4.597527,0.370025 -6.858794,0.822278 -4.084137,0.816828 -4.113972,0.885336 -4.5,10.333334 -0.355876,8.709998 -0.641277,9.54694 -3.388605,9.937123 -2.897612,0.411527 -3.003745,0.04748 -3.109723,-10.666667 z M 72.914065,23.767582 c 3.295175,-3.095656 3.951672,-7.65858 1.70569,-11.855237 -0.998208,-1.86517 -2.803092,-2.5790114 -6.520792,-2.5790114 -4.910707,0 -5.165635,0.2148978 -5.701662,4.8063584 -0.308613,2.643496 -0.306157,6.543497 0.0055,8.666667 0.456553,3.110756 1.232447,3.860308 3.995963,3.860308 1.886169,0 4.81807,-1.304588 6.515334,-2.899085 z"
       id="path398" />
  </g>
</svg>
