<?xml version="1.0" encoding="UTF-8" standalone="no"?>
<!-- Created with Inkscape (http://www.inkscape.org/) -->

<svg
   version="1.1"
   id="svg82"
   width="270.66666"
   height="54.666668"
   viewBox="0 0 270.66666 54.666668"
   xmlns="http://www.w3.org/2000/svg"
   xmlns:svg="http://www.w3.org/2000/svg">
  <defs
     id="defs86" />
  <g
     id="g88">
    <path
       style="fill:#000000;stroke-width:1.33333"
       d="m 115.11445,48.577065 c -0.44102,-1.149281 -0.43408,-8.199281 0.0154,-15.666667 0.44951,-7.467385 0.82918,-16.145895 0.8437,-19.285578 0.0277,-5.9842917 2.75395,-8.7639485 5.7031,-5.814797 1.4746,1.4745966 1.61176,39.438557 0.15103,41.802066 -1.14804,1.857572 -5.88343,1.12749 -6.71327,-1.035024 z m 20.37781,0.370694 c -1.94818,-1.424545 -2.18649,-4.190521 -1.86309,-21.623957 L 134,7.3333335 151.50133,6.9624514 c 20.2426,-0.4289739 19.11455,-1.2868637 19.14713,14.5615636 0.0144,6.9973 -0.44188,9.033898 -2.17264,9.698052 -1.20496,0.462387 -2.32813,0.67658 -2.49596,0.475986 -0.22594,-0.27009 -1.76669,-15.634702 -1.95644,-19.509974 -0.0181,-0.371401 -23.67794,0.618826 -24.99574,1.046142 -0.16811,0.05451 0.0513,8.120774 0.48768,17.925029 0.81298,18.267099 0.21958,20.890835 -4.0231,17.788509 z m 46.1744,0.744721 c -1.95225,-0.680987 -2.45257,-41.0493861 -0.52353,-42.2415978 0.62873,-0.3885732 8.0924,-1.0174464 16.58596,-1.3974962 19.64065,-0.8788347 19.85944,-0.7154827 19.32245,14.426737 -0.30289,8.541328 -0.80701,10.853211 -2.36661,10.853211 -1.08996,0 -2.10304,-0.9 -2.2513,-2 -0.14824,-1.1 -0.65374,-5.482925 -1.12333,-9.739834 l -0.85381,-7.739834 -12.22824,0.4065 L 186,12.666667 l 0.21802,18.234932 c 0.21846,18.271905 -0.26905,20.284638 -4.55136,18.790881 z M 22.227043,48.275103 C 21.938282,47.75713 21.338802,45.80751 20.894866,43.942614 20.343285,41.625517 18.378681,39.797872 14.690254,38.170541 8.0950075,35.260725 4.7367736,29.526067 5.7980929,22.985923 6.9205496,16.069034 10.026855,12.240864 15.323244,11.247256 19.119925,10.534994 20,9.7705468 20,7.1849456 c 0,-2.5083863 0.708079,-3.1849455 3.333333,-3.1849455 2.626925,0 3.333333,0.6761768 3.333333,3.1906817 0,3.2242002 2.194165,4.8093182 6.657192,4.8093182 1.3415,0 3.992428,1.846035 5.890949,4.1023 6.983425,8.29933 2.524657,21.366802 -7.961849,23.334084 -3.920815,0.735549 -4.586292,1.398568 -4.586292,4.569353 0,3.399069 -3.206028,6.482148 -4.439623,4.269366 z M 20.744918,25.673353 C 20.220345,18.52703 19.624017,12.512906 19.419745,12.308634 c -1.244924,-1.244923 -4.869864,1.911112 -6.752948,5.879414 -2.9552135,6.227651 -1.629733,14.194293 2.962651,17.806664 5.71975,4.499156 6.140978,3.649256 5.11547,-10.321359 z m 14.216705,6.193609 c 1.925553,-2.584776 2.135335,-4.065196 1.090723,-7.697221 -1.741187,-6.053958 -5.014287,-10.836407 -7.416417,-10.836407 -1.600352,0 -1.969263,2.403365 -1.969263,12.829296 v 12.829296 l 2.955433,-1.962334 c 1.625488,-1.079284 4.028274,-3.402467 5.339524,-5.16263 z M 51.606251,47.563756 C 50.431307,44.5019 52.064053,7.4026122 53.434044,6.0326212 c 0.852468,-0.8524677 2.098683,-0.8060171 3.588535,0.1337572 2.022826,1.2759667 2.231008,3.6997233 1.829786,21.3033646 -0.249001,10.924975 -0.728058,20.313591 -1.06457,20.863592 -1.021731,1.669928 -5.457322,1.117713 -6.181544,-0.769579 z m 48.854499,0.175612 C 99.734878,46.782716 96.213088,38.950001 92.634554,30.333334 89.056018,21.716667 85.732486,14.666667 85.248925,14.666667 c -0.930058,0 -7.199787,14.584324 -11.320571,26.333334 -1.735192,4.947311 -3.15988,7 -4.858414,7 -1.321802,0 -2.403275,-0.223729 -2.403275,-0.497176 0,-0.550756 3.889599,-9.587871 8.967938,-20.836158 1.820956,-4.033333 4.215443,-9.588803 5.321082,-12.345487 2.713436,-6.765401 11.044313,-8.8635599 11.044313,-2.781547 0,1.126907 0.867278,3.641497 1.927286,5.587978 1.060008,1.946481 4.376051,8.906347 7.368986,15.466368 5.30416,11.625857 5.37905,11.989959 2.96297,14.406034 -1.9864,1.986408 -2.74085,2.133256 -3.79849,0.739355 z m 134.7595,-0.30125 c -9.59512,-4.177716 -13.25464,-15.916955 -8.97167,-28.779847 2.70709,-8.130107 8.66487,-13.3249375 15.28192,-13.3249375 4.85193,0 4.94236,2.0835149 0.13616,3.1371695 -2.01667,0.44211 -4.69881,2.256298 -5.96031,4.031529 -3.0276,4.260523 -4.84656,16.304966 -3.34934,22.177968 3.01757,11.836808 14.6885,16.008437 21.64784,7.737748 3.39045,-4.02934 3.55162,-4.863804 3.11852,-16.146939 -0.44994,-11.721537 -0.52518,-11.955171 -5.07302,-15.751081 l -4.61629,-3.8530612 h 3.7438 c 12.8862,0 19.87688,21.4416942 11.15251,34.2067582 -1.58134,2.313717 -4.49515,5.163717 -6.47515,6.333333 -4.36047,2.575794 -14.97704,2.694827 -20.63497,0.23136 z"
       id="path259" />
  </g>
</svg>
