<?xml version="1.0" encoding="UTF-8" standalone="no"?>
<!-- Created with Inkscape (http://www.inkscape.org/) -->

<svg
   version="1.1"
   id="svg92"
   width="45.333332"
   height="50.666668"
   viewBox="0 0 45.333332 50.666668"
   xmlns="http://www.w3.org/2000/svg"
   xmlns:svg="http://www.w3.org/2000/svg">
  <defs
     id="defs96" />
  <g
     id="g98">
    <path
       style="fill:#000000;stroke-width:1.33333"
       d="m 7.9999998,45.789101 c -1.1,-0.366873 -2.7457925,-0.899058 -3.6573167,-1.182636 -1.756526,-0.54646 0.7976123,-4.928577 8.6550279,-14.849374 l 4.087183,-5.160489 -3.954636,-4.631633 C 7.9223198,13.865476 4.0111756,7.7371441 4.004984,5.6666668 3.997078,3.0229455 39.110594,3.3217644 41.320237,5.9842227 43.640763,8.7802841 41.814872,9.2239457 26.251882,9.6455888 L 13.170431,10 16.13667,13.333334 c 1.631432,1.833333 4.453703,4.955529 6.271711,6.938213 l 3.30547,3.60488 -7.0672,7.728454 -7.067199,7.728453 15.543607,0.375647 c 8.548984,0.206607 15.543606,0.922584 15.543606,1.591061 0,0.668479 -1.333504,2.149438 -2.963341,3.291021 -2.233066,1.564101 -6.258193,2.049665 -16.333333,1.970342 C 16.016496,46.503511 9.0999997,46.155973 7.9999998,45.789101 Z"
       id="path120" />
  </g>
</svg>
