<?xml version="1.0" encoding="UTF-8" standalone="no"?>
<!-- Created with Inkscape (http://www.inkscape.org/) -->

<svg
   version="1.1"
   id="svg2"
   width="362.66666"
   height="54.666668"
   viewBox="0 0 362.66666 54.666668"
   sodipodi:docname="031.png"
   inkscape:version="1.1.2 (0a00cf5339, 2022-02-04)"
   xmlns:inkscape="http://www.inkscape.org/namespaces/inkscape"
   xmlns:sodipodi="http://sodipodi.sourceforge.net/DTD/sodipodi-0.dtd"
   xmlns="http://www.w3.org/2000/svg"
   xmlns:svg="http://www.w3.org/2000/svg">
  <defs
     id="defs6" />
  <sodipodi:namedview
     id="namedview4"
     pagecolor="#ffffff"
     bordercolor="#666666"
     borderopacity="1.0"
     inkscape:pageshadow="2"
     inkscape:pageopacity="0.0"
     inkscape:pagecheckerboard="0"
     showgrid="false"
     inkscape:zoom="3.5349266"
     inkscape:cx="104.38689"
     inkscape:cy="27.440457"
     inkscape:window-width="2560"
     inkscape:window-height="1299"
     inkscape:window-x="0"
     inkscape:window-y="32"
     inkscape:window-maximized="1"
     inkscape:current-layer="g8" />
  <g
     inkscape:groupmode="layer"
     inkscape:label="Image"
     id="g8">
    <path
       style="fill:#000000;stroke-width:1.33333"
       d="m 136.94513,48.500689 c -1.15032,-1.15032 -1.27253,-38.096072 -0.13581,-41.0583055 1.22545,-3.193501 5.68849,-2.5863 6.54862,0.89095 0.40815,1.6500001 0.56959,11.4000005 0.35874,21.6666675 -0.36204,17.629432 -0.53458,18.688314 -3.10488,19.056244 -1.49684,0.214267 -3.14684,-0.03573 -3.66667,-0.555556 z m 61.97213,-0.31759 c -1.99206,-1.263301 -0.13616,-7.584686 8.66583,-29.516432 4.42884,-11.0352779 5.49288,-12.6666669 8.2616,-12.6666669 2.72447,0 3.92668,1.7125566 8.42395,11.9999999 9.80284,22.423828 11.73909,28.333736 9.808,29.936392 -3.09638,2.569769 -5.96968,-0.03591 -8.89916,-8.070292 -1.57747,-4.326355 -2.93774,-7.903549 -3.0228,-7.949319 -1.53952,-0.82828 -12.5874,-1.033186 -13.74588,-0.254946 -0.87516,0.587914 -2.30706,4.054511 -3.18198,7.70355 -2.37841,9.919668 -2.39604,9.969526 -3.51832,9.947532 -0.57301,-0.0112 -1.82906,-0.519646 -2.79124,-1.129818 z m 20.48851,-23.70252 c -0.48583,-1.935681 -1.68169,-5.385681 -2.65749,-7.666667 l -1.77416,-4.147245 -2.15374,4.957175 c -3.53486,8.136127 -2.96116,10.376159 2.6575,10.376159 4.534,0 4.76032,-0.202779 3.92789,-3.519422 z m 25.20545,23.42972 c -0.91366,-1.478339 0.5857,-39.8133963 1.62631,-41.5805712 0.32503,-0.5519833 1.75456,-0.380873 3.17672,0.3802449 C 251.8019,7.9878055 252,9.6735213 252,28.713579 v 20.619756 h -3.25464 c -1.79006,0 -3.65042,-0.640367 -4.13414,-1.423036 z m 21.43787,-1.739998 c -3.27895,-3.278943 -6.02875,-10.9837 -6.04165,-16.928299 -0.0136,-6.267423 3.9715,-17.13691 6.84722,-18.675948 3.78702,-2.0267469 6.49009,0.473742 4.11219,3.803978 -3.50532,4.90915 -4.67449,9.308107 -4.81787,18.127002 -0.13582,8.35399 0.152,9.390692 3.25736,11.73264 2.81128,2.12017 4.06341,2.319122 7.16769,1.138879 3.6325,-1.381075 3.73058,-1.662061 2.86298,-8.202319 -1.01095,-7.620919 1.4211,-13.166233 5.77444,-13.166233 2.18213,0 2.46138,1.034054 2.30258,8.526326 -0.1417,6.686263 0.36746,9.132107 2.35928,11.333334 2.74739,3.036212 7.44822,3.620724 11.53387,1.434148 8.24449,-4.41232 9.30255,-24.107888 1.70331,-31.707121 -2.22292,-2.222929 -1.14059,-4.2533544 2.26729,-4.2533544 5.61936,0 9.55155,15.5374444 6.60005,26.0791524 -2.46593,8.807444 -8.03777,13.933403 -15.0804,13.873602 -3.06026,-0.02599 -7.01722,-0.852284 -8.79326,-1.836219 -2.70898,-1.500791 -3.93708,-1.49318 -7.62384,0.04725 -6.39172,2.670635 -10.84305,2.261378 -14.43124,-1.326816 z m 55.10641,0.8297 c -0.26887,-1.283333 -0.30637,-10.583333 -0.0833,-20.666667 0.40477,-18.3021821 0.41085,-18.3333338 3.57614,-18.3333338 2.34368,0 5.7602,3.0521968 13.09892,11.7020838 15.07103,17.763681 14.25276,17.666269 14.25276,1.696745 0,-12.2287248 0.2344,-13.5493721 2.33334,-13.146524 2.07618,0.3984827 2.37401,2.616426 2.70246,20.125873 0.32678,17.419323 0.1116,19.776839 -1.87398,20.538809 -1.58671,0.608873 -3.45059,-0.657439 -6.36915,-4.327151 -10.29989,-12.950813 -21.10903,-24.551693 -22.23035,-23.858679 -0.67594,0.417756 -1.22898,7.024145 -1.22898,14.680867 0,10.963964 -0.39183,13.921311 -1.8445,13.921311 -1.01446,0 -2.06446,-1.05 -2.33333,-2.333334 z M 6.9376,46.326456 C 4.9303978,43.907925 7.3847332,6.5471955 9.6450681,5.1124551 13.966469,2.3694598 16.758018,4.7252381 23.54647,16.843798 l 4.213136,7.521177 2.939159,-5.849155 c 4.86426,-9.6802566 9.095737,-14.5158199 12.702422,-14.5158199 1.796014,0 3.331813,0.45 3.412889,1 0.08108,0.55 0.31491,10.1942219 0.51963,21.4316029 0.315462,17.316122 0.06204,20.550631 -1.661974,21.212197 -1.118806,0.429327 -2.955542,0.199423 -4.081634,-0.510899 -1.687265,-1.064299 -1.999968,-4.209457 -1.777581,-17.878863 l 0.269858,-16.587371 -6.041188,10.969935 c -3.322653,6.033463 -6.041188,11.583463 -6.041188,12.333334 0,0.749869 -0.75,1.362842 -1.666666,1.362164 -0.916667,-6.79e-4 -4.315024,-5.426945 -7.551905,-12.058366 -3.236882,-6.631423 -6.251481,-11.46454 -6.699109,-10.740262 -0.447629,0.724278 -0.35715,7.800543 0.201064,15.725033 0.558214,7.924489 0.741644,15.158163 0.407622,16.074829 -0.78251,2.147467 -3.9686181,2.143659 -5.753405,-0.0069 z M 70.465991,38.25419 c -0.472431,-9.355483 -0.737999,-10.036345 -6.630807,-17 -8.166169,-9.650132 -10.01939,-13.2265646 -7.639512,-14.7430825 0.99238,-0.6323691 2.603399,-0.8560648 3.580043,-0.4971014 0.976645,0.3589634 2.252925,0.6526607 2.836181,0.6526607 0.583255,0 3.384181,3.5740062 6.224283,7.9422362 2.840101,4.368231 5.824052,7.968231 6.631001,8 0.806951,0.03177 3.434453,-3.818071 5.838895,-8.5552 2.404441,-4.7371312 5.044209,-8.8394775 5.86615,-9.1163258 2.225611,-0.749635 6.161107,0.5212596 6.161107,1.9896134 0,0.705452 -3.49366,5.5854734 -7.763691,10.8444914 -7.234776,8.910436 -7.724638,9.949911 -7.190474,15.257995 0.315268,3.132877 0.181741,7.782877 -0.296727,10.333333 -0.6995,3.728652 -1.482635,4.637191 -3.997125,4.637191 -2.95058,0 -3.154976,-0.550381 -3.619324,-9.745811 z M 103,47.11696 C 100.40218,46.068718 100.65518,8.8893358 103.27492,6.7151399 106.65595,3.9091386 108,6.5502202 108,16 c 0,5.046775 0.61278,9.554674 1.36173,10.017553 0.74896,0.46288 3.59896,-0.251711 6.33334,-1.587978 4.45956,-2.179348 5.01434,-3.02385 5.38665,-8.199697 0.35195,-4.892891 -0.003,-5.87939 -2.33334,-6.4888424 -3.88365,-1.0155978 -3.47345,-4.4077021 0.53301,-4.4077021 6.91622,0 12.13494,10.6223495 8.18239,16.6547005 -2.15557,3.28982 -9.26275,5.991279 -15.79712,6.004531 L 108,28.000001 v 10 c 0,10.016528 -0.50203,10.93193 -5,9.116959 z m 50.03652,-4.783626 c -0.32979,-3.116666 -0.46912,-10.766667 -0.30966,-17 0.50618,-19.7841176 0.28235,-18.6666672 3.73899,-18.6666672 2.33668,0 5.96132,3.3874482 14.26695,13.3333332 6.12392,7.333334 11.64574,13.333334 12.27069,13.333334 0.62496,0 1.00015,-5.695319 0.83377,-12.656263 -0.31176,-13.0430177 0.10387,-14.8299462 3.17522,-13.6513604 1.40446,0.5389485 1.72893,4.7013444 1.49388,19.1647184 -0.16515,10.161932 -0.34664,19.226239 -0.40331,20.142905 -0.2536,4.101561 -4.53763,0.643064 -16.10305,-13 -6.83824,-8.066667 -12.9357,-14.666667 -13.54991,-14.666667 -0.61421,0 -1.11676,6.6 -1.11676,14.666667 0,11.614315 -0.38472,14.666667 -1.84861,14.666667 -1.19188,0 -2.06162,-2.013087 -2.4482,-5.666667 z"
       id="path910" />
  </g>
</svg>
