<?xml version="1.0" encoding="UTF-8" standalone="no"?>
<!-- Created with Inkscape (http://www.inkscape.org/) -->

<svg
   version="1.1"
   id="svg12"
   width="180"
   height="53.333332"
   viewBox="0 0 180 53.333332"
   sodipodi:docname="032.png"
   inkscape:version="1.1.2 (0a00cf5339, 2022-02-04)"
   xmlns:inkscape="http://www.inkscape.org/namespaces/inkscape"
   xmlns:sodipodi="http://sodipodi.sourceforge.net/DTD/sodipodi-0.dtd"
   xmlns="http://www.w3.org/2000/svg"
   xmlns:svg="http://www.w3.org/2000/svg">
  <defs
     id="defs16" />
  <sodipodi:namedview
     id="namedview14"
     pagecolor="#ffffff"
     bordercolor="#666666"
     borderopacity="1.0"
     inkscape:pageshadow="2"
     inkscape:pageopacity="0.0"
     inkscape:pagecheckerboard="0"
     showgrid="false"
     inkscape:zoom="7.1222222"
     inkscape:cx="51.809672"
     inkscape:cy="26.677067"
     inkscape:window-width="2560"
     inkscape:window-height="1299"
     inkscape:window-x="0"
     inkscape:window-y="32"
     inkscape:window-maximized="1"
     inkscape:current-layer="g18" />
  <g
     inkscape:groupmode="layer"
     inkscape:label="Image"
     id="g18">
    <path
       style="fill:#000000;stroke-width:1.33333"
       d="M 69,49.739268 C 66.325461,49.049848 66.093381,44.451114 67.539972,20.808427 68.365819,7.3110329 68.565085,6.5570381 71.206639,6.934344 73.90852,7.3202666 74,8.0283387 74,28.555555 74,49.944713 73.758948,50.965989 69,49.739268 Z M 12.630411,47.941336 c -0.433284,-0.701069 -0.498778,-1.7423 -0.145543,-2.313848 0.353236,-0.571548 0.789893,-8.521548 0.970349,-17.666666 l 0.328103,-16.627489 -3.224994,-0.0206 C 8.2444631,11.297947 7.21296,10.450382 6.9072653,8.3127294 6.5344852,5.705962 7.0764489,5.3333332 11.240599,5.3333332 c 4.333938,0 5.446676,0.9805922 4.917296,4.3333332 -0.08684,0.5499996 0.759037,0.9999996 1.879732,0.9999996 1.746466,0 1.984618,2.598114 1.666666,18.182465 -0.354962,17.398383 -0.498498,18.229564 -3.328526,19.27467 -1.713346,0.632724 -3.288982,0.555963 -3.745356,-0.182465 z m 31.97616,-0.03857 C 44.120292,47.115948 43.813724,38.415948 43.925308,28.56943 L 44.128187,10.666666 34.397427,10.53376 C 23.370693,10.383152 18.444183,9.3325475 17.654408,6.9632224 17.241731,5.7251932 22.130036,5.3333332 37.986655,5.3333332 c 18.959397,0 20.83533,0.2088084 20.437442,2.2748729 -0.240954,1.2511799 -1.934949,2.6274059 -3.764432,3.0582799 -3.317917,0.781425 -3.327278,0.828662 -3.700313,18.671559 -0.256315,12.259933 -0.885583,18.213216 -2,18.921303 -2.226748,1.414845 -3.312972,1.32586 -4.352781,-0.356587 z m 59.167279,0.532112 c -1.92734,-0.510047 -2.1407,-2.144736 -1.58954,-12.178665 0.35014,-6.374248 0.13638,-14.283173 -0.475,-17.575389 l -1.11161,-5.985848 -7.565388,-0.01415 c -4.160961,-0.0078 -8.263164,-0.711874 -9.116005,-1.564644 -3.652926,-3.6526191 0.43567,-4.4495095 22.829053,-4.4495095 21.69908,0 22.58797,0.1049395 22.58797,2.6666666 0,2.4080809 -0.88889,2.6666669 -9.16666,2.6666669 -9.03861,0 -9.17742,0.05377 -9.93647,3.849009 -0.42339,2.116955 -0.41279,9.978637 0.0236,17.470404 0.63134,10.83947 0.41414,13.861538 -1.06353,14.797239 -1.0213,0.646715 -2.15691,1.115433 -2.52357,1.041595 -0.36667,-0.07384 -1.66844,-0.399356 -2.89282,-0.723374 z m 33.55948,-0.808688 c 0,-0.93893 2.00911,-6.488929 4.4647,-12.333333 2.45558,-5.844403 5.52933,-13.926188 6.83056,-17.959521 2.6929,-8.3470308 2.94489,-8.7034039 7.02564,-9.9360433 3.2275,-0.9749068 4.78178,1.7576985 14.75212,25.9360433 5.41532,13.132295 5.6817,15.225926 2.00396,15.749312 -3.06292,0.43589 -5.83454,-3.453614 -7.53956,-10.580527 -1.00094,-4.183848 -6.61551,-6.880125 -13.04598,-6.265056 -4.33608,0.414744 -4.55716,0.717859 -6.39146,8.762937 -1.66167,7.287897 -2.28894,8.333333 -5,8.333333 -1.70499,0 -3.09998,-0.768215 -3.09998,-1.707145 z m 22.13391,-21.567384 c -3.19635,-12.73526 -6.43907,-13.624913 -8.2556,-2.264961 l -0.8858,5.539491 h 4.98163 c 4.62408,0 4.92264,-0.235019 4.15977,-3.27453 z"
       id="path771" />
  </g>
</svg>
