<?xml version="1.0" encoding="UTF-8" standalone="no"?>
<!-- Created with Inkscape (http://www.inkscape.org/) -->

<svg
   version="1.1"
   id="svg22"
   width="212"
   height="50.666668"
   viewBox="0 0 212 50.666668"
   sodipodi:docname="033.png"
   inkscape:version="1.1.2 (0a00cf5339, 2022-02-04)"
   xmlns:inkscape="http://www.inkscape.org/namespaces/inkscape"
   xmlns:sodipodi="http://sodipodi.sourceforge.net/DTD/sodipodi-0.dtd"
   xmlns="http://www.w3.org/2000/svg"
   xmlns:svg="http://www.w3.org/2000/svg">
  <defs
     id="defs26" />
  <sodipodi:namedview
     id="namedview24"
     pagecolor="#ffffff"
     bordercolor="#666666"
     borderopacity="1.0"
     inkscape:pageshadow="2"
     inkscape:pageopacity="0.0"
     inkscape:pagecheckerboard="0"
     showgrid="false"
     inkscape:zoom="6.0471698"
     inkscape:cx="61.020281"
     inkscape:cy="25.301092"
     inkscape:window-width="2560"
     inkscape:window-height="1299"
     inkscape:window-x="0"
     inkscape:window-y="32"
     inkscape:window-maximized="1"
     inkscape:current-layer="g28" />
  <g
     inkscape:groupmode="layer"
     inkscape:label="Image"
     id="g28">
    <path
       style="fill:#000000;stroke-width:1.33333"
       d="m 97.333333,25.444445 c 0,-22.0848852 0.478319,-23.8851591 5.640947,-21.2311269 2.02855,1.0428467 2.29827,3.4590125 2.23029,19.9793119 -0.0425,10.336151 -0.39515,19.621235 -0.7836,20.633519 -0.38845,1.012286 -2.14208,1.840519 -3.89696,1.840519 h -3.190677 z m 18.999997,20.281246 c -1.84422,-0.355212 -3,-1.544947 -3,-3.088135 0,-2.137543 1.19678,-2.569254 8.05947,-2.907266 l 8.05947,-0.396956 -4.1122,-5.581529 c -4.78169,-6.490224 -6.50688,-16.479845 -3.7343,-21.623273 3.13046,-5.807313 8.24483,-8.5094843 16.10582,-8.5094843 8.02072,0 14.40098,2.941911 17.0287,7.8518583 2.01771,3.770118 1.02559,15.587244 -1.53389,18.270184 -2.49881,2.619362 -6.3158,7.952634 -6.80951,9.514571 -0.21829,0.690613 2.77259,1.360091 6.64639,1.487727 7.80416,0.257137 8.99004,0.842629 7.82995,3.865776 -1.07368,2.797964 -19.2619,3.000077 -20.32646,0.225875 -0.38657,-1.007397 1.23227,-5.523293 3.59742,-10.035326 5.70042,-10.874815 5.93468,-19.149207 0.67034,-23.677398 -4.41809,-3.800288 -9.26812,-4.0020591 -12.74016,-0.530017 -4.15424,4.154237 -4.55942,10.396964 -1.46217,22.527704 1.54403,6.047355 2.45252,11.569273 2.01887,12.270929 -0.77812,1.259021 -10.46595,1.458012 -16.29774,0.33476 z m 55.69583,-1.671203 c -0.88556,-1.654675 -1.29541,-9.736435 -1.06689,-21.037346 l 0.37106,-18.3504752 h 3.25928 c 2.45843,0 5.93847,3.0983951 14.16312,12.6099312 5.99712,6.935461 11.58687,12.837604 12.42168,13.115872 1.10682,0.36894 1.27703,-3.168445 0.62859,-13.063294 l -0.88925,-13.5692358 3.06897,0.4533632 c 2.62387,0.3876126 3.06345,1.226851 3.03101,5.7866966 -0.24928,35.039904 -0.2716,35.333712 -2.6834,35.322112 -1.3041,-0.0063 -6.39285,-4.981227 -11.53662,-11.278644 -5.06182,-6.197083 -10.91182,-12.904287 -13,-14.904901 L 176,15.501091 v 14.837432 c 0,14.720181 -1.20528,18.883448 -3.97084,13.715965 z M 5.9187753,43.602461 C 5.5534663,42.650481 5.4222971,33.564838 5.6272884,23.412145 5.9525635,7.3021083 6.3060035,4.7648001 8.4042892,3.4763506 11.047303,1.8534118 11.597932,2.3723763 27.333333,21.316841 l 8,9.631512 0.378443,-14.140843 c 0.350728,-13.1052996 0.5729,-14.1408433 3.033857,-14.1408433 2.554808,0 2.641503,0.7956343 2.288224,21.0000003 -0.300137,17.165143 -0.715912,21.000001 -2.276814,21.000001 -1.050294,0 -5.140504,-3.9 -9.089359,-8.666667 C 25.718831,31.233334 19.978161,24.773499 16.910641,21.644813 l -5.577308,-5.688522 -0.377001,14.688522 c -0.307841,11.993913 -0.743567,14.688522 -2.3751799,14.688522 -1.098998,0 -2.2970676,-0.778894 -2.6623768,-1.730874 z M 50.666667,42.814144 c 0,-2.315076 10.769432,-32.8711223 13.210054,-37.4808105 0.582402,-1.1000001 2.592395,-2.1844498 4.466654,-2.4098885 3.044784,-0.3662312 3.715668,0.4131179 6.298794,7.317141 1.590079,4.249866 3.339826,8.334316 3.888327,9.076556 0.5485,0.742239 2.949561,6.385664 5.335691,12.540944 3.457489,8.918972 3.979222,11.419142 2.569448,12.312916 -3.28881,2.085054 -4.969635,1.179907 -7.12641,-3.837668 -5.081582,-11.82192 -4.895401,-11.637297 -12.16506,-12.063163 -6.338425,-0.371312 -6.858536,-0.159593 -8.188709,3.333334 -0.781216,2.051407 -1.792969,5.979829 -2.248341,8.729829 -0.627602,3.790094 -1.458614,5.000001 -3.434199,5.000001 -1.666503,0 -2.606249,-0.908355 -2.606249,-2.519191 z M 72,23.396071 c 0,-1.065494 -0.551187,-3.315494 -1.22486,-5 C 70.101467,16.711566 69.194367,14.215759 68.759363,12.849835 68.140315,10.906013 67.567572,10.699031 66.123699,11.89734 63.383744,14.1713 62.058297,22.793331 64.236385,24.17431 67.121196,26.003374 72,25.514314 72,23.396071 Z"
       id="path632" />
  </g>
</svg>
