<?xml version="1.0" encoding="UTF-8" standalone="no"?>
<!-- Created with Inkscape (http://www.inkscape.org/) -->

<svg
   version="1.1"
   id="svg32"
   width="345.33334"
   height="53.333332"
   viewBox="0 0 345.33334 53.333332"
   sodipodi:docname="034.png"
   inkscape:version="1.1.2 (0a00cf5339, 2022-02-04)"
   xmlns:inkscape="http://www.inkscape.org/namespaces/inkscape"
   xmlns:sodipodi="http://sodipodi.sourceforge.net/DTD/sodipodi-0.dtd"
   xmlns="http://www.w3.org/2000/svg"
   xmlns:svg="http://www.w3.org/2000/svg">
  <defs
     id="defs36" />
  <sodipodi:namedview
     id="namedview34"
     pagecolor="#ffffff"
     bordercolor="#666666"
     borderopacity="1.0"
     inkscape:pageshadow="2"
     inkscape:pageopacity="0.0"
     inkscape:pagecheckerboard="0"
     showgrid="false"
     inkscape:zoom="3.7123551"
     inkscape:cx="99.397819"
     inkscape:cy="26.667707"
     inkscape:window-width="2560"
     inkscape:window-height="1299"
     inkscape:window-x="0"
     inkscape:window-y="32"
     inkscape:window-maximized="1"
     inkscape:current-layer="g38" />
  <g
     inkscape:groupmode="layer"
     inkscape:label="Image"
     id="g38">
    <path
       style="fill:#000000;stroke-width:1.33333"
       d="m 200.11162,49.402315 c -1.05428,-0.651583 -1.40428,-7.20964 -1.1476,-21.503242 L 199.33334,7.3333332 H 202.66667 206 l 0.36636,20.8358558 c 0.34407,19.568079 0.21107,20.876462 -2.18573,21.503242 -1.40365,0.367062 -3.23471,0.24551 -4.06901,-0.270116 z M 10.333334,48.306447 C 7.0777825,47.606067 7.3643728,45.586191 12.502875,33.015611 14.979455,26.957025 18.058846,18.7 19.345964,14.666666 22.302492,5.4020485 23.643679,3.7150284 27.188245,4.8021995 c 1.546465,0.4743241 2.995417,1.0215321 3.219892,1.2160178 1.579454,1.3684445 16.184772,38.9174817 15.664728,40.2726947 -0.360711,0.939997 -1.907687,1.709087 -3.437723,1.709087 -2.10474,0 -3.606993,-1.866163 -6.171635,-7.666667 -3.997066,-9.04025 -4.722666,-9.619507 -12.083261,-9.646249 -6.03888,-0.02195 -8.323108,2.20407 -8.440384,8.225261 -0.09892,5.078946 -3.007916,9.953153 -5.606528,9.394103 z M 30.631702,25.666666 C 30.612471,24.383333 29.481481,20.933333 28.118389,18 l -2.47835,-5.333334 -2.153352,4.957175 c -3.50636,8.071894 -2.94822,10.376158 2.513314,10.376158 3.568876,0 4.658441,-0.548896 4.631701,-2.333333 z M 68.542937,46.999999 C 68.154251,45.716666 64.310119,36.383623 60.000421,26.259903 53.991752,12.1452 52.593613,7.6885165 54.004421,7.147139 c 4.492484,-1.7239277 6.349665,0.4963783 11.587264,13.85286 2.94758,7.516667 5.745279,13.663264 6.21711,13.659105 0.47183,-0.0041 3.001194,-6.154158 5.620809,-13.666666 C 81.3331,9.798025 82.716498,7.2564521 85.096271,6.9072652 89.073159,6.3237317 88.853719,7.8072957 82.567514,24.00343 c -2.987868,7.698113 -6.34427,16.546569 -7.45867,19.663236 -2.082561,5.824343 -5.314501,7.465113 -6.565907,3.333333 z m 80.113093,0.982782 c -0.93877,-1.518971 0.1084,-27.19455 1.47881,-36.260478 0.50798,-3.3603888 1.59779,-5.2142598 3.40184,-5.7868435 3.48584,-1.1063615 6.19935,1.4862359 11.12999,10.6340285 2.2,4.081653 4.39836,7.423285 4.88524,7.425849 0.48689,0.0025 3.05151,-3.868959 5.69915,-8.603384 5.5149,-9.8615794 6.3681,-10.6106142 10.81494,-9.494531 l 3.24776,0.8151373 -0.23284,20.7149787 c -0.128,11.393238 -0.72901,21.021641 -1.33546,21.39645 -0.60647,0.374809 -2.23303,0.322704 -3.6146,-0.115787 -2.3378,-0.74199 -2.46156,-1.963729 -1.78527,-17.623419 0.50797,-11.762244 0.29805,-16.561257 -0.69753,-15.945957 -0.78331,0.484111 -3.99655,5.97592 -7.14054,12.204022 -3.14397,6.228099 -6.09178,11.323819 -6.55068,11.323819 -0.45888,0 -2.27289,-3.15 -4.03112,-7 -3.92825,-8.601669 -8.24708,-15.628108 -9.61945,-15.650161 -0.56489,-0.0091 -0.86489,7.315744 -0.66667,16.277384 0.31582,14.278397 0.0872,16.349131 -1.84861,16.74049 -1.21496,0.245632 -2.62569,-0.227588 -3.13496,-1.051598 z m 73.70531,-0.976758 c -7.17486,-4.449167 -11.13759,-22.576949 -6.77208,-30.979446 3.65186,-7.0289251 10.05838,-10.6932438 18.69557,-10.6932438 14.84145,0 22.98296,9.6455788 21.06933,24.9617168 -0.82982,6.641677 -1.71234,8.414012 -6.64674,13.34841 -5.52111,5.521113 -5.94224,5.68882 -14.19864,5.654393 -5.61818,-0.02343 -9.7449,-0.802006 -12.14744,-2.29183 z m 20.32268,-5.229493 c 4.2306,-4.818386 4.28512,-5.051714 3.7156,-15.902551 -0.63234,-12.047518 -1.88731,-14.570224 -8.6557,-17.3994647 -5.39421,-2.2548254 -8.73674,-1.0244024 -13.03173,4.7971147 -2.692,3.648808 -3.37885,6.135716 -3.37885,12.233944 0,9.471778 1.69037,14.285177 6.37548,18.15447 5.39093,4.452205 9.9116,3.883617 14.9752,-1.883513 z m 33.93699,6.149575 c -0.85427,-1.382231 -9.32482,-21.80444 -13.65047,-32.910833 -1.52955,-3.927202 -1.77629,-6.0761774 -0.80876,-7.0437098 2.79632,-2.7963222 5.44753,0.3874971 10.69035,12.8379608 2.94533,6.99449 5.89306,12.7186 6.55049,12.720245 0.65744,0.0016 3.05831,-5.591878 5.33527,-12.430055 3.38078,-10.153147 4.6707,-12.5111764 7.03436,-12.8591145 3.70718,-0.5457094 3.8453,3.0976665 0.41062,10.8325535 -2.65558,5.980389 -8.74474,22.305895 -10.16762,27.26018 -0.89923,3.131005 -3.89659,4.016041 -5.39424,1.592773 z m 24.12521,0.202598 c -0.9514,-1.539383 15.66584,-36.370925 18.4566,-38.6870439 3.064,-2.5429009 5.97745,-0.825968 8.26884,4.8729299 1.10984,2.760309 4.76448,10.823056 8.1214,17.917214 6.34443,13.40762 6.729,17.630557 1.53556,16.861712 -2.14099,-0.316958 -3.81215,-2.658087 -6.49117,-9.093516 -1.98432,-4.766667 -5.22108,-12.205121 -7.19278,-16.529901 -3.27133,-7.175432 -3.73349,-7.641941 -5.28361,-5.333333 -0.93429,1.391447 -3.07135,6.429901 -4.74903,11.196568 -1.67768,4.766666 -3.96321,11.216666 -5.07898,14.333333 -1.94428,5.430974 -5.64342,7.606543 -7.58683,4.462037 z M 112.10735,34.024127 c 0.0624,-7.779909 0.62196,-15.918027 1.24336,-18.084709 L 114.48052,12 h -9.08475 C 97.568838,12 96.218633,11.646712 95.643743,9.4483344 94.699862,5.8389269 97.509801,5.3726681 120.33334,5.3515395 L 140,5.3333332 V 8.6666665 C 140,11.904762 139.73334,12 130.66667,12 c -8.7516,0 -9.34144,0.186985 -9.46334,3 -0.0715,1.65 -0.22151,9.599999 -0.33334,17.666666 l -0.20332,14.666666 -4.33643,0.418043 -4.33644,0.418042 z"
       id="path493" />
  </g>
</svg>
