<?xml version="1.0" encoding="UTF-8" standalone="no"?>
<!-- Created with Inkscape (http://www.inkscape.org/) -->

<svg
   version="1.1"
   id="svg42"
   width="468"
   height="57.333332"
   viewBox="0 0 468 57.333332"
   sodipodi:docname="035.png"
   inkscape:version="1.1.2 (0a00cf5339, 2022-02-04)"
   xmlns:inkscape="http://www.inkscape.org/namespaces/inkscape"
   xmlns:sodipodi="http://sodipodi.sourceforge.net/DTD/sodipodi-0.dtd"
   xmlns="http://www.w3.org/2000/svg"
   xmlns:svg="http://www.w3.org/2000/svg">
  <defs
     id="defs46" />
  <sodipodi:namedview
     id="namedview44"
     pagecolor="#ffffff"
     bordercolor="#666666"
     borderopacity="1.0"
     inkscape:pageshadow="2"
     inkscape:pageopacity="0.0"
     inkscape:pagecheckerboard="0"
     showgrid="false"
     inkscape:zoom="2.7393162"
     inkscape:cx="134.70515"
     inkscape:cy="28.839314"
     inkscape:window-width="2560"
     inkscape:window-height="1299"
     inkscape:window-x="0"
     inkscape:window-y="32"
     inkscape:window-maximized="1"
     inkscape:current-layer="g48" />
  <g
     inkscape:groupmode="layer"
     inkscape:label="Image"
     id="g48">
    <path
       style="fill:#000000;stroke-width:1.33333"
       d="m 394.25249,31.87919 c -4.90553,-11.096086 -8.91916,-20.708213 -8.91916,-21.36028 0,-0.6520674 1.65,-1.1694465 3.66667,-1.1497316 3.25037,0.031776 4.09684,1.0535896 7.45563,8.9999996 2.08393,4.930285 4.83808,11.337979 6.12033,14.239319 l 2.33137,5.275163 3.43823,-9.94183 c 5.66615,-16.383974 6.76611,-18.6084969 9.2014,-18.6084969 1.26261,0 2.60867,0.5064563 2.99123,1.1254579 0.88301,1.428732 -14.47315,40.630637 -16.13247,41.183748 -0.67875,0.226245 -5.24769,-8.667261 -10.15323,-19.763349 z m 36.04906,19.197057 C 429.96233,50.484311 429.75572,40.699999 429.8424,29.333333 L 430,8.6666665 h 15.98173 c 14.58216,0 16.02403,0.2195397 16.46454,2.5068965 0.73518,3.817515 -2.10211,4.783726 -14.11294,4.806019 -9.55689,0.01773 -11.0077,0.326531 -11.05878,2.353751 -0.0323,1.283333 -0.18232,9.233333 -0.33334,17.666666 -0.26118,14.586949 -0.41445,15.35327 -3.14873,15.742914 -1.5808,0.22527 -3.15172,-0.07473 -3.49093,-0.666666 z M 258.75885,48.26929 c -13.51792,-6.705919 -14.29477,-31.788474 -1.22368,-39.5097546 5.38842,-3.1830214 18.31258,-3.3729525 22.94571,-0.3372063 10.17132,6.6645039 12.35309,24.3216239 4.30849,34.8686459 -5.33538,6.995056 -17.33789,9.290524 -26.03052,4.978315 z m 18.90782,-5.671251 c 3.38822,-3.671708 3.66441,-4.807168 3.63701,-14.952409 -0.0315,-11.63486 -1.44495,-15.034421 -7.54936,-18.1562436 -4.87136,-2.4912366 -9.04969,-1.704106 -13.03492,2.4555656 -3.28725,3.431157 -3.85261,5.211118 -4.34084,13.666666 -0.45179,7.824437 -0.0604,10.632454 2.00548,14.388381 4.87461,8.862433 12.54785,9.896285 19.28263,2.59804 z m 22.88266,6.324679 c -2.75594,-1.544644 -2.39532,-36.219592 0.40583,-39.0207333 1.41651,-1.416508 5.64497,-1.9019849 16.56615,-1.9019849 14.44462,0 14.65778,0.044912 14.23809,3.0000002 -0.3998,2.815044 -1.20699,3.041101 -13.09273,3.666666 L 306,15.333333 l -0.37997,13.666666 -0.37999,13.666667 h 3.52264 c 2.58343,0 3.318,0.533234 2.75515,2 -0.42211,1.1 -0.2363,2 0.4129,2 0.64922,0 1.42787,-0.742479 1.73036,-1.649954 0.80312,-2.409361 18.40871,-2.386242 19.33414,0.02539 0.3807,0.992096 0.0864,2.409579 -0.65396,3.14996 -1.62454,1.624543 -29.0716,2.255344 -31.79194,0.730656 z m 41.49786,0.486957 c -0.81502,-1.318716 11.9443,-38.047337 14.09682,-40.5787207 0.54675,-0.6429749 2.42966,-0.808738 4.18426,-0.3683622 3.29152,0.8261178 4.84052,3.6986089 14.2868,26.4936259 4.63097,11.17511 4.81401,15.043781 0.7118,15.043781 -1.91648,0 -3.37115,-1.820868 -5.32591,-6.666667 -3.9882,-9.886601 -4.12321,-9.999999 -11.90637,-9.999999 h -7.08136 l -1.46326,5.666666 c -0.80478,3.116667 -1.63965,6.859776 -1.85525,8.318021 -0.42987,2.907379 -4.26544,4.327944 -5.64753,2.091655 z m 21.95014,-20.877378 c 0.005,-2.674127 -2.98644,-10.502403 -4.7282,-12.373747 -1.42737,-1.533566 -1.95417,-0.976246 -3.15076,3.333334 -0.79026,2.84613 -1.44018,6.524422 -1.44426,8.173982 -0.007,2.602988 0.6087,2.955271 4.65656,2.666667 2.56518,-0.182894 4.66518,-0.993 4.66666,-1.800236 z M 115.16045,47.363608 c -1.22054,-3.180694 0.68031,-39.7376994 2.14226,-41.19965 0.77903,-0.7790317 2.03946,-0.5965301 3.34115,0.483777 1.76097,1.4614747 2.03239,4.907387 1.72317,21.876824 -0.36003,19.757932 -0.42436,20.150248 -3.37299,20.568956 -1.83349,0.260357 -3.32878,-0.414392 -3.83359,-1.729907 z m 23.06178,1.080835 c -0.4889,-0.488888 -0.8889,-8.847157 -0.8889,-18.573932 0,-17.324912 -0.0611,-17.693718 -3,-18.11111 -1.96908,-0.279655 -3,-1.342434 -3,-3.0927345 0,-2.5536113 1.02776,-2.6843282 24.24187,-3.083255 22.87079,-0.3930267 24.32029,-0.2700516 25.62847,2.1743061 1.20252,2.2469174 0.86062,2.6960914 -2.5752,3.3832554 -4.50454,0.900906 -4.59051,1.389519 -4.03471,22.930104 0.25284,9.798771 -0.0981,12.410998 -1.86432,13.876825 -1.33628,1.109012 -2.65268,1.328852 -3.41177,0.569764 -0.67979,-0.679791 -1.40436,-9.324363 -1.61016,-19.210159 L 167.33333,11.333333 156.79315,10.94019 c -5.79711,-0.216228 -11.01412,0.08377 -11.59336,0.666667 -0.57924,0.582895 -1.17076,8.859809 -1.3145,18.393142 -0.24034,15.940665 -0.92145,19.232197 -3.9964,19.312916 -0.42778,0.0112 -1.17778,-0.379583 -1.66666,-0.868472 z m 58.87017,-0.01335 c -0.13251,-0.603769 -0.28251,-8.897764 -0.33333,-18.431097 L 196.66667,12.666666 193,12.24477 c -2.59033,-0.29805 -3.66667,-1.17869 -3.66667,-2.9999999 0,-1.4179571 0.75,-2.6249587 1.66667,-2.6822259 3.33833,-0.2085567 11.4038,-0.2248238 30.76443,-0.062048 18.0538,0.1517883 19.72594,0.3681239 19.31972,2.4995039 -0.2446,1.2833329 -1.78859,2.5250639 -3.43111,2.7594009 -1.64251,0.234338 -3.07405,0.534338 -3.18121,0.666667 -0.10716,0.132329 -0.55716,8.340598 -1,18.240598 -0.7534,16.842725 -0.97662,18 -3.47183,18 -2.51979,0 -2.68712,-1.012654 -3.03796,-18.384691 l -0.37129,-18.384689 -11.62871,0.38469 -11.62871,0.38469 -0.66666,17.984676 c -0.5841,15.757024 -0.95568,18.039972 -3,18.431098 -1.28334,0.245534 -2.44175,-0.04757 -2.57427,-0.651342 z M 20.506823,44.20078 C 19.944771,41.390522 18.386335,39.801246 14.519889,38.095374 7.8621413,35.157983 4.777654,29.525121 5.7711011,22.118419 6.6005857,15.93415 11.579952,10.666666 16.596475,10.666666 c 2.231582,0 3.357896,-0.9700185 3.973285,-3.4219242 1.061981,-4.2312688 5.234768,-3.9209301 5.856308,0.4355456 0.333348,2.3364876 1.298681,2.9863786 4.435897,2.9863786 4.501748,0 11.710683,6.17387 11.945986,10.23077 0.597481,10.301306 -3.796504,17.29877 -11.322772,18.03162 -3.608518,0.351371 -4.206522,0.971355 -4.569656,4.73761 -0.558926,5.796888 -5.277494,6.190144 -6.4087,0.534114 z M 20.952179,24.668119 C 20.785367,17.268388 20.112341,12.020744 19.333333,12.045812 18.6,12.06941 16.65,13.214932 15,14.591416 c -4.447833,3.710526 -4.291013,14.905449 0.272727,19.46919 1.8,1.8 3.878481,3.272726 4.618845,3.272726 0.831499,0 1.236968,-4.841902 1.060607,-12.665213 z m 14.55228,6.091268 c 2.726506,-5.351026 -2.024715,-17.426054 -6.856716,-17.426054 -1.736724,0 -2.851311,20.179908 -1.257063,22.759455 1.145189,1.852955 6.117469,-1.415455 8.113779,-5.333401 z M 52.299476,26.999999 52.666667,5.9999999 H 56 59.333333 V 25.333333 c 0,10.633333 -0.214193,20.083333 -0.475985,20.999999 -0.261792,0.916667 -1.927027,1.666667 -3.700524,1.666667 h -3.224539 z m 41.603348,4.779746 c -3.720112,-8.958936 -7.334508,-16.479196 -8.031989,-16.711689 -1.146224,-0.382075 -8.538063,14.68019 -8.537667,17.397105 9.1e-5,0.622505 -0.835597,3.022505 -1.857084,5.333333 -1.021488,2.310828 -2.202657,5.251505 -2.624821,6.534838 -0.738155,2.243914 -4.872374,3.384894 -4.831188,1.333334 C 68.071835,43.088168 75.274901,25.906335 81.295549,14 c 4.864931,-9.6208082 7.542232,-9.079914 13.199379,2.666666 2.472211,5.133333 6.259242,12.819212 8.415622,17.079732 4.36154,8.617421 4.50618,13.391589 0.42278,13.954626 -2.24703,0.309832 -3.731049,-2.195606 -9.430506,-15.921279 z"
       id="path354" />
  </g>
</svg>
