<?xml version="1.0" encoding="UTF-8" standalone="no"?>
<!-- Created with Inkscape (http://www.inkscape.org/) -->

<svg
   version="1.1"
   id="svg52"
   width="230.66667"
   height="54.666668"
   viewBox="0 0 230.66667 54.666668"
   sodipodi:docname="036.png"
   inkscape:version="1.1.2 (0a00cf5339, 2022-02-04)"
   xmlns:inkscape="http://www.inkscape.org/namespaces/inkscape"
   xmlns:sodipodi="http://sodipodi.sourceforge.net/DTD/sodipodi-0.dtd"
   xmlns="http://www.w3.org/2000/svg"
   xmlns:svg="http://www.w3.org/2000/svg">
  <defs
     id="defs56" />
  <sodipodi:namedview
     id="namedview54"
     pagecolor="#ffffff"
     bordercolor="#666666"
     borderopacity="1.0"
     inkscape:pageshadow="2"
     inkscape:pageopacity="0.0"
     inkscape:pagecheckerboard="0"
     showgrid="false"
     inkscape:zoom="5.5578033"
     inkscape:cx="115.33334"
     inkscape:cy="27.348935"
     inkscape:window-width="2560"
     inkscape:window-height="1299"
     inkscape:window-x="0"
     inkscape:window-y="32"
     inkscape:window-maximized="1"
     inkscape:current-layer="g58" />
  <g
     inkscape:groupmode="layer"
     inkscape:label="Image"
     id="g58">
    <path
       style="fill:#000000;stroke-width:1.33333"
       d="M 119.15875,49.962635 C 118.61716,48.51652 114.92085,39.533334 110.94474,30.000001 102.53938,9.8468906 102.03777,7.3333335 106.4214,7.3333335 c 3.12246,0 4.15221,1.8098667 12.89663,22.6666675 l 2.23605,5.333333 3.29266,-8.666667 C 126.6577,21.900001 128.78684,16.2 129.57816,14 c 1.87599,-5.2155347 4.4406,-7.8911379 6.40194,-6.678973 1.6937,1.0467703 1.00645,5.297375 -1.94222,12.012307 -0.96606,2.2 -3.92343,9.7 -6.57193,16.666667 -6.05777,15.934471 -6.98503,17.492998 -8.3072,13.962634 z M 7.0000001,47.856839 C 5.820678,46.637298 5.3333334,40.41191 5.3333334,26.566667 V 7.0000002 L 9.5000001,6.1666668 C 20.638907,3.9388856 31.223875,6.0724775 34.979583,11.302536 c 1.894678,2.638458 0.989668,7.891659 -1.887103,10.953841 l -2.90752,3.094913 3.574187,3.730648 c 4.644703,4.848025 4.57842,9.75206 -0.204157,15.104692 -3.52252,3.942386 -4.492998,4.268142 -14.333334,4.811207 -7.530755,0.415604 -11.0325255,0.08868 -12.2216559,-1.140998 z M 25.391722,40.604517 c 2.125646,-2.262648 2.701392,-4.052007 2.08894,-6.492212 C 26.485776,30.148366 23.74218,28.44177 17.333334,27.800374 l -4.666667,-0.46704 -0.194718,8 c -0.107095,4.4 0.356862,8.344036 1.031015,8.764524 2.418184,1.508291 9.00945,-0.42846 11.888758,-3.493341 z M 24.571428,21.904762 c 2.670376,-2.670375 2.660084,-5.838315 -0.03145,-9.681021 -1.673157,-2.3887666 -3.165961,-2.9496361 -7,-2.6300082 -4.609936,0.384311 -4.896126,0.6840662 -5.295489,5.5464822 -0.232199,2.827119 -0.101029,5.977119 0.291487,7 0.977853,2.548244 9.416853,2.38315 12.035455,-0.235453 z m 20.761906,6.720059 c 0,-17.255062 0.336361,-20.8375875 2.01698,-21.4825015 4.638172,-1.7798334 5.490091,1.5156863 5.311369,20.5462295 -0.09525,10.143307 -0.618516,19.162917 -1.162796,20.04358 -0.544278,0.880663 -2.154188,1.601206 -3.577576,1.601206 -2.450661,0 -2.587977,-1.098775 -2.587977,-20.708514 z m 17.89404,18.975593 c -1.041722,-0.58644 -1.89404,-1.93061 -1.89404,-2.987045 0,-2.088988 9.569634,-16.608156 16.810056,-25.504431 2.487803,-3.056751 4.523278,-6.136805 4.523278,-6.844564 0,-2.015868 -6.334988,-2.7221042 -12.331615,-1.374752 -4.233597,0.951227 -5.890112,0.793414 -7.387296,-0.703771 -3.789068,-3.7890682 -0.467348,-4.8525175 15.157009,-4.8525175 15.129895,0 15.275339,0.029683 14.735402,3.0072555 -0.755985,4.16901 -10.161757,19.84412 -14.196712,23.659412 -1.289066,1.218888 -5.310122,7.891877 -5.310122,8.812207 0,0.498316 4.503172,0.565454 10.007049,0.149197 7.940873,-0.600567 10.42804,-0.33584 12.046024,1.282144 4.043388,4.043388 0.09536,5.565141 -15.588042,6.008351 -8.072323,0.228123 -15.529269,-0.06505 -16.570991,-0.651486 z M 144.25535,33.895875 c 0.41997,-10.972033 1.10957,-15.758017 2.38401,-16.545665 1.45692,-0.900426 1.36511,-1.536226 -0.48972,-3.391046 -3.17342,-3.173432 -2.19978,-6.6258305 1.86863,-6.6258305 3.16028,0 3.33335,0.4147411 3.70665,8.8828945 l 0.39159,8.882894 6.27508,0.811653 c 3.45129,0.44641 8.07508,0.308039 10.27508,-0.307489 3.88141,-1.085964 4.01175,-1.385756 4.39617,-10.11238 0.37047,-8.4094138 0.58686,-8.9661124 3.33334,-8.5754049 2.8252,0.4019052 2.94634,1.0277311 3.17828,16.4178329 0.33493,22.224826 -0.2979,26.000001 -4.35832,26.000001 -3.1089,0 -3.21614,-0.328252 -3.21614,-9.844493 0,-11.250427 -0.21188,-11.437375 -13,-11.470635 -6.70352,-0.01744 -7.00852,0.137092 -7.20106,3.64846 -0.11054,2.016667 -0.0629,5.385939 0.10586,7.487271 0.5581,6.945467 -0.95562,10.179397 -4.76465,10.179397 h -3.47571 z m 44.44211,12.437459 c -0.37768,-1.65 -0.43503,-4.2 -0.12747,-5.666666 0.3076,-1.466667 0.60519,-9.416667 0.66129,-17.666667 0.10174,-14.9513512 0.11254,-15.0000008 3.32912,-15.0000008 2.43862,0 5.74511,3.0134878 13.53254,12.3333338 14.50653,17.361151 14.31665,17.340286 13.7283,1.508539 -0.41772,-11.240448 -0.17986,-13.19029 1.65248,-13.5467325 2.57656,-0.5012035 3.29956,5.3916175 3.23562,26.3715275 -0.041,13.443451 -0.15715,14 -2.92256,14 -2.65162,0 -13.55294,-12.04433 -22.45344,-24.807701 -4.92458,-7.061867 -6,-5.124717 -6,10.807701 0,12.064289 -0.35036,14.666667 -1.9746,14.666667 -1.08603,0 -2.2836,-1.35 -2.66128,-3.000001 z"
       id="path80" />
  </g>
</svg>
