<?xml version="1.0" encoding="UTF-8" standalone="no"?>
<!-- Created with Inkscape (http://www.inkscape.org/) -->

<svg
   version="1.1"
   id="svg62"
   width="102.66667"
   height="52"
   viewBox="0 0 102.66667 52"
   xmlns="http://www.w3.org/2000/svg"
   xmlns:svg="http://www.w3.org/2000/svg">
  <defs
     id="defs66" />
  <g
     id="g68">
    <path
       style="fill:#000000;stroke-width:1.33333"
       d="M 6.2222225,45.777777 C 5.7333335,45.288889 5.3333335,43.788889 5.3333335,42.444444 5.3333335,40.370371 6.4444446,40 12.666667,40 c 4.033334,0 7.333334,-0.553965 7.333334,-1.231033 0,-0.677068 -1.617204,-3.152971 -3.593788,-5.502007 -2.769106,-3.290895 -3.72336,-6.0623 -4.158439,-12.077195 C 11.70737,13.718751 11.884592,13.182075 16.374895,8.6917719 20.634433,4.4322344 21.760642,4 28.599548,4 c 9.053357,0 14.609191,2.6022921 17.50294,8.198188 3.35181,6.481683 1.572874,14.280436 -4.947012,21.687416 L 35.77337,40 h 8.113315 c 7.765315,0 8.113317,0.142975 8.113317,3.333333 0,3.281492 -0.168142,3.333334 -10.811211,3.333334 H 30.37758 L 31.292672,43 c 0.5033,-2.016667 1.667754,-4.566667 2.587676,-5.666667 5.973119,-7.14238 7.934304,-20.185602 3.78632,-25.181605 -6.655411,-8.0160512 -17.666667,-2.9377024 -17.666667,8.147799 0,3.16474 1.2,10.084417 2.666666,15.377061 1.466667,5.292644 2.666667,9.930584 2.666667,10.306535 0,1.020588 -18.0794372,0.826329 -19.1111115,-0.205346 z m 56.0000025,0 C 61.100475,44.656029 61.084806,26.165315 62.195635,14.404551 63.36792,1.993154 65.28073,1.6731197 75.032529,12.256796 c 4.261869,4.625429 9.560361,10.972216 11.774427,14.103973 2.214065,3.131756 4.577465,5.353014 5.252003,4.936127 0.674534,-0.416887 1.087216,-6.269389 0.917068,-13.005563 C 92.713014,7.8785043 92.99211,5.9805315 94.839088,5.621764 97.305674,5.1426403 98.388537,10.056761 98.007435,20 c -0.126481,3.3 -0.329894,10.285807 -0.452032,15.524015 -0.179793,7.711018 -0.666241,9.694576 -2.5554,10.420005 -1.603391,0.615696 -2.958999,-0.06323 -4.333333,-2.170267 -1.1,-1.686441 -5.342891,-6.975444 -9.428646,-11.753338 C 77.152268,27.24252 72.733262,21.683333 71.41801,19.666667 70.102758,17.65 68.495649,16 67.846656,16 c -0.648992,0 -1.179987,6.9 -1.179987,15.333333 0,11.88889 -0.399356,15.333334 -1.777778,15.333334 -0.977778,0 -2.177778,-0.4 -2.666666,-0.88889 z"
       id="path537" />
  </g>
</svg>
