<?xml version="1.0" encoding="UTF-8" standalone="no"?>
<!-- Created with Inkscape (http://www.inkscape.org/) -->

<svg
   version="1.1"
   id="svg72"
   width="65.333336"
   height="54.666668"
   viewBox="0 0 65.333336 54.666668"
   xmlns="http://www.w3.org/2000/svg"
   xmlns:svg="http://www.w3.org/2000/svg">
  <defs
     id="defs76" />
  <g
     id="g78">
    <path
       style="fill:#000000;stroke-width:1.33333"
       d="M 35.114476,43.000001 C 33.24148,38.783334 31.177389,33.951878 30.527607,32.263431 29.470851,29.517477 28.60684,29.236081 22.339758,29.596765 l -7.006424,0.403236 -2.146078,8.666667 c -1.690213,6.825712 -2.677618,8.666666 -4.6484071,8.666666 -1.3762807,0 -2.7000743,-1.02681 -2.9417635,-2.281801 C 5.2179457,43.082818 11.041412,26.709602 16.641193,14 c 0.969308,-2.2 1.976705,-5.1999998 2.238661,-6.6666665 0.564484,-3.160507 6.63382,-4.3663662 8.727967,-1.7340775 0.75876,0.9537427 3.924388,8.190067 7.034728,16.080719 3.110341,7.890654 6.158075,14.657459 6.772743,15.037346 1.588507,0.981749 3.653326,-3.360272 8.538861,-17.95601 3.489669,-10.42553 4.799967,-12.8392967 7.15868,-13.1873789 1.696939,-0.2504221 2.887169,0.2875751 2.887169,1.3050322 0,0.9521051 -3.070346,10.4438357 -6.822993,21.0927347 C 44.177552,53.509495 40.968611,56.179383 35.114476,43.000001 Z M 28.000001,25.711245 c 0,-2.812004 -4.594987,-12.401805 -5.756804,-12.014533 -1.727017,0.575674 -5.11951,10.218717 -4.148023,11.790615 0.866168,1.401491 9.904827,1.605827 9.904827,0.223918 z"
       id="path398" />
  </g>
</svg>
