<?xml version="1.0" encoding="UTF-8" standalone="no"?>
<!-- Created with Inkscape (http://www.inkscape.org/) -->

<svg
   version="1.1"
   id="svg82"
   width="198.66667"
   height="52"
   viewBox="0 0 198.66667 52"
   xmlns="http://www.w3.org/2000/svg"
   xmlns:svg="http://www.w3.org/2000/svg">
  <defs
     id="defs86" />
  <g
     id="g88">
    <path
       style="fill:#000000;stroke-width:1.33333"
       d="M 116.80932,45.890951 C 116.3642,44.730972 116,42.630972 116,41.224284 c 0,-1.788117 -0.93296,-2.557617 -3.10091,-2.557617 -3.74409,0 -8.30986,-4.578479 -10.32212,-10.350862 -2.802079,-8.038036 2.85398,-17.649138 10.38637,-17.649138 C 115.31356,10.666667 116,9.9131575 116,7.3333333 116,4.6666667 116.66667,4 119.33334,4 c 2.58625,0 3.33333,0.6851027 3.33333,3.0567936 0,2.4930945 1.09883,3.3506854 5.95866,4.6504934 7.85887,2.101925 10.65002,6.252817 9.47471,14.090381 -0.9764,6.511035 -5.78207,11.979408 -11.7667,13.389316 -2.9868,0.703651 -3.66667,1.600795 -3.66667,4.838419 0,3.010829 -0.61203,3.974597 -2.52402,3.974597 -1.3882,0 -2.8882,-0.949072 -3.33333,-2.109049 z m 0.20637,-20.615756 c -0.37813,-6.631976 -0.97548,-12.3461 -1.32743,-12.698052 -1.47996,-1.479958 -4.96531,1.277889 -6.97963,5.522761 -3.6594,7.711612 0.41993,19.233429 6.80965,19.233429 1.91398,0 2.09968,-1.495361 1.49741,-12.058138 z m 12.44937,7.917132 c 2.12755,-2.277555 3.86828,-5.607351 3.86828,-7.399547 0,-6.275319 -4.68664,-12.459447 -9.44239,-12.459447 -0.67335,0 -1.22428,5.4 -1.22428,12 0,7.830376 0.50906,12 1.46505,12 0.80578,0 3.20578,-1.863453 5.33334,-4.141006 z m 17.93344,13.579776 c -1.37754,-2.228906 0.22501,-40.2622701 1.76118,-41.7984525 0.96974,-0.9697326 2.0301,-0.8660298 3.48418,0.3407514 1.76097,1.4614746 2.0324,4.9073871 1.72317,21.8768251 -0.35493,19.478644 -0.46169,20.155597 -3.24121,20.551688 -1.5808,0.225269 -3.2581,-0.211596 -3.72732,-0.970812 z m 43.00061,0.252388 c -1.24715,-0.290411 -4.62039,-4.239726 -7.49607,-8.776255 -2.87568,-4.536531 -6.50528,-9.391228 -8.06577,-10.78822 L 172,24.920033 v 10.96188 10.96188 L 168.33334,46.421896 164.66667,46 V 26 6 H 168 c 2.89558,0 3.35062,0.6128605 3.4649,4.666667 0.0724,2.566666 0.23626,6.466666 0.36424,8.666666 l 0.23268,4 5.72088,-6 c 3.14648,-3.3 6.34736,-7.123154 7.11306,-8.4958982 1.48588,-2.6638605 8.43758,-4.2106963 8.43758,-1.8774627 0,1.5025714 -8.92852,10.3733609 -10.44088,10.3733609 -0.50471,0 -1.68946,1.23583 -2.63275,2.746287 -1.54665,2.476588 -1.04063,3.484245 5.15273,10.260769 9.98384,10.923922 11.44791,13.412914 9.12664,15.515836 -1.02982,0.932958 -2.89281,1.458676 -4.13997,1.168266 z M 6.6666668,44.050833 c 0,-1.540716 2.9137479,-10.432446 6.4749952,-19.759401 C 16.70291,14.964477 19.984079,6.2833333 20.43315,5 c 1.606122,-4.58990823 7.725832,-1.8342996 10.25066,4.6157109 2.729644,6.9732401 4.806852,11.8405141 8.548205,20.0299821 4.866782,10.652927 5.612463,15.07828 2.727279,16.18543 -3.111283,1.19391 -5.606975,-1.146696 -6.671136,-6.256587 -1.741237,-8.361063 -3.932181,-10.241203 -11.93417,-10.241203 h -7.251204 l -1.296036,5 c -0.712821,2.75 -1.485947,6.5 -1.718059,8.333334 -0.558009,4.407424 -6.4220222,5.671321 -6.4220222,1.384166 z M 28.703806,25.273241 c 0.963736,-1.559356 -3.815612,-13.347083 -5.221575,-12.878429 -1.684013,0.561338 -5.045323,10.416603 -4.255109,12.475864 0.663012,1.727781 8.453134,2.058703 9.476684,0.402565 z M 87.085705,45.827539 C 85.924004,45.343087 85.715689,40.68184 86.300184,28.250791 87.233935,8.391806 86.507863,8.1242211 78.000001,25.191859 75.066668,31.076424 72.340696,35.915579 71.942285,35.945535 71.543876,35.975491 69.165674,31.65 66.657394,26.333333 64.149114,21.016667 60.975997,14.866667 59.606024,12.666667 57.122576,8.6785699 57.11779,8.7212229 57.998221,27 c 0.849271,17.63188 0.782869,18.333333 -1.735479,18.333333 -4.197729,0 -4.568329,-5.778326 -2.121365,-33.075956 l 0.753809,-8.4092894 4.131122,0.4092896 c 3.60393,0.3570583 4.73597,1.5584552 8.870781,9.4142758 2.606814,4.952743 5.195022,8.852743 5.751574,8.666667 0.55655,-0.186076 3.279286,-4.23832 6.050522,-9.004987 4.414828,-7.5937274 5.529411,-8.6666663 9.003047,-8.6666663 h 3.964436 V 25.316213 c 0,21.346251 -0.3647,22.686607 -5.580963,20.511326 z"
       id="path259" />
  </g>
</svg>
