<?xml version="1.0" encoding="UTF-8" standalone="no"?>
<!-- Created with Inkscape (http://www.inkscape.org/) -->

<svg
   version="1.1"
   id="svg92"
   width="118.66667"
   height="52"
   viewBox="0 0 118.66667 52"
   xmlns="http://www.w3.org/2000/svg"
   xmlns:svg="http://www.w3.org/2000/svg">
  <defs
     id="defs96" />
  <g
     id="g98">
    <path
       style="fill:#000000;stroke-width:1.33333"
       d="m 61.000002,48.330564 c -2.089334,-0.47108 -2.333334,-2.526188 -2.333334,-19.652613 0,-20.9037886 0.423747,-23.3446177 4.052802,-23.3446177 3.331717,0 3.665021,1.987054 3.828873,22.8265907 0.148454,18.880997 -0.518254,21.304769 -5.548341,20.17064 z M 23.611799,47.167355 C 23.091977,46.647532 22.666667,38.522223 22.666667,29.111111 22.666667,16.395548 22.23853,11.95933 21.000001,11.84168 20.083334,11.7546 16.633334,11.544444 13.333334,11.374656 4.1737404,10.903389 4.0000001,10.842773 4.0000001,8.1183605 c 0,-2.347052 1.2372856,-2.57227 15.6666669,-2.8517374 8.616667,-0.1668872 17.766667,-0.3770832 20.333334,-0.4671022 2.943566,-0.1032373 5.595978,0.7557154 7.183514,2.3262976 3.525841,3.4881885 1.017116,4.6735275 -8.637269,4.0809885 l -7.804724,-0.479016 -0.370761,18.302772 c -0.349796,17.267852 -0.524648,18.324798 -3.092295,18.692348 -1.496844,0.214266 -3.146844,-0.03573 -3.666667,-0.555556 z M 83.072448,45.392004 C 74.539114,40.188901 71.698777,30.305115 75.238125,18.130184 77.403142,10.682788 81.287076,6.5778089 87.666669,4.9942976 c 4.1567,-1.0317556 3.768924,0.3934553 -1.223545,4.4969465 -3.750378,3.0825719 -4.316419,4.4428849 -4.835639,11.6210149 -0.323429,4.471373 -0.217177,10.106712 0.236116,12.522974 2.065003,11.00741 14.186378,15.665338 20.900289,8.031434 2.67711,-3.043948 3.30656,-5.389316 3.70633,-13.809896 0.54474,-11.474352 -1.64243,-17.605048 -7.181017,-20.128597 -4.625443,-2.1074929 -4.054302,-3.4513385 1.070287,-2.5182829 9.53224,1.7355765 14.32799,8.2370359 14.32511,19.4201169 -0.003,9.717301 -2.90663,16.142441 -9.19511,20.343415 -5.878473,3.927074 -16.322817,4.12227 -22.397042,0.418581 z"
       id="path120" />
  </g>
</svg>
