<?xml version="1.0" encoding="UTF-8" standalone="no"?>
<!-- Created with Inkscape (http://www.inkscape.org/) -->

<svg
   version="1.1"
   id="svg2"
   width="236"
   height="53.333332"
   viewBox="0 0 236 53.333332"
   sodipodi:docname="041.png"
   inkscape:version="1.1.2 (0a00cf5339, 2022-02-04)"
   xmlns:inkscape="http://www.inkscape.org/namespaces/inkscape"
   xmlns:sodipodi="http://sodipodi.sourceforge.net/DTD/sodipodi-0.dtd"
   xmlns="http://www.w3.org/2000/svg"
   xmlns:svg="http://www.w3.org/2000/svg">
  <defs
     id="defs6" />
  <sodipodi:namedview
     id="namedview4"
     pagecolor="#ffffff"
     bordercolor="#666666"
     borderopacity="1.0"
     inkscape:pageshadow="2"
     inkscape:pageopacity="0.0"
     inkscape:pagecheckerboard="0"
     showgrid="false"
     inkscape:zoom="5.4322034"
     inkscape:cx="67.928237"
     inkscape:cy="26.692668"
     inkscape:window-width="2560"
     inkscape:window-height="1299"
     inkscape:window-x="0"
     inkscape:window-y="32"
     inkscape:window-maximized="1"
     inkscape:current-layer="g8" />
  <g
     inkscape:groupmode="layer"
     inkscape:label="Image"
     id="g8">
    <path
       style="fill:#000000;stroke-width:1.33333"
       d="M 9.0196009,48.829124 C 7.2298625,47.039385 7.7229096,44.883876 13.537723,29.076743 22.368603,5.0706575 22.238672,5.3333332 25.282287,5.3333332 c 3.061858,0 5.97808,5.2146588 14.710794,26.3051968 5.75487,13.898688 6.083559,17.694802 1.532123,17.694802 -1.878673,0 -3.524087,-2.271965 -6.192525,-8.550561 C 31.445988,31.637741 30.292257,30.874726 22,31.965265 c -5.313059,0.698734 -5.339192,0.731084 -6.874636,8.50937 -1.813332,9.186017 -3.274679,11.185572 -6.1057631,8.354489 z M 30.334679,27.443098 c 0.2372,-0.2372 -0.98637,-3.658933 -2.719044,-7.603852 -2.929043,-6.668785 -3.25733,-6.973592 -4.67385,-4.339572 -0.837942,1.558154 -1.907236,5.232559 -2.376206,8.165344 l -0.852676,5.332336 5.095252,-0.561492 c 2.802389,-0.30882 5.289325,-0.755564 5.526524,-0.992764 z M 69.774765,48.999999 C 67.119744,45.368219 52,10.827183 52,8.3935709 c 0,-1.0298938 1.614475,-1.7269044 4,-1.7269044 2.2,0 4,0.5812167 4,1.2915926 0,0.710376 2.535649,7.3020389 5.634776,14.6481399 l 5.634776,13.356548 5.203341,-14.64814 C 80.501056,9.9749607 82.222009,6.6666665 84.092761,6.6666665 c 4.134776,0 4.053814,2.0517885 -0.560753,14.2109545 -2.460756,6.483974 -5.811049,15.839045 -7.445096,20.789045 -3.001352,9.091966 -4.096424,10.364199 -6.312147,7.333333 z M 191,49.729024 c -1.23469,-0.457763 -1.66667,-5.954068 -1.66667,-21.20647 V 7.9339975 l 3.32176,-1.2629289 c 5.09127,-1.9356994 6.78898,-0.5528513 11.58279,9.4346374 2.43583,5.074847 4.86868,9.227136 5.40632,9.227309 0.53765,1.75e-4 2.42501,-2.849682 4.19413,-6.333015 1.76912,-3.483334 4.77316,-8.007694 6.67564,-10.0541344 2.83171,-3.0459935 3.93056,-3.4684485 6.05896,-2.3293631 2.39466,1.2815798 2.60638,2.9734397 2.68159,21.4287665 0.0709,17.416914 -0.20529,20.147444 -2.11257,20.879336 -4.54182,1.742858 -5.78048,-2.991727 -4.88362,-18.666783 0.58932,-10.300057 0.41346,-14.418368 -0.58925,-13.798657 -0.78612,0.485844 -3.73325,5.650492 -6.54919,11.476996 -2.81594,5.826502 -5.7718,10.624437 -6.56858,10.662074 -0.79679,0.03764 -4.00598,-5.092376 -7.13155,-11.400028 -3.18775,-6.433132 -6.18812,-10.963178 -6.83367,-10.317633 -0.64554,0.645547 -0.62684,7.58346 0.0427,15.801793 1.2152,14.91806 0.44091,18.55546 -3.62871,17.046657 z m -79.17312,-1.973796 c -0.0952,-0.965376 -0.036,-6.666692 0.13166,-12.669592 0.16764,-6.002898 -0.1072,-13.352898 -0.61074,-16.333332 l -0.91553,-5.418971 h -8.54947 c -8.090575,0 -8.549467,-0.168567 -8.549467,-3.140527 0,-2.9043546 0.676814,-3.2044475 8.999997,-3.9905211 11.32938,-1.0699897 29.38953,-1.0854693 33.33334,-0.02857 1.7646,0.4728943 3,1.838065 3,3.3151271 0,2.203005 -1.06866,2.511158 -8.70852,2.511158 -6.92582,0 -8.88448,0.458571 -9.56813,2.240142 -0.4728,1.232079 -0.90397,9.482079 -0.95816,18.333333 l -0.0985,16.09319 -3.66666,0.421896 c -2.2985,0.264472 -3.73127,-0.233044 -3.83979,-1.333333 z M 149.10393,32.421895 C 148.97777,23.023186 148.83165,13.833333 148.77924,12 c -0.0769,-2.6898404 0.54652,-3.3333335 3.22939,-3.3333335 3.13264,0 3.36321,0.4981789 3.99137,8.6237945 l 0.66667,8.623796 6.98872,-8.798669 c 6.9996,-8.8123818 10.49006,-11.0858048 13.84088,-9.0148901 1.33188,0.8231432 -0.16952,2.9321901 -5.8524,8.2210101 -4.20414,3.912603 -7.6374,7.69083 -7.6295,8.396058 0.008,0.705228 2.27574,3.682233 5.03962,6.615567 11.84376,12.569897 14.02449,17.999999 7.2288,17.999999 -3.07562,0 -4.68046,-1.438345 -9.29792,-8.333333 -3.06939,-4.583333 -6.75966,-9.829741 -8.2006,-11.658685 l -2.6199,-3.325351 0.25115,11.325351 0.25115,11.325351 -3.66667,0.421896 -3.66667,0.421898 z"
       id="path1433" />
  </g>
</svg>
