<?xml version="1.0" encoding="UTF-8" standalone="no"?>
<!-- Created with Inkscape (http://www.inkscape.org/) -->

<svg
   version="1.1"
   id="svg12"
   width="92"
   height="54.666668"
   viewBox="0 0 92 54.666668"
   sodipodi:docname="042.png"
   inkscape:version="1.1.2 (0a00cf5339, 2022-02-04)"
   xmlns:inkscape="http://www.inkscape.org/namespaces/inkscape"
   xmlns:sodipodi="http://sodipodi.sourceforge.net/DTD/sodipodi-0.dtd"
   xmlns="http://www.w3.org/2000/svg"
   xmlns:svg="http://www.w3.org/2000/svg">
  <defs
     id="defs16" />
  <sodipodi:namedview
     id="namedview14"
     pagecolor="#ffffff"
     bordercolor="#666666"
     borderopacity="1.0"
     inkscape:pageshadow="2"
     inkscape:pageopacity="0.0"
     inkscape:pagecheckerboard="0"
     showgrid="false"
     inkscape:zoom="13.934783"
     inkscape:cx="26.480499"
     inkscape:cy="27.341654"
     inkscape:window-width="2560"
     inkscape:window-height="1299"
     inkscape:window-x="0"
     inkscape:window-y="32"
     inkscape:window-maximized="1"
     inkscape:current-layer="g18" />
  <g
     inkscape:groupmode="layer"
     inkscape:label="Image"
     id="g18">
    <path
       style="fill:#000000;stroke-width:1.33333"
       d="M 6.3999939,47.71259 C 4.4288235,46.202358 4.3742551,45.448593 5.938172,41.333334 6.9135793,38.766668 10.177803,29.857298 13.192002,21.534735 19.764152,3.3882501 19.416537,4.0000001 23.155736,4.0000001 c 2.595237,0 4.108395,2.6183922 11.254644,19.4752049 8.704531,20.532539 9.507543,23.75934 6.226045,25.01857 -2.889953,1.108978 -6.917561,-3.443734 -8.611381,-9.734102 -1.674275,-6.217783 -4.410053,-8.093006 -11.806955,-8.093006 -4.735346,0 -5.444168,0.440654 -6.754322,4.198965 C 12.658695,37.175062 12,40.360385 12,41.944126 c 0,1.583742 -0.757061,3.914872 -1.682358,5.180291 -1.4034023,1.919267 -2.0529969,2.016794 -3.9176481,0.588173 z M 27.039895,27.182329 c 0.858808,-0.858808 -2.648424,-10.96027 -4.543139,-13.085062 -1.259296,-1.412214 -5.163423,7.051132 -5.163423,11.193242 0,2.181868 0.865474,2.709492 4.444444,2.709492 2.444446,0 4.812398,-0.367952 5.262118,-0.817672 z M 52.877389,48.340957 C 52.154832,47.171834 51.744453,33.370691 51.905817,15.666667 51.995215,5.8584276 52.152447,5.3348141 55,5.3624713 57.192216,5.3837633 61.231133,9.3679694 70,20.159282 78.629472,30.77905 82.135785,34.252317 82.483433,32.525061 82.749321,31.204019 82.715473,24.865077 82.40822,18.43852 81.961341,9.091652 82.236255,6.6054882 83.782292,6.0122184 c 1.062996,-0.40791 2.219413,-0.4549611 2.569817,-0.1045573 0.350403,0.3504032 0.797852,9.7089429 0.994332,20.7967539 0.306675,17.306324 0.06093,20.273356 -1.736182,20.962977 -1.41141,0.541608 -3.643651,-1.0926 -6.851836,-5.016178 C 76.141292,39.450489 71.187997,33.594643 67.7511,29.638221 64.314203,25.6818 61.777749,21.72665 62.114535,20.849 62.481816,19.891878 61.300397,19.135212 59.162449,18.95827 l -3.564425,-0.295001 0.787433,13.90502 c 0.611772,10.803086 0.38565,14.23847 -1.01364,15.399777 -0.99059,0.822117 -2.113081,0.989918 -2.494424,0.372892 z"
       id="path1294" />
  </g>
</svg>
