<?xml version="1.0" encoding="UTF-8" standalone="no"?>
<!-- Created with Inkscape (http://www.inkscape.org/) -->

<svg
   version="1.1"
   id="svg22"
   width="353.33334"
   height="53.333332"
   viewBox="0 0 353.33334 53.333332"
   sodipodi:docname="043.png"
   inkscape:version="1.1.2 (0a00cf5339, 2022-02-04)"
   xmlns:inkscape="http://www.inkscape.org/namespaces/inkscape"
   xmlns:sodipodi="http://sodipodi.sourceforge.net/DTD/sodipodi-0.dtd"
   xmlns="http://www.w3.org/2000/svg"
   xmlns:svg="http://www.w3.org/2000/svg">
  <defs
     id="defs26" />
  <sodipodi:namedview
     id="namedview24"
     pagecolor="#ffffff"
     bordercolor="#666666"
     borderopacity="1.0"
     inkscape:pageshadow="2"
     inkscape:pageopacity="0.0"
     inkscape:pagecheckerboard="0"
     showgrid="false"
     inkscape:zoom="3.6283018"
     inkscape:cx="101.70047"
     inkscape:cy="26.73427"
     inkscape:window-width="2560"
     inkscape:window-height="1299"
     inkscape:window-x="0"
     inkscape:window-y="32"
     inkscape:window-maximized="1"
     inkscape:current-layer="g28" />
  <g
     inkscape:groupmode="layer"
     inkscape:label="Image"
     id="g28">
    <path
       style="fill:#000000;stroke-width:1.33333"
       d="m 63.000001,48.240597 c -1.927943,-0.273812 -3,-1.345868 -3,-2.999999 0,-2.257028 0.984964,-2.573932 8,-2.573932 8.173267,0 9.616996,-0.99816 5.90255,-4.080878 -1.153598,-0.957401 -3.309019,-4.115597 -4.789823,-7.018214 -3.761633,-7.373409 -2.479847,-15.48389 3.303833,-20.904939 3.794054,-3.5561693 5.158614,-3.9842906 12.716774,-3.9897985 7.854693,-0.00572 8.794337,0.3215011 13,4.5271635 3.692765,3.69276 4.533335,5.554906 4.533335,10.042825 0,7.156906 -2.752087,13.582017 -7.375311,17.218646 -2.034152,1.600064 -3.405133,3.202529 -3.046628,3.561036 0.358507,0.358505 3.864469,0.843199 7.791029,1.077095 7.19312,0.428477 10.08951,2.701064 6.46009,5.068765 -2.75627,1.798086 -18.622772,1.052306 -19.376064,-0.910742 -0.347696,-0.906079 1.267621,-5.01367 3.589593,-9.127979 5.869944,-10.400969 6.207123,-19.658676 0.882937,-24.242308 -4.421965,-3.806905 -8.431786,-4.0542213 -12.684585,-0.782356 -4.472432,3.44084 -5.031374,10.881669 -1.711634,22.785889 2.047806,7.343205 2.378525,10.348444 1.283959,11.667314 -1.359297,1.637854 -7.001385,1.886575 -15.480055,0.682412 z m 54.919889,-0.635245 c -0.3647,-0.950389 -0.49587,-10.400389 -0.29149,-20.999999 0.35821,-18.5776123 0.47502,-19.2867596 3.24193,-19.6810948 2.06581,-0.2944162 4.30811,1.3450789 8,5.8493298 2.82132,3.442122 6.55157,7.826206 8.28945,9.742409 1.73786,1.916201 4.65462,5.428156 6.48166,7.804344 5.0208,6.52985 6.15723,4.374995 5.12302,-9.714114 -0.49903,-6.798305 -0.39652,-12.6762408 0.22777,-13.06208 3.00449,-1.8568775 4.00504,2.432311 4.85519,20.81348 0.82176,17.767164 0.69057,19.775444 -1.34268,20.555678 -1.49044,0.571935 -3.11158,-0.226326 -4.78794,-2.357627 C 139.6045,36.241816 124.90754,20 123.687,20 c -0.56118,0 -1.02033,6.599999 -1.02033,14.666666 0,12.281741 -0.33202,14.666666 -2.04185,14.666666 -1.12301,0 -2.34023,-0.777591 -2.70493,-1.72798 z m 55.04446,0.166389 c -8.26232,-3.015119 -12.09903,-22.579616 -6.49616,-33.125877 4.87917,-9.184082 17.57463,-11.2184292 24.81643,-3.976638 2.19858,2.198592 3.28008,3.99744 2.40332,3.99744 -0.87676,0 -2.19391,-1.120738 -2.927,-2.490529 -1.61684,-3.0210815 -8.26198,-4.5533053 -12.59788,-2.904796 -1.79984,0.684299 -3.81594,3.060294 -4.6661,5.499079 -2.83837,8.142157 -2.36606,8.762807 7.35948,9.670994 4.87106,0.454865 9.15655,1.127128 9.52334,1.493919 0.3668,0.366789 -0.13966,1.638718 -1.12543,2.826509 -1.29859,1.564693 -3.09561,1.951231 -6.52333,1.403155 -2.60206,-0.416055 -6.14827,-0.385818 -7.88047,0.0672 -2.8268,0.739274 -3.07491,1.379481 -2.42177,6.24895 1.18366,8.8249 8.67433,12.429878 15.59217,7.503936 4.10452,-2.922676 6.01681,-3.164356 4.23989,-0.535847 -3.56928,5.279832 -11.68896,7.098681 -19.29649,4.322509 z m 30.64745,0.728946 c -1.18256,-1.182563 -1.23454,-22.673878 -0.0816,-33.705359 0.77498,-7.4144747 1.15131,-8.2214343 3.66667,-7.8622554 C 209.9077,7.3201516 210,8.0139389 210,27.999999 c 0,19.789421 -0.11546,20.683202 -2.72153,21.056244 -1.49684,0.214266 -3.14684,-0.03573 -3.66667,-0.555556 z m 17.95424,-0.356871 c -1.20702,-0.74598 -1.54222,-6.2668 -1.26968,-20.912022 0.3544,-19.043607 0.49027,-19.9155966 3.16276,-20.2973314 2.0992,-0.2998457 5.71124,2.9275733 14.54926,12.9999994 6.46622,7.369379 12.16224,13.398871 12.65778,13.398871 0.49556,0 0.8484,-5.85 0.7841,-13 -0.0964,-10.7186299 0.23405,-12.9999998 1.88308,-12.9999998 1.67425,0 2.05994,3.3117308 2.36806,20.3333328 0.46675,25.785503 0.77914,25.605442 -14.36806,8.281813 C 237.3,31.335617 232.06392,25.410129 229.6976,22.780727 L 225.39522,18 l -0.0309,14.92131 c -0.0307,14.788101 -0.62793,17.181858 -3.79823,15.222506 z m 53.54497,-1.478666 c -6.50254,-3.316992 -10.0704,-10.428786 -10.0329,-19.998484 0.0539,-13.740988 7.61615,-21.3333328 21.24894,-21.3333328 8.93244,0 15.15862,3.5508899 18.49905,10.5502948 4.40376,9.227479 0.17244,25.686615 -7.89947,30.727602 -4.9929,3.118115 -15.75653,3.144719 -21.81562,0.05392 z m 16.95018,-3.040888 c 4.74883,-3.742183 6.60522,-8.230055 6.44774,-15.587604 -0.23062,-10.773434 -1.42691,-14.778393 -5.2706,-17.644796 -5.50295,-4.103791 -11.67546,-3.560237 -16.1253,1.420003 -3.31882,3.714401 -3.77969,5.273815 -3.77969,12.789037 0,9.606706 1.11479,13.366824 5.25723,17.73243 3.15785,3.327968 10.04773,3.988246 13.47062,1.29093 z m 28.83279,1.343145 c -10.57083,-9.969572 -9.37807,-29.663833 2.23108,-36.8386828 6.42309,-3.9696899 14.25579,-3.7051791 19.43931,0.656467 2.25626,1.8985218 4.1023,4.2523678 4.1023,5.2307698 0,0.983397 -1.81642,-0.03752 -4.06185,-2.282944 -3.49636,-3.4963533 -4.73827,-3.9520897 -8.92029,-3.2734388 -8.43907,1.3694714 -10.35119,4.5992498 -10.35119,17.4842588 0,9.297986 0.47515,11.832557 2.80236,14.948603 5.81116,7.78092 16.30039,6.963885 20.01608,-1.559108 1.14433,-2.62485 1.76179,-3.167694 1.79604,-1.579012 0.14348,6.656254 -6.85156,11.579012 -16.45333,11.579012 -4.91459,0 -6.79048,-0.772607 -10.60051,-4.365925 z M 24.666667,47.228675 C 23.840166,46.881049 23.510939,40.078838 23.800566,29.333938 L 24.267798,12 H 14.133899 C 4.921377,12 4.0000001,11.759855 4.0000001,9.3587358 c 0,-3.7422186 3.0910659,-4.1757871 26.6666669,-3.7404009 19.650557,0.3628998 20.666667,0.512776 20.666667,3.0483316 0,2.3492065 -1.11111,2.7460315 -9.333333,3.3333335 l -9.333334,0.666666 v 16.666667 c 0,9.569166 -0.5678,17.083822 -1.333333,17.646248 -1.427571,1.048819 -4.492955,1.163354 -6.666667,0.249094 z"
       id="path1139" />
  </g>
</svg>
