<?xml version="1.0" encoding="UTF-8" standalone="no"?>
<!-- Created with Inkscape (http://www.inkscape.org/) -->

<svg
   version="1.1"
   id="svg32"
   width="124"
   height="52"
   viewBox="0 0 124 52"
   sodipodi:docname="044.png"
   inkscape:version="1.1.2 (0a00cf5339, 2022-02-04)"
   xmlns:inkscape="http://www.inkscape.org/namespaces/inkscape"
   xmlns:sodipodi="http://sodipodi.sourceforge.net/DTD/sodipodi-0.dtd"
   xmlns="http://www.w3.org/2000/svg"
   xmlns:svg="http://www.w3.org/2000/svg">
  <defs
     id="defs36" />
  <sodipodi:namedview
     id="namedview34"
     pagecolor="#ffffff"
     bordercolor="#666666"
     borderopacity="1.0"
     inkscape:pageshadow="2"
     inkscape:pageopacity="0.0"
     inkscape:pagecheckerboard="0"
     showgrid="false"
     inkscape:zoom="10.33871"
     inkscape:cx="35.691108"
     inkscape:cy="26.018721"
     inkscape:window-width="2560"
     inkscape:window-height="1299"
     inkscape:window-x="0"
     inkscape:window-y="32"
     inkscape:window-maximized="1"
     inkscape:current-layer="g38" />
  <g
     inkscape:groupmode="layer"
     inkscape:label="Image"
     id="g38">
    <path
       style="fill:#000000;stroke-width:1.33333"
       d="M 15.333333,46.727963 C 5.5627777,42.686592 1.2800004,26.354905 6.808716,14.220696 9.1504859,9.0810708 17.631815,4 23.869112,4 c 5.686447,0 13.464221,5.1563297 13.464221,8.926199 0,1.32094 -1.341797,0.586082 -3.86828,-2.118525 C 28.857067,5.8748081 22.082591,5.2162085 17.147712,9.2213379 14.259728,11.565215 14.005111,12.747903 14.061937,23.554671 c 0.0712,13.539337 1.540504,17.19152 8.00256,19.89154 6.33895,2.648582 7.064999,2.476264 12.1114,-2.87448 4.669656,-4.951279 6.277711,-3.486364 1.913948,1.74358 -4.293534,5.145774 -13.996882,7.208621 -20.756512,4.412652 z M 55.137459,45.431541 C 44.910101,39.195272 44.792209,14.533077 54.955727,7.4142724 59.566429,4.1848107 69.844573,4.6899051 73.657661,8.3333333 c 1.726834,1.65 2.095404,2.1887837 0.819047,1.1972982 C 73.200349,8.5391453 70.143547,7.4567191 67.683811,7.1252396 61.535905,6.2967341 56,11.336479 56,17.761879 c 0,4.228753 0.359011,4.615216 5,5.382324 2.75,0.454546 6.65,0.833052 8.666667,0.841122 2.363848,0.0095 3.666666,0.725303 3.666666,2.014675 0,1.461196 -1.52661,2.004905 -5.666666,2.018207 C 58.384428,28.048033 56,29.143827 56,33.379792 c 0,5.605292 1.246155,7.839979 5.638513,10.111356 4.6306,2.394577 8.547892,1.730015 12.721352,-2.158156 3.408302,-3.175315 4.110698,-1.327364 0.766564,2.016769 -5.132534,5.132535 -13.548382,6.009015 -19.98897,2.08178 z M 91.0022,46.9643 C 86.95844,46.313416 86.497723,43.638231 86.948679,23.427287 L 87.333333,6.1879069 91.255048,5.1410543 c 2.156943,-0.575769 7.532849,-0.6694143 11.946462,-0.2081008 10.13873,1.0597073 14.8767,5.009355 13.60954,11.3451435 -0.45115,2.255732 -1.83355,4.842258 -3.072,5.747835 -2.06703,1.511448 -1.95728,1.996435 1.33794,5.912587 4.56854,5.429397 4.68458,11.087792 0.31695,15.455421 -1.8,1.8 -4.35,3.3526 -5.66667,3.450224 -6.59348,0.488868 -16.057023,0.549585 -18.72507,0.120133 z m 14.13217,-4.428067 c 3.53499,-1.232305 4.19896,-2.141314 4.19896,-5.748585 0,-6.17478 -4.17921,-10.120981 -10.718603,-10.120981 h -5.281394 v 8.666666 c 0,8.639928 0.01173,8.666667 3.801036,8.666667 2.09057,0 5.690571,-0.658695 8.000001,-1.463767 z m 0.77039,-21.964805 C 110.72291,15.753276 107.15744,9.4709699 99.333333,8.9926889 L 94,8.6666667 l -0.403013,7.0000003 -0.403012,7 h 5.307774 c 3.047471,0 6.200031,-0.892252 7.403011,-2.095239 z"
       id="path1000" />
  </g>
</svg>
