<?xml version="1.0" encoding="UTF-8" standalone="no"?>
<!-- Created with Inkscape (http://www.inkscape.org/) -->

<svg
   version="1.1"
   id="svg42"
   width="253.33333"
   height="52"
   viewBox="0 0 253.33333 52"
   sodipodi:docname="045.png"
   inkscape:version="1.1.2 (0a00cf5339, 2022-02-04)"
   xmlns:inkscape="http://www.inkscape.org/namespaces/inkscape"
   xmlns:sodipodi="http://sodipodi.sourceforge.net/DTD/sodipodi-0.dtd"
   xmlns="http://www.w3.org/2000/svg"
   xmlns:svg="http://www.w3.org/2000/svg">
  <defs
     id="defs46" />
  <sodipodi:namedview
     id="namedview44"
     pagecolor="#ffffff"
     bordercolor="#666666"
     borderopacity="1.0"
     inkscape:pageshadow="2"
     inkscape:pageopacity="0.0"
     inkscape:pagecheckerboard="0"
     showgrid="false"
     inkscape:zoom="5.0605264"
     inkscape:cx="72.917315"
     inkscape:cy="26.084243"
     inkscape:window-width="2560"
     inkscape:window-height="1299"
     inkscape:window-x="0"
     inkscape:window-y="32"
     inkscape:window-maximized="1"
     inkscape:current-layer="g48" />
  <g
     inkscape:groupmode="layer"
     inkscape:label="Image"
     id="g48">
    <path
       style="fill:#000000;stroke-width:1.33333"
       d="M 18.242793,46.708509 C 11.480266,45.400216 9.5744836,43.226225 7.1919242,34.102408 4.5125542,23.84198 6.3900854,14.152895 12.211511,8.1985995 15.776277,4.5524711 17.229973,4 23.259124,4 c 5.67867,0 7.511948,0.6059313 10.06927,3.3280759 1.719611,1.8304418 2.82052,3.6341201 2.446467,4.0081741 C 35.400806,11.710305 34.005448,10.81267 32.674064,9.3415077 29.621858,5.9688583 22.654865,5.8357748 18.65615,9.0737377 16.570976,10.762209 15.631268,13.050992 15.508438,16.740404 L 15.333333,22 l 7.988283,0.666667 c 6.1291,0.511508 8.088393,1.194402 8.418421,2.934168 0.362003,1.908324 -0.903361,2.33073 -7.988283,2.666666 -7.686485,0.36446 -8.45701,0.671791 -8.862261,3.534783 -0.790485,5.584587 0.918949,8.945803 5.712064,11.23148 C 25.726544,45.4777 28.43401,45.012233 33,40.902232 c 2.874669,-2.587588 4.03319,-1.858936 1.979582,1.245059 -1.122089,1.696018 -8.980685,5.92938 -10.580036,5.699377 -0.586417,-0.08433 -3.356956,-0.596504 -6.156753,-1.138159 z M 96.299475,27 C 96.648983,7.0112857 96.795083,6 99.333332,6 c 2.538248,0 2.684348,1.0112857 3.033858,21 l 0.36719,21 h -3.401048 -3.401048 z m 24.707855,18.907876 c -5.5605,-3.016832 -9.54522,-11.802077 -9.3969,-20.717675 0.21792,-13.099648 5.42966,-19.6064403 16.63006,-20.7624233 6.43045,-0.6636816 7.63128,-0.3635185 11.47092,2.8673284 2.35872,1.9847356 4.27524,4.6052739 4.25893,5.8234189 -0.0244,1.828576 -0.43137,1.718863 -2.33333,-0.629138 C 136.20072,5.778162 128.4526,4.857002 123.38729,10.319709 120.4508,13.486584 120,15.178032 120,23.0292 c 0,10.242237 2.27057,16.941581 6.8225,20.129876 4.76393,3.336788 8.97932,2.668409 13.46658,-2.135207 3.10758,-3.326681 3.91164,-3.717462 3.52572,-1.713558 -0.74632,3.875305 -8.75772,8.698412 -14.34531,8.636305 -2.64155,-0.02936 -6.44952,-0.946793 -8.46216,-2.03874 z m 33.69097,-0.515413 c -1.39444,-2.60555 -1.10381,-2.725796 6.58812,-2.725796 4.4258,0 8.04691,-0.397472 8.04691,-0.883271 0,-0.485799 -1.75381,-3.635799 -3.89737,-7 -7.41411,-11.636049 -6.36392,-21.150967 2.9621,-26.8373753 6.92032,-4.2195675 18.33027,-2.8581239 24.48211,2.9212223 2.59379,2.436743 3.11983,4.270281 3.11983,10.874406 0,7.351043 -0.34806,8.27173 -4.66667,12.344712 -6.90871,6.515744 -6.26705,8.580306 2.66667,8.580306 6.44444,0 7.33333,0.323232 7.33333,2.666666 0,2.444444 -0.88889,2.666667 -10.66667,2.666667 -5.86666,0 -10.66537,-0.45 -10.66381,-1 0.001,-0.55 1.83229,-4.470627 4.06825,-8.712504 2.23596,-4.241876 4.4143,-10.658419 4.84072,-14.258981 0.7122,-6.013371 0.44355,-6.878271 -3.29901,-10.62083 -4.91111,-4.9111026 -8.65021,-5.1581667 -12.95253,-0.855847 -4.90255,4.902545 -5.411,9.351157 -2.36535,20.695143 1.4894,5.547494 2.93233,10.986352 3.20653,12.086352 0.39902,1.600764 -1.28234,2.078343 -8.4229,2.392463 -7.8447,0.345095 -9.09751,0.06348 -10.38026,-2.333333 z m 56.64672,1.293116 c -0.9324,-1.508658 -0.68706,-32.502524 0.29304,-37.0189123 1.60076,-7.3765026 10.29467,-0.8673116 24.93184,18.6666663 2.06063,2.75 4.3115,5 5.00194,5 0.70206,0 1.18114,-5.141868 1.08701,-11.666666 -0.24057,-16.6738615 -0.25279,-16.5817059 2.13388,-16.0977659 1.80424,0.3658429 2.2104,3.5143537 2.68324,20.7999159 0.49147,17.966555 0.29945,20.46772 -1.62816,21.207415 C 243.48093,48.484489 242.42312,47.416587 228,29.558085 223.23333,23.656068 218.58333,18.509868 217.66666,18.122085 216.38922,17.581685 216,20.988181 216,32.708513 216,45.133711 215.63986,48 214.07869,48 c -1.05672,0 -2.28688,-0.591489 -2.73367,-1.314421 z M 45.57415,26.573236 c 0.443439,-15.609524 1.000949,-20.3655627 2.498335,-21.3129164 4.357978,-2.7571727 6.565717,-1.2209432 11.569324,8.0503814 2.763672,5.120884 5.624857,9.311014 6.35819,9.311396 0.733333,3.84e-4 3.133333,-3.637865 5.333333,-8.084998 4.82582,-9.7550286 6.065762,-10.9060449 10.53913,-9.783301 l 3.46087,0.8686235 0.181819,15.8554555 c 0.1,8.720502 0.25,17.805456 0.333333,20.18879 C 85.986931,45.626263 85.655011,46 81.999999,46 h -4 l 0.466476,-16.666667 c 0.32654,-11.666913 0.04428,-16.264413 -0.940911,-15.325756 -0.774062,0.7375 -3.82466,6.2875 -6.779105,12.333334 -2.954447,6.045832 -5.640171,10.992422 -5.968277,10.992422 -0.328107,0 -3.453363,-5.418244 -6.945012,-12.040542 -3.973032,-7.535292 -6.699595,-11.401751 -7.286896,-10.333334 -0.516144,0.938966 -0.47962,8.00721 0.08116,15.70721 0.560783,7.7 0.763611,14.45 0.450728,15 -0.312884,0.55 -1.807719,1 -3.321857,1 -2.685215,0 -2.738927,-0.494592 -2.182159,-20.093431 z"
       id="path861" />
  </g>
</svg>
