<?xml version="1.0" encoding="UTF-8" standalone="no"?>
<!-- Created with Inkscape (http://www.inkscape.org/) -->

<svg
   version="1.1"
   id="svg52"
   width="238.66667"
   height="50.666668"
   viewBox="0 0 238.66667 50.666668"
   sodipodi:docname="046.png"
   inkscape:version="1.1.2 (0a00cf5339, 2022-02-04)"
   xmlns:inkscape="http://www.inkscape.org/namespaces/inkscape"
   xmlns:sodipodi="http://sodipodi.sourceforge.net/DTD/sodipodi-0.dtd"
   xmlns="http://www.w3.org/2000/svg"
   xmlns:svg="http://www.w3.org/2000/svg">
  <defs
     id="defs56" />
  <sodipodi:namedview
     id="namedview54"
     pagecolor="#ffffff"
     bordercolor="#666666"
     borderopacity="1.0"
     inkscape:pageshadow="2"
     inkscape:pageopacity="0.0"
     inkscape:pagecheckerboard="0"
     showgrid="false"
     inkscape:zoom="5.3715083"
     inkscape:cx="68.695789"
     inkscape:cy="25.318773"
     inkscape:window-width="2560"
     inkscape:window-height="1299"
     inkscape:window-x="0"
     inkscape:window-y="32"
     inkscape:window-maximized="1"
     inkscape:current-layer="g58" />
  <g
     inkscape:groupmode="layer"
     inkscape:label="Image"
     id="g58">
    <path
       style="fill:#000000;stroke-width:1.33333"
       d="M 59.333334,47.109739 C 53.537093,45.556177 48.227391,40.03938 45.960962,33.2158 43.321306,25.268538 43.938199,19.238801 48.075873,12.543904 52.278957,5.7431707 56.082953,3.7594126 65.054509,3.689662 74.543853,3.6158856 79.551306,5.8421992 83.746228,12 c 2.792329,4.098912 3.10286,5.776458 2.552409,13.788594 -0.655432,9.540182 -2.732561,13.776931 -9.047688,18.45469 -3.389905,2.51098 -13.318027,4.099279 -17.917615,2.866455 z m 16.401863,-8.443071 c 2.78546,-4.119311 3.101524,-5.89312 2.694711,-15.123205 C 77.99526,13.681814 77.722194,12.866369 73.630152,9.2101296 63.374168,0.04640916 52.888521,8.1775283 53.195125,25.056518 c 0.223716,12.315872 5.433505,19.30409 13.925245,18.678806 4.536044,-0.33401 5.992882,-1.191162 8.614827,-5.068656 z m 18.201706,7.649695 C 92.8474,43.477164 109.5335,6.7996834 112.3214,5.9056448 c 3.54649,-1.1373041 4.64675,0.1097547 9.8639,11.1799822 12.8836,27.337562 12.67382,26.717557 9.59721,28.364106 -2.11164,1.130115 -3.14664,1.055019 -4.40441,-0.31957 -1.94736,-2.128227 -12.71143,-26.730479 -12.71143,-29.053119 0,-0.883249 -0.99659,-1.411913 -2.21463,-1.174809 -1.36809,0.266311 -3.68535,4.253611 -6.06213,10.431099 -2.11613,5.5 -4.86955,12.650207 -6.11871,15.889347 -2.374075,6.156111 -5.088876,8.339199 -6.334297,5.093682 z m 53.396437,0.647458 c -3.14406,-0.688677 -6,-2.811791 -6,-4.460413 0,-0.64354 3.6,-1.170074 8,-1.170074 9.06506,0 9.84673,-1.182221 4.7218,-7.14133 -5.41131,-6.292085 -6.71096,-12.113299 -4.16039,-18.634534 3.22587,-8.2477821 7.65364,-10.9060816 17.97023,-10.7887608 7.78428,0.088524 8.85237,0.4559968 12.19318,4.1950124 7.15767,8.0108204 6.23247,18.0813884 -2.52029,27.4327194 -2.94489,3.146289 -3.18181,3.930024 -1.51445,5.009829 1.08712,0.704032 4.35773,1.125634 7.26801,0.936895 4.13943,-0.268455 5.3944,0.164824 5.76443,1.990169 0.35676,1.759865 -0.45219,2.368061 -3.29143,2.474629 -16.28381,0.611196 -15.73999,0.697932 -16.20491,-2.584582 -0.24225,-1.710475 0.41467,-4.110475 1.45984,-5.333333 3.07432,-3.596983 6.31398,-13.210906 6.31398,-18.737218 0,-6.251678 -4.20567,-12.1528298 -8.66114,-12.1528298 -3.9839,0 -10.80144,5.6772298 -11.8541,9.8713628 -0.44347,1.766908 0.62254,8.713792 2.36892,15.437523 2.20526,8.49052 2.71258,12.363265 1.66077,12.677701 -3.25652,0.973521 -10.98129,1.532101 -13.51445,0.977234 z M 5.0952382,29.333334 C 4.9642858,19.800001 4.8142858,10.65 4.7619049,9.0000002 4.6885455,6.6891815 5.5089994,5.9030791 8.3333334,5.5781037 11.976751,5.1588823 12,5.2074943 12,13.244771 c 0,4.448709 0.542306,8.088563 1.205125,8.088563 0.662818,0 4.112818,-3.59776 7.666667,-7.995024 4.428342,-5.4792951 7.405527,-7.9965893 9.461542,-8 4.714748,-0.00783 3.556009,3.1100308 -3.666667,9.865998 C 23,18.634046 20,21.911562 20,22.487679 c 0,0.576116 1.580283,2.502072 3.51174,4.279903 1.931458,1.777831 5.804862,6.102652 8.607567,9.610715 5.658862,7.083031 5.678086,10.681271 0.05357,10.027164 C 29.514168,46.096265 26.989106,43.52696 21.537379,35.58361 17.605406,29.854595 14.058154,25.497405 13.654595,25.900963 c -0.40356,0.403558 -0.623324,4.112836 -0.488366,8.242841 0.326009,9.976536 -0.607177,12.522864 -4.5894125,12.522864 H 5.3333334 Z M 199.48347,45.576253 c -0.84315,-1.364239 -0.78149,-34.736647 0.07,-37.9095861 0.35609,-1.3268539 1.89356,-2.3333334 3.56432,-2.3333334 2.08972,0 6.15632,3.8500674 14.0832,13.3333335 6.1298,7.333334 11.75446,13.333334 12.49925,13.333334 0.87589,0 1.09319,-4.736336 0.61523,-13.410133 -0.72356,-13.1311183 -0.67962,-13.4015976 2.11225,-12.9999993 2.76613,0.3978988 2.85199,1.0058964 2.87839,20.3846213 0.0239,17.549504 -0.24112,20.027043 -2.18292,20.407371 -1.45306,0.284598 -6.4249,-4.616592 -14.51408,-14.307821 -6.76718,-8.107389 -12.82262,-14.740706 -13.45654,-14.740706 -0.63393,0 -1.1526,6.6 -1.1526,14.666667 0,11.881175 -0.36489,14.666667 -1.9213,14.666667 -1.05672,0 -2.22458,-0.490687 -2.59523,-1.090415 z"
       id="path722" />
  </g>
</svg>
