<?xml version="1.0" encoding="UTF-8" standalone="no"?>
<!-- Created with Inkscape (http://www.inkscape.org/) -->

<svg
   version="1.1"
   id="svg62"
   width="90.666664"
   height="49.333332"
   viewBox="0 0 90.666664 49.333332"
   sodipodi:docname="047.png"
   inkscape:version="1.1.2 (0a00cf5339, 2022-02-04)"
   xmlns:inkscape="http://www.inkscape.org/namespaces/inkscape"
   xmlns:sodipodi="http://sodipodi.sourceforge.net/DTD/sodipodi-0.dtd"
   xmlns="http://www.w3.org/2000/svg"
   xmlns:svg="http://www.w3.org/2000/svg">
  <defs
     id="defs66" />
  <sodipodi:namedview
     id="namedview64"
     pagecolor="#ffffff"
     bordercolor="#666666"
     borderopacity="1.0"
     inkscape:pageshadow="2"
     inkscape:pageopacity="0.0"
     inkscape:pagecheckerboard="0"
     showgrid="false"
     inkscape:zoom="14.139706"
     inkscape:cx="26.096723"
     inkscape:cy="24.682267"
     inkscape:window-width="2560"
     inkscape:window-height="1299"
     inkscape:window-x="0"
     inkscape:window-y="32"
     inkscape:window-maximized="1"
     inkscape:current-layer="g68" />
  <g
     inkscape:groupmode="layer"
     inkscape:label="Image"
     id="g68">
    <path
       style="fill:#000000;stroke-width:1.33333"
       d="M 7.1321783,44.623259 C 6.3574907,42.604455 17.87169,7.5580533 20.369093,4.3333332 21.07901,3.4166666 23.012498,2.6666666 24.665734,2.6666666 c 2.352509,0 3.656423,1.5122229 5.998738,6.9570845 1.646072,3.8263969 4.92494,11.1763959 7.286374,16.3333319 8.020546,17.515396 8.303742,19.38237 2.938042,19.369109 -2.286886,-0.0056 -3.601958,-1.742199 -6.310764,-8.333333 L 31.156248,28.666666 23.688051,28.270074 C 15.48421,27.834417 15.764808,27.552691 13.99711,37.999999 12.68197,45.772635 8.9535847,49.369768 7.1321783,44.623259 Z M 27.715499,24.204046 c 1.356949,-0.86096 1.138153,-2.435348 -1.046844,-7.532738 -3.007512,-7.0162425 -4.110942,-6.8251775 -6.663273,1.153782 -1.358749,4.247648 -1.328335,5.362261 0.172263,6.312916 2.289969,1.450735 5.313698,1.477225 7.537854,0.06604 z m 33.171399,4.789647 C 52.430653,9.7977003 51.301332,5.0539539 55.005057,4.2868443 c 2.397605,-0.4965883 4.127337,2.628792 10.910178,19.7131547 1.601316,4.033334 3.420911,7.333333 4.043543,7.333333 0.622633,0 2.761303,-4.848711 4.7526,-10.774914 4.444292,-13.2264441 6.172853,-16.5584181 8.590176,-16.5584181 3.59911,0 3.388441,2.5800709 -1.109176,13.5841531 -2.49132,6.095382 -5.852702,15.132513 -7.469735,20.082513 -1.617033,4.95 -3.641141,8.997161 -4.498018,8.993693 -0.856879,-0.0035 -5.058855,-7.953469 -9.337727,-17.666666 z"
       id="path583" />
  </g>
</svg>
