<?xml version="1.0" encoding="UTF-8" standalone="no"?>
<!-- Created with Inkscape (http://www.inkscape.org/) -->

<svg
   version="1.1"
   id="svg72"
   width="442.66666"
   height="56"
   viewBox="0 0 442.66666 56"
   sodipodi:docname="048.png"
   inkscape:version="1.1.2 (0a00cf5339, 2022-02-04)"
   xmlns:inkscape="http://www.inkscape.org/namespaces/inkscape"
   xmlns:sodipodi="http://sodipodi.sourceforge.net/DTD/sodipodi-0.dtd"
   xmlns="http://www.w3.org/2000/svg"
   xmlns:svg="http://www.w3.org/2000/svg">
  <defs
     id="defs76" />
  <sodipodi:namedview
     id="namedview74"
     pagecolor="#ffffff"
     bordercolor="#666666"
     borderopacity="1.0"
     inkscape:pageshadow="2"
     inkscape:pageopacity="0.0"
     inkscape:pagecheckerboard="0"
     showgrid="false"
     inkscape:zoom="2.8960844"
     inkscape:cx="127.75871"
     inkscape:cy="27.968798"
     inkscape:window-width="2560"
     inkscape:window-height="1299"
     inkscape:window-x="0"
     inkscape:window-y="32"
     inkscape:window-maximized="1"
     inkscape:current-layer="g78" />
  <g
     inkscape:groupmode="layer"
     inkscape:label="Image"
     id="g78">
    <path
       style="fill:#000000;stroke-width:1.33333"
       d="m 295.33333,50.497812 c -6.00275,-1.794405 -8.16452,-3.975353 -10.3506,-10.442408 -3.73256,-11.041975 -0.92229,-25.14482 5.97299,-29.974465 4.37618,-3.0651978 14.56884,-2.6964355 18.86446,0.682501 1.93223,1.519892 3.51315,3.700808 3.51315,4.846479 0,1.458336 -0.7934,1.074385 -2.64557,-1.280271 -5.892,-7.4904549 -16.01664,-5.1041832 -18.87902,4.449587 -1.98004,6.608769 -0.71506,7.826818 8.19126,7.887432 12.57193,0.08556 12.38194,4.885708 -0.20463,5.170228 -4.54493,0.102733 -8.49687,0.420156 -8.78208,0.705372 -0.28523,0.285217 -0.0991,2.754998 0.41376,5.488402 1.56604,8.347672 8.98781,12.545672 15.57295,8.808567 2.01666,-1.144471 3.66666,-2.551492 3.66666,-3.126713 0,-0.57522 0.6,-1.045856 1.33334,-1.045856 4.6115,0 -3.27947,7.03339 -9.33334,8.318997 -1.83333,0.389329 -5.13333,0.169796 -7.33333,-0.487852 z m -5.29805,-20.906975 c -0.41052,-0.410516 -1.48639,-8.45e-4 -2.39084,0.910379 -1.30702,1.316821 -1.15387,1.469973 0.7464,0.746393 1.31496,-0.500708 2.05496,-1.246256 1.64444,-1.656772 z m 40.63138,21.328291 c -3.3,-0.231448 -6.44713,-0.860064 -6.99362,-1.396925 -0.54648,-0.536862 -1.3569,-9.445544 -1.8009,-19.797074 -0.79306,-18.489651 -0.755,-18.848937 2.16235,-20.4102575 4.65403,-2.4907578 21.75044,-1.1927984 25.1809,1.9117335 3.7016,3.349899 3.69944,10.525219 -0.004,14.228932 l -2.78888,2.788871 2.77856,1.946176 c 4.58499,3.211448 5.72803,6.550831 4.19326,12.250545 -1.98398,7.367916 -7.77174,9.52692 -22.7274,8.477999 z m 9.66667,-5.868629 c 2.48134,-1.736099 3.65296,-3.721384 3.62426,-6.141291 -0.0643,-5.415708 -2.75726,-7.899145 -9.69381,-8.939345 l -6.28898,-0.943092 0.50721,8.301588 c 0.65736,10.759072 4.20596,13.071286 11.85132,7.72214 z m 0.66666,-21.401376 c 0.91667,-0.719936 1.66667,-2.620831 1.66667,-4.22421 0,-4.393325 -2.78812,-7.159257 -8.19544,-8.130221 -4.8318,-0.867621 -4.86773,-0.839684 -5.767,4.482971 -1.30184,7.705533 0.80738,11.040533 6.32204,9.996134 2.36888,-0.448634 5.05707,-1.404737 5.97373,-2.124674 z m 29.7952,26.664554 c -5.83776,-3.000141 -8.42001,-8.07792 -9.12604,-17.945574 -0.9594,-13.408803 3.83356,-21.769232 13.52211,-23.5868151 5.16131,-0.9682658 14.96701,1.9380801 14.4754,4.2904091 -0.18333,0.877234 0.26667,1.59497 1,1.59497 0.73333,0 1.33333,0.653336 1.33333,1.451858 0,0.798522 -1.84604,-0.10148 -4.1023,-2 -4.59464,-3.866137 -5.74202,-4.064613 -11.63052,-2.011867 -2.95927,1.031605 -4.56272,2.748819 -5.65386,6.054989 -2.32013,7.030058 -1.10966,8.50189 7.01151,8.525437 3.87301,0.0112 7.86871,0.544147 8.87933,1.184261 C 390.03666,30.108807 386.44658,32 378.66666,32 c -4.31344,0 -8.23751,0.638931 -8.72013,1.419847 -2.01207,3.255589 0.85677,10.702432 5.12581,13.30543 5.65876,3.450366 6.6892,3.321287 12.21459,-1.530066 4.86522,-4.27172 5.71108,-4.21804 3.34021,0.211977 -3.04669,5.692785 -13.34452,8.240504 -19.83195,4.906489 z m 44.76036,0.797434 c -0.48889,-0.488888 -0.88889,-4.75562 -0.88889,-9.481626 0,-7.985642 -0.35937,-9.029724 -5.08656,-14.777778 -9.82956,-11.952328 -11.13385,-14.342265 -8.85795,-16.231091 3.25156,-2.6985619 7.87252,0.352778 13.23915,8.74216 2.63737,4.122887 5.42168,7.28734 6.18735,7.032119 0.76565,-0.25522 3.29544,-4.04848 5.62173,-8.429467 3.08356,-5.807126 5.08416,-8.0863352 7.3834,-8.4116479 5.90163,-0.8350065 5.32137,1.7676869 -2.58764,11.6066429 -7.87455,9.796073 -7.89948,9.855198 -7.89948,18.733333 0,8.593353 -1.36703,12.106244 -4.71111,12.106244 -0.83112,0 -1.91112,-0.4 -2.4,-0.888889 z M 63.224886,49.121527 c -7.256939,-1.909816 -11.224887,-9.436976 -11.224887,-21.29351 0,-13.437582 6.276285,-21.1613503 17.195581,-21.1613503 5.354055,0 12.137752,4.0008473 12.137752,7.1585293 0,0.739365 -1.223373,0.03116 -2.718607,-1.573781 C 75.61105,9.0273481 70.045883,8.4583361 64.8172,10.840684 c -2.401826,1.094345 -3.551262,2.945588 -4.195113,6.756512 -0.487763,2.887039 -0.59044,5.545564 -0.228171,5.907832 0.362268,0.362269 4.039428,1.007596 8.171467,1.43406 12.48366,1.288427 11.281948,5.669689 -1.565384,5.707161 -6.917807,0.02017 -7,0.06841 -7,4.108072 0,5.839742 2.203931,9.188407 7.505173,11.403407 4.280155,1.788363 4.916403,1.723668 8.559346,-0.870336 2.164514,-1.541271 3.935481,-2.23492 3.935481,-1.541444 0,3.856931 -10.166485,7.114777 -16.775113,5.375579 z m 28.386911,0.712494 c -0.519822,-0.519822 -0.945132,-9.771665 -0.945132,-20.55965 0,-20.8823374 0.988391,-24.4371605 5.813559,-20.9089117 1.982772,1.4498384 2.215743,4.1169367 1.890607,21.6440727 -0.35185,18.967148 -0.510148,20.010411 -3.092367,20.380045 -1.496844,0.214267 -3.146844,-0.03573 -3.666667,-0.555556 z m 17.091143,-0.441997 c -1.03661,-1.67726 -1.02516,-38.458639 0.0125,-40.1375888 C 109.14183,8.5644959 110.31392,8 111.32006,8 c 1.64898,0 13.39898,12.65036 22.01327,23.700072 1.83333,2.351652 3.79329,4.281175 4.35547,4.287829 C 138.25096,35.994568 138.40005,29.7 138.02009,22 137.35884,8.5996804 137.44501,8 140.03181,8 c 2.61516,0 2.69069,0.6756208 2.33537,20.890363 -0.23652,13.456678 -0.87933,21.060553 -1.80644,21.368638 -0.79158,0.263054 -4.09158,-2.874593 -7.33333,-6.972546 -3.24174,-4.097954 -9.32753,-11.163842 -13.52397,-15.701974 l -7.6299,-8.251148 -0.0368,14.921311 c -0.0334,13.568343 -1.15532,18.662288 -3.33383,15.13738 z m 53.1039,0.02264 C 156.0365,46.942903 151.73866,39.294791 151.08801,30.340241 150.05056,16.062479 156.19966,8.5559219 170,7.2533244 c 9.31401,-0.8791384 14.86166,1.7218813 19.34053,9.0678226 4.76761,7.819513 2.60385,23.345057 -4.15616,29.821565 -3.28228,3.144624 -5.20871,3.794065 -12.20751,4.115416 -4.57061,0.209861 -9.59712,-0.169696 -11.17002,-0.84346 z m 19.74349,-7.255529 c 2.24715,-3.550198 2.54053,-5.812238 2.00387,-15.449999 -0.56642,-10.171668 -0.97934,-11.59244 -4.16582,-14.333333 -4.94977,-4.2576157 -12.56829,-4.1302585 -16.7109,0.279353 -6.21279,6.613211 -5.95952,24.136861 0.45032,31.157319 5.9496,6.516365 13.69114,5.821597 18.42253,-1.65334 z m 29.49517,7.572514 c -1.62496,-0.314524 -4.45918,-2.360096 -6.29826,-4.545716 -5.66474,-6.73215 -6.93847,-15.324493 -4.00458,-27.014033 1.27255,-5.070233 10.32794,-11.5052333 16.19027,-11.5052333 5.33431,0 11.73311,3.0045356 12.90549,6.0597363 1.28748,3.355118 0.90404,4.149449 -0.88082,1.824721 -4.42663,-5.7655115 -12.3701,-6.7421189 -17.68108,-2.173795 -4.31914,3.715154 -5.60467,12.014352 -3.431,22.14983 1.80452,8.414212 4.91037,11.997086 11.2984,13.03372 4.35105,0.70608 5.31346,0.274946 9.43793,-4.227914 3.57753,-3.90576 4.42492,-4.372224 3.83339,-2.110165 -0.41768,1.597204 -2.68862,4.375476 -5.04652,6.173937 -4.14632,3.162555 -8.68964,3.812444 -16.32322,2.334916 z m 36.46472,-3.643652 c -5.34944,-5.349436 -8.08296,-12.53741 -7.04161,-18.516398 2.02101,-11.603852 2.67423,-13.132419 7.03243,-16.45658 6.14321,-4.685655 14.45617,-5.4583319 20.16562,-1.8743631 C 270.05,10.736735 272,12.981874 272,14.229853 272,16.0541 271.26692,15.796567 268.26037,12.916118 259.63704,4.6544384 247.9385,10.938989 248.05806,23.768963 248.20974,40.044624 252.60558,48 261.44722,48 c 3.92676,0 5.71375,-0.869164 8.43426,-4.1023 1.89852,-2.256265 3.45185,-3.410112 3.45185,-2.564103 0,0.846008 -1.75384,3.292044 -3.89744,5.435634 -3.27736,3.277358 -4.96733,3.897436 -10.62221,3.897436 -5.88308,0 -7.29788,-0.573092 -11.30346,-4.578666 z M 7.3457602,47.777544 C 6.985157,46.799895 6.8348414,37.3 7.0117256,26.666667 L 7.3333332,7.3333333 10.429975,7.6680704 c 3.61739,0.3910283 3.365095,0.1497404 16.27293,15.5630006 L 36.666666,35.128809 37.04601,20.808833 C 37.382314,8.113614 37.684875,6.5386808 39.712677,6.9279828 c 2.026384,0.3890299 2.329212,2.8328924 2.654513,21.4222382 0.338829,19.362391 0.184351,20.979359 -2,20.93452 -1.301955,-0.02672 -3.867191,-2.021902 -5.700524,-4.433728 -1.833333,-2.411824 -6.033333,-7.552812 -9.333333,-11.424417 -3.3,-3.871605 -7.325813,-8.600615 -8.946251,-10.508911 -1.620438,-1.908296 -3.310544,-3.105334 -3.755792,-2.660086 -0.445248,0.445248 -0.919435,6.969956 -1.05375,14.49935 -0.170937,9.582459 -0.744046,13.856076 -1.9101723,14.243975 -0.9162809,0.304791 -1.9610043,-0.245731 -2.3216075,-1.22338 z"
       id="path444" />
  </g>
</svg>
