<?xml version="1.0" encoding="UTF-8" standalone="no"?>
<!-- Created with Inkscape (http://www.inkscape.org/) -->

<svg
   version="1.1"
   id="svg82"
   width="344"
   height="53.333332"
   viewBox="0 0 344 53.333332"
   sodipodi:docname="049.png"
   inkscape:version="1.1.2 (0a00cf5339, 2022-02-04)"
   xmlns:inkscape="http://www.inkscape.org/namespaces/inkscape"
   xmlns:sodipodi="http://sodipodi.sourceforge.net/DTD/sodipodi-0.dtd"
   xmlns="http://www.w3.org/2000/svg"
   xmlns:svg="http://www.w3.org/2000/svg">
  <defs
     id="defs86" />
  <sodipodi:namedview
     id="namedview84"
     pagecolor="#ffffff"
     bordercolor="#666666"
     borderopacity="1.0"
     inkscape:pageshadow="2"
     inkscape:pageopacity="0.0"
     inkscape:pagecheckerboard="0"
     showgrid="false"
     inkscape:zoom="3.7267442"
     inkscape:cx="99.014041"
     inkscape:cy="26.564743"
     inkscape:window-width="2560"
     inkscape:window-height="1299"
     inkscape:window-x="0"
     inkscape:window-y="32"
     inkscape:window-maximized="1"
     inkscape:current-layer="g88" />
  <g
     inkscape:groupmode="layer"
     inkscape:label="Image"
     id="g88">
    <path
       style="fill:#000000;stroke-width:1.33333"
       d="m 272.01557,47.2566 c -3.50678,-1.5545 -5.40844,-1.716676 -7.7294,-0.659176 -7.76506,3.538004 -15.01365,1.038481 -18.96676,-6.540298 -4.20838,-8.068188 -1.10292,-27.653288 4.74032,-29.895551 5.50659,-2.1130752 5.87638,-0.292483 1.69499,8.345103 -5.34437,11.040012 -4.23808,25.38844 2.05089,26.599585 1.32292,0.254771 3.85786,0.09865 5.63318,-0.346925 2.9973,-0.752275 3.22788,-1.424051 3.22788,-9.404496 0,-7.132377 0.4387,-8.829144 2.57901,-9.974597 4.83903,-2.589772 5.48707,-1.744224 4.57973,5.975654 -0.71844,6.112873 -0.44129,7.823579 1.64011,10.123499 4.26188,4.70933 6.73473,5.417934 11.68671,3.34887 8.92897,-3.730762 10.96452,-20.326529 3.6359,-29.643356 -3.00817,-3.824275 -2.04266,-6.8741143 1.7192,-5.4305537 5.88374,2.2578017 8.71443,21.4370717 4.39634,29.7873237 -4.34511,8.402519 -12.52304,11.423002 -20.8881,7.714918 z m 33.21191,0.710663 c -1.74365,-0.975796 -2.02493,-4.039041 -1.76125,-19.180292 0.1726,-9.910467 0.6987,-18.641819 1.16914,-19.403002 2.19839,-3.557059 6.42752,-0.6053083 17.5591,12.255458 L 334,35.278855 334.38103,21.544214 c 0.27808,-10.023635 0.81716,-13.5892619 1.99518,-13.1965886 2.19394,0.7313121 3.45843,8.7291796 3.52875,22.3190406 0.0649,12.545353 -0.78569,17.352321 -3.06047,17.295755 -0.83113,-0.02067 -7.19258,-6.574851 -14.13654,-14.564855 -6.94396,-7.990004 -13.03386,-14.274832 -13.5331,-13.966284 -0.49924,0.308547 -0.75101,6.51194 -0.5595,13.785316 0.37626,14.289461 -0.14631,16.56473 -3.38787,14.750665 z M 93.433209,28.999999 C 93.586396,18.55 93.990785,9.2499998 94.331851,8.3333331 c 0.883648,-2.3749396 5.230217,-2.0644102 6.192159,0.4423833 0.44513,1.1599775 0.80932,10.4599776 0.80932,20.6666656 v 18.557617 h -4.089321 -4.089322 z m 28.915621,18.046489 c -4.89587,-0.742805 -11.27096,-7.35121 -12.9606,-13.43493 -2.93437,-10.565467 -0.54089,-19.67985 6.53748,-24.8948124 4.66837,-3.4394084 13.40762,-4.7032506 13.40762,-1.938968 0,0.7944445 -0.75,1.1739777 -1.66666,0.8434071 -2.23329,-0.8053721 -8.14266,2.6997953 -10.2556,6.0831443 -0.93668,1.499869 -2.01184,6.132345 -2.38924,10.29439 -1.15959,12.788156 5.0423,21.334613 15.48185,21.334613 4.29007,0 8.92113,-4.577358 10.33651,-10.216642 0.475,-1.892572 1.77282,-3.116691 3.30436,-3.116691 3.39334,0 3.17452,2.420876 -0.73944,8.180795 -2.45679,3.615474 -4.74095,5.172334 -9.2571,6.309513 -3.29754,0.83033 -6.47984,1.419793 -7.07177,1.309916 -0.59193,-0.10988 -2.71927,-0.449058 -4.72741,-0.753735 z m 32.05488,-0.64266 c -0.3313,-0.95544 -0.55767,-10.137162 -0.50304,-20.403829 L 154,7.3333332 157.66667,6.9114368 c 3.64354,-0.419237 3.66766,-0.3688055 3.82456,8.0000002 0.0868,4.632043 0.0868,8.871896 0,9.421896 -0.0868,0.55 4.6421,1 10.50877,1 h 10.66667 V 16 c 0,-9.0666668 0.0952,-9.3333335 3.33333,-9.3333335 3.26012,0 3.33556,0.226978 3.43451,10.3333335 0.2011,20.541568 -0.31283,28.973427 -1.82284,29.906668 -1.51192,0.934419 -4.96515,-1.031638 -4.74448,-2.701218 0.0635,-0.479664 0.0443,-4.322118 -0.0427,-8.538784 l -0.15785,-7.666667 h -10.60826 -10.60825 l -0.39175,9.666667 c -0.35216,8.689926 -0.67772,9.70747 -3.22204,10.070495 -1.55666,0.222107 -3.10136,-0.377893 -3.43266,-1.333333 z m 44.88977,-0.02688 c -0.38936,-1.014653 -0.53967,-9.914549 -0.33403,-19.77755 l 0.37388,-17.9327315 3.33334,-0.2846647 c 2.72308,-0.2325493 5.3906,2.1446892 14.57056,12.9849962 6.18046,7.298315 11.55393,12.952949 11.94102,12.565856 0.3871,-0.387094 0.53034,-6.433969 0.3183,-13.437501 -0.35542,-11.7393303 -0.19463,-12.6970669 2.05897,-12.2646307 2.20887,0.4238535 2.48037,2.2565007 2.81692,19.0133967 0.44223,22.019041 -0.38879,23.862969 -7.25101,16.089213 -2.58938,-2.933333 -8.70099,-9.773258 -13.58136,-15.199834 L 204.66667,18.266996 204,32.693191 c -0.45545,9.855632 -1.19448,14.600822 -2.33263,14.977378 -0.91628,0.303151 -1.98453,-0.278981 -2.37389,-1.293627 z M 11.609667,43.97915 c -1.8791429,-1.478134 -4.0251729,-4.628134 -4.7689558,-7 C 1.41098,19.664156 8.4849276,5.3333332 22.461647,5.3333332 c 6.143356,0 12.20502,3.3067179 12.20502,6.6580008 0,0.671433 -1.539774,-0.318986 -3.421718,-2.2009302 C 25.098263,3.6437168 15.36118,8.0204154 13.801601,17.630974 l -0.779727,4.804895 7.822397,0.878725 c 10.550649,1.185204 11.997328,1.710473 10.056444,3.651357 -0.84986,0.84986 -4.400191,1.41823 -7.889624,1.263043 -3.489434,-0.155187 -7.173524,0.264101 -8.18687,0.931751 -2.519806,1.660192 -0.919096,9.736769 2.552396,12.878426 3.778634,3.419615 10.47104,3.106595 13.497826,-0.631328 1.35239,-1.670131 2.45889,-2.370131 2.45889,-1.555556 0,6.508539 -15.058981,9.369305 -21.723666,4.126863 z M 44,34.960019 C 44,17.335688 45.329677,6.9533726 47.703515,6.0424458 51.6536,4.5266562 54.497839,6.9026336 58.881608,15.380232 c 2.448449,4.734959 4.997652,8.429461 5.664896,8.210002 0.667244,-0.219459 2.167244,-2.169437 3.333333,-4.333288 5.069726,-9.4076192 8.30498,-12.7515644 11.930792,-12.3316175 l 3.522704,0.4080047 V 26.666666 c 0,18.797104 -0.07991,19.344717 -2.880936,19.743798 -2.804652,0.399596 -2.884697,-0.0021 -3.022946,-15.169066 -0.0984,-10.795211 0.376853,-16.20838 1.547602,-17.627293 1.396264,-1.692231 1.342375,-1.940938 -0.310386,-1.432486 -1.1,0.338401 -4.906422,6.199553 -8.458715,13.02478 C 66.65566,32.031627 63.266291,37.102326 62.67602,36.474618 62.085751,35.846911 59.034749,30.390755 55.896017,24.349827 52.757287,18.3089 49.846656,13.713804 49.427951,14.138504 c -0.418707,0.4247 -0.761284,7.753574 -0.761284,16.286387 0,13.710716 -0.271244,15.56786 -2.333334,15.975756 C 44.250901,46.812567 44,45.582366 44,34.960019 Z m 96.26667,-17.893353 c -0.88,-0.88 -1.6,-2.388818 -1.6,-3.35293 0,-0.964113 -1.91631,-2.918311 -4.25847,-4.3426626 -3.3599,-2.0432722 -3.80731,-2.7628593 -2.12035,-3.4102073 3.13795,-1.2041446 10.29439,2.9768154 11.77896,6.8815499 1.92363,5.059513 -0.39144,7.632951 -3.80014,4.22425 z"
       id="path305" />
  </g>
</svg>
