<?xml version="1.0" encoding="UTF-8" standalone="no"?>
<!-- Created with Inkscape (http://www.inkscape.org/) -->

<svg
   version="1.1"
   id="svg92"
   width="634.66669"
   height="57.333332"
   viewBox="0 0 634.66669 57.333332"
   sodipodi:docname="050.png"
   inkscape:version="1.1.2 (0a00cf5339, 2022-02-04)"
   xmlns:inkscape="http://www.inkscape.org/namespaces/inkscape"
   xmlns:sodipodi="http://sodipodi.sourceforge.net/DTD/sodipodi-0.dtd"
   xmlns="http://www.w3.org/2000/svg"
   xmlns:svg="http://www.w3.org/2000/svg">
  <defs
     id="defs96" />
  <sodipodi:namedview
     id="namedview94"
     pagecolor="#ffffff"
     bordercolor="#666666"
     borderopacity="1.0"
     inkscape:pageshadow="2"
     inkscape:pageopacity="0.0"
     inkscape:pagecheckerboard="0"
     showgrid="false"
     inkscape:zoom="2.0199579"
     inkscape:cx="317.33334"
     inkscape:cy="28.713469"
     inkscape:window-width="2560"
     inkscape:window-height="1299"
     inkscape:window-x="0"
     inkscape:window-y="32"
     inkscape:window-maximized="1"
     inkscape:current-layer="g98" />
  <g
     inkscape:groupmode="layer"
     inkscape:label="Image"
     id="g98">
    <path
       style="fill:#000000;stroke-width:1.33333"
       d="m 383.47016,50.888032 c -0.42817,-0.692789 1.68365,-7.77601 4.69295,-15.740491 3.00929,-7.964482 6.16278,-16.821233 7.00777,-19.681673 C 398.16197,5.3403755 403.68405,5.5698489 408.0243,16 c 1.37321,3.3 4.96302,11.898142 7.97737,19.106983 4.41841,10.566688 5.16693,13.484957 3.86209,15.057185 -2.87054,3.458803 -5.53434,1.350684 -8.5666,-6.779581 -3.27416,-8.778861 -6.05395,-10.513566 -14.18467,-8.851854 -4.12013,0.842052 -4.59281,1.489443 -6.45253,8.837639 -1.32665,5.241926 -2.75307,8.07276 -4.20901,8.353152 -1.21127,0.233268 -2.55263,-0.142704 -2.98079,-0.835492 z m 21.39115,-20.638218 c 1.11238,-1.112389 -3.38406,-12.916481 -4.92018,-12.916481 -1.51748,0 -4.32774,10.402621 -3.43721,12.723321 0.67053,1.747384 6.66463,1.885923 8.35739,0.19316 z m 156.83128,20.134417 c -7.84941,-3.788093 -11.18272,-23.736244 -5.51881,-33.027319 4.05424,-6.650579 6.29884,-7.9334066 13.96488,-7.9811744 5.41179,-0.033721 7.52773,0.6271224 10.33333,3.2272634 1.94042,1.798317 3.52803,4.042187 3.52803,4.986376 0,0.944189 -1.52428,0.07284 -3.38729,-1.936335 -6.54306,-7.0563922 -16.86454,-3.792709 -18.5131,5.853901 l -0.82718,4.840276 9.03045,1.159724 c 6.62275,0.850516 9.03045,1.692964 9.03045,3.159723 0,1.504273 -2.14814,2.165243 -8.66666,2.666667 -7.54279,0.580214 -8.68447,1.017888 -8.80396,3.375069 -0.2506,4.943376 1.99885,8.602056 6.65345,10.821681 4.39299,2.094871 4.81863,2.065797 9.4092,-0.642713 4.60119,-2.714763 4.74796,-2.724488 3.4108,-0.225995 -0.76849,1.435963 -2.54408,3.224593 -3.94573,3.974733 -3.25811,1.743689 -11.8484,1.605856 -15.69786,-0.251877 z m 29.96394,-0.0509 c -0.31115,-0.916666 1.06411,-5.566666 3.05611,-10.333333 1.99201,-4.766666 5.28042,-13.616666 7.3076,-19.666666 3.40244,-10.15445 3.96269,-10.9999999 7.28852,-10.9999999 3.25404,0 4.0935,1.1292899 8.67258,11.6666669 2.7884,6.416666 6.48331,14.779511 8.21092,18.584099 3.85882,8.498023 3.92723,10.653356 0.37395,11.781124 -3.41919,1.085208 -3.00996,1.56519 -6.84801,-8.031891 -3.06524,-7.664626 -3.41452,-8.017863 -8.33167,-8.426115 -8.98017,-0.745588 -11.04651,0.414473 -12.03267,6.755259 -0.48509,3.118971 -1.17857,6.720856 -1.54109,8.00419 -0.75504,2.672919 -5.30791,3.165955 -6.15624,0.666666 z m 23.01016,-19.912367 c 0,-1.876876 -5.29971,-13.087632 -6.18697,-13.087632 -1.06324,0 -4.4797,9.119173 -4.4797,11.957174 0,2.272186 0.86079,2.709492 5.33334,2.709492 3.21992,0 5.33333,-0.625716 5.33333,-1.579034 z M 116.18953,49.450467 C 115.31358,48.9091 114.6037,41.833135 114.37527,31.366255 L 114,14.171394 105.90029,14.503809 C 97.723365,14.839393 93.260286,12.6876 95.29724,9.3917396 c 0.944298,-1.5279072 33.88764,-1.9377912 42.41967,-0.5277894 8.21194,1.3571028 4.99447,3.7650588 -5.60774,4.1968338 l -9.67752,0.394118 0.2555,16.272548 c 0.14052,8.949902 0.1934,16.95257 0.11752,17.783708 -0.1689,1.849629 -4.63958,3.160267 -6.61513,1.939309 z m 75.81048,-2.5247 c 0,-2.057495 2.0368,-8.807495 4.52622,-15 2.48942,-6.192506 5.28842,-13.822515 6.21998,-16.955577 1.2468,-4.193262 2.5451,-5.910149 4.91996,-6.5061995 4.15792,-1.04357 5.86036,0.8879913 9.58002,10.8693425 1.63971,4.4 3.7884,9.52196 4.77486,11.382133 0.98646,1.860173 3.00686,6.46029 4.48978,10.222482 2.32846,5.907362 2.43435,7.057675 0.77634,8.433702 -3.18616,2.644275 -5.38447,0.614746 -8.57499,-7.916624 l -3.03731,-8.121693 h -7.75573 -7.75573 l -0.86046,6.333333 c -1.29822,9.555697 -1.91877,10.999999 -4.72613,10.999999 -1.93457,0 -2.57681,-0.932369 -2.57681,-3.740898 z m 20.22274,-17.352814 c 2.0449,-0.833766 2.01606,-1.329896 -0.3604,-6.200026 -4.00264,-8.20273 -4.82809,-8.347227 -6.93977,-1.214821 -1.05983,3.579708 -1.66557,6.95856 -1.34608,7.50856 0.70221,1.208856 5.58128,1.155973 8.64625,-0.09371 z m 25.68557,19.335545 c -0.37108,-0.966992 -0.39811,-9.216992 -0.0601,-18.333333 C 238.18622,21.458824 238.50866,12.65 238.5647,11 c 0.12,-3.5313136 4.6842,-4.2137 5.95926,-0.89095 0.4452,1.159977 0.80938,10.759978 0.80938,21.333332 v 19.224283 h -3.37517 c -1.85636,0 -3.67879,-0.791175 -4.04985,-1.758167 z m 18.42502,0.800462 c -1.82841,-0.655869 -2.37102,-24.197883 -0.81877,-35.522866 0.77736,-5.6713967 1.15612,-6.1860942 4.55231,-6.1860942 3.01093,0 4.47461,1.2517563 7.81877,6.6866972 2.26289,3.677683 4.11436,7.204216 4.11436,7.83674 0,0.632524 0.86511,1.868013 1.92245,2.745533 1.58499,1.315428 2.43471,0.583441 4.84078,-4.170073 5.30996,-10.490552 7.86072,-13.2865358 11.71406,-12.8402352 l 3.52271,0.4080047 0.36807,20.3333325 0.36805,20.333333 h -3.36805 -3.36807 V 33.254643 c 0,-10.010042 -0.48648,-15.778031 -1.28889,-15.282107 -1.11722,0.690473 -4.73684,7.149649 -9.90971,17.683727 -2.52809,5.148235 -4.27449,3.743644 -10.74085,-8.638613 -2.77144,-5.306959 -5.51926,-9.352185 -6.10627,-8.989394 -0.58701,0.36279 -0.73203,7.467006 -0.32225,15.787143 0.72277,14.675639 0.20885,17.151754 -3.2987,15.893561 z m 48.19535,-0.921085 c -0.82047,-2.138091 -0.007,-5.000077 7.2436,-25.454542 4.92484,-13.8951962 5.40569,-14.68771 9.1417,-15.0667293 3.88661,-0.3942996 4.06209,-0.121556 12.18138,18.9332433 4.53088,10.633319 8.23798,19.893369 8.23798,20.577888 0,1.581555 -5.67158,3.120222 -6.80168,1.84526 -0.46622,-0.525981 -1.90483,-3.797815 -3.19691,-7.270743 -3.05556,-8.212858 -4.5088,-9.255749 -12.21085,-8.762871 l -6.41665,0.410618 -1.9188,8.333333 c -1.85109,8.039225 -4.5742,10.847068 -6.25977,6.454543 z M 324.40801,24.51289 c -3.26302,-9.576481 -6.26052,-9.421177 -7.83048,0.405708 l -0.89231,5.585267 5.35687,-0.07393 5.35687,-0.07393 -1.99095,-5.843113 z m 26.52534,24.553776 c -1.68342,-1.683416 -2.35315,-33.552549 -0.79068,-37.624283 0.637,-1.6600131 2.90804,-2.1090499 10.66666,-2.1090499 11.51936,0 15.2211,2.3625179 15.14632,9.6666669 -0.0824,8.048923 -4.74713,11.235174 -16.95564,11.581551 -2.83688,0.08048 -3,0.628852 -3,10.085115 0,10.15951 -1.24428,12.22239 -5.06666,8.4 z m 16.06666,-23.447411 c 1.43044,-1.246054 2.33334,-3.92915 2.33334,-6.933933 0,-5.509519 -3.76207,-8.610562 -9.46768,-7.804133 -2.86207,0.404525 -3.24207,1.207746 -3.60806,7.626545 -0.22497,3.94592 -0.12226,7.921757 0.22826,8.835193 0.80954,2.109636 7.34321,1.038518 10.51414,-1.723672 z M 444.00002,42.2438 c 0,-8.236309 -0.18148,-8.666135 -8.19368,-19.406322 -8.4162,-11.281749 -8.9238,-14.2218114 -2.29344,-13.2836981 2.17425,0.3076285 4.81026,3.0228581 8.48712,8.7421701 2.93333,4.562772 5.93333,8.296741 6.66666,8.297708 0.73334,9.67e-4 3.4368,-3.732212 6.00771,-8.29595 3.73664,-6.633064 5.40843,-8.382347 8.33333,-8.7196046 5.41068,-0.6238783 4.6025,1.9351866 -3.69284,11.6933166 -7.23614,8.512153 -8.16377,11.095675 -7.63797,21.272471 0.20533,3.974171 -2.33672,8.122774 -4.97723,8.122774 -2.42576,0 -2.69966,-0.854567 -2.69966,-8.422865 z m 30.52272,-6.577134 c -0.0792,-8.25 -0.1615,-16.602773 -0.18294,-18.561718 -0.0779,-7.1185085 0.84756,-7.7716149 11.01231,-7.7716149 8.24047,0 9.85037,0.4145879 12.70851,3.2727269 6.75017,6.750164 2.60117,18.037571 -6.64535,18.078813 -9.44215,0.04211 -10.08192,0.727708 -10.08192,10.803967 0,8.900792 -0.10061,9.177825 -3.33333,9.177825 h -3.33334 z m 17.05801,-9.232419 c 3.38239,-3.17759 4.18763,-10.132554 1.48593,-12.834247 -0.88,-0.88 -3.88,-1.6 -6.66666,-1.6 h -5.06667 v 8.666666 c 0,8.515233 0.0625,8.666667 3.58073,8.666667 1.9694,0 4.9694,-1.304588 6.66667,-2.899086 z m 24.02534,21.091169 c -5.67495,-6.064657 -7.51247,-9.325396 -8.30336,-14.734573 -1.01612,-6.949636 2.14182,-16.097095 6.99756,-20.269502 9.0707,-7.7942315 29.69973,-3.8452951 29.69973,5.685309 0,2.237794 -0.75811,3.126683 -2.66667,3.126683 -1.46666,0 -2.66666,-0.846664 -2.66666,-1.881475 0,-3.021114 -7.84986,-8.785192 -11.96418,-8.785192 -2.63437,0 -4.99809,1.410583 -7.8977,4.713062 -3.75274,4.274125 -4.13731,5.546928 -4.12934,13.666666 0.007,6.602136 0.68572,9.980508 2.58634,12.863704 6.70057,10.164633 17.68353,9.464218 22.23028,-1.41769 1.03238,-2.470825 2.769,-4.492409 3.85916,-4.492409 3.6074,0 2.07966,5.593117 -2.7795,10.175897 -4.39612,4.146068 -5.4242,4.490769 -13.39394,4.490769 -7.3464,0 -9.0702,-0.467941 -11.57172,-3.141249 z M 5.9726733,47.955783 c -0.707602,-1.144924 3.6802463,-13.544864 8.7129117,-24.62245 0.666321,-1.466667 2.214208,-5.848748 3.439746,-9.737959 2.083128,-6.6107455 2.483106,-7.0449394 6.141313,-6.6666666 3.497621,0.3616676 4.317837,1.4146679 7.725676,9.9182826 2.096939,5.232512 5.656505,13.457491 7.910148,18.277732 5.222299,11.169798 5.366639,14.538749 0.598269,13.96384 C 37.68272,48.748802 36.494293,47.37088 34.39632,42.010802 30.643217,32.422059 29.882752,31.818387 22.126905,32.271106 l -6.776624,0.39556 -1.790733,8.333333 c -1.414466,6.582349 -2.310224,8.333333 -4.2631169,8.333333 -1.359812,0 -2.8555031,-0.619897 -3.3237578,-1.377549 z M 29.333334,28.777206 C 29.333334,26.776334 23.860618,16 22.844485,16 c -1.424651,0 -4.177818,7.160413 -4.177818,10.86563 0,1.990097 1.032227,2.467703 5.333334,2.467703 2.933333,0 5.333333,-0.250258 5.333333,-0.556127 z m 37.333335,11.869266 c 0,-8.61673 -0.06505,-8.768718 -8.057764,-18.826706 -4.431771,-5.576916 -7.831771,-10.817828 -7.555556,-11.646473 0.276214,-0.8286446 2.243689,-1.5066265 4.372165,-1.5066265 3.187696,0 4.62014,1.1753115 8.125183,6.6666665 8.130903,12.738697 7.130388,12.555228 13.115972,2.405139 5.126074,-8.6925686 8.806206,-11.4656003 11.560674,-8.7111315 0.81434,0.8143394 0.642162,1.9478555 -0.474958,3.1268295 -3.594154,3.793158 -11.391352,13.947032 -12.900881,16.800127 -0.859689,1.624862 -1.422696,6.30894 -1.251124,10.409058 0.224459,5.363981 -0.236681,7.801747 -1.644215,8.691952 -4.359199,2.75701 -5.289496,1.453972 -5.289496,-7.408835 z M 152.00001,29.333333 V 9.3333331 h 3.33333 c 3.26191,0 3.33505,0.2214208 3.41367,10.3333329 0.0441,5.683333 0.3738,13.324469 0.73249,16.980301 0.9256,9.433849 -0.14391,12.686365 -4.17156,12.686365 h -3.30793 z m 5.33333,-8.587977 c 0,-0.323388 -0.6,-0.958798 -1.33333,-1.412023 -0.73334,-0.453225 -1.33334,-0.188635 -1.33334,0.587977 0,0.776612 0.6,1.412023 1.33334,1.412023 0.73333,0 1.33333,-0.264589 1.33333,-0.587977 z m 13.89604,22.254643 c -2.02987,-3.483333 -5.4838,-8.578986 -7.67541,-11.323674 -3.96051,-4.959983 -3.96924,-5.008651 -1.43602,-8 1.4018,-1.655312 2.88044,-3.309659 3.28587,-3.676325 0.40544,-0.366667 2.42665,-2.916667 4.49159,-5.666667 2.49813,-3.326905 4.81688,-4.9999999 6.92952,-4.9999999 4.99833,0 3.78626,3.2399659 -3.49159,9.3333329 -3.66667,3.069907 -6.6614,6.275777 -6.65496,7.124157 0.007,0.84838 3.60644,5.262883 8,9.810007 9.00643,9.321212 10.32828,13.732502 4.11499,13.732502 -3.21391,0 -4.50162,-1.0782 -7.56399,-6.333333 z"
       id="path120" />
  </g>
</svg>
