<?xml version="1.0" encoding="UTF-8" standalone="no"?>
<!-- Created with Inkscape (http://www.inkscape.org/) -->

<svg
   version="1.1"
   id="svg2"
   width="240"
   height="57.333332"
   viewBox="0 0 240 57.333332"
   sodipodi:docname="051.png"
   inkscape:version="1.1.2 (0a00cf5339, 2022-02-04)"
   xmlns:inkscape="http://www.inkscape.org/namespaces/inkscape"
   xmlns:sodipodi="http://sodipodi.sourceforge.net/DTD/sodipodi-0.dtd"
   xmlns="http://www.w3.org/2000/svg"
   xmlns:svg="http://www.w3.org/2000/svg">
  <defs
     id="defs6" />
  <sodipodi:namedview
     id="namedview4"
     pagecolor="#ffffff"
     bordercolor="#666666"
     borderopacity="1.0"
     inkscape:pageshadow="2"
     inkscape:pageopacity="0.0"
     inkscape:pagecheckerboard="0"
     showgrid="false"
     inkscape:zoom="5.3416667"
     inkscape:cx="69.079563"
     inkscape:cy="28.642746"
     inkscape:window-width="2560"
     inkscape:window-height="1299"
     inkscape:window-x="0"
     inkscape:window-y="32"
     inkscape:window-maximized="1"
     inkscape:current-layer="g8" />
  <g
     inkscape:groupmode="layer"
     inkscape:label="Image"
     id="g8">
    <path
       style="fill:#000000;stroke-width:1.33333"
       d="m 99.862217,49.835663 c -1.482825,-1.788704 -0.203641,-5.753621 1.947103,-6.035168 0.83821,-0.109727 8.42401,-0.328187 16.85735,-0.485468 14.47336,-0.269925 20,0.629784 20,3.255899 0,2.197305 -4.78722,3.086353 -21.11478,3.921298 -11.48488,0.587303 -16.82275,0.389185 -17.689673,-0.656561 z m 46.930093,0.315727 c -1.29028,-1.554698 -0.57264,-4.394918 3.63286,-14.37774 2.88243,-6.842175 6.24882,-15.54414 7.48087,-19.337702 2.93515,-9.0374723 5.01644,-10.7819905 9.42061,-7.8962643 1.83702,1.2036515 3.34002,3.4538053 3.34002,5.0003413 0,1.546536 1.12601,4.682704 2.50224,6.969263 4.19229,6.965319 11.19132,25.962115 10.36176,28.12392 -0.42918,1.118402 -1.90454,2.033457 -3.27859,2.033457 -1.82667,0 -3.37409,-2.234795 -5.75612,-8.313003 l -3.25784,-8.313004 -6.54735,-0.476207 c -7.30633,-0.531412 -10.00832,1.53746 -10.04376,7.690388 -0.0228,3.956931 -2.65192,9.64995 -4.78022,10.350941 -0.80662,0.265668 -2.19012,-0.388808 -3.07448,-1.45439 z m 22.3191,-21.565432 C 169.69723,28.106059 164.33213,16 163.53364,16 c -1.08103,0 -4.84705,12.286882 -4.1244,13.456145 0.58613,0.948388 8.33007,0.253836 9.70217,-0.870187 z m 25.01895,22.433283 c -0.43837,-0.438361 -0.79703,-9.997019 -0.79703,-21.241464 V 9.3333331 l 4.33334,0.0419 c 3.16662,0.030619 5.02657,1.0178369 6.90813,3.6666669 5.35084,7.532818 18.72719,22.958099 19.90859,22.958099 0.7318,0 0.85869,-5.408025 0.31284,-13.333333 -0.88456,-12.8431646 -0.81804,-13.3333329 1.8094,-13.3333329 2.63073,0 2.7277,0.7347179 2.7277,20.6666659 0,16.819672 -0.34726,20.666666 -1.86558,20.666666 -1.02607,0 -7.4135,-6.599999 -14.19427,-14.666666 -6.78079,-8.066666 -12.84127,-14.666666 -13.46776,-14.666666 -0.62648,0 -1.13905,6.535806 -1.13905,14.524014 0,11.230189 -0.42402,14.686722 -1.86964,15.241465 -1.02831,0.394597 -2.22831,0.358791 -2.66667,-0.07957 z M 7.0838076,49.21714 C 5.9955509,48.128883 6.629778,45.660663 9.4671409,39.941923 c 2.1264061,-4.285796 3.8661921,-8.138997 3.8661921,-8.562668 0,-0.42367 2.372218,-5.857322 5.271596,-12.074782 8.152602,-17.4825393 11.092162,-15.8470379 22.818234,12.695526 1.657004,4.033333 3.514658,7.903333 4.12812,8.6 2.052521,2.330911 1.149566,7.287883 -1.595126,8.756797 -2.437848,1.304696 -2.989596,0.806443 -5.484872,-4.953088 -1.5259,-3.52204 -5.143334,-11.503709 -8.038744,-17.737042 l -5.264381,-11.333333 -2.532809,6 c -1.393046,3.3 -4.505882,11.0572 -6.917414,17.238222 -4.4544,11.41712 -5.9807089,13.299005 -8.6341294,10.645585 z M 67.683428,48.579482 C 61.049367,44.979879 57.812201,35.04633 59.325672,22.932918 c 0.7467,-5.976385 1.806216,-8.331473 5.336339,-11.861596 3.801164,-3.801164 5.311702,-4.4046555 11.024844,-4.4046555 7.199146,0 13.651969,3.6727735 13.639856,7.7634395 -0.0051,1.715447 -0.704074,1.417143 -3,-1.280288 -3.956908,-4.6488787 -7.90009,-5.3856392 -12.817887,-2.394948 -2.825696,1.718408 -4.299591,3.88408 -4.92986,7.243706 -0.494487,2.635837 -0.480407,5.211093 0.03129,5.722787 0.511696,0.511696 4.333719,1.233719 8.493384,1.604496 6.42224,0.572455 7.56303,1.072431 7.56303,3.314662 0,2.279501 -0.770512,2.584888 -5.635587,2.233618 -10.353652,-0.747557 -12.522612,1.42194 -10.176735,10.179257 0.836478,3.122643 6.624952,6.946603 10.515335,6.946603 1.192828,0 3.963687,-1.794909 6.157465,-3.988688 3.58297,-3.582969 3.945502,-3.699899 3.564103,-1.149556 -0.520628,3.481357 -8.218007,7.824804 -13.737116,7.751526 -2.211441,-0.02936 -5.66326,-0.94457 -7.670708,-2.033799 z M 106.08598,32.308203 c -0.41395,-0.413957 -0.75265,-1.787005 -0.75265,-3.051218 0,-2.784488 5.39545,-3.634112 17.98666,-2.832366 7.41654,0.47225 8.68001,0.918255 8.68001,3.064042 0,1.381236 -0.45,2.57808 -1,2.659654 -4.23348,0.62789 -24.31713,0.756779 -24.91402,0.159888 z M 100,12.666666 V 9.3333331 h 18.66667 c 17.4261,0 18.66666,0.1677417 18.66666,2.5240149 0,3.66581 -2.3914,4.142652 -20.77571,4.142652 H 100 Z"
       id="path509" />
  </g>
</svg>
