<?xml version="1.0" encoding="UTF-8" standalone="no"?>
<!-- Created with Inkscape (http://www.inkscape.org/) -->

<svg
   version="1.1"
   id="svg12"
   width="262.66666"
   height="57.333332"
   viewBox="0 0 262.66666 57.333332"
   sodipodi:docname="052.png"
   inkscape:version="1.1.2 (0a00cf5339, 2022-02-04)"
   xmlns:inkscape="http://www.inkscape.org/namespaces/inkscape"
   xmlns:sodipodi="http://sodipodi.sourceforge.net/DTD/sodipodi-0.dtd"
   xmlns="http://www.w3.org/2000/svg"
   xmlns:svg="http://www.w3.org/2000/svg">
  <defs
     id="defs16" />
  <sodipodi:namedview
     id="namedview14"
     pagecolor="#ffffff"
     bordercolor="#666666"
     borderopacity="1.0"
     inkscape:pageshadow="2"
     inkscape:pageopacity="0.0"
     inkscape:pagecheckerboard="0"
     showgrid="false"
     inkscape:zoom="4.8807108"
     inkscape:cx="75.603741"
     inkscape:cy="28.684346"
     inkscape:window-width="2560"
     inkscape:window-height="1299"
     inkscape:window-x="0"
     inkscape:window-y="32"
     inkscape:window-maximized="1"
     inkscape:current-layer="g18" />
  <g
     inkscape:groupmode="layer"
     inkscape:label="Image"
     id="g18">
    <path
       style="fill:#000000;stroke-width:1.33333"
       d="m 91.995595,49.764431 c -0.0041,-2.250207 11.179125,-28.830659 15.327655,-36.431098 2.05635,-3.7673794 6.25694,-4.9928867 8.21837,-2.397676 0.71955,0.952055 4.77288,9.40226 9.00739,18.778232 6.24255,13.822121 7.39252,17.416661 6.07846,18.999999 -0.89136,1.074028 -2.37171,1.952777 -3.28965,1.952777 -0.91795,0 -4.79686,-7.049999 -8.61981,-15.666666 -3.82294,-8.616666 -7.39833,-16.136567 -7.9453,-16.710891 -1.08126,-1.135328 -2.84685,2.692569 -9.70147,21.033302 -2.978722,7.970088 -5.250181,12.13725 -6.776006,12.431098 -1.492768,0.28748 -2.296775,-0.407948 -2.299639,-1.989077 z m 57.337735,-0.09984 C 142.15768,46.079955 139.68789,40.052262 140.45646,27.999999 141.2402,15.710122 141.61776,14.744486 147.10338,11 151.7347,7.8386641 160.36925,6.9869604 164,9.3333331 c 1.47269,0.9517269 0.57225,1.2978819 -3.41526,1.3129159 -3.50958,0.01323 -6.40032,0.938149 -8.21448,2.628297 -2.91614,2.716802 -5.28778,10.251295 -3.72084,11.820795 0.49675,0.497562 4.60384,1.204658 9.12688,1.571325 6.12476,0.496513 8.2237,1.177125 8.2237,2.666667 0,1.522102 -1.99124,2.094852 -8.33334,2.396956 l -8.33333,0.396957 v 5.905638 c 0,4.674915 0.6252,6.29991 3,7.797544 5.92627,3.737307 8.4948,3.755842 12.84819,0.09271 3.944,-3.318656 5.31989,-3.15876 3.08466,0.358477 -1.12013,1.762584 -9.81236,5.719637 -12.55669,5.716311 -0.94023,-0.0011 -3.80949,-1.05114 -6.37616,-2.333333 z m 77.3796,1.030666 c -1.25658,-0.776605 -1.75638,-6.329382 -1.8791,-20.876638 l -0.16717,-19.8186222 3.66667,-0.4218964 c 3.64341,-0.4192215 3.66666,-0.3706095 3.66666,7.6666666 0,4.448709 0.5588,8.088563 1.24178,8.088563 0.68297,0 4.37294,-3.6 8.19994,-8 6.52587,-7.5029431 11.89162,-10.2975416 11.89162,-6.19341 0,0.993625 -3.32519,4.951409 -7.3893,8.795074 -7.11221,6.726437 -7.29557,7.071162 -4.89009,9.19341 6.20848,5.477443 14.94605,16.535933 14.94605,18.916099 0,1.984477 -0.91006,2.622159 -3.74218,2.622159 -3.1803,0 -4.73184,-1.498437 -10.33334,-9.979647 -3.62513,-5.488805 -7.27594,-9.988805 -8.11293,-10 -1.02372,-0.01369 -1.32365,2.241149 -0.91643,6.889248 0.95423,10.891576 -1.4683,16.032335 -6.18218,13.118994 z M 15.486505,47.882271 C 8.3141761,42.240516 5.2233671,30.583382 8.2052279,20.420586 11.113002,10.510295 19.764507,5.6681752 31.436345,7.4184753 c 6.548599,0.9820232 12.563654,5.6984417 12.563654,9.8511927 0,3.919112 -4.824059,3.607625 -5.823896,-0.376044 -1.129005,-4.498317 -9.064034,-8.4706113 -13.655106,-6.83578 -5.905705,2.102959 -9.004405,7.61123 -9.538957,16.956517 -0.569211,9.951226 2.33208,16.500317 8.773879,19.805295 5.652418,2.899986 10.743871,1.72053 13.413937,-3.107394 3.804464,-6.879103 4.702602,-7.742934 6.724715,-6.467844 1.606171,1.012808 1.530055,1.770146 -0.500021,4.975124 -4.289247,6.771636 -7.397902,8.385415 -16.214739,8.417475 -6.280196,0.02284 -8.96681,-0.610085 -11.693306,-2.754746 z m 46.503803,1.301481 c -6.555187,-3.190038 -10.37128,-17.927519 -7.445265,-28.753084 2.223534,-8.226555 7.85741,-12.4306682 16.65817,-12.4306682 5.738284,0 7.561656,0.5993295 10.12518,3.3280762 3.811202,4.05684 2.683613,6.017265 -1.217284,2.116368 -2.649006,-2.649005 -5.018699,-3.368424 -9.444444,-2.86725 -3.333901,0.377532 -8,6.659311 -8,10.770074 0,4.058495 1.290967,4.632703 12.666666,5.633986 2.510188,0.220947 4,1.096985 4,2.352079 0,1.522102 -1.99124,2.094852 -8.333333,2.396956 l -8.333333,0.396957 v 4.528692 c 0,6.21124 4.918928,11.788505 10.396996,11.788505 2.283802,0 3.84335,0.5 3.465662,1.111112 -0.931178,1.506678 -11.219586,1.243576 -14.539015,-0.371803 z M 193.33333,41.932311 c 0,-8.668673 -0.062,-8.814357 -8.24627,-19.372776 -7.61138,-9.819346 -8.07949,-10.805207 -6.07997,-12.8047218 1.99951,-1.9995148 2.42095,-1.999449 5.4738,8.554e-4 1.81913,1.1919364 5.30512,5.4675044 7.74664,9.5012614 2.44152,4.033757 5.03913,7.347108 5.77246,7.363 0.73334,0.01589 3.58723,-4.1099 6.34199,-9.168429 4.10064,-7.5299776 5.49051,-9.0713167 7.66667,-8.5022387 1.4619,0.3822983 2.65801,1.2440747 2.65801,1.9150597 0,0.670984 -3.34739,5.667375 -7.43864,11.103092 -6.56084,8.716868 -7.41161,10.560631 -7.20968,15.624518 0.48389,12.134419 0.24284,13.074733 -3.35168,13.074733 -3.21632,0 -3.33333,-0.306598 -3.33333,-8.734354 z"
       id="path370" />
  </g>
</svg>
