<?xml version="1.0" encoding="UTF-8" standalone="no"?>
<!-- Created with Inkscape (http://www.inkscape.org/) -->

<svg
   version="1.1"
   id="svg22"
   width="150.66667"
   height="58.666668"
   viewBox="0 0 150.66667 58.666668"
   sodipodi:docname="053.png"
   inkscape:version="1.1.2 (0a00cf5339, 2022-02-04)"
   xmlns:inkscape="http://www.inkscape.org/namespaces/inkscape"
   xmlns:sodipodi="http://sodipodi.sourceforge.net/DTD/sodipodi-0.dtd"
   xmlns="http://www.w3.org/2000/svg"
   xmlns:svg="http://www.w3.org/2000/svg">
  <defs
     id="defs26" />
  <sodipodi:namedview
     id="namedview24"
     pagecolor="#ffffff"
     bordercolor="#666666"
     borderopacity="1.0"
     inkscape:pageshadow="2"
     inkscape:pageopacity="0.0"
     inkscape:pagecheckerboard="0"
     showgrid="false"
     inkscape:zoom="8.5088493"
     inkscape:cx="43.366616"
     inkscape:cy="29.381176"
     inkscape:window-width="2560"
     inkscape:window-height="1299"
     inkscape:window-x="0"
     inkscape:window-y="32"
     inkscape:window-maximized="1"
     inkscape:current-layer="g28" />
  <g
     inkscape:groupmode="layer"
     inkscape:label="Image"
     id="g28">
    <path
       style="fill:#000000;stroke-width:1.33333"
       d="m 68.016315,50.799742 c -5.605271,-0.749165 -6.031348,-1.095417 -6.73734,-5.475105 -0.934238,-5.795624 -0.335623,-35.6149425 0.75023,-37.3718899 1.089167,-1.7623084 17.931686,-1.6257979 23.133312,0.187498 7.104402,2.4766079 8.902532,9.2146769 4.21558,15.7968939 l -2.621906,3.682127 3.288572,3.089452 c 6.042446,5.676584 3.596958,14.738058 -5.03486,18.65609 -5.886689,2.672004 -7.021109,2.767793 -16.993588,1.434934 z m 13.504461,-7.63604 c 5.71423,-5.171306 1.490425,-12.868576 -7.159162,-13.046533 -5.682512,-0.116907 -5.695876,-0.1058 -6.121062,5.089068 -0.234362,2.863429 -0.07419,6.608451 0.355959,8.322267 0.679895,2.708917 1.413316,3.035212 5.613557,2.497449 2.657316,-0.340221 5.947135,-1.628233 7.310708,-2.862251 z M 80.466179,23.380135 c 2.163807,-1.639313 2.273711,-2.451565 0.896399,-6.624861 -1.045242,-3.167112 -2.613743,-5.018491 -4.69405,-5.540615 -5.947464,-1.4927182 -7.971629,-0.226424 -8.42404,5.269979 -0.232198,2.82102 -0.101026,5.966029 0.291488,6.988911 0.925627,2.412146 8.703379,2.351246 11.930203,-0.09341 z m 44.200491,27.627314 c -11.30815,-1.268112 -18.00137,-9.303755 -17.99793,-21.607672 0.004,-14.324211 6.89795,-21.9437672 19.92329,-22.0202995 8.57672,-0.050394 12.90616,2.6052526 16.96323,10.4051465 2.27508,4.373939 2.60161,16.017954 0.58557,20.882044 -3.32536,8.023145 -11.54237,13.230264 -19.47416,12.340781 z m 10.23579,-6.674115 c 3.88536,-4.188396 6.85734,-11.911043 5.44672,-14.153159 -0.52372,-0.832429 -1.08419,-3.490342 -1.24547,-5.906473 -0.16129,-2.416131 -1.57455,-6.466131 -3.14056,-9 -2.55192,-4.129093 -3.45848,-4.607035 -8.73856,-4.607035 -7.09879,0 -10.44918,2.835392 -12.5443,10.616091 -1.68151,6.244651 -0.70996,13.280716 2.79767,20.260916 2.71291,5.398724 3.9622,6.197003 9.93925,6.351064 2.82974,0.07293 5.12843,-1.02076 7.48525,-3.561404 z M 16.421756,48.075496 C 9.1620505,44.77948 6.1555391,39.143925 6.0673431,28.666667 5.9870548,19.128823 8.3250462,13.893731 14.530511,9.71644 20.616952,5.619272 32.495674,5.4756839 39.178253,9.4185019 50.974837,16.378656 49.788608,41.598466 37.354137,48.20011 31.42779,51.346495 23.522706,51.299433 16.421756,48.075496 Z M 34.41379,44.98992 C 38.368896,41.707474 39.958725,36.171235 39.549917,27.104478 39.051548,16.051428 37.24925,12.385899 31.036645,9.7901068 24.872045,7.2143723 20.906139,8.3175103 17.088526,13.669851 c -4.303793,6.033968 -4.471516,21.60539 -0.293327,27.232377 5.041793,6.790048 12.32609,8.480078 17.618591,4.087692 z"
       id="path199" />
  </g>
</svg>
