<?xml version="1.0" encoding="UTF-8" standalone="no"?>
<!-- Created with Inkscape (http://www.inkscape.org/) -->

<svg
   version="1.1"
   id="svg32"
   width="85.333336"
   height="60"
   viewBox="0 0 85.333336 60"
   sodipodi:docname="054.png"
   inkscape:version="1.1.2 (0a00cf5339, 2022-02-04)"
   xmlns:inkscape="http://www.inkscape.org/namespaces/inkscape"
   xmlns:sodipodi="http://sodipodi.sourceforge.net/DTD/sodipodi-0.dtd"
   xmlns="http://www.w3.org/2000/svg"
   xmlns:svg="http://www.w3.org/2000/svg">
  <defs
     id="defs36" />
  <sodipodi:namedview
     id="namedview34"
     pagecolor="#ffffff"
     bordercolor="#666666"
     borderopacity="1.0"
     inkscape:pageshadow="2"
     inkscape:pageopacity="0.0"
     inkscape:pagecheckerboard="0"
     showgrid="false"
     inkscape:zoom="14.55"
     inkscape:cx="42.680412"
     inkscape:cy="30.034364"
     inkscape:window-width="2560"
     inkscape:window-height="1299"
     inkscape:window-x="0"
     inkscape:window-y="32"
     inkscape:window-maximized="1"
     inkscape:current-layer="g38" />
  <g
     inkscape:groupmode="layer"
     inkscape:label="Image"
     id="g38">
    <path
       style="fill:#000000;stroke-width:1.33333"
       d="m 67.857145,53.190476 c -2.621502,-2.621501 -2.660664,-2.956117 -0.585176,-5 2.063649,-2.032224 2.349489,-2.021904 3.956515,0.142857 2.314461,3.117722 4.771518,2.959155 4.771518,-0.30793 0,-1.812804 -1.150088,-2.87375 -3.666666,-3.382467 -8.094197,-1.636211 -10.404291,-2.865955 -12.124013,-6.454033 -2.229284,-4.651246 -1.07963,-11.65465 2.43537,-14.835682 3.38955,-3.067501 14.821579,-5.295506 16.149215,-3.147345 1.963575,3.177132 -0.385072,5.127457 -6.174652,5.127457 -6.118361,0 -9.952587,2.506843 -9.952587,6.507066 0,3.872442 3.090324,6.655157 7.868172,7.084976 9.093724,0.81808 12.523886,11.978762 4.767727,15.512706 -4.397232,2.003512 -4.153456,2.044362 -7.445423,-1.247605 z M 35.687704,42.776039 c -3.853467,-3.443072 -4.35437,-4.683387 -4.35437,-10.782112 0,-5.897707 0.539468,-7.355515 3.741019,-10.109372 10.48305,-9.017139 22.380586,3.101205 16.98293,17.298117 -1.178441,3.099535 -7.409898,7.483995 -10.6367,7.483995 -0.75818,0 -3.337976,-1.750783 -5.732879,-3.890628 z m 10.932052,-2.688384 c 2.133203,-3.985926 1.692615,-14.251476 -0.714993,-16.659083 -4.708192,-4.708193 -9.904762,-0.332708 -9.904762,8.339757 0,9.221172 7.14256,14.816526 10.619755,8.319326 z M 4.0518076,43.666667 C 4.0803023,42.75 5.498421,37.251688 7.2031837,31.448196 10.654174,19.700056 10.497305,17.64534 5.7590683,12.532698 2.2530827,8.7496771 3.0943762,6.0543808 7.5250405,6.8749597 10.39729,7.4069131 13.748682,13.79718 18.788207,28.350999 c 1.972487,5.696414 4.346638,11.273218 5.275891,12.392901 1.302328,1.569208 1.327392,2.397944 0.10936,3.615973 -2.599744,2.599744 -5.730184,-0.503538 -8.223667,-8.152325 C 13.508538,28.718967 12,26.238191 12,29.712149 c 0,1.186127 -0.649718,5.186127 -1.443818,8.88889 -1.1247089,5.244334 -2.008782,6.732294 -4.0000006,6.732294 -1.4058996,0 -2.5328679,-0.75 -2.5043738,-1.666666 z"
       id="path60" />
  </g>
</svg>
