<?xml version="1.0" encoding="UTF-8" standalone="no"?>
<!-- Created with Inkscape (http://www.inkscape.org/) -->

<svg
   version="1.1"
   id="svg152"
   width="396"
   height="58.666668"
   viewBox="0 0 396 58.666668"
   xmlns="http://www.w3.org/2000/svg"
   xmlns:svg="http://www.w3.org/2000/svg">
  <defs
     id="defs156" />
  <g
     id="g158">
    <path
       style="fill:#000000;stroke-width:1.33333"
       d="m 291.50304,49.961448 c -0.46001,-1.198751 -0.83637,-10.466282 -0.83637,-20.594513 0,-15.959747 0.29638,-18.528697 2.22296,-19.267993 1.22262,-0.4691658 2.75166,-0.3243192 3.39786,0.321881 0.6462,0.6462 1.29587,10.115871 1.44371,21.043711 0.26157,19.334216 0.19265,19.879666 -2.56149,20.27263 -1.66938,0.238187 -3.17336,-0.490175 -3.66667,-1.775716 z M 316.18409,49.1951 c -8.2527,-4.192803 -10.84078,-9.093674 -10.84078,-20.528433 0,-15.191161 5.84481,-22.0272062 18.96725,-22.1839477 8.40947,-0.1004466 13.84461,2.273217 18.86395,8.2383587 2.98616,3.548836 3.49216,5.41025 3.49216,12.846384 0,5.261408 -0.85488,10.497718 -2.16439,13.257292 -4.79373,10.10204 -17.51089,13.861006 -28.31819,8.370346 z m 18.14262,-7.530926 c 2.43806,-2.984414 2.99461,-5.322167 3,-12.601436 0.008,-10.503755 -1.80451,-15.218512 -6.85342,-17.829398 -5.28957,-2.735345 -7.14253,-2.4016219 -12.42689,2.238116 -4.47979,3.933303 -4.71307,4.56353 -4.71307,12.732881 0,9.324202 2.14543,14.985353 6.99239,18.450847 4.08475,2.920524 10.24713,1.604062 14.00099,-2.99101 z M 8.2092359,48.918781 C 7.0000468,47.461798 8.2881665,42.734161 14.128244,27.19493 18.233743,16.271052 22.09048,6.8072631 22.698772,6.164288 c 2.369337,-2.5044298 7.539945,0.442844 9.603852,5.474246 1.134411,2.765473 4.892417,11.483799 8.351124,19.374057 6.699507,15.283407 6.928531,18.768537 1.187901,18.076705 -2.826998,-0.340696 -4.011886,-1.712952 -6.111997,-7.078492 -3.699213,-9.451062 -4.587159,-10.198719 -11.569563,-9.741681 -5.628766,0.368435 -6.149869,0.714838 -7.116782,4.730878 -0.573819,2.383333 -1.514582,6.279213 -2.090584,8.657512 -1.137888,4.698304 -4.286932,6.221238 -6.7434871,3.261268 z M 28.178605,22 c -1.186672,-3.3 -2.553621,-6 -3.037662,-6 -1.008084,0 -3.80761,7.498739 -3.80761,10.198965 0,1.156845 1.610063,1.801036 4.50143,1.801036 h 4.50143 z m 27.488062,27.627394 c -3.927094,-0.824001 -2.598952,-4.572842 4.827925,-13.627393 l 7.108719,-8.666667 -7.134988,-7.567684 c -3.924244,-4.162226 -7.13499,-8.812226 -7.13499,-10.3333334 0,-2.6650379 0.669376,-2.7656498 18.4,-2.7656498 18.329362,0 21.6,0.7401674 21.6,4.8882242 0,1.233912 -3.857198,1.790067 -14.333333,2.066667 L 64.666667,14 l 6.236344,6.701251 6.236342,6.70125 -5.903009,6.337833 c -3.246656,3.48581 -5.903011,6.882187 -5.903011,7.547506 0,0.670544 5.772578,1.017738 12.952258,0.779021 7.123742,-0.236859 13.723742,-0.134604 14.666666,0.227229 2.077514,0.797218 2.272236,5.203776 0.284246,6.432423 -1.532171,0.946933 -33.676856,1.717727 -37.569836,0.900881 z M 103.47599,48.557618 C 103.03086,47.39764 102.66667,37.757786 102.66667,27.135721 V 7.8228739 l 3.66666,0.4218966 c 3.35325,0.3858336 3.68642,0.9347629 3.89775,6.4218965 0.12709,3.3 0.29101,6.9 0.36427,8 0.13309,1.998524 7.6735,-5.497408 11.73588,-11.666667 1.29154,-1.9613751 3.30721,-2.9999998 5.82212,-2.9999998 6.61548,0 4.32234,4.7668678 -6.12734,12.7372218 l -4.71858,3.599037 8.67962,9.697946 c 8.89387,9.937343 10.0507,12.501381 6.8418,15.164531 C 130.7422,50.930501 124,49.025542 124,46.704208 c 0,-1.940572 -11.09314,-17.292793 -12.52614,-17.335405 -0.66268,-0.01971 -0.83483,3.797986 -0.38735,8.589977 0.63127,6.760124 0.36403,9.066874 -1.23576,10.666666 -2.6326,2.632596 -5.34961,2.603687 -6.37476,-0.06783 z m 37.4101,1.130748 C 140.23584,48.636234 144.27663,38.869512 154.41024,17 c 3.46993,-7.4885146 4.71304,-8.9999998 7.40196,-8.9999998 2.83015,0 4.32635,2.2548588 12.04305,18.1496258 4.84628,9.982293 8.81142,18.908827 8.81142,19.83674 0,2.81999 -3.9779,5.349133 -6.19114,3.936316 -1.08217,-0.690808 -4.83124,-7.822468 -8.33125,-15.848135 -3.50001,-8.025665 -6.97809,-14.796929 -7.72907,-15.047253 -0.75097,-0.250324 -4.00161,6.616131 -7.22364,15.258787 -4.7844,12.833497 -6.38509,15.788997 -8.73242,16.123501 -1.5808,0.22527 -3.18868,-0.09928 -3.57306,-0.721216 z m 47.985,-0.02427 c -0.39262,-0.635278 -1.09409,-10.31095 -1.55882,-21.50149 l -0.84496,-20.3464302 4.43301,0.4252456 4.43301,0.4252455 0.39428,8.2301251 0.39428,8.230127 9.89054,0.43654 9.89053,0.436542 0.38185,-9.333334 C 216.65159,7.7018268 216.79827,7.3333335 220,7.3333335 h 3.33333 V 28.666667 50.000001 H 220 c -3.2,0 -3.36,-0.4 -4,-10 l -0.66667,-10 -9.60954,-0.390594 -9.60956,-0.390593 -0.39044,10.390594 c -0.35627,9.480936 -0.64208,10.42645 -3.26464,10.800174 -1.5808,0.22527 -3.19543,-0.1102 -3.58806,-0.745477 z m 49.05219,-0.716579 c -0.40231,-1.048389 -0.54963,-9.190949 -0.32737,-18.094574 0.22225,-8.903624 0.10409,-16.233836 -0.26258,-16.289359 -6.63761,-1.005113 -7.7197,-1.929446 -5.80752,-4.9608727 1.26558,-2.0063491 4.35091,-2.2693818 26.61951,-2.2693818 24.29912,0 25.18801,0.094107 25.18801,2.6666665 0,1.917924 -1.02952,2.785126 -3.66666,3.088563 -3.5059,0.403399 -3.67127,0.754168 -3.77171,8 -0.0577,4.167958 -0.0165,11.325508 0.0917,15.90567 0.25822,10.932631 -0.69226,13.672435 -4.74321,13.672435 H 268 V 31.946078 13.225487 L 257,13.612744 246,14 245.33333,32.000001 c -0.64557,17.430441 -0.76178,18.013507 -3.67262,18.426849 -1.70098,0.24154 -3.32352,-0.400682 -3.73743,-1.479324 z m 129.63228,0.830252 c -0.48889,-0.488883 -0.88889,-4.744503 -0.88889,-9.456925 0,-8.35869 -0.18024,-8.800007 -7.37646,-18.061523 -7.91776,-10.190144 -8.62252,-13.3574445 -3.11472,-13.9982229 2.70011,-0.3141331 4.38244,0.7379348 7.46234,4.6666669 2.18697,2.789727 4.68425,6.422231 5.54949,8.072231 2.48265,4.734359 4.64579,3.593385 9.47935,-5 3.7975,-6.7514421 5.07278,-7.9999998 8.17121,-7.9999998 5.89716,0 5.77631,2.3240798 -0.50561,9.7232258 -9.55063,11.249192 -10.33279,12.937508 -10.08915,21.77773 0.12133,4.401881 -0.21917,8.714937 -0.75663,9.584566 -1.04596,1.692387 -6.45838,2.164814 -7.93093,0.692256 z"
       id="path180" />
  </g>
</svg>
