<?xml version="1.0" encoding="UTF-8" standalone="no"?>
<!-- Created with Inkscape (http://www.inkscape.org/) -->

<svg
   version="1.1"
   id="svg142"
   width="246.66667"
   height="53.333332"
   viewBox="0 0 246.66667 53.333332"
   xmlns="http://www.w3.org/2000/svg"
   xmlns:svg="http://www.w3.org/2000/svg">
  <defs
     id="defs146" />
  <g
     id="g148">
    <path
       style="fill:#000000;stroke-width:1.33333"
       d="M 50.666739,44.160954 C 40.325039,33.28957 40.560871,18.046609 51.22491,8.0837587 53.887093,5.5966216 56.575177,4.6987772 62.681766,4.2570664 70.480549,3.6929534 70.777362,3.7969688 75.85332,8.8729262 82.755406,15.775013 84.763562,22.565978 82.758524,32.224198 80.497745,43.114308 74.714777,48.300136 63.964308,49.077755 55.964621,49.6564 55.856349,49.616367 50.666739,44.160954 Z m 21.195139,-2.20735 C 75.96964,37.275122 76.956709,32.370615 76.00982,21.343497 75.612958,16.721817 71.220229,8.4977249 68.614413,7.4977794 65.415529,6.2702525 60.159419,6.4875246 57.406015,7.9611018 47.949281,13.022193 50.007407,42.808139 60.000001,45.502175 c 6.141949,1.655889 7.702095,1.18916 11.861877,-3.548571 z M 93.520393,46.43035 C 92.885669,44.72699 92.247445,35.08235 92.102119,24.997815 L 91.837889,6.6622993 95.339077,5.3311496 c 4.390919,-1.6694241 26.060133,-1.7470337 30.369103,-0.1087693 2.89852,1.1020185 3.30158,2.2454468 4.09338,11.6124577 0.6817,8.064451 0.45779,10.810575 -1.00035,12.268718 C 125.50083,32.403935 124,29.517985 124,19.871276 v -9.304678 l -12.33333,0.383367 -12.333335,0.383368 v 18.63577 c 0,16.671619 -0.245516,18.684385 -2.329448,19.097017 -1.470298,0.291129 -2.755086,-0.681001 -3.483494,-2.63577 z m 52.765787,0.04851 c -11.3611,-8.473769 -11.90883,-27.39146 -1.09155,-37.7000541 5.76383,-5.4927814 16.17324,-6.3633482 22.68939,-1.8975734 13.38713,9.1747315 12.65464,33.1726455 -1.2245,40.1166905 -6.40472,3.204421 -15.6986,2.967634 -20.37334,-0.519067 z m 17.42477,-1.893133 c 4.42323,-3.098156 6.95664,-8.999771 6.94828,-16.186181 -0.0167,-14.365012 -5.16056,-22.2372735 -14.04136,-21.4890952 -7.85373,0.6616513 -10.62504,5.4228372 -10.58893,18.1920962 0.0324,11.482403 2.14909,17.23118 7.3044,19.838781 4.41469,2.232989 6.79849,2.151307 10.37761,-0.355597 z m 70.51128,3.858716 c -1.27024,-1.270234 -1.10427,-40.1539592 0.17477,-40.9444432 0.58502,-0.3615582 1.84718,-0.173135 2.80482,0.4187184 1.27058,0.7852624 1.82806,6.0767548 2.06269,19.5786888 0.17684,10.176425 0.0505,19.252592 -0.28081,20.169258 -0.64767,1.79211 -3.31194,2.227312 -4.76147,0.777778 z M 4.5934882,46.54826 C 4.100015,45.749804 3.509155,37.305254 3.2804658,27.782594 2.7463856,5.5433892 3.096981,5.0501529 19.03832,5.6136008 c 9.169156,0.3240845 11.00409,0.7626953 11.378034,2.7197323 0.376024,1.9679289 -0.587379,2.3333329 -6.151922,2.3333329 -3.62877,0 -8.472765,0.375 -10.764432,0.833334 -3.8064515,0.76129 -4.1666665,1.28 -4.1666665,6 v 5.166666 H 19.921311 c 10.745355,0 12.717304,0.784363 11.294376,4.492453 -0.6011,1.566442 -3.263696,2.160126 -11.004325,2.453656 L 10,29.999999 v 6 6 L 20,41.62147 c 5.5,-0.208192 11.35,-0.04676 13,0.358736 3.455419,0.849186 3.997336,4.018442 0.890951,5.210474 C 30.133599,48.632512 5.5484499,48.09342 4.5934882,46.54826 Z M 187.07354,44.298999 c 0.4071,-2.035549 2.7929,-8.185549 5.30176,-13.666666 2.50886,-5.481116 5.62904,-12.807152 6.93372,-16.28008 1.30469,-3.472927 3.16761,-6.9745805 4.13982,-7.7814526 3.32227,-2.7572274 3.72119,-2.1226297 16.5182,26.2767626 2.35796,5.232827 4.07179,10.632827 3.8085,12 -1.12796,5.857006 -4.53384,1.747979 -11.51662,-13.89425 -4.02166,-9.009012 -7.97516,-16.159219 -8.78552,-15.889348 -1.53176,0.510108 -3.4819,5.145373 -9.50945,22.602701 -2.34996,6.80608 -4.26124,10.333333 -5.59921,10.333333 -1.50954,0 -1.84124,-0.950798 -1.2912,-3.701 z"
       id="path319" />
  </g>
</svg>
