<?xml version="1.0" encoding="UTF-8" standalone="no"?>
<!-- Created with Inkscape (http://www.inkscape.org/) -->

<svg
   version="1.1"
   id="svg62"
   width="222.66667"
   height="62.666668"
   viewBox="0 0 222.66667 62.666668"
   xmlns="http://www.w3.org/2000/svg"
   xmlns:svg="http://www.w3.org/2000/svg">
  <defs
     id="defs66" />
  <g
     id="g68">
    <path
       style="fill:#000000;stroke-width:1.33333"
       d="m 187.05954,53.767296 c -0.94168,-2.454007 -0.35911,-2.9664 12.78677,-11.246204 4.68213,-2.948998 7.98213,-5.813143 7.33333,-6.364769 -0.6488,-0.551624 -4.47964,-1.79062 -8.51297,-2.753322 -9.10012,-2.172079 -12,-3.63136 -12,-6.03865 0,-3.311321 22.36799,-19.3494726 27,-19.3593667 4.33367,-0.00925 2.37332,2.4923097 -6.99329,8.9240597 -5.12964,3.522359 -9.31735,6.70429 -9.30602,7.070957 0.0107,0.366666 4.65831,2.166666 10.32662,4 13.19629,4.268146 13.93824,6.676153 4.10826,13.333333 -24.0971,16.319343 -23.3884,15.963201 -24.7427,12.433962 z M 57.09541,52.026225 C 42.618473,47.656693 39.106355,21.902242 51.679627,12.31214 57.83974,7.6135931 72.412837,7.1516962 78.225933,11.47075 c 11.834531,8.7929 9.80895,33.537118 -3.255363,39.767054 -4.680012,2.231741 -12.020518,2.55551 -17.87516,0.788421 z m 16.005463,-7.298507 c 3.866139,-4.403289 4.031073,-5.08367 3.754452,-15.487683 C 76.578222,18.817996 76.384044,18.195398 72.261961,14.512318 65.190306,8.1937947 58.781529,9.8595779 54.582598,19.107576 46.038525,37.925597 60.954396,58.561792 73.100873,44.727718 Z m 19.53133,7.216516 c -1.102704,-1.784213 5.95617,-34.753992 7.899487,-36.896015 2.12193,-2.338896 3.96032,-0.546204 6.56388,6.400689 1.2606,3.363567 3.08392,7.198595 4.05182,8.522286 1.57913,2.159591 2.08084,1.497421 4.88613,-6.448908 2.54967,-7.222252 3.65775,-8.855619 6.00768,-8.855619 2.59569,0 3.2997,1.751637 7.1005,17.666667 4.87181,20.399678 4.78838,19.666667 2.23855,19.666667 -2.51565,0 -3.97504,-2.925049 -5.98714,-12 -3.25109,-14.663042 -3.53733,-14.759584 -8.04256,-2.712691 -1.64768,4.405851 -3.50103,7.698374 -4.11857,7.316719 -0.61753,-0.381656 -2.72929,-4.273695 -4.6928,-8.648975 -1.96351,-4.375279 -3.98427,-7.955053 -4.49057,-7.955053 -0.50631,0 -1.67721,4.95 -2.60201,11 -0.9248,6.05 -2.302083,11.75 -3.060621,12.666667 -1.677555,2.027261 -4.585702,2.167552 -5.753776,0.277566 z M 148.32115,50.67387 c -6.61235,-4.031596 -9.64365,-10.019246 -9.64949,-19.06032 -0.009,-14.872958 6.90701,-22.2512366 21.04552,-22.4502593 10.63608,-0.1497202 15.75822,2.6451063 19.2294,10.4922643 5.18661,11.7252 0.0308,28.782707 -9.72808,32.184686 -6.70999,2.339116 -15.99815,1.820704 -20.89735,-1.166371 z m 19.69893,-6.233774 c 4.21488,-4.800486 4.28476,-5.092798 3.68688,-15.420939 -0.52242,-9.024563 -1.08949,-11.007747 -3.97161,-13.88987 -2.04621,-2.046214 -5.05607,-3.447063 -7.68993,-3.579062 -3.51444,-0.176131 -5.09548,0.721162 -8.41286,4.774587 -3.63385,4.440115 -4.07617,5.925975 -4.00436,13.451454 0.1713,17.948074 10.79848,25.590105 20.39188,14.66383 z M 7.4759852,49.890952 C 5.9071837,45.80272 6.5739276,10.881362 8.2404495,9.8513943 9.1060299,9.3164362 14.35603,8.9881235 19.907116,9.1218107 c 7.409542,0.1784444 10.9791,0.8942833 13.426218,2.6924913 4.380711,3.219065 4.978456,8.8739 1.443432,13.655275 l -2.771142,3.748169 3.330522,3.330521 c 4.644503,4.644503 4.557468,11.775302 -0.197509,16.182066 -3.185877,2.952571 -4.659094,3.269668 -15.190682,3.269668 -9.404825,0 -11.819331,-0.4083 -12.4719698,-2.109049 z M 26.060607,44.727274 c 3.98296,-3.982961 4.097247,-6.006091 0.55412,-9.809192 -1.912847,-2.053199 -4.283944,-2.918081 -8,-2.918081 h -5.281393 v 7.11111 c 0,3.911113 0.4,7.511113 0.888889,8.000001 2.065989,2.065989 8.730571,0.723974 11.838384,-2.383838 z M 25.912464,24.096727 c 2.03332,-2.246793 2.101219,-3.032319 0.539984,-6.247152 -1.950226,-4.015831 -8.561425,-6.638935 -11.204338,-4.445512 -0.867635,0.720073 -1.631502,3.998733 -1.697483,7.285913 l -0.119965,5.976691 h 5.07802 c 3.320988,0 5.882749,-0.889217 7.403782,-2.56994 z"
       id="path1581" />
  </g>
</svg>
