<?xml version="1.0" encoding="UTF-8" standalone="no"?>
<!-- Created with Inkscape (http://www.inkscape.org/) -->

<svg
   version="1.1"
   id="svg122"
   width="94.666664"
   height="53.333332"
   viewBox="0 0 94.666664 53.333332"
   xmlns="http://www.w3.org/2000/svg"
   xmlns:svg="http://www.w3.org/2000/svg">
  <defs
     id="defs126" />
  <g
     id="g128">
    <path
       style="fill:#000000;stroke-width:1.33333"
       d="M 6.9354347,47.657177 C 5.9472882,46.466535 6.3207958,43.859619 8.2249156,38.657178 9.6992265,34.629063 12.893594,25.333333 15.32351,18 L 19.741539,4.6666666 h 4.462563 c 4.402113,0 4.522643,0.1625541 8.89762,11.9999994 2.439281,6.6 5.940736,15.111257 7.781012,18.913906 3.991797,8.248438 3.735593,11.75276 -0.859254,11.75276 -2.713792,0 -3.690405,-1.139594 -5.71322,-6.666666 -2.93637,-8.023239 -5.256134,-10 -11.735174,-10 -5.966228,0 -7.922376,2.119111 -8.875017,9.614374 -1.033926,8.1348 -3.7117267,11.054667 -6.7646343,7.376137 z M 27.999999,25.821359 c 0,-0.46492 -0.694972,-3.16492 -1.544384,-5.999999 -1.803624,-6.019962 -4.461552,-6.712894 -5.707722,-1.488027 -0.48099,2.016666 -1.186467,4.716666 -1.567727,6 -0.569133,1.915717 0.158113,2.333333 4.063316,2.333333 2.616085,0 4.756517,-0.380388 4.756517,-0.845307 z M 82.472466,43.058784 C 80.923394,39.543119 77.657175,31.866666 75.214201,25.999999 72.771227,20.133333 70.007485,15.333333 69.072551,15.333333 c -0.967333,0 -4.216181,7.038692 -7.538974,16.333333 -4.664951,13.048976 -6.344599,16.333333 -8.353002,16.333333 -1.382651,0 -2.51391,-0.210467 -2.51391,-0.467703 0,-1.791158 4.043067,-11.911614 10.333177,-25.86563 5.65964,-12.5553769 7.947268,-16.3333328 9.890161,-16.3333328 1.92849,0 4.571564,4.2511912 11.152089,17.9373138 4.743515,9.865523 8.624572,19.144412 8.624572,20.619755 0,1.475342 -1.209983,3.330003 -2.688852,4.12147 -2.408297,1.288881 -2.982724,0.772077 -5.505346,-4.953088 z"
       id="path597" />
  </g>
</svg>
