<?xml version="1.0" encoding="UTF-8" standalone="no"?>
<!-- Created with Inkscape (http://www.inkscape.org/) -->

<svg
   version="1.1"
   id="svg12"
   width="769.33331"
   height="58.666668"
   viewBox="0 0 769.33331 58.666668"
   xmlns="http://www.w3.org/2000/svg"
   xmlns:svg="http://www.w3.org/2000/svg">
  <defs
     id="defs16" />
  <g
     id="g18">
    <path
       style="fill:#000000;stroke-width:1.33333"
       d="m 64.122669,50.333334 c -0.629563,-1.65 -3.20209,-7.5 -5.716725,-13 -2.514636,-5.5 -5.409283,-12.1 -6.432547,-14.666667 C 50.950132,20.1 49.368216,16.54302 48.458028,14.762267 46.360797,10.659103 47.198536,9.3333335 51.888513,9.3333335 c 3.472847,0 4.078769,0.8784645 8.752881,12.6898935 2.761959,6.979442 5.478225,12.972015 6.036148,13.31683 0.557921,0.344814 2.90866,-5.311016 5.223864,-12.568514 2.315202,-7.257497 5.084514,-13.5312399 6.154025,-13.9416499 3.030887,-1.1630604 6.243121,0.6149348 5.457286,3.0206479 -0.938326,2.872546 -6.568673,18.740986 -10.46091,29.482793 -4.721826,13.031307 -6.649596,14.974375 -8.929138,9 z M 10.143821,50.899376 C 9.612163,50.039134 8.9423965,19.49526 9.2669649,10.911437 9.3092156,9.7940208 10.665722,9.3095155 13,9.5781038 c 3.471093,0.3993932 3.687994,0.8308232 4.066538,8.0885632 0.219929,4.216667 0.927513,7.666667 1.572409,7.666667 0.644895,0 3.792598,-3.447107 6.994895,-7.660238 5.800842,-7.631932 9.425362,-9.8138901 12.009528,-7.229725 0.924601,0.924602 -0.828507,3.674265 -5.47496,8.587205 -3.759292,3.974898 -6.835077,7.692654 -6.835077,8.261679 0,0.569026 3.599999,4.883004 7.999999,9.586618 9.284495,9.925155 10.694173,15.121128 4.102394,15.121128 -3.344743,0 -4.775268,-1.320193 -10.085008,-9.307183 -3.403072,-5.118949 -6.749149,-9.65436 -7.435728,-10.078689 -0.722361,-0.446444 -1.248324,2.586377 -1.248324,7.198133 0,4.383302 -0.364193,8.918711 -0.809319,10.07869 -0.841001,2.191615 -6.523164,2.934471 -7.713526,1.008424 z m 80.14745,0.280786 c -2.354315,-2.354314 0.508508,-8.094225 14.122039,-28.314464 l 6.59863,-9.800969 -10.50597,0.467635 L 89.999997,14 89.578101,10.333334 89.156204,6.6666668 h 16.755226 c 14.73234,0 16.75523,0.2676151 16.75523,2.2166037 0,2.2427255 -3.68604,8.6095375 -14.21187,24.5478285 -3.18347,4.820438 -5.78813,9.192513 -5.78813,9.715719 0,0.523208 4.8,0.593732 10.66667,0.15672 L 124,42.50897 v 4.07885 c 0,4.067645 -0.0211,4.079061 -7.66667,4.156644 -4.21667,0.04279 -11.58559,0.37386 -16.375393,0.735717 -4.7898,0.361856 -9.1398,0.226848 -9.666666,-0.300019 z m 42.937969,-1.42076 c -1.38542,-32.289327 -1.28027,-37.823512 0.73333,-38.596202 4.93019,-1.8918942 5.82937,1.521901 5.59535,21.243147 -0.21994,18.535017 -0.28672,18.935812 -3.22459,19.353056 -2.14124,0.304104 -3.0298,-0.268407 -3.10409,-2.000001 z m 149.75259,0.15247 c -1.06616,-0.781806 -1.7008,-2.581806 -1.41031,-4 0.43715,-2.134119 1.50163,-2.516312 6.1762,-2.217502 7.16136,0.457774 8.34156,-1.983574 3.84923,-7.962461 -4.27689,-5.692154 -5.44771,-11.525443 -3.65187,-18.19465 2.01663,-7.489211 7.77884,-10.8705922 18.52459,-10.8705922 7.03272,0 8.72545,0.5097714 12.30095,3.7044752 7.51609,6.71563 7.49888,17.700973 -0.0424,27.085136 -2.23388,2.779712 -4.06156,5.357848 -4.06156,5.729192 0,0.371344 3.15,0.856528 7,1.078184 6.09826,0.351098 7.05488,0.789472 7.42606,3.403014 0.41166,2.898465 0.0619,3 -10.33333,3 -7.72557,0 -10.75573,-0.46995 -10.74637,-1.666667 0.007,-0.916667 1.5583,-4.966667 3.44697,-9 1.88868,-4.033334 3.76145,-10.431966 4.16173,-14.219184 0.64867,-6.137287 0.353,-7.260627 -2.7197,-10.333334 -4.46092,-4.460926 -9.26402,-4.436298 -12.80526,0.06567 -3.34378,4.250933 -3.61657,12.52384 -0.76344,23.153522 3.14198,11.7058 3.14486,11.700121 -6.2065,12.214905 -4.51359,0.248469 -9.07883,-0.187897 -10.14499,-0.969701 z m -132.80949,-0.29967 c -0.35842,-0.579957 -0.78544,-9.654844 -0.9489,-20.166417 -0.26206,-16.850777 -0.0269,-19.263212 1.98732,-20.3904428 3.56842,-1.9969884 6.35476,-0.19131 6.0821,3.9414998 -0.1332,2.018404 -0.17852,5.412817 -0.1008,7.543142 0.14058,3.85405 0.15532,3.860683 2.96315,1.333334 1.55201,-1.396992 4.58084,-5.089984 6.73072,-8.206651 2.75846,-3.9989533 4.84785,-5.6666668 7.09944,-5.6666668 5.72042,0 5.13254,2.7925608 -2.1376,10.1541588 -5.31299,5.379815 -6.80207,7.691339 -5.82584,9.04357 0.72128,0.999094 4.49226,5.556552 8.37998,10.127684 3.88771,4.571132 6.88279,9.292923 6.65575,10.492868 -0.61716,3.261644 -8.81093,3.756154 -9.94525,0.600215 -1.19259,-3.318008 -11.54321,-17.664933 -12.77908,-17.712965 -0.55,-0.02137 -1,4.461136 -1,9.961137 0,9.713304 -0.0933,10 -3.25464,10 -1.79005,0 -3.54791,-0.47451 -3.90635,-1.054466 z m 40.10348,0.13072 c -0.55297,-0.926345 -1.01581,-12.227104 -1.49121,-36.409588 -0.11414,-5.8039901 0.0133,-6.0000005 3.88205,-6.0000005 h 4 l 0.38973,9.5671695 0.38975,9.56717 9.84821,0.05141 c 9.8099,0.05121 9.85154,0.03629 10.7018,-3.834908 0.46947,-2.13748 0.44426,-6.615843 -0.056,-9.95192 l -0.90961,-6.0655912 h 4.1514 4.15139 V 27.921311 c 0,12.857185 -0.5315,21.583129 -1.34527,22.086065 -0.73989,0.45728 -2.59475,0.434848 -4.12189,-0.04985 -2.05284,-0.651548 -2.57954,-1.629773 -2.02054,-3.75273 0.41586,-1.579304 0.38522,-6.046022 -0.0681,-9.926039 l -0.82419,-7.054579 -9.47668,0.387912 -9.47664,0.387915 -0.66666,10 c -0.59851,8.977555 -0.96054,10.041877 -3.54086,10.409581 -1.5808,0.22527 -3.16329,-0.07473 -3.51665,-0.666666 z m 45.32985,-0.847312 c -0.40141,-1.046093 -0.62692,-10.525549 -0.5011,-21.065463 l 0.22876,-19.1634801 4,-0.2950058 c 3.38588,-0.2497138 4.92117,0.8311818 10,7.0403259 3.3,4.034433 7.64041,9.267186 9.64537,11.62834 2.00495,2.361154 3.65495,4.743007 3.66667,5.293007 0.012,0.55 0.95749,1 2.10174,1 1.80215,0 1.95787,-1.669877 1.16411,-12.483391 -0.94015,-12.8077415 -0.28656,-15.0110858 3.96845,-13.3782835 1.81066,0.6948115 2.12032,3.7996815 2.12032,21.2589705 0,14.033942 -0.48345,20.744114 -1.54168,21.398132 -0.90966,0.562208 -3.77929,-1.455266 -7,-4.92131 -5.74204,-6.179446 -17.13532,-19.406351 -20.22146,-23.475882 -2.01035,-2.650938 -2.24232,-0.872236 -2.46531,18.902819 -0.0841,7.463687 -0.53268,9.386209 -2.27044,9.732123 -1.19107,0.237088 -2.494,-0.424822 -2.89543,-1.470908 z M 335.5982,29.666667 c 0.33247,-11.55 0.84004,-21.7500002 1.12795,-22.6666668 0.28792,-0.9166667 2.32339,-1.6666667 4.52327,-1.6666667 3.29888,0 4.94174,1.2750809 9.37518,7.2764005 2.95647,4.00202 5.37539,7.744541 5.37539,8.316713 0,1.594996 11.19737,17.672439 12.33333,17.708487 0.55,0.01745 1,-7.468267 1,-16.634934 0,-13.9259257 0.3289,-16.6666665 2,-16.6666665 1.6781,0 2,2.8703704 2,17.8333335 0,20.946537 -0.77597,26.166667 -3.8897,26.166667 -1.37398,0 -7.01027,-7.145197 -14.75723,-18.707932 -9.3478,-13.952056 -12.81829,-18.200298 -13.65171,-16.711079 -0.61461,1.098271 -1.49154,9.81684 -1.94872,19.374599 -0.59096,12.354575 -1.30253,17.377746 -2.46173,17.377746 -1.24168,0 -1.48635,-5.007784 -1.02603,-21.000001 z m 132.96001,19.566567 c -5.11394,-1.484885 -8.28333,-4.90834 -10.62648,-11.478305 -2.66052,-7.459854 -2.33778,-16.983365 0.82463,-24.334606 3.19233,-7.4207885 6.55757,-9.4203229 15.85451,-9.4203229 5.63502,0 6.94786,0.5496025 10.01237,4.19156 4.52564,5.3784219 2.48912,8.1329359 -2.39901,3.2448039 -3.95494,-3.9549401 -6.159,-4.2280742 -11.56399,-1.433045 -2.77195,1.433429 -4.12619,3.347604 -4.76051,6.728839 -0.48758,2.599034 -0.65582,4.956213 -0.37386,5.238173 0.28197,0.281962 4.03468,0.814678 8.33937,1.183814 4.30469,0.369137 8.4406,1.285036 9.19089,2.035332 2.10279,2.10279 -1.59598,5.66736 -5.61638,5.412594 -1.89187,-0.11988 -5.46827,-0.154393 -7.94755,-0.07669 -4.43172,0.1389 -4.49436,0.224101 -3.71139,5.048945 0.96122,5.923317 2.9382,8.102813 8.32768,9.180706 3.20322,0.640643 4.97863,0.05233 8.31547,-2.755429 2.33348,-1.963488 4.24269,-2.8772 4.24269,-2.030468 0,3.328009 -3.09317,7.011814 -7.39782,8.810413 -5.05103,2.110453 -5.01063,2.108743 -10.71062,0.453689 z m 40.10844,0.516446 c -3.95881,-1.093983 -7.10611,-3.590274 -10.74489,-8.52238 -2.6322,-3.567734 -3.25511,-6.004359 -3.25511,-12.732873 0,-10.000853 1.5268,-14.449737 6.63392,-19.3303839 7.27175,-6.9492609 19.38765,-6.7120765 26.38373,0.5164953 11.24462,11.6182976 10.1651,27.9417336 -2.46642,37.2945146 -3.58256,2.652647 -11.92923,4.051872 -16.55123,2.774627 z m 11.40719,-4.455871 c 4.01084,-2.146539 6.59349,-8.51068 6.58537,-16.227595 -0.0151,-14.341764 -4.07649,-21.0662138 -12.72348,-21.0662138 -8.43456,0 -12.54592,9.5731178 -10.64511,24.7866588 1.44015,11.526589 8.61908,16.876458 16.78322,12.50715 z m 78.11621,4.001917 c -15.20364,-4.556117 -19.21113,-28.620688 -6.68761,-40.1583825 4.04378,-3.7254708 15.16421,-6.6010234 15.16421,-3.9212071 0,0.7977917 -1.38775,1.4505304 -3.08388,1.4505304 -4.88217,0 -10.44499,6.8285892 -11.22896,13.7840362 -0.78616,6.974783 1.75323,19.186446 4.68908,22.549298 1.25889,1.441983 3.93907,2.333333 7.01603,2.333333 2.75534,0 6.26577,-1.042074 7.86029,-2.333333 3.54649,-2.872015 5.7699,-12.114346 4.6881,-19.487628 -0.99637,-6.790979 -5.29326,-16.8457062 -7.19902,-16.8457062 -0.77458,0 -1.40831,-0.6154081 -1.40831,-1.3675735 0,-2.0411162 6.78412,1.8697767 10.83916,6.2485387 9.86233,10.649631 7.45236,28.652884 -4.79647,35.831176 -5.83285,3.41828 -9.4023,3.849902 -15.85262,1.916918 z M 410.02447,30.038077 c -1.04648,-20.9339788 -0.48739,-23.3714102 5.361,-23.3714102 1.68242,0 3.25896,0.5062775 3.50341,1.1250612 0.48727,1.2334594 11.21105,13.870622 18.18572,21.430489 l 4.40795,4.777784 L 441.0746,20 C 440.677,6.3549585 440.74272,5.9891975 443.66665,5.5739321 l 3,-0.4260678 V 27.240599 c 0,17.607222 -0.36376,22.092735 -1.79164,22.092735 -0.98541,0 -5.7631,-4.65 -10.61709,-10.333333 C 421.77452,24.383739 417.76261,20 416.86951,20 c -0.42862,0 -0.9496,6.442887 -1.15775,14.317527 -0.31644,11.971863 -0.73376,14.385554 -2.54728,14.732754 -1.88783,0.361427 -2.29467,-2.101893 -3.14001,-19.012204 z m 134.89899,17.48372 c -0.38233,-0.996345 -0.86818,-10.746345 -1.07969,-21.666667 l -0.38453,-19.8551299 4.27037,-0.4178113 4.27037,-0.4178113 V 12.5035 c 0,4.036516 0.55778,7.683842 1.23948,8.105166 0.68172,0.421324 4.01679,-2.843266 7.41127,-7.254644 6.19564,-8.0516895 10.59672,-10.1998459 12.22165,-5.9653446 0.52327,1.3636113 -1.51013,4.1156126 -6.04184,8.1770186 -3.75681,3.366923 -6.83056,6.83743 -6.83056,7.712239 0,0.874808 1.52807,3.026103 3.3957,4.780654 1.86764,1.75455 5.84084,6.359452 8.82934,10.233113 4.4997,5.832423 5.14846,7.386676 3.77439,9.042328 -2.93279,3.53379 -7.70777,2.435535 -10.14787,-2.334029 -1.84705,-3.610339 -3.94676,-6.635295 -10.8479,-15.628054 -1.47851,-1.926609 -3.00386,4.169816 -2.36646,9.458086 0.40859,3.389851 0.36818,7.139851 -0.0899,8.333333 -1.00775,2.626172 -6.65187,2.891526 -7.62391,0.358431 z m 88.69103,0.150333 c -1.97659,-2.381644 -2.02394,-39.5722343 -0.0534,-41.9465828 2.2694,-2.7344526 18.79865,-2.2841411 22.30956,0.6077863 4.05066,3.3365103 5.53077,9.6309855 3.4361,14.6127415 -2.1943,5.218711 -3.84594,6.188464 -11.97344,7.030172 l -6.66666,0.69042 -0.157,10.000001 c -0.13912,8.861569 -0.45599,10.045273 -2.78334,10.397676 -1.44449,0.218721 -3.29481,-0.407775 -4.11182,-1.392214 z m 15.78022,-24.787073 c 3.33375,-2.699501 3.97218,-9.631465 1.19523,-12.9774868 -1.94835,-2.3476071 -10.09693,-2.5283246 -10.86237,-0.2409033 -0.30675,0.9166671 -0.31304,4.8166671 -0.014,8.6666671 0.48556,6.250889 0.87089,7 3.60069,7 1.68132,0 4.41751,-1.101725 6.08043,-2.448277 z m 18.16083,25.559388 c -0.48889,-0.488888 -0.88889,-2.245537 -0.88889,-3.903663 0,-2.857124 0.38348,-2.975196 7.33333,-2.257906 5.99964,0.619217 7.33333,0.388898 7.33333,-1.266411 0,-1.112803 -0.99294,-2.846745 -2.20653,-3.853204 -3.09499,-2.566724 -5.79347,-9.569112 -5.79347,-15.033636 0,-11.275004 5.96428,-16.7030765 18.73998,-17.0551793 8.12718,-0.2239883 8.38534,-0.1212387 13.51645,5.3795763 4.99511,5.35503 5.18967,5.892138 4.31416,11.910285 -1.06864,7.345642 -3.18456,11.968062 -7.10075,15.512158 -4.18449,3.786919 -3.50041,4.610701 4.19683,5.053856 6.09827,0.351097 7.05488,0.789472 7.42606,3.403013 0.41166,2.898466 0.0619,3 -10.33333,3 -7.71918,0 -10.7591,-0.470938 -10.75834,-1.666666 5.7e-4,-0.916667 1.80057,-5.47054 4,-10.119718 6.97494,-14.743779 4.56646,-26.880283 -5.33439,-26.880283 -9.25692,0 -11.96033,9.669865 -7.24332,25.908668 1.05049,3.616435 1.90999,7.966435 1.90999,9.666667 0,2.931294 -0.47168,3.091332 -9.11111,3.091332 -5.01112,0 -9.51112,-0.4 -10,-0.888889 z m 56.44444,-21 c 0,-21.2287609 0.32241,-22.4576204 5.53741,-21.1057293 2.25333,0.5841334 14.16324,13.5351273 19.61348,21.3279513 4.95745,7.088238 5.87507,5.598502 5.33828,-8.666667 -0.47549,-12.6363915 -0.40527,-13.0119169 2.51083,-13.4260679 2.88166,-0.4092624 3.00562,-0.014831 3.14276,9.9999999 0.2597,18.966855 -0.34507,30.408338 -1.67875,31.759402 -0.87339,0.884759 -2.47188,-0.0124 -4.75135,-2.666666 -1.88933,-2.2 -7.5476,-8.445934 -12.57392,-13.879854 -5.0263,-5.433919 -9.13874,-10.41933 -9.13874,-11.07869 0,-0.65936 -0.6,-0.828016 -1.33334,-0.37479 -0.75113,0.464229 -1.33333,6.902735 -1.33333,14.745356 0,13.032422 -0.17027,13.921311 -2.66667,13.921311 -2.55134,0 -2.66666,-0.888889 -2.66666,-20.555556 z"
       id="path2280" />
  </g>
</svg>
