<?xml version="1.0" encoding="UTF-8" standalone="no"?>
<!-- Created with Inkscape (http://www.inkscape.org/) -->

<svg
   version="1.1"
   id="svg112"
   width="290.66666"
   height="54.666668"
   viewBox="0 0 290.66666 54.666668"
   xmlns="http://www.w3.org/2000/svg"
   xmlns:svg="http://www.w3.org/2000/svg">
  <defs
     id="defs116" />
  <g
     id="g118">
    <path
       style="fill:#000000;stroke-width:1.33333"
       d="M 87.555554,49.777779 C 87.066665,49.288891 86.666665,39.12632 86.666665,27.19429 V 5.4996903 L 101.66666,5.0753781 c 15.46676,-0.4375155 19.66667,0.3232939 19.66667,3.5625952 0,3.9721367 -5.61689,6.0286937 -16.46562,6.0286937 H 94.328769 l 0.871818,15.796606 c 0.4795,8.688132 0.491333,16.788132 0.02629,18 -0.833309,2.17157 -5.939333,3.046503 -7.671329,1.314506 z m 42.666666,0 c -0.48889,-0.488888 -0.88889,-9.415422 -0.88889,-19.836741 0,-15.447334 0.37993,-19.263165 2.05651,-20.6546026 1.22957,-1.0204555 2.53854,-1.2201387 3.25528,-0.4965931 1.27581,1.2879467 2.81792,37.3207257 1.71969,40.1826337 -0.68691,1.790069 -4.63962,2.308276 -6.14259,0.805303 z m 15.41142,-20.777778 c 0.35572,-21.0372047 0.44982,-21.6785616 3.23922,-22.0760755 2.24096,-0.3193559 5.24783,2.5232627 13.67027,12.9235385 5.93857,7.333122 11.48237,13.756275 12.31955,14.273677 1.12045,0.692479 1.33617,-2.80591 0.81746,-13.256872 L 174.97549,6.6666668 h 3.22077 3.22076 l -0.15297,21.3233302 c -0.0883,12.306572 -0.70533,21.664698 -1.4592,22.130615 -1.85945,1.149201 -5.34903,-2.301922 -17.64841,-17.453945 l -10.82311,-13.333333 -0.37565,15.666667 c -0.35088,14.633878 -0.55083,15.666667 -3.03303,15.666667 -2.56029,0 -2.64399,-0.791577 -2.29101,-21.666667 z m 45.1492,19.217072 c -2.19948,-4.109759 -2.03279,-4.217072 6.55049,-4.217072 4.4,0 8,-0.517497 8,-1.149993 0,-0.632498 -1.78467,-3.395711 -3.96593,-6.140476 -2.18127,-2.744766 -4.3589,-7.085145 -4.83919,-9.645289 -1.07996,-5.756704 1.2084,-13.809256 4.86459,-17.11806 3.25294,-2.9438771 16.3894,-4.7936331 21.27386,-2.9955942 11.95436,4.4005602 14.257,19.5918242 4.59132,30.2905672 -2.52523,2.795125 -4.59132,5.459326 -4.59132,5.920446 0,0.461119 3.26459,0.838399 7.25464,0.838399 7.59371,0 10.0268,1.516065 7.4384,4.634887 -1.07229,1.292033 -4.22356,1.777944 -10.43001,1.60826 -10.76985,-0.294447 -11.32843,-1.413653 -6.15908,-12.340755 1.97936,-4.184028 3.8886,-10.178096 4.24276,-13.320154 0.54558,-4.840479 0.11946,-6.237309 -2.79079,-9.147535 -5.03538,-5.035388 -12.11604,-4.797501 -14.85501,0.499083 -2.72876,5.276851 -2.56173,11.529782 0.61413,22.990275 1.4566,5.256335 2.45478,9.750577 2.21815,9.987203 -0.23663,0.236627 -4.37612,0.786632 -9.19887,1.222234 -7.89266,0.712884 -8.91344,0.521436 -10.21814,-1.916426 z m 57.93719,0.893806 c -1.09986,-3.180501 -1.76224,-29.615904 -0.89645,-35.777545 1.18799,-8.4546107 4.94004,-8.8206935 10.97395,-1.070714 7.72065,9.916417 17.74869,21.070714 18.9432,21.070714 0.63112,0 0.96952,-5.55 0.752,-12.333333 -0.38147,-11.8954541 -0.28947,-12.3486252 2.59113,-12.7640217 l 2.98664,-0.4306876 -0.36859,20.3211273 c -0.27322,15.063366 -0.81021,20.467937 -2.07546,20.888537 -1.87992,0.624931 -8.60908,-6.185347 -19.8675,-20.10697 -4.04398,-5.000608 -7.65174,-8.792983 -8.01722,-8.4275 -0.36548,0.365484 -0.7569,7.105816 -0.86979,14.978518 -0.14497,10.108906 -0.69469,14.477841 -1.87124,14.871709 -0.91628,0.30674 -1.94259,-0.242185 -2.28067,-1.219834 z M 8.0091738,46.683809 c -0.8615828,-1.609881 -1.2723788,-9.850036 -1.0469117,-21 L 7.3333332,7.3333335 10.666666,6.9453444 c 3.273075,-0.380975 3.333428,-0.220192 3.338552,8.8941076 0.0029,5.105154 0.357038,9.633915 0.787038,10.063915 0.43,0.43 2.617029,0.414776 4.860066,-0.03383 C 28.27373,24.145254 30.476651,9.3333336 22.11169,9.3333336 20.303485,9.3333336 18.453225,8.7333335 18,8.0000002 17.498282,7.1882055 19.472826,6.6666668 23.047993,6.6666668 c 7.451745,0 10.679468,3.2273825 10.83796,10.8368192 0.137132,6.583905 -3.890842,10.386217 -12.033319,11.359169 -8.575925,1.024744 -8.519301,0.950998 -8.519301,11.095499 0,7.344523 -0.423038,9.375181 -1.953088,9.375181 -1.074199,0 -2.5911807,-1.192287 -3.3710712,-2.649526 z M 41.222222,31.75523 C 41.16111,21.989854 40.959074,12.618682 40.773252,10.930404 40.394743,7.4914611 43.927206,4.8774451 47.236743,6.1474333 48.86272,6.7713795 49.333332,9.014961 49.333332,16.142652 v 9.190682 h 10 c 11.234712,0 10.356218,1.053236 10.565146,-12.666667 0.09435,-6.1951503 0.337279,-6.6666669 3.434854,-6.6666669 h 3.333333 V 27.333334 48.666668 h -3.28554 c -3.130555,0 -3.309497,-0.440272 -3.793403,-9.333334 -0.279324,-5.133333 -0.60083,-9.425107 -0.71446,-9.537273 -0.113628,-0.112167 -4.406597,-0.412167 -9.53993,-0.666667 l -9.333333,-0.462727 -0.666667,10.000001 c -0.648577,9.728657 -0.766158,10.011448 -4.333333,10.421896 l -3.666667,0.421897 z"
       id="path736" />
  </g>
</svg>
