<?xml version="1.0" encoding="UTF-8" standalone="no"?>
<!-- Created with Inkscape (http://www.inkscape.org/) -->

<svg
   version="1.1"
   id="svg102"
   width="373.33334"
   height="57.333332"
   viewBox="0 0 373.33334 57.333332"
   xmlns="http://www.w3.org/2000/svg"
   xmlns:svg="http://www.w3.org/2000/svg">
  <defs
     id="defs106" />
  <g
     id="g108">
    <path
       style="fill:#000000;stroke-width:1.33333"
       d="m 254.758,48.939848 c -1.62974,-4.310334 -0.70057,-4.939849 7.29132,-4.939849 h 7.22528 l -3.95437,-6.235411 c -4.83525,-7.624393 -6.0614,-13.478758 -4.08028,-19.481616 2.27076,-6.88047 6.65107,-10.2377907 14.58295,-11.1772046 12.65165,-1.4984002 21.51044,5.4226136 21.51044,16.8052296 0,5.815826 -3.03487,12.469618 -7.17176,15.723695 -5.34447,4.203962 -4.37512,5.69864 3.69577,5.69864 5.48715,0 7.39312,0.527534 8.04516,2.226734 1.0511,2.739086 -1.65012,4.704075 -5.23584,3.80881 -1.46666,-0.366189 -5.51666,-0.673991 -9,-0.684004 -5.77194,-0.01659 -6.33333,-0.298785 -6.33333,-3.183602 0,-1.740968 1.60833,-6.043026 3.57408,-9.560128 4.46327,-7.985644 5.00193,-17.616562 1.21927,-21.799233 -3.70778,-4.099862 -10.51983,-3.757767 -14.02991,0.704569 -3.4136,4.339688 -3.48143,10.240719 -0.25355,22.05797 1.33775,4.897447 1.96999,9.652426 1.40499,10.566619 -0.59263,0.958878 -4.48655,1.82009 -9.20296,2.0354 -7.37762,0.336797 -8.2842,0.08625 -9.28726,-2.566619 z m 82.95887,-3.209582 c -2.91754,-3.518314 -6.44416,-8.196934 -7.83694,-10.396933 -2.45527,-3.878284 -11.3177,-13.059195 -11.92223,-12.35067 -0.16456,0.192868 -0.94527,5.914134 -1.73492,12.713923 -1.51891,13.079701 -2.26897,15.510926 -4.38236,14.204784 -1.19187,-0.736619 -1.54877,-38.690596 -0.38285,-40.7140351 1.21792,-2.1136819 9.69556,2.4834121 13.60245,7.3760771 2.38768,2.990124 6.71556,8.433125 9.61752,12.095558 2.90196,3.662435 5.83612,6.845579 6.52033,7.073653 0.72548,0.241825 1.15195,-5.312834 1.0231,-13.325637 -0.20786,-12.9250837 -0.0628,-13.7403195 2.4457,-13.7403195 2.55547,0 2.66667,0.8888889 2.66667,21.3150725 0,24.943176 -0.84472,26.32654 -9.61647,15.748527 z m 19.17203,5.380843 c -1.11023,-1.110226 -0.87845,-33.018921 0.27913,-38.428161 0.92414,-4.3183525 5.06599,-6.1875386 6.97435,-3.1474724 1.06265,1.6928114 0.32461,37.2069704 -0.84784,40.7978564 -0.57461,1.759877 -4.89853,2.284891 -6.40564,0.777777 z M 124.91174,48.737938 c -10.14194,-3.623092 -14.24507,-9.999374 -14.24507,-22.136887 0,-15.727294 6.66238,-22.6010511 21.90604,-22.6010511 8.70929,0 9.27565,0.2012945 14.07791,5.0035583 3.54386,3.5438588 5.28458,6.6669378 5.96686,10.7052898 2.13184,12.618281 -5.23492,27.109668 -14.6823,28.882008 -2.63516,0.49436 -5.49861,1.13868 -6.3632,1.431822 -0.86459,0.293141 -3.8617,-0.284992 -6.66024,-1.28474 z m 14.43881,-7.422571 C 142.96935,37.53815 143.2,36.626876 143.2,26.106633 c 0,-12.110487 -0.88758,-14.175694 -7.57982,-17.6363833 -5.14811,-2.6621861 -8.99127,-1.5331149 -12.99241,3.8170023 -2.75358,3.681946 -3.27673,5.881642 -3.28481,13.811929 -0.008,8.284218 0.44501,10.029129 3.7249,14.333333 4.91036,6.44388 10.6564,6.755433 16.28269,0.882853 z m 19.88435,7.575547 c -0.77958,-2.031518 7.41357,-23.681223 13.52922,-35.74989 2.87727,-5.6780098 3.86179,-6.5789162 6.80103,-6.2233923 3.03671,0.3673136 4.41929,2.6322202 11.87777,19.4578793 4.64256,10.473197 8.12074,19.876807 7.7293,20.896908 -0.84311,2.197093 -4.2444,3.713025 -5.95662,2.654819 -1.38969,-0.858879 -6.14328,-10.950318 -10.64288,-22.593905 -4.03405,-10.438905 -5.98537,-12.742096 -7.18614,-8.482009 -0.48814,1.731772 -1.41823,4.348675 -2.06688,5.815342 -0.64866,1.466667 -2.74252,6.866667 -4.65303,12 -1.91051,5.133333 -3.93495,10.197621 -4.49875,11.253974 -1.48458,2.781541 -4.04474,3.285099 -4.93302,0.970274 z m 46.56138,-0.274328 c -0.47426,-1.23594 0.068,-3.830284 1.20508,-5.76521 1.13708,-1.934924 4.55847,-9.518043 7.60311,-16.851377 6.74769,-16.2525531 8.68188,-19.3333325 12.13792,-19.3333325 2.03689,0 3.79112,2.4035534 7.30259,10.0056355 2.54193,5.5031 4.62169,10.276159 4.62169,10.6068 0,0.33064 1.90645,4.592283 4.23655,9.470316 3.2129,6.726154 3.90324,9.398482 2.85709,11.059866 -2.96664,4.711307 -5.7034,3.318309 -9.246,-4.706172 -1.88659,-4.273378 -4.58821,-10.317847 -6.0036,-13.432153 -1.4154,-3.114306 -3.20152,-7.314306 -3.96917,-9.333333 -1.30914,-3.443238 -1.48479,-3.511814 -2.83147,-1.10547 -0.78967,1.41102 -4.01876,8.911019 -7.17579,16.666666 -5.58842,13.728758 -8.86217,17.606078 -10.738,12.717764 z M 89.818198,47.74049 C 89.214792,46.78322 88.919328,38.049999 89.161612,28.333333 L 89.602127,10.666666 H 78.320119 67.038111 l -0.840799,7 c -0.462439,3.85 -0.846013,12.291731 -0.852388,18.759401 -0.0112,11.429449 -0.09576,11.747447 -3.01159,11.333333 -2.929573,-0.416065 -3.005013,-0.848625 -3.21354,-18.426067 l -0.213541,-18 -3.533241,-0.429627 C 52.603848,10.566987 51.92918,9.8461404 52.253218,7.5703725 c 0.4068,-2.857009 0.83849,-2.909525 26.843254,-3.2655478 L 105.52628,3.9429828 105.09647,6.9714913 C 104.78736,9.1495854 103.63706,10.11847 101,10.421896 c -3.224094,0.370973 -3.686385,1.014712 -3.830046,5.333333 -0.784983,23.597394 -1.914906,32.899313 -4.045636,33.305078 -1.21496,0.231371 -2.702714,-0.362547 -3.30612,-1.319817 z M 7.6016485,47.157203 C 5.8388933,45.394448 6.680644,41.977596 12.5293,27.154777 15.750923,18.989905 18.797564,10.43934 19.299615,8.1535219 20.215659,3.982798 24.551728,1.5321573 28.330353,3.0495683 c 2.405221,0.9658832 17.53894,40.2972357 16.523526,42.9433587 -0.510853,1.331261 -1.989498,2.026243 -3.760017,1.767255 -2.169009,-0.31728 -3.791009,-2.538912 -6.318789,-8.654764 -3.636124,-8.79744 -5.596995,-9.984313 -13.997071,-8.472125 -3.467776,0.624272 -4.117435,1.563989 -6.002319,8.682226 -1.976649,7.464789 -4.639863,10.375855 -7.1740345,7.841684 z M 29.333334,24.693647 c 0,-1.81282 -4.426567,-11.360314 -5.267056,-11.360314 -0.8499,0 -4.066278,8.823229 -4.066278,11.154693 0,0.464919 2.1,0.845307 4.666667,0.845307 2.566667,0 4.666667,-0.287859 4.666667,-0.639686 z"
       id="path428" />
  </g>
</svg>
