<?xml version="1.0" encoding="UTF-8" standalone="no"?>
<!-- Created with Inkscape (http://www.inkscape.org/) -->

<svg
   version="1.1"
   id="svg82"
   width="372"
   height="53.333332"
   viewBox="0 0 372 53.333332"
   xmlns="http://www.w3.org/2000/svg"
   xmlns:svg="http://www.w3.org/2000/svg">
  <defs
     id="defs86" />
  <g
     id="g88">
    <path
       style="fill:#000000;stroke-width:1.33333"
       d="m 278.66667,47.707999 c 0,-1.729275 2.38286,-9.421005 5.29525,-17.092734 2.91239,-7.67173 5.68167,-15.748599 6.15396,-17.948599 1.19256,-5.5551316 2.94479,-7.3333328 7.22621,-7.3333328 3.43043,0 4.02083,0.888991 8.63358,12.9999998 2.72322,7.15 6.35353,16.669226 8.06733,21.153835 2.3238,6.080859 2.73139,8.538448 1.60316,9.666667 -2.87992,2.879928 -5.11563,1.483778 -8.16559,-5.099223 -4.46557,-9.638486 -5.70092,-10.721279 -12.23181,-10.721279 -6.58396,0 -7.0588,0.511726 -9.12137,9.830078 -1.21482,5.488293 -2.09974,6.920616 -4.48699,7.262656 -2.35583,0.337536 -2.97373,-0.227243 -2.97373,-2.718068 z m 20.99338,-20.385978 c 0.53698,-2.172706 -2.43369,-9.988688 -3.79645,-9.988688 -1.51249,0 -3.8636,5.777482 -3.8636,9.494197 0,2.107816 0.75452,2.567772 3.66667,2.235223 2.01666,-0.230291 3.81369,-1.01362 3.99338,-1.740732 z m -145.9064,20.542143 c -6.56164,-1.898585 -11.98397,-8.19326 -13.61697,-15.807655 -0.78207,-3.646679 -1.16239,-7.401216 -0.84515,-8.343418 0.31724,-0.9422 1.20786,-4.182474 1.97912,-7.200607 2.67903,-10.4835263 16.9619,-16.28865373 27.37639,-11.1268527 6.42543,3.1846809 9.44031,7.0767687 11.52791,14.8820737 2.9724,11.113426 -1.69446,22.131053 -11.2025,26.4472 -6.17349,2.802439 -8.81572,3.001968 -15.2188,1.149259 z m 13.04144,-4.239902 c 1.17064,-0.893346 3.19319,-3.684743 4.49454,-6.203106 2.86289,-5.540222 2.17526,-16.219874 -1.53034,-23.767976 -4.69036,-9.5539917 -15.54881,-8.6025904 -19.87066,1.741036 -3.67163,8.787438 -1.58534,24.132532 3.7932,27.899806 3.4683,2.429296 10.14241,2.597374 13.11326,0.33024 z M 153.53548,29.520167 c -0.98883,-0.645172 -1.583,-2.301144 -1.32037,-3.679937 0.39001,-2.047715 1.87938,-2.580141 8.13118,-2.906769 4.63882,-0.242358 7.71936,0.151556 7.82038,1 0.70932,5.95773 0.6102,6.060809 -6.16667,6.413142 -3.66667,0.190634 -7.47571,-0.181262 -8.46452,-0.826436 z m 78.05512,18.959316 c -2.09556,-2.095556 -0.5664,-5.626611 5.89473,-13.611817 l 6.81866,-8.427073 -3.94695,-4.220298 C 233.69783,15.099892 229.06096,8.1860729 229.96439,6.7242882 c 0.52974,-0.8571385 7.93064,-1.390955 19.28437,-1.390955 14.5046,0 18.76756,0.413102 20.03611,1.9415934 C 272.33421,10.94918 269.36227,12 255.92131,12 c -7.29006,0 -13.25464,0.466105 -13.25464,1.03579 0,0.569684 2.38026,3.419684 5.28948,6.333334 2.9092,2.913647 5.3092,5.976687 5.33333,6.806753 0.0241,0.830065 -2.63981,4.430065 -5.91985,7.999999 l -5.96372,6.49079 14.71465,0.377789 14.71465,0.377791 -0.41761,3.622209 -0.4176,3.62221 -18.74273,0.368374 c -10.30851,0.202604 -19.15851,-0.0474 -19.66667,-0.555556 z M 350.51192,41.043967 C 346.53857,36.436451 341.00776,29.816666 338.22123,26.333333 335.43469,22.849999 332.59497,20 331.91073,20 c -0.69142,0 -1.24406,6.262519 -1.24406,14.097764 0,12.708127 -0.23,14.053631 -2.33334,13.650015 -2.07253,-0.397706 -2.37484,-2.595373 -2.70468,-19.662246 -0.38458,-19.8990543 -0.028,-21.3498486 5.25912,-21.3984494 1.24574,-0.011453 7.05595,6.1237854 13.23084,13.9709654 6.05536,7.695261 11.2675,13.733621 11.58254,13.418579 0.31504,-0.315041 0.66116,-6.461163 0.76916,-13.658049 0.18204,-12.1309045 0.39085,-13.0852458 2.86302,-13.0852458 2.4548,0 2.69468,1.0063895 3.01918,12.6666668 0.41076,14.7603 -1.05699,28.237521 -3.15108,28.933965 -0.80588,0.268016 -4.71616,-3.282482 -8.68951,-7.889998 z M 6.2222223,47.111109 C 4.6262573,45.515146 5.2831807,41.325404 7.9485609,36.100828 9.3869361,33.281379 11.824825,27.155282 13.366091,22.487279 20.1093,2.0642542 19.875792,2.4786131 24.389687,2.9258585 28.360343,3.3192787 28.769229,4.0001758 36.244291,22.666666 44.509133,43.305378 45.130319,45.947618 42,47.148833 c -4.201467,1.612255 -5.1495,0.458852 -9.999616,-12.165794 -1.818117,-4.732481 -4.902035,-6.106908 -12.14922,-5.414612 -4.340283,0.414612 -4.575979,0.725976 -5.997445,7.922905 -0.813789,4.120234 -1.899199,8.170234 -2.412024,9 -1.030939,1.668095 -3.8378538,2.001397 -5.2194727,0.619777 z M 27.901115,23.51123 C 27.846728,22.680053 26.730495,19.6 25.420596,16.666666 l -2.381635,-5.333333 -2.186148,5.162832 c -2.604818,6.151572 -2.746532,8.42815 -0.569802,9.153726 2.679596,0.893199 7.723829,-0.522889 7.618104,-2.138661 z M 54.186192,46.967931 C 53.787524,46.322874 53.326301,36.942271 53.161252,26.122149 52.919791,10.292783 53.232909,6.2139313 54.763913,5.2450156 59.130881,2.4813239 59.829555,3.0235922 72.486204,19 c 5.664293,7.149999 10.602027,12.999999 10.972743,12.999999 0.370716,0 0.56698,-5.742869 0.436141,-12.761933 -0.231884,-12.4398352 0.889976,-16.5583393 3.988736,-14.6432004 2.325329,1.437133 1.963047,41.5894334 -0.383375,42.4898394 -1.882998,0.722575 -7.251336,-4.411602 -15.77269,-15.084706 -2.634704,-3.3 -6.630836,-8.035162 -8.880294,-10.522584 l -4.089922,-4.522583 -0.378771,15.08061 c -0.249701,9.941728 -0.905069,15.255199 -1.923251,15.592965 -0.849464,0.281796 -1.870661,-0.01541 -2.269329,-0.660476 z M 100.578,46.267079 C 98.05204,44.85795 97.771612,9.4283882 100.26667,6.9333332 101.9146,5.2853969 126.79625,4.574028 128.35258,6.1303541 c 0.43836,0.4383615 0.47416,1.6383614 0.0796,2.6666666 -0.52448,1.3667513 -3.32496,1.8696453 -10.41154,1.8696453 -10.75834,0 -13.56394,1.658909 -12.17369,7.198114 0.63099,2.514079 1.98483,3.430998 6.08993,4.124551 2.90322,0.490494 7.49435,0.700907 10.20252,0.467584 3.58385,-0.308766 5.32358,0.216698 6.39229,1.93072 2.17362,3.486086 -1.02638,4.876487 -9.75957,4.240531 -4.04028,-0.294215 -8.74779,-0.183103 -10.46112,0.246916 -2.72647,0.684301 -3.06498,1.468697 -2.71306,6.286718 L 106,40.666666 l 10.66667,0.25889 c 5.86666,0.14239 11.71666,0.29239 13,0.333334 2.67262,0.08527 3.31201,5.356142 0.66666,5.495706 -11.73245,0.618985 -28.25718,0.34824 -29.75533,-0.487517 z m 90.09816,-0.915997 c -0.73855,-1.380008 -1.34283,-10.569647 -1.34283,-20.421417 V 7.0173524 L 199,6.400556 C 213.05948,5.5034693 218.66667,6.3812272 218.66667,9.4792078 218.66667,11.708461 217.59984,12 209.44239,12 197.36149,12 196,12.616891 196,18.090741 v 4.472104 l 11.65167,0.385244 c 10.1747,0.33641 11.71244,0.703014 12.13118,2.892141 0.75278,3.935392 -2.38924,4.971005 -12.2772,4.046581 -10.46533,-0.978402 -11.4527,-0.293957 -11.48524,7.961532 L 196,43.030019 208.70168,42.36564 c 12.76423,-0.667652 15.53621,0.134576 12.61739,3.651543 -1.1832,1.425677 -5.03962,1.893205 -15.43862,1.871688 -12.18957,-0.02523 -14.02341,-0.331316 -15.20429,-2.537789 z"
       id="path706" />
  </g>
</svg>
