<?xml version="1.0" encoding="UTF-8" standalone="no"?>
<!-- Created with Inkscape (http://www.inkscape.org/) -->

<svg
   version="1.1"
   id="svg52"
   width="390.66666"
   height="58.666668"
   viewBox="0 0 390.66666 58.666668"
   xmlns="http://www.w3.org/2000/svg"
   xmlns:svg="http://www.w3.org/2000/svg">
  <defs
     id="defs56" />
  <g
     id="g58">
    <path
       style="fill:#000000;stroke-width:1.33333"
       d="m 305.14265,51.666668 c -0.2618,-0.916667 -0.47599,-10.598608 -0.47599,-21.515425 0,-16.814792 0.32896,-20.057166 2.15211,-21.2121971 4.67642,-2.9626988 6.51456,-0.2546825 6.51456,9.5975621 v 9.28697 l 9.99876,-0.245123 9.99874,-0.245121 0.001,-9.666667 10e-4,-9.6666668 h 4 4 V 29.91015 c 0,21.089115 -0.10494,21.943463 -2.80088,22.799117 -4.14571,1.315794 -5.02138,-0.400323 -5.46455,-10.709266 l -0.40124,-9.333334 -8.98669,-0.666666 c -10.43534,-0.774134 -10.34664,-0.871 -10.34664,11.299732 0,6.44336 -0.49415,8.604586 -2.10906,9.224283 -3.31461,1.271939 -5.56409,0.954823 -6.08162,-0.857348 z m 59.52401,-1.709982 c -8.8,-1.747388 -16.18985,-3.202484 -16.42189,-3.233544 -0.23204,-0.03107 -0.23204,-1.704582 0,-3.718936 0.3525,-3.060086 1.62244,-4.139798 7.72122,-6.564681 4.01464,-1.59622 7.48627,-3.46298 7.71472,-4.148356 0.22846,-0.685375 -3.20624,-2.262311 -7.63266,-3.504304 -7.51139,-2.107587 -8.04806,-2.5203 -8.04806,-6.189183 0,-2.162058 0.19118,-3.931015 0.42482,-3.931015 0.23365,0 8.36838,-2.058576 18.07717,-4.574612 15.03865,-3.897272 17.76585,-4.2788425 18.41889,-2.577044 1.11498,2.905571 -0.3231,3.689081 -13.25421,7.2213 -6.41667,1.752756 -11.66667,3.613691 -11.66667,4.13541 0,0.521718 1.35,1.33767 3,1.813225 8.70466,2.508812 14.33334,5.217479 14.33334,6.897568 0,1.695589 -2.3925,3.0237 -13.33334,7.401551 -4.0361,1.615 -3.26978,1.950407 11.17088,4.889311 10.03371,2.042018 10.82912,2.445896 10.82912,5.498594 0,4.389615 -1.90816,4.441914 -21.33333,0.584716 z M 69.599999,50.400001 c -0.923942,-0.923941 -1.6,-5.349984 -1.6,-10.474931 0,-7.973628 -0.447705,-9.469885 -4.408453,-14.733333 C 56.75315,16.104176 53.064879,9.5130567 53.984971,8.0243166 56.845739,3.3954958 65.522139,9.3454706 69.989983,19 c 1.272622,2.75 3.038534,5.000001 3.924248,5.000001 0.885714,0 3.678441,-3.750001 6.20606,-8.333334 3.321326,-6.0225646 5.463354,-8.4570668 7.724802,-8.7795534 6.599756,-0.9411369 6.109283,2.049543 -1.975953,12.0484604 -7.793041,9.637563 -7.876085,9.831501 -8.640117,20.177671 -0.508612,6.887399 -1.417234,10.855311 -2.666902,11.646251 -2.4968,1.580273 -3.063404,1.539224 -4.962122,-0.359495 z m 43.066661,0.649015 C 105.54682,49.335854 98.648568,38.513912 98.695948,29.131829 98.763898,15.67626 107.50229,5.9496568 119.41848,6.0658183 c 21.23677,0.2070204 28.3346,30.5597607 10.0307,42.8947547 -4.32785,2.916539 -10.26858,3.655814 -16.78252,2.088443 z m 17.11175,-10.480772 c 4.2372,-8.885486 1.55019,-26.693005 -4.51776,-29.940475 -7.06513,-3.7811403 -14.38778,6.81e-4 -17.34371,8.957245 -1.89871,5.753136 0.61205,21.952408 3.85076,24.844872 5.55165,4.958135 14.7448,2.98705 18.01071,-3.861642 z M 111.27178,30.47275 c -1.30532,-4.112725 0.91647,-5.33552 8.87117,-4.882365 6.29355,0.358525 7.24352,0.783797 7.61645,3.409616 0.33134,2.333032 -0.26152,3.040382 -2.66667,3.181637 -1.701,0.09991 -5.31083,0.373036 -8.02183,0.606967 -4.01082,0.34609 -5.09118,-0.08535 -5.79912,-2.315855 z m 35.8694,19.507326 c -0.87852,-2.289391 -0.51964,-3.715042 3.51923,-13.980075 1.58695,-4.033334 4.54212,-12.133334 6.56705,-18.000001 3.58811,-10.3955158 3.79206,-10.6666665 8.02304,-10.6666665 4.34079,0 4.34242,0.00257 12.45079,19.8058835 8.36607,20.432657 8.82197,24.194117 2.93244,24.194117 -1.75955,0 -3.29769,-2.426261 -5.70564,-9 l -3.29668,-9 h -6.97576 -6.97576 l -1.43137,5.666667 c -0.78727,3.116667 -1.77667,7.316667 -2.1987,9.333333 -0.85121,4.067646 -5.54988,5.187618 -6.90864,1.646742 z M 169.33333,28.377911 C 169.33333,26.395261 164.93348,16 164.0943,16 c -1.16638,0 -4.06085,10.975445 -3.24332,12.298243 0.80446,1.301634 8.48235,1.373746 8.48235,0.07967 z m 23.75,6.288756 c -0.13751,-9.533333 -0.28751,-18.983333 -0.33333,-21 C 192.68081,10.622223 193.23232,10 196,10 h 3.33333 l 0.36719,21.000001 0.3672,21 h -3.3672 -3.36719 z m 45.32671,16.632269 c -0.38558,-0.385586 -6.2489,-1.59836 -13.02959,-2.695055 -14.63519,-2.367067 -17.69424,-3.733264 -17.12803,-7.649537 0.41238,-2.852316 3.09571,-4.657121 11.48842,-7.727093 5.29717,-1.937649 4.57993,-2.695474 -5.40751,-5.713473 -6.57593,-1.987113 -7.66667,-2.774576 -7.66667,-5.534999 0,-1.770059 1.093,-3.803243 2.42888,-4.518187 1.96858,-1.053545 32.52151,-9.4605918 34.38175,-9.4605918 0.28748,0 0.52271,1.4439577 0.52271,3.2087948 0,2.950036 -1.02146,3.455043 -12.66667,6.262436 -6.96667,1.679503 -12.66667,3.417445 -12.66667,3.862095 0,0.444649 4.23515,2.172475 9.41144,3.839612 11.68111,3.762152 11.72238,5.850365 0.20884,10.568528 -9.32986,3.823316 -8.90498,4.794398 2.66296,6.086183 10.27514,1.147419 14.38343,3.161955 14.38343,7.053039 0,2.378962 -0.7384,3.119313 -3.11111,3.119313 -1.71112,0 -3.4266,-0.315478 -3.81218,-0.701065 z m 30.62812,-17.498118 -0.3715,-18.362447 -9.30638,-0.05252 c -7.97915,-0.04503 -9.3756,-0.405488 -9.79171,-2.527478 -0.26693,-1.361228 0.0209,-2.9681656 0.63972,-3.5709723 0.98737,-0.9618984 32.14192,-2.004474 44.21777,-1.4797316 3.78344,0.1644048 4.36421,0.6279084 4,3.1923299 -0.39079,2.75156 -1.22351,3.03238 -10.05548,3.390995 l -9.62941,0.390993 -0.37059,18.275674 L 278,51.333334 273.70482,51.7483 269.40965,52.163265 Z M 9.6409873,48.414246 C 7.7890208,44.7072 7.4967064,11.431769 9.2867254,8.0870875 10.729701,5.3908631 11.634619,5.2744625 28.400705,5.6284357 l 17.599294,0.3715644 1.220495,11.8566589 c 1.105529,10.739827 0.992832,12.023128 -1.196429,13.623956 -3.514464,2.569839 -4.673915,1.153434 -4.823639,-5.892637 C 40.929043,12.816595 40.784321,12.678999 27.513512,12.575074 l -11.69602,-0.09159 0.424586,18.75826 c 0.416846,18.416212 0.37153,18.765813 -2.485197,19.172505 -1.77745,0.253044 -3.379139,-0.525251 -4.1158937,-2.000001 z"
       id="path1588" />
  </g>
</svg>
