<?xml version="1.0" encoding="UTF-8" standalone="no"?>
<!-- Created with Inkscape (http://www.inkscape.org/) -->

<svg
   version="1.1"
   id="svg2"
   width="134.66667"
   height="62.666668"
   viewBox="0 0 134.66667 62.666668"
   xmlns="http://www.w3.org/2000/svg"
   xmlns:svg="http://www.w3.org/2000/svg">
  <defs
     id="defs6" />
  <g
     id="g8">
    <path
       style="fill:#000000;stroke-width:1.33333"
       d="M 7.5884947,52.409582 C 6.0421847,49.899954 5.3620304,12.905324 6.8296876,11.136905 7.9219398,9.8208222 12.295427,9.3333335 23.010366,9.3333335 c 14.029154,0 14.824422,0.1516824 17.83674,3.4020295 2.686063,2.898309 3.152895,4.773792 3.152895,12.666667 0,8.375748 -0.255852,9.264637 -2.666667,9.264637 -2.339562,0 -2.666666,-0.888889 -2.666666,-7.246533 0,-8.886942 -1.843015,-14.319172 -4.510802,-13.295447 -1.061227,0.407231 -5.991427,1.145771 -10.956001,1.6412 l -9.026499,0.90078 -0.08668,18 C 14.002963,52.05297 13.902007,52.680632 11.125813,53.076249 9.5450102,53.301518 7.953217,53.001516 7.5884947,52.409582 Z M 61.770514,52.353013 C 58.710961,52.080108 55.574191,51.093498 54.799909,50.160548 52.831515,47.788777 52.29668,12.503322 54.200271,10.59973 55.022203,9.7777982 60.140388,9.1553662 65.832728,9.1850855 c 9.718259,0.050739 15.021813,1.4986375 17.146857,4.6811865 1.943413,2.91053 0.977438,9.34094 -1.856314,12.357331 l -2.876729,3.062139 3.543396,2.787236 c 7.53592,5.927755 2.471463,19.927023 -7.208916,19.927023 -2.03294,0 -4.495326,0.191071 -5.471971,0.424601 -0.976644,0.233532 -4.278985,0.201316 -7.338537,-0.07159 z m 8.690284,-6.450159 c 4.82172,-2.40539 6.882008,-7.810224 4.045404,-10.612461 -2.2062,-2.179472 -12.927626,-4.765891 -13.813591,-3.332368 -0.782,1.265302 -0.65207,10.581672 0.191189,13.708643 0.780103,2.892782 4.088187,2.974365 9.576998,0.236186 z M 73.50797,23.763091 c 2.711879,-4.27716 -1.213744,-9.978783 -7.737718,-11.238358 -4.167437,-0.804602 -4.243354,-0.725911 -5.153208,5.341429 -1.214649,8.099864 0.462746,10.210909 6.9507,8.747637 2.652298,-0.59819 5.325399,-1.881009 5.940226,-2.850708 z M 91.52972,51.36431 c -0.415572,-1.082964 1.0693,-6.632964 3.299716,-12.333333 2.230416,-5.700371 5.696044,-14.56431 7.701404,-19.697643 C 105.8928,10.72733 106.48175,10 110.08847,10 c 3.239,0 4.36087,0.916992 6.52493,5.333334 4.36245,8.902721 14.05327,32.848964 14.05327,34.725947 0,2.361107 -5.23027,3.910448 -7.0518,2.088924 -0.79751,-0.797516 -2.77647,-4.587848 -4.39768,-8.42296 -3.18069,-7.52419 -5.94044,-9.1755 -13.48418,-8.068315 -4.42936,0.650093 -5.68132,2.93058 -5.7148,10.409738 -0.01,2.236666 -0.738208,4.786666 -1.618208,5.666666 -2.207736,2.207736 -5.958801,2.006255 -6.870282,-0.369024 z m 22.22219,-20.364309 c 0.93138,-1.617131 -4.27047,-12.582247 -5.58392,-11.770489 -2.20468,1.362566 -3.18833,10.391973 -1.26494,11.611465 2.20373,1.397232 6.08382,1.487324 6.84886,0.159024 z"
       id="path1073" />
  </g>
</svg>
