<?xml version="1.0" encoding="UTF-8" standalone="no"?>
<!-- Created with Inkscape (http://www.inkscape.org/) -->

<svg
   version="1.1"
   id="svg112"
   width="276"
   height="58.666668"
   viewBox="0 0 276 58.666668"
   xmlns="http://www.w3.org/2000/svg"
   xmlns:svg="http://www.w3.org/2000/svg">
  <defs
     id="defs116" />
  <g
     id="g118">
    <path
       style="fill:#000000;stroke-width:1.33333"
       d="m 138.69184,52.026151 c -5.5964,-1.385069 -9.94989,-6.497625 -12.79333,-15.023947 -3.5744,-10.71821 0.34649,-21.746574 9.67517,-27.2135455 13.6012,-7.9708386 28.38913,0.7681795 30.72117,18.1548715 0.84526,6.30174 -3.9874,17.847922 -8.94894,21.380848 -4.37308,3.113915 -12.33146,4.26657 -18.65407,2.701773 z m 14.74973,-6.124101 c 3.07792,-2.785484 5.4945,-12.96328 4.51031,-18.995859 -1.25275,-7.678553 -4.98335,-14.892298 -8.12411,-15.709281 -8.99013,-2.3385387 -15.11401,2.905746 -16.16496,13.843129 -0.84921,8.837992 2.6219,20.698479 6.64526,22.706317 3.6916,1.842266 10.04588,0.94995 13.1335,-1.844306 z M 137.56525,30.39959 c 0.39848,-2.810452 1.10215,-3.066256 8.43475,-3.066256 7.11111,0 8,0.296296 8,2.666667 0,2.343532 -1.02208,2.715086 -8.43475,3.066256 -8.13322,0.385304 -8.41921,0.289974 -8,-2.666667 z m 68.76808,21.853258 c -3.38022,-0.279761 -5,-1.064052 -5,-2.42099 0,-2.051405 2.40386,-7.298525 3.89342,-8.498524 1.65438,-1.332788 3.91196,-7.791705 4.80505,-13.747297 0.81081,-5.406863 0.52881,-6.479967 -2.49831,-9.50709 -4.17941,-4.179416 -10.43774,-4.508025 -14.20016,-0.745613 -4.05778,4.057784 -3.32978,15.207341 2.11258,32.354679 0.70737,2.228743 -0.0865,2.395931 -9.67098,2.03669 -9.87588,-0.370164 -10.46609,-0.564677 -10.89372,-3.590166 -0.44138,-3.122835 -0.27558,-3.180576 6.982,-2.431528 4.08876,0.421997 7.74623,0.26226 8.12771,-0.354973 0.38147,-0.617234 -0.79356,-2.889607 -2.61117,-5.04972 -13.2016,-15.689201 -3.80718,-34.1961589 16.21304,-31.9395914 15.09182,1.7010674 20.03549,19.8340134 8.43697,30.9460994 -5.95137,5.701776 -5.25383,7.164922 3.63691,7.628638 5.7482,0.299811 7.66666,0.90034 7.66666,2.399872 0,2.212325 -8.30718,3.638967 -17,2.919514 z m -96.481,-2.156884 c -0.88484,-2.305855 -1.14414,-12.602722 -0.76629,-30.429297 l 0.24729,-11.6666668 h 4.03303 4.03303 l -0.36636,21.6666668 c -0.36084,21.340294 -0.41164,21.673097 -3.37232,22.093517 -1.80183,0.25586 -3.3274,-0.410799 -3.80838,-1.66422 z M 232.29948,31.000001 232.66667,10 236.09153,9.6014361 C 239.0032,9.2625957 241.20096,11.260558 250.7582,22.93477 L 262,36.666667 l 0.38161,-13 c 0.36918,-12.575922 0.48192,-13 3.45638,-13 3.06138,0 3.07592,0.08653 3.34253,19.885788 0.1718,12.759057 -0.23496,20.196487 -1.13497,20.752731 -2.55954,1.581875 -6.3728,-0.661102 -9.71812,-5.716233 -1.81718,-2.745936 -5.36022,-7.109997 -7.87343,-9.697915 -2.51321,-2.587919 -5.93435,-6.622095 -7.60253,-8.964837 -1.66818,-2.342744 -3.55727,-4.259534 -4.19798,-4.259534 -0.6407,0 -1.16393,4.95 -1.16273,11 0.004,18.959332 0.10133,18.333334 -2.85795,18.333334 -2.61305,0 -2.68862,-0.680265 -2.33333,-21 z M 14.222223,49.777778 C 13.733333,49.28889 13.333333,40.88889 13.333333,31.111111 V 13.333334 H 9.9114369 c -2.946367,0 -3.3632669,-0.509545 -3,-3.6666671 L 7.3333333,6.0000001 32.230448,5.7394128 c 20.318543,-0.2126655 25.191257,0.093833 26.496592,1.6666667 2.013781,2.4264581 -0.480809,5.9272545 -4.223633,5.9272545 -2.153398,0 -2.540842,1.165112 -2.771156,8.333333 -0.147263,4.583334 -0.35327,10.433334 -0.457794,13 -0.10452,2.566667 -0.284037,7.216667 -0.398917,10.333334 -0.187981,5.099856 -0.542292,5.666667 -3.542207,5.666667 H 44 V 32.000001 13.333334 H 32.666667 21.333333 l -0.203085,10.333333 c -0.111693,5.683334 -0.342488,10.933334 -0.512868,11.666667 -0.170379,0.733333 -0.378991,4.483334 -0.46358,8.333334 -0.128373,5.843062 -0.557809,7 -2.598244,7 -1.344445,0 -2.844445,-0.4 -3.333333,-0.88889 z M 68.046912,48.087656 C 66.05752,44.370444 66.244504,11.622162 68.266667,9.6000002 70.7759,7.0907663 93.884152,7.4505592 96.026741,10.032222 c 0.927627,1.117721 1.355866,2.362949 0.951642,2.767173 -0.801132,0.801132 -9.387162,1.693989 -17.311716,1.800236 -4.924647,0.06602 -5,0.146601 -5,5.346447 v 5.279409 l 11,0.387258 c 10.255477,0.361045 11.028837,0.590308 11.426068,3.387256 0.413409,2.910872 0.08661,3 -11,3 H 74.666667 v 6.630945 6.630944 l 12.45225,-0.817957 c 11.031407,-0.724627 12.55328,-0.554683 13.337663,1.489377 0.48697,1.269035 0.54805,2.853191 0.13572,3.520347 -0.41232,0.667156 -7.593159,1.213011 -15.957411,1.213011 -13.670832,0 -15.347221,-0.260636 -16.587977,-2.579012 z"
       id="path289" />
  </g>
</svg>
