<?xml version="1.0" encoding="UTF-8" standalone="no"?>
<!-- Created with Inkscape (http://www.inkscape.org/) -->

<svg
   version="1.1"
   id="svg92"
   width="132"
   height="56"
   viewBox="0 0 132 56"
   xmlns="http://www.w3.org/2000/svg"
   xmlns:svg="http://www.w3.org/2000/svg">
  <defs
     id="defs96" />
  <g
     id="g98">
    <path
       style="fill:#000000;stroke-width:1.33333"
       d="m 64,48.361479 c -2.088956,-0.795192 -3.944661,-2.984414 -3.979583,-4.694812 -0.01123,-0.55 3.179583,-1 7.090694,-1 3.911112,0 7.446205,-0.335095 7.855765,-0.744654 0.40956,-0.40956 -1.29044,-4.124262 -3.777777,-8.254896 C 66.22712,25.426937 65.739976,22.132232 68.505093,15.514376 71.654067,7.9778228 76.382299,5.3333333 86.708355,5.3333333 c 8.650874,0 9.182718,0.1905663 13.153522,4.7130617 C 103.17842,13.823727 104,15.949987 104,20.755887 104,28.40066 101.17315,35.169848 96.778035,38.049639 91.6189,41.430033 92.536996,42.492055 101,42.933461 c 6.64449,0.346558 7.66667,0.755414 7.66667,3.066539 0,2.403777 -1.0187,2.705057 -10.333337,3.056085 C 88.646095,49.421156 88,49.272887 88,46.684731 88,45.166304 89.8,40.358176 92,36 97.093525,25.909783 97.336211,18.548332 92.727273,13.939393 87.592628,8.8047496 81.241625,9.7313885 77.950687,16.095361 c -2.604619,5.036778 -2.463839,8.671096 0.796182,20.553979 1.510779,5.506836 2.375368,10.613531 1.921311,11.348211 C 79.801533,49.399815 67.436891,49.66978 64,48.361479 Z m 55,0.08881 c -1.82642,-0.736976 -2.37683,-25.563537 -0.81877,-36.930864 0.72884,-5.3174588 1.27789,-6.1860947 3.91015,-6.1860947 1.84913,0 3.38426,1.0145544 3.87509,2.5610084 0.90943,2.8653763 -0.36408,38.5916333 -1.43758,40.3285793 -0.74397,1.203782 -2.89034,1.29205 -5.52889,0.227371 z M 24.656803,45.302253 c -0.470928,-1.48376 -0.753226,-4.93376 -0.627328,-7.666666 0.125893,-2.732906 0.170769,-9.660271 0.09972,-15.394143 L 24,11.81622 15,12.150031 6,12.483843 5.5798677,8.210802 5.1597355,3.9377615 28.913201,4.3022141 c 23.167415,0.3554607 23.763558,0.4352622 24.1625,3.2344659 0.343847,2.4126303 -0.44326,3.014007 -4.938985,3.773555 -2.941411,0.496948 -7.325476,0.705442 -9.742368,0.46332 L 34,11.333333 33.907777,28.070529 c -0.05072,9.205459 -0.536132,17.455459 -1.078689,18.333334 -1.640203,2.653904 -7.219012,1.901889 -8.172285,-1.10161 z"
       id="path567" />
  </g>
</svg>
