<?xml version="1.0" encoding="UTF-8" standalone="no"?>
<!-- Created with Inkscape (http://www.inkscape.org/) -->

<svg
   version="1.1"
   id="svg12"
   width="180"
   height="56"
   viewBox="0 0 180 56"
   xmlns="http://www.w3.org/2000/svg"
   xmlns:svg="http://www.w3.org/2000/svg">
  <defs
     id="defs16" />
  <g
     id="g18">
    <path
       style="fill:#000000;stroke-width:1.33333"
       d="m 139,49.783625 c -3.13815,-1.266268 -1.63956,-5.120936 5.01185,-12.89158 3.66015,-4.276041 6.65482,-8.480297 6.65482,-9.342789 0,-0.862492 -2.71067,-4.863912 -6.0237,-8.892045 -6.80324,-8.271685 -7.12284,-11.1509449 -1.29872,-11.6998049 3.46754,-0.3267774 4.58292,0.501259 8.5311,6.3333329 2.4981,3.690094 4.98356,6.709261 5.52324,6.709261 0.53969,0 3.26908,-3 6.0653,-6.666667 3.42848,-4.4957135 6.05471,-6.6666663 8.06474,-6.6666663 5.18226,0 4.69685,2.2538173 -2.17728,10.1092783 -3.67658,4.201428 -6.68468,8.145607 -6.68468,8.76484 0,0.619235 1.05,2.186446 2.33333,3.482691 10.51601,10.621819 13.69053,19.164876 7.45179,20.053736 -2.0243,0.288409 -4.00762,-1.056541 -6.66667,-4.520889 -2.08181,-2.71229 -5.33675,-6.742016 -7.23317,-8.954948 l -3.44806,-4.023512 -4.31996,7.550516 C 144.67079,49.813039 142.94352,51.374869 139,49.783625 Z M 6.0350851,47.666667 C 5.7337463,46.75 5.2937157,37.126008 5.0572396,26.280017 4.6343768,6.8853997 4.6758552,6.5478432 7.5711941,5.8211595 12.288328,4.6372343 13.332094,6.3084107 13.353169,15.078689 l 0.01984,8.254644 L 18.027868,18 c 2.560169,-2.933333 5.680608,-6.983333 6.934304,-9 1.566249,-2.5194327 3.396396,-3.6666667 5.84932,-3.6666667 6.134352,0 5.427677,3.3192682 -2.239912,10.5209157 -3.981036,3.739119 -7.238247,7.136086 -7.238247,7.548815 0,0.412731 3.6,5.027217 8,10.254417 4.4,5.2272 8,10.271556 8,11.20968 0,2.121278 -4.958858,4.895175 -7.208074,4.03207 -0.9165,-0.351694 -2.519616,-2.35065 -3.562479,-4.442124 C 24.031651,39.380895 15.601919,28.117324 14.285088,28.052 c -0.576536,-0.0286 -0.944171,4.072025 -0.816967,9.1125 0.1272,5.040476 -0.186496,9.840476 -0.69711,10.666667 -1.253641,2.028434 -6.0535695,1.911214 -6.7359259,-0.1645 z m 38.7214039,0.478669 c -0.455658,-0.737271 0.438016,-4.821581 1.985943,-9.076248 1.547925,-4.254665 4.638553,-13.135755 6.86806,-19.735755 4.695689,-13.9006254 6.214987,-16.0008685 10.751281,-14.8623311 2.718479,0.6822946 4.602039,4.0184046 11.442708,20.2670111 6.531346,15.51387 7.909939,19.97091 6.811802,22.022798 C 79.906669,51.823769 76.609787,49.816428 73.154655,41 l -3.265808,-8.333333 h -7.270719 -7.270719 l -2.11303,8 c -1.644286,6.225313 -2.727116,8.09086 -4.881226,8.409581 -1.522506,0.225269 -3.141005,-0.193641 -3.596664,-0.930912 z M 66.666667,25.496165 c 0,-0.643776 -0.958535,-3.464596 -2.130076,-6.26849 -2.319078,-5.550332 -3.453098,-4.867291 -5.156175,3.105658 -0.886716,4.15116 -0.753016,4.333334 3.180311,4.333334 2.258266,0 4.10594,-0.526726 4.10594,-1.170502 z m 24,20.47399 c 0,-1.95729 0.856092,-5.151284 1.902428,-7.097766 1.046334,-1.946481 4.114885,-8.939056 6.819001,-15.539056 9.897064,-24.15599433 10.982934,-24.14972527 22.602224,0.13049 4.77199,9.971769 8.67635,19.198302 8.67635,20.503408 0,2.97112 -3.38338,5.904578 -5.38406,4.66809 -0.82547,-0.510172 -4.97466,-8.211826 -9.22042,-17.114786 -7.65067,-16.042731 -7.73324,-16.151502 -9.25172,-12.187202 -0.84269,2.2 -2.03836,5.2 -2.65703,6.666667 -0.61868,1.466667 -2.89812,7.166503 -5.06542,12.666304 -4.152772,10.538183 -8.421353,14.240329 -8.421353,7.303851 z"
       id="path2276" />
  </g>
</svg>
