<?xml version="1.0" encoding="UTF-8" standalone="no"?>
<!-- Created with Inkscape (http://www.inkscape.org/) -->

<svg
   version="1.1"
   id="svg102"
   width="290.66666"
   height="57.333332"
   viewBox="0 0 290.66666 57.333332"
   xmlns="http://www.w3.org/2000/svg"
   xmlns:svg="http://www.w3.org/2000/svg">
  <defs
     id="defs106" />
  <g
     id="g108">
    <path
       style="fill:#000000;stroke-width:1.33333"
       d="m 134.17993,49.989463 c -1.10288,-1.102888 -2.41209,-3.351699 -2.90934,-4.997357 -0.49725,-1.645659 -2.69784,-6.892107 -4.8902,-11.658773 -2.19237,-4.766667 -4.50998,-10.016667 -5.15026,-11.666667 -1.79593,-4.628161 -2.99384,-3.667821 -6.23692,5 -1.64627,4.4 -4.34016,11.6 -5.98642,16 -2.50628,6.698565 -3.50947,7.999999 -6.16667,7.999999 -2.866629,0 -3.090873,-0.418969 -2.31931,-4.333333 0.46978,-2.383333 2.88918,-8.533333 5.37644,-13.666666 2.48727,-5.133333 6.12147,-12.783333 8.07602,-17 3.14182,-6.7780585 4.00612,-7.6666662 7.45689,-7.6666662 2.14674,0 3.90317,0.6591007 3.90317,1.4646682 0,0.805567 3.93789,9.501552 8.75087,19.324407 4.81298,9.822857 8.37957,18.460531 7.92574,19.194829 -1.88313,3.04698 -5.78832,4.047244 -7.83001,2.005559 z m 27.96272,-0.09851 c -0.44513,-1.159985 -0.80932,-3.259985 -0.80932,-4.666673 0,-1.709325 -0.92868,-2.557617 -2.8,-2.557617 -1.54,0 -4.91491,-2.114906 -7.49979,-4.69979 -4.39172,-4.391713 -4.65773,-5.137478 -4.05821,-11.376843 0.76608,-7.972701 4.95036,-13.2567 10.49768,-13.2567 2.79583,0 3.77676,-0.717602 4.10092,-3 0.58921,-4.1487714 6.90977,-4.282729 7.49797,-0.158912 0.30839,2.162028 1.64134,3.038747 5.57687,3.668064 14.50481,2.319412 14.5022,25.684433 -0.003,28.649547 -3.43118,0.701387 -4.68285,1.672292 -4.78816,3.714154 -0.0784,1.52049 -0.56384,3.446117 -1.07869,4.27917 -1.378,2.229655 -5.70096,1.842437 -6.63607,-0.594406 z M 161.9268,29.184249 c -0.24596,-5.948664 -0.77643,-11.144985 -1.17883,-11.547381 -0.40239,-0.402398 -1.93531,0.357684 -3.40647,1.689068 -3.74326,3.387607 -3.7482,14.267367 -0.008,18.007396 1.46667,1.466667 3.20081,2.666667 3.85365,2.666667 0.65286,0 0.98576,-4.867088 0.73982,-10.81575 z M 175,36.25721 c 3.26512,-2.804051 3.03626,-11.003961 -0.43011,-15.410732 -1.51989,-1.93223 -3.31989,-3.513145 -4,-3.513145 -0.68011,0 -1.23656,5.13541 -1.23656,11.412022 0,11.924539 0.20775,12.199927 5.66667,7.511855 z m 21,14.432786 c -2.09838,-0.50318 -3.49119,-1.890526 -3.7594,-3.744656 -0.39988,-2.764325 0.0764,-2.945341 7.7495,-2.945341 h 8.17559 l -4.03627,-5.666667 C 193.6026,23.554327 200.57109,8.0183498 217.73288,8.0049839 c 11.40238,-0.00888 18.26711,6.1664611 18.26711,16.4326371 0,6.004372 -3.22594,13.535662 -6.9002,16.109209 -3.55672,2.491226 -2.3356,4.059246 3.34495,4.295206 9.08145,0.377227 9.08977,0.38059 8.64799,3.491296 -0.4013,2.825605 -1.04614,3 -11.09274,3 h -10.66666 l 0.2754,-3.844733 c 0.15146,-2.114603 1.77396,-6.014603 3.60554,-8.666667 6.9686,-10.090289 5.35572,-22.939643 -3.1129,-24.799666 -5.54591,-1.218085 -9.08051,1.152818 -10.93211,7.33291 -1.32994,4.438959 -1.20606,6.680814 0.75403,13.64491 1.29,4.583285 2.90745,9.760782 3.59433,11.505548 0.68688,1.744765 0.94431,3.476877 0.57204,3.849137 -1.00898,1.008998 -14.25613,1.254485 -18.08966,0.335225 z m 54.26831,0.467207 c -1.18921,-1.189203 -0.97589,-33.379029 0.25066,-37.82387 1.3707,-4.9672859 6.85466,-5.1868271 9.76377,-0.390876 1.24245,2.048315 4.23712,5.845977 6.6548,8.439249 2.41768,2.593271 6.49579,7.373575 9.06245,10.622897 l 4.66667,5.907857 0.66667,-13.95623 c 0.53597,-11.220353 1.05873,-13.9562302 2.66666,-13.9562302 1.69176,0 2,3.1851852 2,20.6666662 0,18.142901 -0.26318,20.666666 -2.1552,20.666666 -1.18534,0 -7.78534,-6.522969 -14.66666,-14.495488 l -12.51147,-14.495487 -0.66667,14.481055 c -0.53689,11.662163 -1.06864,14.557724 -2.73168,14.874913 -1.13576,0.216623 -2.48576,-0.02688 -3,-0.541122 z M 5.8141509,48.663146 C 4.7992748,46.01842 8.6499667,38.269622 19.064146,21.999999 30.261425,4.5069772 31.882503,4.1633266 39.78702,17.606978 42.932384,22.956474 47.910534,31.373702 50.849574,36.311931 59.096181,50.168028 59.260087,50.053952 30.624211,50.388537 10.274777,50.626303 6.4658377,50.361413 5.8141509,48.663146 Z M 44.077283,41.285568 c 1.354404,-0.837068 -3.303728,-10.34473 -8.795418,-17.952235 -1.588132,-2.2 -3.257411,-5.05 -3.70951,-6.333333 -0.452098,-1.283334 -1.369614,-2.333334 -2.038924,-2.333334 -1.542818,0 -6.72417,6.896263 -11.01947,14.666667 -1.824163,3.3 -4.431867,7.690911 -5.794895,9.757583 l -2.478235,3.757583 16.254183,-0.371064 c 8.9398,-0.204085 16.851821,-0.740425 17.582269,-1.191867 z m 26.417665,7.369811 c -4.568854,-2.482553 -7.828283,-10.834235 -7.828283,-20.05852 0,-14.305633 6.133197,-21.9301925 17.64065,-21.9301925 7.512135,0 14.359349,3.8580715 14.359349,8.0907915 0,3.606055 -1.821961,3.215452 -6.412067,-1.374654 -3.55456,-3.5545605 -4.400104,-3.8223326 -8.435897,-2.671531 -5.389906,1.536924 -7.818702,4.501532 -7.818702,9.543567 0,2.064397 0.747971,3.781209 1.666667,3.825487 7.098757,0.342136 15.178898,1.566275 16.04371,2.430616 0.57404,0.573728 0.659847,2.043474 0.190682,3.2661 -0.673184,1.754287 -2.650158,2.222956 -9.377044,2.222956 -8.414985,0 -8.523753,0.04689 -8.503597,3.666667 0.02617,4.70148 1.145858,6.379729 5.902957,8.847741 4.233916,2.196583 6.916336,1.423479 12.404701,-3.575172 3.648532,-3.322983 4.960732,-2.430164 2.941561,2.001435 -3.18096,6.981446 -14.990022,9.944619 -22.774687,5.714709 z"
       id="path893" />
  </g>
</svg>
