<?xml version="1.0" encoding="UTF-8" standalone="no"?>
<!-- Created with Inkscape (http://www.inkscape.org/) -->

<svg
   version="1.1"
   id="svg52"
   width="318.66666"
   height="53.333332"
   viewBox="0 0 318.66666 53.333332"
   xmlns="http://www.w3.org/2000/svg"
   xmlns:svg="http://www.w3.org/2000/svg">
  <defs
     id="defs56" />
  <g
     id="g58">
    <path
       style="fill:#000000;stroke-width:1.33333"
       d="M 206.31922,49.165399 C 204.28393,48.026389 204,45.526171 204,28.743065 204,11.870821 204.27064,9.5147815 206.29816,8.7367504 210.7985,7.0098066 212,11.509719 212,30.091579 c 0,18.54572 -0.94639,21.723314 -5.68078,19.07382 z M 56.576473,47.854064 c -1.361035,-2.202201 -0.740596,-37.55661 0.684088,-38.9812941 0.674772,-0.6747713 2.167188,-0.8660182 3.316482,-0.4249933 1.769032,0.6788418 2.089622,3.8766834 2.089622,20.8437094 0,18.949829 -0.14101,20.041846 -2.587977,20.041846 -1.423388,0 -2.999384,-0.665671 -3.502215,-1.479268 z m 46.849457,-0.618613 c -1.15093,-1.150927 -2.0926,-3.007163 -2.0926,-4.124968 0,-1.117804 -0.84025,-3.624947 -1.867232,-5.571428 -1.026979,-1.946481 -3.501311,-7.439056 -5.498515,-12.205722 -1.997205,-4.766667 -4.057994,-9.137712 -4.579533,-9.713433 -0.888708,-0.981038 -3.591613,4.909557 -10.783021,23.500052 -2.760011,7.134902 -5.585877,10.343644 -7.459422,8.4701 -1.198251,-1.198252 9.115567,-26.985355 14.767889,-36.923386 3.100187,-5.4508161 7.116165,-5.0711933 9.559338,0.903627 1.146183,2.803005 5.033686,10.96771 8.638896,18.14379 3.60522,7.176079 6.55493,13.904969 6.55493,14.953088 0,3.26819 -4.82825,4.980765 -7.24073,2.56828 z m 15.34738,-0.954944 c -0.63837,-1.679055 -1.22915,-11.579055 -1.31284,-22 L 117.30831,5.3333332 h 3.26716 c 4.321,0 5.28482,1.7948428 6.08595,11.3333328 l 0.67191,8 9.66667,0.391747 9.66666,0.391745 V 15.391746 c 0,-8.6983298 0.31551,-10.055652 2.33334,-10.0379957 4.99036,0.043667 5.37368,1.5699127 5.43616,21.6446427 0.0567,18.191249 -0.13438,19.769727 -2.54838,21.061658 -4.2338,2.265865 -5.22112,0.348624 -5.22112,-10.138741 v -9.921311 h -9.80661 -9.80662 l -0.80075,9.551328 c -0.7289,8.694336 -2.07885,11.698205 -5.28568,11.761588 -0.56815,0.0112 -1.55531,-1.353355 -2.19369,-3.032408 z m 51.91778,0.134939 c -8.54783,-5.810112 -11.31327,-21.192345 -5.77837,-32.141077 4.48638,-8.8746538 19.96226,-12.1872664 26.48121,-5.6683085 1.8,1.7999995 3.27273,4.2621555 3.27273,5.4714565 0,1.664517 -1.18057,1.162171 -4.85905,-2.067582 -3.99999,-3.5120252 -5.59037,-4.1200509 -8.99537,-3.4390492 -6.06179,1.2123554 -8.76943,4.6734182 -9.68163,12.3756132 -1.12029,9.459099 0.30227,15.497711 4.78016,20.291323 2.83825,3.038353 5.01103,4.09551 8.41752,4.09551 4.48976,0 9.00504,-3.188828 9.00504,-6.359632 0,-0.815644 0.6,-1.853809 1.33333,-2.307034 2.77962,-1.717896 1.18622,4.688021 -2.02905,8.157349 -4.87084,5.255726 -15.42921,6.021357 -21.94652,1.591431 z m 50.31464,1.251219 c -1.36705,-3.717398 0.62663,-4.999999 7.77204,-4.999999 7.77892,0 8.69527,-0.920288 4.60348,-4.623302 -1.44032,-1.303464 -3.62937,-5.016203 -4.86457,-8.250531 -4.54426,-11.898956 3.04298,-23.1261665 15.62843,-23.1261665 9.90111,0 15.02923,2.6601441 17.62254,9.1414535 3.21244,8.028679 1.20781,15.883083 -5.8568,22.947698 -3.89064,3.890633 -3.19078,4.754568 3.88593,4.796924 7.89593,0.04727 10.32979,1.218222 8.10469,3.899294 -1.9978,2.407204 -21.23481,2.707764 -21.23481,0.331773 0,-0.852238 1.4658,-4.050719 3.25733,-7.107737 7.34196,-12.528117 7.31007,-23.804072 -0.0768,-27.169779 -5.1384,-2.34121 -8.08289,-1.80807 -11.0837,2.006852 -3.47325,4.415533 -3.52599,10.461236 -0.196,22.470242 1.4121,5.092453 2.27669,9.729468 1.92132,10.304476 -1.11396,1.802324 -18.79921,1.238445 -19.48308,-0.621198 z m 58.54982,0.777778 c -0.48889,-0.488888 -0.88889,-9.788888 -0.88889,-20.666666 V 7.9999998 h 3.33333 c 1.83334,0 4.24288,1.05 5.35455,2.3333332 1.11165,1.283333 5.95304,6.983333 10.75863,12.666666 4.80557,5.683334 9.35622,10.333334 10.11254,10.333334 0.8791,0 1.20666,-4.44201 0.90804,-12.313878 -0.40936,-10.79206 -0.18461,-12.3684244 1.8186,-12.7552571 3.27056,-0.6315632 3.94858,3.5734841 3.07468,19.0691351 -0.41357,7.333333 -0.7293,14.983333 -0.70164,16.999999 0.0921,6.719256 -4.30072,3.939997 -16.60636,-10.506385 -8.44178,-9.910362 -12.16077,-13.418445 -12.67402,-11.955289 -0.39951,1.138939 -0.61718,6.133744 -0.48368,11.099569 0.36012,13.396763 -0.96472,18.514273 -4.00578,15.473216 z M 6.2784655,47.167353 C 5.1635354,46.052423 5.2870003,27.009062 6.4891792,14.666666 7.3220648,6.1156894 7.3897278,5.9945308 11.558032,5.5902908 c 3.905089,-0.3787135 4.585964,0.2066952 9,7.7381012 2.626416,4.481297 4.775301,8.715665 4.775301,9.409709 0,3.228892 2.397653,0.466698 6.734676,-7.75862 3.94766,-7.4868744 5.36422,-9.0526366 8.521991,-9.4195822 2.083023,-0.2420557 4.182719,0.1996759 4.66599,0.9816256 0.483272,0.7819498 0.848376,10.2799956 0.811342,21.1067666 -0.06565,19.193845 -0.13994,19.695377 -2.977118,20.099286 -4.224687,0.60144 -5.424727,-3.037587 -4.533527,-13.747578 0.427155,-5.133333 0.476646,-11.603433 0.109979,-14.377999 l -0.666667,-5.044666 -5.285777,10.785247 c -2.907177,5.931886 -5.977389,11.359234 -6.822693,12.060774 -1.091339,0.905731 -2.952887,-1.628305 -6.420983,-8.740581 -2.686237,-5.50886 -5.532549,-10.016108 -6.325137,-10.016108 -0.973008,0 -1.284787,4.655487 -0.959906,14.333333 0.456451,13.597177 0.341386,14.353341 -2.2403709,14.72291 -1.4968439,0.214267 -3.1468438,-0.03573 -3.6666666,-0.555556 z"
       id="path378" />
  </g>
</svg>
