<?xml version="1.0" encoding="UTF-8" standalone="no"?>
<!-- Created with Inkscape (http://www.inkscape.org/) -->

<svg
   version="1.1"
   id="svg12"
   width="701.33331"
   height="60"
   viewBox="0 0 701.33331 60"
   xmlns="http://www.w3.org/2000/svg"
   xmlns:svg="http://www.w3.org/2000/svg">
  <defs
     id="defs16" />
  <g
     id="g18">
    <path
       style="fill:#000000;stroke-width:1.33333"
       d="m 123.33333,50.425112 c -12.201,-4.344992 -17.47246,-19.316764 -11.46149,-32.552396 3.23181,-7.116164 9.80801,-11.2060493 18.01841,-11.2060493 8.39089,0 13.30337,2.8158358 17.5478,10.0583983 3.03638,5.181203 3.45952,7.180336 2.96546,14.010491 -0.60409,8.351581 -3.10267,13.10588 -9.15257,17.415452 -4.19964,2.991569 -12.82784,4.086661 -17.91761,2.274104 z m 14,-6.279716 c 4.49327,-3.236411 5.87973,-9.657832 4.73132,-21.913135 C 141.25125,13.552041 140.73544,12 138.66401,12 c -1.34299,0 -2.66179,-0.66 -2.93068,-1.466667 -0.26889,-0.8066663 -2.84825,-1.4666663 -5.73192,-1.4666663 -6.09946,0 -11.19746,4.7143333 -11.54305,10.6743523 -0.11456,1.975773 -0.29367,5.392314 -0.39801,7.592314 -0.29665,6.254604 3.17381,16.443903 6.3713,18.706154 3.32886,2.355206 7.94254,1.677874 12.90168,-1.894091 z m 161.92653,6.430235 c -11.9996,-3.487428 -17.2773,-23.160674 -9.38454,-34.981987 6.47158,-9.6927377 22.1444,-11.9058952 30.1305,-4.254723 17.85002,17.101411 2.56424,46.011326 -20.74596,39.23671 z m 11.95416,-4.439852 c 6.00437,-2.50879 9.5066,-11.244958 8.1834,-20.413172 -1.44232,-9.993595 -2.22456,-12.389274 -4.04538,-12.389274 -0.9307,0 -2.43913,-0.9 -3.35205,-2 -0.91292,-1.1 -3.65585,-1.9999997 -6.0954,-1.9999997 -3.4696,0 -5.18181,0.9783857 -7.86223,4.4926027 -3.18468,4.175329 -3.37013,5.187567 -2.62594,14.333333 1.1935,14.667942 2.72852,17.432066 10.95973,19.735468 0.20688,0.05789 2.38392,-0.733637 4.83787,-1.758958 z m 192.01238,3.950917 c -2.21334,-1.618424 -2.22684,-2.023647 -0.2093,-6.275317 3.04338,-6.413439 9.6527,-23.385778 11.82102,-30.35571 2.06996,-6.6537149 5.35172,-9.5004838 8.58705,-7.4488491 1.15051,0.7295824 3.91268,5.5265131 6.13816,10.6598471 2.22547,5.133333 6.1318,14.014421 8.68073,19.735749 3.70852,8.324104 4.31427,10.788197 3.03192,12.333333 -1.96877,2.372226 -5.84764,2.50818 -7.53924,0.264251 -0.69102,-0.916667 -2.06337,-4.225255 -3.04964,-7.352417 -2.35472,-7.466127 -3.90486,-8.548574 -11.53994,-8.058202 -7.00128,0.449664 -6.23887,-0.703326 -9.21132,13.930218 -0.74179,3.651853 -3.6856,4.778185 -6.70944,2.567097 z M 524.98565,27.382324 C 525.72073,26.823421 520.83642,16 519.84912,16 c -1.45295,0 -4.18014,10.385747 -3.16043,12.035657 0.63369,1.025348 6.71936,0.54614 8.29696,-0.653333 z m 39.28446,22.364783 c -0.68372,-1.327575 -0.98533,-3.130375 -0.67025,-4.00622 0.32479,-0.902852 -2.27112,-2.815895 -5.9946,-4.417695 -5.47949,-2.357213 -6.84758,-3.673991 -8.25833,-7.9486 -1.81804,-5.508737 -1.05868,-12.769032 1.73516,-16.589829 0.94316,-1.289855 3.7632,-2.764127 6.26676,-3.276159 3.35769,-0.686722 4.75561,-1.793813 5.3283,-4.2197859 1.16556,-4.9373996 7.16683,-4.6446106 7.74472,0.3778486 0.33478,2.9094193 1.11012,3.6666663 3.75432,3.6666663 4.75528,0 8.15831,2.1568 10.47666,6.639979 5.11417,9.889732 -0.61868,22.584117 -10.23506,22.663707 -3.0573,0.02531 -3.64341,0.662993 -4,4.352062 -0.47746,4.939507 -4.17084,6.596462 -6.14768,2.758026 z M 563.2257,28.333333 C 562.72334,21.916667 562.04101,16.366667 561.70939,16 c -0.33161,-0.366667 -2.11828,1.093973 -3.97037,3.245868 -2.90152,3.371199 -3.25547,4.754791 -2.55817,10 C 555.93962,34.953421 559.55442,40 562.88391,40 c 0.75864,0 0.89386,-4.615243 0.34179,-11.666667 z M 575.99998,36 c 3.42747,-3.427465 3.43365,-10.059039 0.0147,-15.666667 -2.77806,-4.556328 -4.67039,-5.449745 -5.64824,-2.666666 -1.00407,2.857534 0.53725,21 1.78404,21 0.65057,0 2.38286,-1.2 3.84953,-2.666667 z m 46,13.961552 c -2.93333,-1.056771 -5.4036,-1.930436 -5.48948,-1.941477 -0.0859,-0.01107 -1.73589,-2.407211 -3.66667,-5.324822 -4.52969,-6.844813 -4.96085,-19.633586 -0.88718,-26.31469 2.18765,-3.587907 11.65212,-11.0472297 14.01684,-11.0472297 2.01452,0 0.2522,3.9822387 -2.58504,5.8412637 -4.99447,3.272502 -6.86508,11.259027 -5.07914,21.685258 1.82167,10.634881 3.54662,12.968957 8.80687,11.916906 2.16272,-0.432546 4.67853,-0.167073 5.59067,0.589939 2.26001,1.875643 8.58221,-5.683713 8.75565,-10.469 0.42471,-11.717768 -1.06884,-18.694501 -4.80103,-22.426686 -2.5442,-2.5441959 -2.57533,-5.8043473 -0.0554,-5.8043473 5.27928,0 13.97772,14.0832563 14.03132,22.7174803 C 650.6855,37.1293 645.57263,45.54314 638.71746,49 c -6.86865,3.463661 -9.37249,3.607676 -16.71748,0.961552 z M 8.331034,47.763684 C 7.7754963,46.060324 7.623748,36.266667 7.9938159,26 8.6306053,8.3337628 8.8159998,7.3119989 11.453029,6.9352612 c 2.8467,-0.4066921 3.61357,0.3279957 19.213637,18.4073018 l 7.333333,8.498782 0.666666,-13.254006 c 0.60923,-12.1120954 0.894902,-13.2540057 3.315751,-13.2540057 2.511737,0 2.672797,1.0888256 3.106465,21.0009917 C 45.723765,57.485504 45.349436,57.532103 23.675249,31 c -3.744144,-4.583333 -7.28178,-8.333333 -7.861415,-8.333333 -0.579633,0 -1.224869,6.142964 -1.433857,13.65103 -0.327171,11.753884 -0.703712,13.713014 -2.709426,14.097019 -1.487608,0.284811 -2.6944774,-0.673247 -3.339517,-2.651032 z M 54.431865,49 C 54.145808,48.083333 53.931616,38.942979 53.95588,28.688101 53.9965,11.519341 54.198513,10.004389 56.506895,9.5569111 c 1.378794,-0.2672778 3.019606,0.3230764 3.64625,1.3118979 0.626644,0.988822 1.14854,10.347858 1.159769,20.797858 l 0.02042,19 H 58.14265 c -1.754875,0 -3.424728,-0.75 -3.710785,-1.666667 z M 70.666664,29.421896 V 8 h 3.333334 c 3.185185,0 3.333333,0.3555556 3.333333,8 0,4.4 0.542306,8 1.205125,8 0.662817,0 4.112817,-3.59776 7.666666,-7.995024 5.059698,-6.2604873 7.257032,-7.9961025 10.128208,-7.9999995 2.016667,-0.00274 3.666667,0.3395659 3.666667,0.7606732 0,0.4211074 -3.309736,4.2355623 -7.354969,8.4765673 l -7.35497,7.710918 8.688303,9.689402 c 8.749409,9.757551 10.464549,13.723884 6.579249,15.214811 -4.522468,1.735435 -7.196785,0.728837 -9.362562,-3.524015 C 89.981328,43.95 86.81592,39.008588 84.160808,35.352417 l -4.827477,-6.647584 -0.666667,10.647584 c -0.653399,10.435666 -0.739644,10.65598 -4.333333,11.069479 l -3.666667,0.421897 z m 90.215706,20.244771 c -0.33459,-0.55 -0.82,-10 -1.0787,-21 l -0.47034,-20.0000003 3.66666,-0.4218964 c 3.487,-0.4012238 3.67126,-0.1398926 3.76039,5.3333337 0.0516,3.165376 0.53033,6.864937 1.06399,8.221248 0.8357,2.123999 1.70109,1.571417 6.23961,-3.984192 8.06784,-9.8758459 9.46812,-11.0211993 12.50373,-10.227368 4.3067,1.1262275 3.3232,3.783791 -3.90105,10.541233 -3.66667,3.429738 -6.66667,6.658396 -6.66667,7.174798 0,0.516401 3.32612,4.484296 7.39139,8.817544 7.88907,8.409132 10.19045,13.373101 7.12241,15.362716 -3.88092,2.516765 -7.21776,0.422974 -12.70338,-7.971107 -3.0505,-4.667863 -6.57375,-9.467863 -7.82943,-10.666667 -2.14779,-2.050504 -2.24551,-1.611817 -1.64929,7.404303 0.38626,5.841323 0.0808,10.136928 -0.78231,11 -1.63159,1.631581 -5.77044,1.889867 -6.66701,0.416055 z m 35.9056,-1.164674 c -0.46767,-1.218713 1.44226,-7.191025 4.37056,-13.666666 2.86068,-6.326096 6.73709,-14.951994 8.61425,-19.16866 C 212.58965,9.3391368 213.75811,8 216.46233,8 c 2.88738,0 4.32906,2.163098 12.13862,18.212705 4.87415,10.016987 8.68291,19.466987 8.46391,21 -0.26613,1.862815 -1.52927,2.919018 -3.80835,3.184438 -3.18782,0.371253 -3.87297,-0.693518 -10.51002,-16.333334 -3.90494,-9.201761 -7.57075,-16.730476 -8.14624,-16.730476 -0.98272,0 -2.10432,2.765318 -7.4359,18.333334 -4.84366,14.143358 -8.25512,18.363242 -10.37638,12.835326 z m 49.93026,0.891431 c -2.58682,-1.636205 -3.82242,-34.172215 -1.46501,-38.577066 1.46556,-2.7384348 2.34939,-2.8859497 15.15156,-2.52888 11.02721,0.3075639 13.59521,0.7569681 13.59521,2.379189 0,1.388819 -1.62981,2.101991 -5.33333,2.333753 -2.93334,0.183564 -7.91706,0.675385 -11.07495,1.092936 -5.68465,0.751651 -5.73756,0.807867 -5.33333,5.666247 l 0.40828,4.907064 10.35029,0.08363 c 11.51303,0.09301 15.55408,2.023444 11.10731,5.306002 -1.70178,1.256228 -5.22863,1.745145 -10.66667,1.478689 -10.77421,-0.527928 -11.4576,-0.17108 -11.4576,5.982848 0,6.592824 1.33476,7.122349 14.02056,5.562227 6.54097,-0.804423 10.42751,-0.765322 11.30659,0.113746 2.32482,2.324827 1.45544,5.797442 -1.66048,6.632475 -4.71763,1.264276 -26.787,0.934276 -28.94843,-0.432861 z M 349.13056,41 c -0.41908,-8.196833 -1.03584,-10.274873 -4.05626,-13.666667 -4.92775,-5.533621 -10.19255,-13.483129 -10.67319,-16.115793 -0.22061,-1.20844 0.58828,-2.8354575 1.79756,-3.6155941 3.32733,-2.1465562 8.07615,1.6402052 13.0016,10.3676151 2.31869,4.108503 4.78257,7.119724 5.47529,6.691603 0.69271,-0.428123 3.42573,-4.652025 6.07337,-9.386451 3.84848,-6.8817109 5.45938,-8.6080463 8.03248,-8.6080463 4.95735,0 4.03958,3.8533753 -3.2359,13.5862733 -5.92135,7.921376 -6.52914,9.437781 -7.35823,18.358413 -1.05932,11.397974 -1.35669,12.055314 -5.45359,12.055314 -2.92499,0 -3.13814,-0.571834 -3.60313,-9.666667 z m 29.54281,8 c 0.004,-0.916667 2.38846,-4.666667 5.29947,-8.333333 10.78115,-13.579747 10.40717,-11.899587 4.15765,-18.679522 -5.30052,-5.750384 -9.17006,-12.1092737 -8.01376,-13.1691303 1.12352,-1.0297963 37.05164,-1.7440066 38.63095,-0.7679394 0.90248,0.557769 1.28019,1.9541097 0.83932,3.1029807 -0.64468,1.679986 -3.57741,2.163048 -14.98299,2.467899 L 390.4226,14 l 6.09264,6.666667 c 5.85844,6.41041 7.28537,9.248193 5.15141,10.2448 -0.55,0.256862 -3.4,3.058176 -6.33333,6.225141 l -5.33333,5.75812 14.52705,-0.438315 c 12.21236,-0.368473 14.74245,-0.09684 15.87887,1.70474 0.74349,1.178679 0.97514,3.124607 0.51478,4.324283 -0.7252,1.889864 -3.60324,2.181231 -21.54553,2.181231 -15.68149,0 -20.70688,-0.404586 -20.70179,-1.666667 z m 78.167,-1.333333 c -1.17661,-4.390478 -0.97861,-37.384843 0.23581,-39.2962666 1.33443,-2.1003185 33.38208,-3.6779725 36.25714,-1.7848805 2.79506,1.8404206 3.78156,23.8884891 1.14364,25.5599361 -3.8308,2.427267 -5.14364,1.241577 -5.14364,-4.645456 0,-3.208333 -0.375,-7.708333 -0.83334,-10 l -0.83333,-4.166667 h -11.16667 c -7.97269,0 -11.20514,0.476714 -11.30121,1.666667 -0.074,0.916667 -0.0215,9.316667 0.1168,18.666667 l 0.25137,17 h -3.96132 c -2.98093,0 -4.16029,-0.742471 -4.76528,-3 z m 137.60405,1.687392 c -0.24444,-0.721935 -0.26361,-10.021935 -0.0425,-20.666667 l 0.40177,-19.3540587 h 3.26483 3.26482 V 30 50.666667 h -3.22222 c -1.77222,0 -3.42222,-0.590674 -3.66667,-1.312608 z m 64.84225,-0.0962 c -1.61572,-2.614291 0.52913,-40.3175855 2.35967,-41.4795398 3.41601,-2.1683447 3.07417,-2.4564719 18.1795,15.3229878 5.40423,6.360948 10.13599,11.56536 10.51502,11.56536 0.37902,0 0.39341,-5.653782 0.032,-12.563959 -0.69438,-13.2752012 0.0187,-16.3385913 3.4926,-15.0055108 1.82642,0.7008832 2.13452,3.7179048 2.13452,20.9028028 0,17.425657 -0.29088,20.195313 -2.19784,20.927081 -2.1401,0.821235 -8.30724,-4.926018 -16.14288,-15.043788 -1.65407,-2.13581 -5.09515,-6.283293 -7.64684,-9.216626 L 665.37298,19.333333 665.35311,35 c -0.0185,14.61218 -0.19399,15.666667 -2.60777,15.666667 -1.42339,0 -2.97979,-0.633964 -3.45867,-1.408808 z"
       id="path934" />
  </g>
</svg>
