<?xml version="1.0" encoding="UTF-8" standalone="no"?>
<!-- Created with Inkscape (http://www.inkscape.org/) -->

<svg
   version="1.1"
   id="svg12"
   width="394.66666"
   height="54.666668"
   viewBox="0 0 394.66666 54.666668"
   xmlns="http://www.w3.org/2000/svg"
   xmlns:svg="http://www.w3.org/2000/svg">
  <defs
     id="defs16" />
  <g
     id="g18">
    <path
       style="fill:#000000;stroke-width:1.33333"
       d="M 5.9225423,47.612277 C 5.5198311,46.562829 7.8539924,38.870746 11.109567,30.518762 14.365142,22.166777 17.868505,12.933334 18.894817,10 c 1.552281,-4.436624 2.530637,-5.3940472 5.818936,-5.69444 3.895036,-0.3558198 4.077621,-0.069451 12.47033,19.558698 4.748102,11.104454 8.159443,20.85267 7.708512,22.027774 -0.444896,1.159382 -2.299584,2.107969 -4.121526,2.107969 -3.311774,0 -3.87154,-0.805356 -8.522336,-12.261405 C 31.196467,33.14661 29.507641,31.903401 26.19451,31.281854 18.195114,29.781158 17.138993,30.589987 14.810874,40.000001 13.031955,47.19021 12.15457,48.739387 9.6607054,49.093517 7.9585857,49.33522 6.3371504,48.692729 5.9225423,47.612277 Z M 28.262742,24.023894 C 28.040584,23.04447 26.976814,20.13219 25.898809,17.55216 23.589826,12.025986 21.978514,13.050094 20.712277,20.848586 l -0.895508,5.515251 4.424948,-0.279587 c 2.907243,-0.183691 4.286408,-0.890369 4.021025,-2.060356 z m 23.737257,21.898518 c 0,-2.834208 4.709395,-10.635499 9.61186,-15.922411 4.080484,-4.400472 4.695347,-7.043316 1.889169,-8.120147 C 60.980844,20.912767 51.413158,6.8090642 52.52383,5.6983917 53.017395,5.2048269 61.524347,4.8236769 71.428167,4.8513919 89.204725,4.9011379 93.470857,5.874744 91.300418,9.3865882 90.580408,10.55159 86.61272,10.827981 77.149928,10.372315 67.794038,9.9217977 63.999999,10.179536 63.999999,11.265621 c 0,0.839585 2.4,3.870055 5.333333,6.734379 2.933333,2.864325 5.333333,6.037293 5.333333,7.051043 0,1.013751 -2.153953,3.741982 -4.786562,6.062736 -2.632611,2.320755 -5.389939,5.337229 -6.127397,6.703275 -1.276482,2.364518 -0.653944,2.460504 12.971337,2 12.42221,-0.419844 14.503899,-0.180444 15.764094,1.812915 2.910225,4.603356 -0.805631,5.677792 -21.217677,6.135064 -17.442169,0.390742 -19.270461,0.215922 -19.270461,-1.842621 z m 51.092081,1.054138 c -1.07232,-0.694712 -1.66804,-7.392829 -1.86757,-20.998329 L 100.93153,6.0000001 h 3.86757 c 3.75219,0 3.86756,0.1988765 3.86756,6.6666669 0,3.666667 0.6,6.945516 1.33334,7.286331 0.73333,0.340816 4.03333,-2.797336 7.33333,-6.97367 4.66981,-5.9099082 6.81289,-7.5991728 9.66667,-7.6196651 5.48936,-0.039417 4.54966,2.5712494 -3.58998,9.9736711 l -7.33062,6.666667 8.70091,9.810056 c 9.58514,10.806999 10.76267,15.191413 4.28087,15.939269 -3.21343,0.370759 -4.44579,-0.8616 -11.33333,-11.333333 L 110,24.666667 109.33333,35.98683 c -0.67339,11.434418 -1.98635,13.746297 -6.24125,10.98972 z m 37.39845,-0.95476 c -0.48795,-1.271558 1.94628,-8.098257 5.8592,-16.431876 3.68167,-7.841119 7.72747,-16.50658 8.99069,-19.25658 2.5108,-5.4659699 5.71395,-6.4288676 8.87088,-2.6666671 1.07687,1.2833333 5.46051,9.9626331 9.74143,19.2873341 6.49641,14.150521 7.50269,17.292321 6.08544,19 -2.92032,3.518767 -6.04565,2.387476 -7.94951,-2.877507 -0.9792,-2.707928 -4.32758,-10.357928 -7.44086,-17 L 158.98729,14 l -2.14655,4.666667 c -1.1806,2.566667 -4.1182,10.061428 -6.52801,16.655026 -4.34491,11.888301 -7.88596,15.745859 -9.8222,10.700097 z m 48.38693,0.978211 c -0.33729,-0.55 -0.8175,-10.3 -1.06714,-21.666667 l -0.4539,-20.6666672 4.25906,-0.4131322 4.25904,-0.413132 0.39608,9.0797994 0.39606,9.079799 10.33334,0.389418 10.33333,0.38942 V 13.300856 3.8228738 L 221,4.2447704 224.66666,4.6666668 V 25.181331 c 0,17.960723 -0.28592,20.695849 -2.29664,21.970033 -3.79562,2.405273 -5.49057,-0.857352 -5.60197,-10.783304 l -0.10139,-9.034726 -9.6268,-0.390941 c -9.39394,-0.381486 -9.64788,-0.306971 -10.49809,3.080534 -0.47921,1.909311 -0.54433,5.909122 -0.14472,8.888467 0.39961,2.979344 0.40956,6.243104 0.0221,7.252799 -0.73829,1.923972 -6.48389,2.560727 -7.54169,0.835808 z m 50.46422,-0.319827 c -0.50047,-0.809776 -0.72708,-9.032754 -0.50359,-18.273285 0.38869,-16.070868 0.28384,-16.846282 -2.41277,-17.843823 -3.63907,-1.3461807 -5.20898,-3.9213666 -3.16186,-5.1865555 1.8352,-1.13421 49.08948,-0.8013356 50.24476,0.3539403 1.33894,1.3389327 -0.91498,3.6028828 -3.58692,3.6028828 -1.42338,0 -2.6775,0.15 -2.78692,0.3333333 -0.10946,0.1833333 -0.55942,8.7333331 -1,19.0000001 -0.7983,18.602673 -0.81204,18.666667 -4.0072,18.666667 h -3.20614 l 0.2936,-18.879913 0.2936,-18.8799142 -11.08746,0.7257582 c -6.09809,0.399167 -11.38745,0.997833 -11.75412,1.330369 C 246.3,11.962171 246,20.13154 246,29.78379 c 0,16.956354 -0.0972,17.563388 -2.87419,17.959126 -1.5808,0.225269 -3.28367,-0.252964 -3.78413,-1.062742 z m 53.60345,0.487182 C 292.4253,46.647533 292,37.603393 292,27.069266 c 0,-16.15996 0.32654,-19.2782645 2.08962,-19.9548224 1.1493,-0.4410249 2.59196,-0.2721941 3.20595,0.3751798 0.61397,0.6473739 1.32364,9.8770436 1.57704,20.5103776 0.44377,18.622015 0.36058,19.347667 -2.26082,19.722911 -1.49683,0.214267 -3.14683,-0.03573 -3.66666,-0.555556 z m 22.1196,-1.780043 c -8.25807,-5.035236 -11.46211,-16.674002 -7.79752,-28.324674 2.75316,-8.7530148 7.7107,-12.5129369 17.64526,-13.3825958 5.6611,-0.495565 8.04912,0.021721 13.19115,2.8574238 5.10264,2.8139775 6.74867,4.675495 8.78788,9.938339 3.77821,9.750895 0.39849,22.360604 -7.70079,28.731494 -4.84433,3.810549 -18.0106,3.908788 -24.12598,0.180013 z m 15.9855,-2.834261 c 5.12203,-2.333756 7.70824,-8.16158 7.76975,-17.50855 0.0647,-9.825424 -1.49349,-14.630841 -5.69917,-17.576617 -6.45312,-4.5199467 -13.99182,-1.5088238 -17.32172,6.918694 -1.97526,4.999097 -1.46064,17.11114 0.92285,21.72031 1.71936,3.32488 7.39281,7.678968 10.21532,7.839728 0.51549,0.02936 2.36633,-0.597744 4.11297,-1.393565 z m 38.05758,4.446949 c -0.124,-0.55 -0.28506,-5.022109 -0.35783,-9.93802 -0.11333,-7.658664 -0.62555,-9.471726 -3.57819,-12.666667 -1.89524,-2.050756 -5.32038,-6.516655 -7.61145,-9.924222 -3.53323,-5.2550752 -3.87635,-6.4356017 -2.26033,-7.7767672 3.98821,-3.3099233 6.41833,-1.3365347 17.20621,13.9723422 1.81957,2.582118 1.95759,2.524611 4.35313,-1.813751 5.64364,-10.2207314 7.93108,-12.8572984 11.51704,-13.2748123 5.346,-0.6224366 4.5979,2.0201009 -3.34684,11.8220233 -6.86941,8.475212 -6.97354,8.738343 -7.18402,18.152262 -0.11747,5.253813 -0.61618,10.203813 -1.10824,11 -1.0058,1.627428 -7.28039,1.99555 -7.62948,0.447612 z"
       id="path1679" />
  </g>
</svg>
