<?xml version="1.0" encoding="UTF-8" standalone="no"?>
<!-- Created with Inkscape (http://www.inkscape.org/) -->

<svg
   version="1.1"
   id="svg32"
   width="37.333332"
   height="52"
   viewBox="0 0 37.333332 52"
   xmlns="http://www.w3.org/2000/svg"
   xmlns:svg="http://www.w3.org/2000/svg">
  <defs
     id="defs36" />
  <g
     id="g38">
    <path
       style="fill:#000000;stroke-width:1.33333"
       d="M 9.2090125,31.666667 C 9.1406362,23.416667 8.8975449,14.116905 8.6688096,11.00053 8.4400742,7.8841555 8.8279452,4.9790135 9.530745,4.5446593 11.37911,3.4023071 30.666666,12.167799 30.666666,14.150165 c 0,1.794236 -6.84733,7.183168 -9.127139,7.183168 -3.777605,0 -2.241598,2.734372 2.946948,5.246106 6.710361,3.248429 10.835557,7.281468 9.559589,9.346025 -0.485007,0.784759 -2.793784,2.387789 -5.130614,3.562292 -4.084006,2.05264 -4.159464,2.042364 -1.945699,-0.264948 2.195481,-2.288257 2.008597,-2.609967 -4,-6.885755 l -6.303085,-4.485348 -1.018371,6.944666 c -0.560102,3.819566 -0.687204,7.275832 -0.282445,7.68059 0.404757,0.404759 2.513024,0.06515 4.685036,-0.7547 5.683284,-2.1452 4.88184,0.518902 -0.880385,2.926512 -9.6744,4.042223 -9.8219844,3.849887 -9.9614885,-12.982106 z M 22.979582,18.133728 c 0.53877,-0.806884 0.98877,-1.844269 1,-2.305301 0.02435,-0.999646 -7.873125,-4.413827 -8.499773,-3.674563 -0.239078,0.282041 -0.155736,2.749607 0.185204,5.483477 0.57371,4.600387 0.83276,4.858663 3.477437,3.467062 1.571652,-0.826988 3.298361,-2.163791 3.837132,-2.970675 z"
       id="path1401" />
  </g>
</svg>
