<?xml version="1.0" encoding="UTF-8" standalone="no"?>
<!-- Created with Inkscape (http://www.inkscape.org/) -->

<svg
   version="1.1"
   id="svg62"
   width="424"
   height="56"
   viewBox="0 0 424 56"
   xmlns="http://www.w3.org/2000/svg"
   xmlns:svg="http://www.w3.org/2000/svg">
  <defs
     id="defs66" />
  <g
     id="g68">
    <path
       style="fill:#000000;stroke-width:1.33333"
       d="m 239,51.116959 c -2.62991,-1.06119 -2.09229,-3.50354 5.03827,-22.88881 C 252.31127,5.7370661 252.16301,6 256.57083,6 c 3.38948,0 4.15438,1.2598529 12.33628,20.318729 4.7975,11.1753 8.37485,21.2253 7.94966,22.333334 C 276.00971,50.85946 268,51.520807 268,49.383351 c 0,-0.705824 -1.25413,-4.635303 -2.78697,-8.732175 l -2.78698,-7.448857 -6.8786,0.398841 -6.8786,0.39884 -2.00109,7.333333 C 243.84008,51.695804 243.02185,52.739815 239,51.116959 Z m 21,-24.11726 c 0,-0.963608 -0.96895,-3.982744 -2.15323,-6.709191 l -2.15321,-4.957175 -1.78664,4 c -1.97399,4.41944 -2.3608,7.768343 -1.04881,9.080332 C 254.37233,29.927892 260,28.813715 260,26.999699 Z m 79.80269,23.583048 c -1.79514,-1.004611 -2.16577,-4.550495 -2.36674,-22.643148 L 337.19765,6.4875916 341.59883,6.9104624 346,7.3333333 346.66667,16.666667 347.33333,26 357,26.171304 l 9.66667,0.171305 v -9.682462 c 0,-8.8188162 0.25849,-9.7500621 2.89805,-10.4403218 1.59393,-0.4168221 3.39393,-0.4513908 4,-0.076819 0.60607,0.3745711 1.10195,10.1721618 1.10195,21.7724228 0,17.041031 -0.38082,21.407434 -1.98303,22.737146 -4.16956,3.460429 -6.01697,0.626358 -6.01697,-9.230483 0,-12.040297 -0.1012,-12.097911 -19,-10.822891 -0.55,0.03711 -1,4.246355 -1,9.353887 0,7.531047 -0.44758,9.525953 -2.36776,10.553611 -1.41291,0.756162 -3.22612,0.78683 -4.49622,0.07605 z m 60.86398,-1.80045 c -18.7048,-3.707912 -19.33334,-3.971756 -19.33334,-8.11563 0,-2.073014 0.91776,-3.718934 2.33334,-4.184596 1.28333,-0.422164 4.22401,-1.603334 6.53484,-2.624822 C 392.51233,32.835763 395.06233,32 395.86817,32 c 0.80584,0 1.46516,-0.520935 1.46516,-1.157633 0,-0.636698 -3.63497,-2.177552 -8.0777,-3.424122 -7.8201,-2.194204 -8.0646,-2.397836 -7.66667,-6.38487 0.40788,-4.086772 0.53896,-4.152438 17.07771,-8.55523 19.62278,-5.2238009 20,-5.2586687 20,-1.848725 0,2.655338 -2.01711,3.475653 -19.80126,8.052773 -3.19069,0.821191 -5.40528,1.889047 -4.92132,2.373015 0.48398,0.483968 4.29454,2.153416 8.46792,3.709884 4.1734,1.556469 7.76114,3.712837 7.97278,4.791928 0.25069,1.278292 -2.53707,3.275205 -8,5.730507 L 394,39.056048 l 6,1.232124 c 14.90949,3.061721 19.33905,4.626721 19.79785,6.994729 0.40835,2.107622 -1.94084,4.916818 -3.79785,4.541542 -0.36667,-0.07409 -7.26667,-1.443063 -15.33333,-3.042146 z M 134,49.040891 c -2.93333,-0.632456 -10.73333,-2.175388 -17.33333,-3.428739 -11.34728,-2.154865 -12.02242,-2.472803 -12.41221,-5.8451 -0.37659,-3.258105 0.28591,-3.820832 7.66666,-6.511988 C 116.36451,31.634927 120,29.899327 120,29.398176 c 0,-0.501151 -3.23497,-1.930916 -7.18881,-3.177256 -15.048718,-4.743691 -13.213611,-9.653459 5.45823,-14.603319 20.77803,-5.5082047 23.06391,-5.7586842 23.06391,-2.5272669 0,2.1690279 -1.55398,3.1643649 -7.66666,4.9105629 -4.21667,1.204566 -10.28996,2.937636 -13.4962,3.85127 l -5.82953,1.66115 6.4962,2.334991 c 11.21113,4.029725 12.49619,4.712037 12.49619,6.634916 0,1.040933 -3.40751,3.220181 -7.66666,4.903151 -10.5294,4.160609 -10.98295,4.933269 -3.49419,5.95267 11.69679,1.592214 18.44155,3.910562 18.94233,6.510976 0.69834,3.626155 -1.18289,4.469852 -7.11481,3.19087 z m 14.64143,-1.374224 c -0.40851,-1.65 -0.56994,-11.1 -0.35875,-21 L 148.66667,8.6666667 H 152 h 3.33333 l 0.22266,18.0000003 c 0.26725,21.605725 -0.0875,24 -3.55599,24 -1.60379,0 -2.90321,-1.160692 -3.35857,-3 z m 18.42557,1.9423 c -1.06361,-0.676104 -1.91456,-8.075159 -2.53931,-22.079423 l -0.93962,-21.0625563 4.5393,0.4331728 4.5393,0.4331728 L 172.26184,15 c -0.25077,4.749143 0.13107,7.666667 1.00327,7.666667 0.77445,0 3.95662,-3.584039 7.07149,-7.964531 4.49063,-6.3152463 6.4064,-7.9718752 9.25137,-7.9999997 6.4701,-0.063961 5.87215,2.7918974 -2.14748,10.2565477 -8.59412,7.999379 -8.7321,6.5226 1.64256,17.579927 6.88606,7.339164 8.94714,11.681824 6.78235,14.290238 -2.75957,3.325079 -7.61355,2.192418 -9.94767,-2.321256 -1.1829,-2.28749 -4.3483,-7.223654 -7.03424,-10.969252 L 174,28.728164 l -0.40059,9.247 c -0.4762,10.992691 -2.33454,14.302272 -6.53241,11.633803 z m 38.19689,-2.45827 c -0.73522,-1.933784 -1.17037,-11.683784 -0.967,-21.666666 l 0.36978,-18.1506977 11.12922,-0.3893444 c 11.9709,-0.418789 14.19431,0.4364884 16.43147,6.3206741 3.51543,9.246292 -2.49705,16.06867 -14.16115,16.06867 H 212 v 9.857348 c 0,7.758626 -0.44904,10.02966 -2.10905,10.666667 -3.08084,1.182232 -3.16786,1.131333 -4.62706,-2.706651 z m 16.5543,-23.999182 c 6.17944,-6.179447 3.21742,-13.8181817 -5.35818,-13.8181817 H 212 V 18 c 0,8.222223 0.16161,8.666667 3.15152,8.666667 1.73333,0 4.73333,-1.581819 6.66667,-3.515152 z m 80.06485,24.190502 c -0.48132,-1.917729 -0.58847,-5.404208 -0.23811,-7.747732 0.35036,-2.343524 0.27358,-9.022482 -0.17062,-14.84213 L 300.66667,14.170977 292,14.085488 c -8.33276,-0.0822 -8.66667,-0.213915 -8.66667,-3.418821 V 7.3333333 L 307.09681,6.96884 330.86031,6.6043465 330.43015,9.6355067 C 330.03792,12.399426 329.20652,12.701426 321,13.06092 c -5.74437,0.251638 -9.08311,0.975109 -9.22973,2 -0.1264,0.88316 -0.27636,9.105747 -0.33334,18.272413 L 311.33333,50 l -4.28758,0.414399 c -3.66712,0.35443 -4.41423,-0.09019 -5.16271,-3.072382 z M 4.8369961,47.296411 C 3.6466885,44.194519 3.7950424,5.6111751 5,4.9029657 5.55,4.5797053 13.598156,3.8868695 22.884792,3.3633304 42.776307,2.2419356 41.980063,1.6746284 43.030191,17.716484 43.563541,25.864005 43.277173,28.532351 41.700183,30.109341 38.178564,33.63096 36.687789,31.423455 36,21.668637 c -0.366667,-5.200381 -0.969984,-9.75657 -1.340705,-10.124865 -0.370722,-0.368295 -5.685564,-0.32613 -11.810763,0.0937 l -11.136723,0.763328 0.477429,18.132932 0.477429,18.132934 -3.4963375,0.40546 C 6.8920812,49.336329 5.3823912,48.717687 4.8369961,47.296411 Z M 58.018239,46.4428 C 51.205439,41.083851 48.752732,28.945283 52.069501,17.002196 54.432716,8.4926869 58.479987,5.0121117 66.815571,4.3208603 73.489236,3.767428 74.441905,4.0534824 78.47632,7.8221889 c 2.416339,2.2571991 3.993941,4.7502461 3.505783,5.5401041 -0.555607,0.898988 -2.065794,0.164774 -4.037835,-1.963094 -5.408011,-5.8353402 -13.852395,-4.0725595 -16.470689,3.438286 -2.559431,7.341988 -2.176528,7.82731 6.193088,7.849599 9.258702,0.02465 12.324436,1.510695 10.194698,4.941627 -1.104144,1.77874 -3.553633,2.471364 -9.802457,2.77177 l -8.330489,0.400482 0.863368,4.932852 c 0.895622,5.117142 6.007681,10.932852 9.61007,10.932852 1.129235,0 3.795778,-1.240856 5.92565,-2.757459 C 78.257377,42.392605 80,41.751749 80,42.485083 c 0,0.733333 -1.742623,2.574189 -3.872493,4.090792 -5.196703,3.700377 -13.311634,3.640745 -18.109268,-0.13308 z m 32.300901,1.890533 c -0.277697,-0.55 -0.669776,-9.764061 -0.871285,-20.47569 -0.327294,-17.397901 -0.121544,-19.5696447 1.928546,-20.3563381 5.061991,-1.9424685 5.998747,1.2770056 5.869954,20.1740701 -0.06743,9.892284 -0.439627,18.812169 -0.827122,19.821965 -0.7412,1.931536 -5.235933,2.547521 -6.100093,0.835993 z"
       id="path1449" />
  </g>
</svg>
