<?xml version="1.0" encoding="UTF-8" standalone="no"?>
<!-- Created with Inkscape (http://www.inkscape.org/) -->

<svg
   version="1.1"
   id="svg82"
   width="257.33334"
   height="57.333332"
   viewBox="0 0 257.33334 57.333332"
   xmlns="http://www.w3.org/2000/svg"
   xmlns:svg="http://www.w3.org/2000/svg">
  <defs
     id="defs86" />
  <g
     id="g88">
    <path
       style="fill:#000000;stroke-width:1.33333"
       d="m 222.2269,52.44912 c -2.54416,-2.54416 -0.19659,-5.471066 7.63677,-9.521376 4.68627,-2.423074 9.50378,-5.492112 10.70558,-6.820085 2.0502,-2.265454 1.95604,-2.504056 -1.52542,-3.865376 -2.04077,-0.797984 -6.1906,-2.083252 -9.22184,-2.856152 -3.03124,-0.772898 -6.31828,-2.377554 -7.30452,-3.565902 -1.55654,-1.875532 -1.18118,-2.676531 2.84468,-6.070393 8.61311,-7.260945 20.25559,-14.4165028 23.45646,-14.4165028 1.74977,0 3.14924,0.45 3.10993,1 -0.0393,0.55 -4.53931,3.8338778 -10,7.2975048 -5.46069,3.463628 -9.92853,6.890503 -9.92853,7.615275 0,0.724773 2.55,1.961924 5.66666,2.749224 19.62035,4.956289 20.05043,7.244609 3.36464,17.902369 -6.80054,4.343738 -13.61253,8.695843 -15.13774,9.671343 -1.5252,0.9755 -3.1752,1.371532 -3.66667,0.880071 z M 4.0408797,50.720145 C 2.3552286,49.654079 2.5224481,48.307582 5.2388319,41.073896 6.9752218,36.449919 10.256826,27.566666 12.531286,21.333333 17.625923,7.3710836 18.07638,6.6666665 21.910263,6.6666665 c 2.487107,0 3.895414,1.6940358 7.254644,8.7265335 2.292635,4.799593 4.168427,8.981811 4.168427,9.293819 0,0.312007 1.406362,3.735067 3.125248,7.6068 5.939203,13.377849 6.667327,15.780272 5.221019,17.22658 -0.754621,0.754621 -2.768869,1.171241 -4.476107,0.92582 -2.427192,-0.348917 -3.814932,-2.263393 -6.364012,-8.779553 l -3.259945,-8.333333 h -7.02748 -7.027481 l -1.571636,7.666666 c -0.8644,4.216667 -1.788599,8.416667 -2.0537751,9.333333 -0.5672733,1.960963 -3.1043791,2.128484 -5.8582852,0.386813 z M 23.613914,22.650674 c -3.018687,-7.145026 -4.043811,-6.839216 -5.640524,1.682659 l -0.936832,5 h 4.700349 4.700348 z m 86.586466,27.660725 c -1.98325,-1.450191 -2.20711,-4.032365 -1.82271,-21.024354 0.24102,-10.654115 0.89006,-20.1022004 1.4423,-20.9957475 0.55224,-0.893547 2.19963,-1.624631 3.66086,-1.624631 2.51879,0 2.64527,0.8346531 2.43512,16.0693625 -0.12192,8.838149 0.11424,16.405263 0.52478,16.815811 0.41055,0.410548 3.39113,-1.420664 6.62352,-4.069361 6.54689,-5.364682 10.26909,-6.176032 10.26909,-2.238413 0,2.398471 -4.20678,6.365437 -16.10268,15.184717 -3.97956,2.950337 -5.14374,3.262088 -7.03028,1.882616 z m 86.74212,0.758981 c -0.34937,-0.588709 -2.28411,-5.270381 -4.29943,-10.403714 -2.01532,-5.133333 -5.68445,-13.696493 -8.15364,-19.029245 -5.68992,-12.2886542 -5.73287,-13.9318781 -0.34984,-13.3885659 3.87467,0.3910743 4.48836,1.2475275 9.58984,13.3835239 2.99764,7.131143 5.76959,12.646384 6.15988,12.256092 0.3903,-0.390292 2.56791,-6.224862 4.83915,-12.965713 3.72604,-11.0585789 4.47844,-12.2973139 7.70053,-12.6779879 1.96406,-0.2320431 3.57102,0.2162504 3.57102,0.9962078 0,1.6235841 -12.80722,37.1030181 -14.44372,40.0129961 -1.3078,2.325486 -3.74278,3.284115 -4.61379,1.816406 z M 61.829268,48.702538 c -0.456133,-1.188667 -0.413085,-6.933011 0.09567,-12.76521 l 0.924997,-10.603995 h -7.928373 c -5.31484,0 -8.459551,-0.640032 -9.539751,-1.941594 -2.766308,-3.333197 -0.204447,-4.725073 8.696883,-4.725073 h 8.587977 v -3.89095 c 0,-5.6257115 1.268658,-8.1090495 4.142652,-8.1090495 2.132471,0 2.524015,1.0117609 2.524015,6.5221225 0,5.844945 0.346092,6.608987 3.333334,7.358736 1.833333,0.460137 4.683333,0.519211 6.333333,0.13128 3.933439,-0.924801 6.954955,1.111436 5.864792,3.952356 -0.671646,1.750282 -2.302971,2.156882 -7.538715,1.87899 -3.674876,-0.195048 -7.2487,0.212476 -7.941833,0.90561 -0.693132,0.693132 -1.43814,6.051634 -1.655575,11.907782 C 67.398183,48.224539 66.94993,50.0443 64.99597,50.41742 63.710419,50.662904 62.285403,49.89121 61.829268,48.702543 Z m 29.997385,-6.29608 C 91.555329,37.782906 91.633336,27.999999 92.000002,20.666666 92.625537,8.1559763 92.848856,7.3074265 95.619541,6.913441 c 4.083335,-0.5806413 4.553079,2.2191211 4.097146,24.419892 l -0.383351,18.666666 -3.506683,0.406458 c -3.415284,0.395866 -3.519541,0.187351 -4,-7.999999 z m 50.082457,6.779808 C 140.7194,47.261274 140.1889,28.286979 141.03203,17.81627 l 0.65897,-8.1837277 13.15451,0.1071 C 162.08048,9.7985472 168,10.310115 168,10.876459 c 0,2.089456 -5.34533,3.790207 -11.91234,3.790207 -3.71488,0 -6.80023,0.45 -6.85634,1 -0.0561,0.55 -0.31249,2.114579 -0.56974,3.476843 -0.87531,4.635081 0.74816,6.189269 6.48108,6.204498 8.64472,0.02296 15.52401,1.507686 15.52401,3.350464 0,2.511519 -3.21657,3.301528 -13.44239,3.301528 H 148 v 6.090665 6.090667 l 12.01086,-0.34648 c 12.38866,-0.357377 15.73617,0.759916 14.20804,4.742192 -0.66358,1.729249 -3.43988,2.089622 -16.09836,2.089622 -9.77247,0 -15.6269,-0.534617 -16.21143,-1.480399 z"
       id="path1303" />
  </g>
</svg>
