<?xml version="1.0" encoding="UTF-8" standalone="no"?>
<!-- Created with Inkscape (http://www.inkscape.org/) -->

<svg
   version="1.1"
   id="svg22"
   width="405.33334"
   height="56"
   viewBox="0 0 405.33334 56"
   xmlns="http://www.w3.org/2000/svg"
   xmlns:svg="http://www.w3.org/2000/svg">
  <defs
     id="defs26" />
  <g
     id="g28">
    <path
       style="fill:#000000;stroke-width:1.33333"
       d="M 5.7417685,51.141187 C 5.2791056,49.935507 5.9557504,46.185507 7.2454236,42.807853 8.5350969,39.430201 11.78282,30.366667 14.462586,22.666667 18.956046,9.7552252 19.62257,8.6336073 23.03478,8.2414891 c 3.421178,-0.3931488 4.0338,0.3099338 8.132473,9.3333339 2.43792,5.367181 5.195732,12.15851 6.128473,15.091844 0.93274,2.933333 2.905753,7.534388 4.384473,10.224565 C 44.843865,48.646764 44.035909,52 39.485458,52 36.791994,52 35.830702,50.891509 33.993142,45.666667 30.374884,35.378669 30.362687,35.367473 22.302998,34.936675 L 14.88202,34.540016 13.296504,42.270008 C 11.183817,52.57016 7.8102555,56.531577 5.7417685,51.141187 Z M 27.700176,30.001145 c 0.201763,-0.159712 -0.863316,-3.160226 -2.366842,-6.667812 -1.503527,-3.507585 -3.059555,-6.051557 -3.45784,-5.65327 -0.398286,0.398285 -1.543448,3.446458 -2.544807,6.773718 -1.379588,4.584024 -1.438296,6.197316 -0.242336,6.659466 1.363251,0.526794 7.550843,-0.27225 8.611825,-1.112102 z M 164.523,51.439728 c -0.39965,-1.041483 1.67612,-8.991483 4.61283,-17.666667 2.93671,-8.675184 6.00565,-18.323061 6.81988,-21.439728 1.36952,-5.2421846 1.81449,-5.6666663 5.94025,-5.6666663 3.53882,0 4.59736,0.6195401 5.12575,3 0.36625,1.6500003 4.02007,11.0579523 8.1196,20.9065583 C 202.57183,48.424111 203.04364,52 197.96844,52 c -1.99114,0 -6.45836,-7.124744 -7.78741,-12.420115 -0.96097,-3.828828 -5.15631,-6.246552 -10.83925,-6.246552 -4.56219,0 -6.8896,2.99754 -7.97192,10.267274 -1.27679,8.575836 -4.95023,12.781653 -6.84686,7.839121 z m 22.14367,-21.270237 c 0,-1.854678 -5.68965,-12.836158 -6.6506,-12.836158 -1.28161,0 -3.92085,10.672768 -3.04987,12.333334 0.51828,0.988109 9.70047,1.464068 9.70047,0.502824 z M 58.268316,51.157204 c -0.51424,-0.51424 -0.934982,-8.934981 -0.934982,-18.71276 V 14.666667 h -3.190681 c -3.235791,0 -5.763786,-3.591666 -3.85303,-5.474217 1.27987,-1.2609764 50.533847,-2.1467631 51.749937,-0.930674 1.698,1.6980063 -0.87622,6.242191 -3.769264,6.653751 -2.822709,0.401553 -2.962896,1.118029 -3.603628,18.417806 -0.625514,16.88889 -0.831276,18 -3.333333,18 -2.502058,0 -2.707819,-1.11111 -3.333334,-18 l -0.666666,-18 -11.628707,-0.38469 -11.628706,-0.38469 -0.371294,18.36813 c -0.309872,15.329585 -0.712899,18.433636 -2.436312,18.764116 -1.13576,0.217793 -2.48576,-0.02476 -3,-0.538995 z M 128.6421,49 c -0.33414,-0.916667 -0.76531,-8.866667 -0.95815,-17.666667 l -0.35061,-16 -9,-0.394253 c -8.44304,-0.369855 -9,-0.587939 -9,-3.524015 0,-1.7213687 0.94907,-3.4939549 2.10904,-3.9390799 1.15998,-0.4451251 11.65998,-0.8093184 23.33334,-0.8093184 20.4447,0 21.22428,0.099486 21.22428,2.708513 0,3.3329183 -1.2355,3.8121923 -11.33333,4.3963883 l -8,0.462829 0.43355,16.292098 c 0.45514,17.103684 -0.34472,20.140172 -5.30532,20.140172 -1.39989,0 -2.81865,-0.75 -3.1528,-1.666667 z m 114.97949,-0.06295 c -0.36504,-0.951286 0.0992,-3.801286 1.03176,-6.333333 0.93252,-2.532047 4.12568,-11.475195 7.09593,-19.873663 4.2117,-11.908721 6.06044,-15.5140946 8.39884,-16.3791221 3.61359,-1.3367546 5.2903,0.2146459 8.26684,7.6490641 1.17443,2.933333 4.53104,11.21367 7.45914,18.40075 2.92809,7.18708 4.9779,13.968803 4.55514,15.070496 -1.55213,4.0448 -5.95498,1.332746 -8.88837,-5.475021 C 267.35319,32.277455 267.05371,32 260.75124,32 c -6.69294,0 -8.56621,1.7208 -9.6679,8.881027 -0.43319,2.815436 -1.32527,6.168973 -1.98239,7.452306 -1.40141,2.736899 -4.52856,3.081452 -5.47936,0.60372 z M 265.43888,27.33333 C 264.07588,22.719465 260.8905,16 260.06628,16 259.1203,16 256,24.93616 256,27.645369 c 0,0.734791 2.21238,1.265179 4.91639,1.17864 2.704,-0.08653 4.73913,-0.757342 4.52249,-1.490676 z m -53.90742,20.987224 c -0.34427,-0.557026 -1.04372,-9.268385 -1.55434,-19.358574 -0.69381,-13.710054 -0.51428,-18.844794 0.7105,-20.3205574 2.28656,-2.7551276 18.3369,-2.7093691 22.29581,0.063564 3.20139,2.2423404 5.11503,9.4505184 3.69593,13.9216654 -0.92984,2.929682 -9.3127,7.851105 -10.8147,6.349109 -0.45952,-0.459525 0.49333,-2.985596 2.11746,-5.613492 5.01392,-8.112701 0.20783,-15.7042821 -8.55046,-13.5060907 C 216.59782,10.567432 216,11.496964 216,15.192069 c 0,9.286535 1.39886,12.796096 5.16667,12.962599 2.75905,0.12192 2.93547,0.290456 0.83333,0.796087 -4.55661,1.096009 -5.28154,2.84106 -4.88142,11.75046 0.35389,7.880422 0.15476,8.632118 -2.28678,8.632118 -1.47093,0 -2.95609,-0.455749 -3.30034,-1.012776 z m 79.06118,-5.987224 c -0.0407,-3.85 -0.19072,-12.7 -0.33333,-19.666666 C 290.00932,10.455564 290.1079,9.9846763 293,9.573932 c 2.99724,-0.4256761 3,-0.4075967 3,19.666667 0,19.203845 -0.11797,20.092734 -2.66666,20.092734 -2.31864,0 -2.67634,-0.913565 -2.7407,-7 z m 15.24737,5.06385 c -1.30651,-3.404718 0.81566,-4.730516 7.57202,-4.730516 7.03363,0 8.61794,-1.989999 4.38144,-5.503407 -3.26013,-2.703693 -5.79346,-9.665283 -5.79346,-15.920435 0,-11.3954669 13.99397,-18.8245275 26.23405,-13.9270191 11.84533,4.7395641 13.20044,19.5509871 2.79239,30.5209531 -2.00214,2.110217 -3.31672,4.360217 -2.92132,5 0.39541,0.639782 3.68352,1.163241 7.3069,1.163241 5.69908,0 6.58798,0.359803 6.58798,2.666667 0,2.429629 -0.8889,2.666666 -10,2.666666 -7.11167,0 -9.9997,-0.481388 -9.99895,-1.666666 5.7e-4,-0.916667 1.80057,-5.47054 4,-10.119718 4.82973,-10.209177 5.28899,-18.326092 1.28033,-22.628868 -3.14505,-3.375825 -9.9466,-3.844187 -13.77032,-0.94824 -3.53008,2.673559 -4.16162,11.778646 -1.48181,21.363492 4.31303,15.426307 4.91571,14 -5.91567,14 -7.10198,0 -9.71993,-0.493378 -10.27358,-1.93615 z m 56.61797,-9.632751 c -0.11479,-5.737104 -0.37109,-12.231099 -0.56959,-14.431099 -0.19848,-2.2 -0.0272,-6.85 0.38048,-10.333333 0.6743,-5.7604751 1.05747,-6.332206 4.23624,-6.3208693 2.756,0.00983 5.27076,2.229025 11.89455,10.4965503 4.6198,5.766248 9.95061,11.910639 11.84624,13.654203 L 393.69249,34 392.78521,20.333333 391.87791,6.6666667 h 3.39439 3.39437 V 26.587977 c 0,13.560804 -0.48897,20.22351 -1.53146,20.867807 -1.44122,0.890723 -10.28886,-7.567905 -22.9152,-21.907688 -2.80168,-3.181881 -5.40896,-5.470241 -5.79396,-5.085247 -0.385,0.384995 -0.78835,6.578992 -0.89635,13.764438 -0.16967,11.288641 -0.51352,13.125872 -2.52969,13.516345 -2.04823,0.396683 -2.35884,-0.822649 -2.54203,-9.9792 z"
       id="path2137" />
  </g>
</svg>
