<?xml version="1.0" encoding="UTF-8" standalone="no"?>
<!-- Created with Inkscape (http://www.inkscape.org/) -->

<svg
   version="1.1"
   id="svg2"
   width="398.66666"
   height="57.333332"
   viewBox="0 0 398.66666 57.333332"
   xmlns="http://www.w3.org/2000/svg"
   xmlns:svg="http://www.w3.org/2000/svg">
  <defs
     id="defs6" />
  <g
     id="g8">
    <path
       style="fill:#000000;stroke-width:1.33333"
       d="m 147.09658,50.563251 c -1.13054,-1.130552 0.0107,-5.788921 4.5035,-18.372249 3.30993,-9.271719 6.34064,-18.057669 6.7349,-19.524336 1.11474,-4.1468574 3.05978,-5.9999995 6.29756,-5.9999995 3.1833,0 5.77004,4.8078915 16.01832,29.7727995 3.81444,9.29201 4.50162,12.17188 3.26106,13.666666 -3.34908,4.035384 -6.20303,2.127069 -9.63044,-6.439466 l -3.33412,-8.333333 h -7.13331 -7.13331 l -2.11884,7.999999 c -2.10542,7.949381 -4.46281,10.232427 -7.46532,7.229919 z M 168,27.957174 c 0,-0.756887 -0.91378,-3.563117 -2.0306,-6.236067 -2.33315,-5.584003 -3.98995,-4.774647 -5.34736,2.612226 -0.90104,4.903288 -0.83858,5 3.22957,5 2.28161,0 4.14839,-0.619271 4.14839,-1.376159 z m 25.66666,23.153935 C 192.43378,50.617956 192,45.07034 192,29.796154 V 9.1478639 l 3,0.4260679 c 2.96296,0.420807 3,0.6798822 3,20.9816232 0,20.113889 -0.42286,22.119745 -4.33334,20.555554 z m 61.30559,-0.672194 c -1.14868,-1.148683 -1.63892,-7.541565 -1.63892,-21.372249 V 9.3333331 h 3.17407 c 3.09137,0 3.19224,0.3560463 3.8718,13.6666659 1.07382,21.03348 0.63818,28.21284 -1.74028,28.679761 -1.11527,0.218939 -2.76527,-0.339441 -3.66667,-1.240845 z m 11.4698,-1.732764 c -1.85819,-4.078272 0.57832,-7.703383 4.7746,-7.103828 1.95877,0.279863 2.91373,1.539836 3.22345,4.253 0.72307,6.334158 -5.41421,8.521733 -7.99805,2.850828 z m 102.22461,2.34068 c -1.46667,-0.358512 -4.61667,-2.121247 -7,-3.917191 l -4.33333,-3.265352 V 28.694049 c 0,-15.970825 0.47064,-17.378039 6.97664,-20.8599429 1.52278,-0.8149711 6.62188,-1.5610421 11.3313,-1.6579358 8.24938,-0.169726 8.72666,0.00281 13.04708,4.7166907 12.90692,14.082281 5.534,38.74181 -12.05765,40.328122 -2.91356,0.262726 -6.49737,0.184358 -7.96404,-0.174152 z m 13.78717,-9.008147 c 3.46039,-3.941157 4.05372,-5.672572 3.99802,-11.666666 -0.13474,-14.497994 -4.40051,-21.0386849 -13.72124,-21.0386849 -11.42116,0 -15.60343,24.4221249 -5.75736,33.6197309 5.55233,5.186656 10.37385,4.901868 15.48058,-0.91438 z M 8.0094649,48.009464 C 6.1023267,46.102326 5.6613256,42.884182 5.4742728,29.509251 5.3430202,20.12423 5.8460183,12.200062 6.6708266,10.658893 7.9467437,8.2748202 9.4714189,7.9999998 21.422092,7.9999998 c 10.782918,0 13.479047,0.3929292 14.117805,2.0575042 1.123912,2.928867 0.693541,3.092374 -8.907323,3.384061 -12.627854,0.383651 -13.299241,0.685621 -13.299241,5.981619 0,2.705645 0.681395,4.628113 1.666667,4.702287 0.916666,0.06901 5.866666,0.219011 11,0.333334 9.011237,0.200688 9.333333,0.322896 9.333333,3.541194 0,3.283586 -0.162592,3.333334 -10.894445,3.333334 H 13.544444 l -0.571107,4.666666 c -0.991383,8.100857 -0.637088,8.299573 13.013465,7.298941 11.014704,-0.807416 12.3854,-0.656145 13.196028,1.456318 1.491744,3.88742 -0.766812,4.650961 -15.13727,5.117396 -11.628393,0.377431 -14.0803606,0.09255 -16.0360951,-1.86319 z m 44.7219581,0.194568 c -0.457021,-1.439948 -0.475975,-9.793409 -0.04212,-18.563246 l 0.78883,-15.94516 -4.172721,-0.834544 C 46.259266,12.251853 45.2547,11.392988 45.584604,9.6799356 c 0.41293,-2.1441714 2.693245,-2.3466024 26.433654,-2.3466024 21.848158,0 25.981739,0.3086274 25.981739,1.9398866 0,1.0669372 -1.5,2.2923002 -3.333333,2.7230272 -3.303096,0.776036 -3.339381,0.942329 -4,18.332318 C 89.990011,48.140628 88.89997,51.808968 84.756287,50.218888 82.99645,49.543576 82.666664,46.465639 82.666664,30.716138 V 12.015251 l -11,0.325708 -10.999999,0.325707 -0.666667,18.666667 C 59.361358,49.215307 59.212035,50.017279 56.447852,50.41106 54.52467,50.685033 53.285254,49.948998 52.731423,48.204032 Z M 105.33333,30.231214 c 0,-16.003665 0.3997,-20.7659557 1.78758,-21.2985355 4.28324,-1.6436345 4.98358,1.1732685 5.26549,21.1788105 l 0.28026,19.88851 L 109,50.421895 105.33333,50.843792 Z M 207.2288,48.875058 C 206.43244,46.799782 209.29773,39.238076 217.79122,21 c 5.09787,-10.946655 6.54018,-12.9992443 9.13144,-12.9952146 2.67235,0.00416 4.18191,2.4866366 11.47055,18.8633656 4.61628,10.372219 8.20805,19.820065 7.98175,20.995213 -0.24183,1.255678 -1.73748,2.136635 -3.62752,2.136635 -2.77858,0 -3.91815,-1.632269 -8.37778,-12 -9.01334,-20.954178 -9.10644,-21.129894 -10.47164,-19.764693 -0.71077,0.710771 -2.9907,6.048596 -5.0665,11.861835 -5.56619,15.587922 -7.86015,20.569524 -9.472,20.569524 -0.79376,0 -1.75259,-0.806223 -2.13072,-1.791607 z m 101.99894,-0.541726 c -0.058,-1.283333 -0.0152,-9.683333 0.0952,-18.666666 l 0.20067,-16.333333 h -3.28582 c -3.24736,0 -5.61624,-3.102973 -4.16344,-5.453656 0.41234,-0.6671557 12.456,-1.2130105 26.76374,-1.2130105 h 26.01404 l -0.42607,2.9453406 c -0.26933,1.8618349 -1.65231,3.2317079 -3.7594,3.7237829 -3.30897,0.772756 -3.3382,0.909536 -4,18.721327 l -0.66667,17.942882 -3.66666,0.421896 -3.66667,0.421897 V 32.088562 13.333333 h -11.33333 -11.33334 v 18.666666 18.666666 h -3.33333 c -2.24549,0 -3.36779,-0.761489 -3.43892,-2.333333 z"
       id="path30" />
  </g>
</svg>
