<?xml version="1.0" encoding="UTF-8" standalone="no"?>
<!-- Created with Inkscape (http://www.inkscape.org/) -->

<svg
   version="1.1"
   id="svg22"
   width="781.33331"
   height="62.666668"
   viewBox="0 0 781.33331 62.666668"
   xmlns="http://www.w3.org/2000/svg"
   xmlns:svg="http://www.w3.org/2000/svg">
  <defs
     id="defs26" />
  <g
     id="g28">
    <path
       style="fill:#000000;stroke-width:1.33333"
       d="m 99.666664,54.559869 c -4.635664,-2.700027 -1.43366,-10.013383 3.935946,-8.989681 2.87485,0.548082 3.90755,5.806896 1.66981,8.503202 -1.8708,2.254181 -2.48003,2.307051 -5.605756,0.486479 z M 545.73756,52.869101 c -13.52263,-3.711312 -20.04224,-18.819124 -13.8966,-32.202434 4.39149,-9.563319 12.70222,-13.7563726 22.77828,-11.4924345 10.04101,2.2560665 16.34165,11.2189985 16.2495,23.1156145 -0.0683,8.816641 -4.53146,15.651159 -12.74064,19.509926 -3.35448,1.576792 -6.2556,2.807989 -6.44692,2.735995 -0.19133,-0.072 -2.86596,-0.821995 -5.94362,-1.666667 z m 14.99285,-11.191788 c 1.96829,-4.147872 2.08608,-6.182112 0.86273,-14.900138 -1.15797,-8.252192 -2.05533,-10.645716 -4.91264,-13.103475 -6.20186,-5.3346108 -12.80645,-3.328403 -16.54696,5.026298 -1.8747,4.187284 -2.1151,6.941781 -1.28441,14.716241 1.12069,10.488482 3.33781,14.17111 8.95612,14.876071 6.08595,0.763636 10.49441,-1.492581 12.92516,-6.614997 z M 254.22222,52.444445 c -1.65628,-1.656273 -0.90048,-6.82136 1.11111,-7.593279 4.53872,-1.74167 7.09854,1.40129 5.19068,6.373119 -0.81551,2.125192 -4.65362,2.868332 -6.30179,1.22016 z m 93.69394,-0.362477 C 337.80163,50.135056 331.78519,42.079256 331.50823,30.112323 331.02302,9.146341 357.3582,-0.27442679 368.45636,16.895038 c 6.21055,9.608063 6.20996,19.731609 -0.001,27.113603 -5.69769,6.771333 -12.79965,9.562973 -20.53861,8.073327 z m 12.1631,-7.499674 c 4.36161,-4.642732 5.306,-20.168044 1.65665,-27.234666 -6.78352,-13.1356215 -21.78344,-5.772957 -21.70204,10.652373 0.0421,8.50763 2.09483,16.309075 4.81433,18.297632 4.05034,2.961673 11.64026,2.106887 15.23106,-1.715339 z m 20.53226,-5.44984 C 382.41947,12.219383 382.46416,12 386.14012,12 c 1.17275,0 4.20435,4.629926 7.42087,11.333334 2.99096,6.233333 5.83694,11.333333 6.32442,11.333333 0.48747,0 2.98227,-4.95 5.544,-11 4.04251,-9.547097 5.09223,-11 7.94747,-11 3.24943,0 3.31439,0.232794 5.29647,18.979902 1.10369,10.438945 1.80369,19.588945 1.55556,20.333333 -0.81455,2.443626 -4.2607,1.41529 -5.51796,-1.646568 -0.67752,-1.65 -1.63858,-8.4 -2.13566,-15 l -0.9038,-12 -2.44562,5.333333 c -1.3451,2.933334 -3.63746,8.183334 -5.09412,11.666667 -1.58648,3.793778 -3.49951,6.333334 -4.77084,6.333334 -1.2602,0 -3.23044,-2.572766 -4.85014,-6.333334 -1.50026,-3.483333 -3.687,-8.433333 -4.85938,-11 l -2.13163,-4.666667 -1.42654,13.986519 c -1.225,12.010335 -1.7817,14.054235 -3.94002,14.465787 -2.38472,0.454721 -2.46368,-0.26164 -1.54168,-13.986519 z m 57.11287,11.867547 c -6.81956,-3.758229 -9.90115,-8.827148 -10.69611,-17.59404 -1.40651,-15.511281 7.66803,-25.6884939 22.09303,-24.7776232 10.40086,0.6567659 18.81464,10.4994122 18.85674,22.0591322 0.0591,16.212252 -16.9597,27.638775 -30.25366,20.312531 z m 16.69685,-4.753407 c 3.35123,-2.646685 5.43149,-8.174535 4.02325,-10.690923 -0.90188,-1.611584 -0.84393,-2.937773 0.18242,-4.174452 1.13089,-1.362638 0.94645,-3.517824 -0.74312,-8.683396 C 454.95052,13.729866 453.03271,12 446.02369,12 c -5.50148,0 -5.92272,0.282795 -8.57142,5.754299 -1.5321,3.164865 -2.78562,7.745254 -2.78562,10.178642 0,5.088309 2.48456,14.550703 4.5205,17.216209 3.07145,4.02126 10.82473,4.579796 15.23409,1.097444 z m 43.85835,6.055756 c -26.79674,-0.411568 -27.6643,-0.780884 -21.9365,-9.338276 1.82746,-2.73024 6.70838,-10.798591 10.84647,-17.929668 7.33701,-12.643655 10.89264,-16.4525272 13.63679,-14.608039 1.35998,0.914115 6.0589,7.992017 16.33361,24.603047 5.5996,9.052822 8.09617,16.216215 5.97434,17.142214 -0.62388,0.272272 -11.8085,0.331097 -24.85471,0.13072 z m 16.38706,-8.789204 c 0,-1.001104 -1.11711,-3.251104 -2.48245,-5 -1.36535,-1.748897 -4.42262,-6.629793 -6.79392,-10.846437 -2.37131,-4.216643 -4.80589,-7.972198 -5.4102,-8.345677 -0.60429,-0.373477 -3.84561,3.845448 -7.20292,9.375393 -3.35731,5.529944 -7.07463,11.535499 -8.26071,13.345676 l -2.15649,3.291233 h 16.15335 c 12.76042,0 16.15334,-0.382321 16.15334,-1.820188 z m 74,8.548151 C 581.49097,49.09324 577.00116,40.278301 577.19668,29.542101 577.443,16.016767 584.3299,8.0148978 595.73286,8.0049843 c 7.29938,-0.00635 13.32346,3.0938027 14.40794,7.4146947 1.30952,5.21752 -0.60428,5.605348 -4.30791,0.872993 C 603.08488,12.781355 601.53781,12 597.33345,12 c -9.49287,0 -13.08289,9.964327 -9.36747,26.000001 2.80315,12.098264 14.74592,13.420169 21.26524,2.353776 1.17691,-1.997764 1.57776,-2.06241 2.65023,-0.427401 1.63677,2.49529 -2.67339,8.713758 -7.92037,11.427077 -4.15036,2.146235 -11.04543,2.465347 -15.29443,0.707844 z m 56.8989,-0.448136 C 644.42261,50.236006 643.48113,28.006529 643.93017,13 c 0.0503,-1.679556 1.17274,-2.333333 4.00618,-2.333333 3.8974,0 3.94031,0.08253 4.33334,8.333333 l 0.39696,8.333334 L 659.21393,19 c 5.28645,-6.728549 7.27638,-8.333333 10.33333,-8.333333 5.66019,0 4.71875,2.977311 -3.10577,9.822013 -7.78442,6.809613 -8.09263,5.037358 3.19274,18.359037 6.72012,7.932707 7.58244,10.482664 4.42974,13.099183 -2.5866,2.14668 -6.6698,0.697182 -8.37356,-2.972528 -1.97151,-4.246419 -11.49316,-16.930001 -12.72756,-16.954113 -0.57043,-0.0112 -0.62828,3.970412 -0.12854,8.847898 0.79058,7.716528 0.58916,9.101713 -1.55104,10.666667 -3.05645,2.234932 -3.91808,2.246736 -5.71769,0.07833 z m 37.72772,0.09663 c -0.94257,-2.456312 13.26204,-40.015602 15.71992,-41.565991 1.07671,-0.6791747 2.85955,-0.8887787 3.96184,-0.4657869 3.24382,1.2447659 16.93946,32.1043319 17.43582,39.2870719 0.21533,3.116023 -0.26491,3.701579 -3.03579,3.701579 -2.72909,0 -3.71279,-1.134371 -5.75621,-6.637936 -3.42598,-9.227154 -4.37103,-10.028724 -11.82398,-10.028724 -7.2733,0 -7.48014,0.237093 -8.89826,10.19988 -0.76112,5.347107 -1.4389,6.540693 -3.91452,6.893636 -1.64672,0.234767 -3.30668,-0.387908 -3.68882,-1.383723 z M 705.33331,29.93379 c 0,-1.136417 -0.97449,-3.950682 -2.16554,-6.253922 -2.05388,-3.971766 -2.26015,-4.058342 -4,-1.678947 -1.00895,1.379818 -1.83446,4.194084 -1.83446,6.253923 0,3.2724 0.50494,3.74516 4,3.74516 2.72364,0 4,-0.65931 4,-2.066214 z m 23.74075,7.399547 c -0.1426,-8.8 -0.2926,-17.941783 -0.33334,-20.315074 -0.0549,-3.198044 0.57487,-4.44005 2.43282,-4.797857 1.3788,-0.265532 3.01961,0.326251 3.64625,1.315073 0.62664,0.988822 1.14855,10.347858 1.15977,20.797858 l 0.0204,19 h -3.33334 -3.33333 z m 22.92592,13.073182 c -6.77486,-4.594028 -9.99476,-14.943561 -7.76048,-24.943997 2.67478,-11.972147 10.73926,-18.7012811 20.26966,-16.9133667 5.73976,1.0767856 11.49082,5.5216277 11.49082,8.8809547 0,3.696564 -1.65862,3.153051 -4.24386,-1.390676 -2.5548,-4.490227 -7.86396,-6.3591881 -12.31,-4.333437 -8.97736,4.090358 -9.86533,25.996028 -1.39705,34.464307 4.60303,4.603035 9.43728,4.080649 14.79347,-1.598569 3.60276,-3.820036 4.49077,-4.264847 4.49077,-2.249455 0,1.381681 -1.77195,4.209783 -3.93767,6.284669 -5.61916,5.383503 -14.9527,6.168539 -21.39566,1.79957 z M 9.3333331,49.983841 c 0,-3.403133 13.2863489,-39.753743 15.2735799,-41.7875456 3.519329,-3.6018086 6.751165,-0.4924655 11.237206,10.8112956 2.399364,6.045826 5.815993,14.367438 7.592512,18.492471 3.793734,8.808958 4.068742,12.55946 1.007078,13.734331 -2.958992,1.135471 -4.442541,-0.560345 -7.789306,-8.903805 l -2.806768,-6.997254 -7.484252,-0.396703 -7.484252,-0.396701 -1.859077,8.396702 c -1.529769,6.90935 -2.375217,8.472174 -4.772899,8.82277 -1.991798,0.291247 -2.9138219,-0.270596 -2.9138219,-1.775561 z M 31.16379,29.607659 c 0.359976,-0.582453 -0.572863,-3.732453 -2.072975,-7 l -2.727476,-5.940992 -1.7469,4.666667 c -2.844633,7.599153 -2.47831,9.333333 1.971538,9.333333 2.156721,0 4.215837,-0.476553 4.575813,-1.059008 z m 39.058431,21.503453 c -0.48889,-0.488888 -0.88889,-4.685526 -0.88889,-9.32586 0,-8.227835 -0.199093,-8.70549 -8.031819,-19.269486 -6.341498,-8.552778 -7.71016,-11.220092 -6.503407,-12.6741407 3.539629,-4.2649926 7.31136,-1.7715247 14.887477,9.8420207 2.027072,3.107328 4.170112,5.649688 4.76231,5.649688 0.5922,0 3.144779,-3.75 5.672398,-8.333334 3.211024,-5.822554 5.493919,-8.4619401 7.576983,-8.7601822 4.72169,-0.6760272 5.07386,3.1875762 0.783931,8.6003802 C 77.99261,30.074146 77.444119,31.132553 77.387932,38.246534 77.303972,48.877538 73.97147,54.860361 70.222221,51.111112 Z m 60.542669,-2.777778 c 0.054,-2.016666 3.21575,-11.766667 7.02604,-21.666667 6.11712,-15.893641 7.28707,-18.0000001 9.99787,-18.0000001 3.52698,0 7.26204,6.0854951 15.28142,24.8979101 5.8306,13.677784 6.21096,17.102091 1.89964,17.102091 -3.02744,0 -5.8164,-3.864194 -8.90152,-12.333334 -1.23386,-3.38718 -1.88874,-3.666667 -8.59153,-3.666667 h -7.25584 l -1.44383,6.732295 c -0.79409,3.702763 -1.44381,7.602763 -1.44381,8.666667 0,1.174441 -1.30952,1.934372 -3.33333,1.934372 -2.77129,0 -3.31677,-0.618249 -3.23511,-3.666667 z M 152,28.623842 c 0,-3.658099 -4.01483,-11.813782 -5.18196,-10.526575 -1.77363,1.956105 -4.19416,10.088143 -3.39006,11.389226 C 144.7294,31.592211 152,30.860529 152,28.623842 Z m 38.22222,22.48727 c -0.48889,-0.488888 -0.88889,-5.238888 -0.88889,-10.555555 0,-5.316667 -0.45,-9.866667 -1,-10.111112 -2.55,-1.133331 -13.7322,-16.456831 -13.37726,-18.331488 0.22003,-1.162126 1.98942,-2.2974536 3.93196,-2.5229496 3.82194,-0.4436593 7.39138,2.5340326 10.50786,8.7658316 2.53016,5.059368 5.43138,8.368946 6.66693,7.60533 0.57188,-0.353439 2.38412,-3.48929 4.02721,-6.968559 3.96594,-8.39795 6.35383,-10.9926098 10.11662,-10.9926098 4.67789,0 3.95297,4.0062248 -1.95646,10.8122798 -8.70857,10.029915 -9.58353,11.877671 -9.58353,20.238718 0,4.285039 -0.62111,8.951535 -1.38024,10.369991 -1.34845,2.519608 -5.29137,3.462956 -7.0642,1.690123 z m 32.63133,-0.281976 c -1.84301,-1.186779 -2.14134,-6.490543 -1.71541,-30.495802 l 0.19519,-11.0000005 h 10.51896 c 13.2677,0 16.75377,2.2104695 16.75377,10.6233465 0,7.173181 -3.92475,10.419421 -13.27273,10.978171 l -6.66667,0.398483 -0.0659,9.994435 c -0.0677,10.264767 -1.32744,12.347399 -5.74718,9.501367 z m 15.5617,-25.547742 c 3.43672,-3.201799 3.85016,-9.492171 0.82284,-12.519489 -1.15238,-1.152381 -4.08936,-2.095238 -6.52662,-2.095238 -4.14766,0 -4.46169,0.320125 -4.90476,5 -0.90949,9.606318 -0.0184,12.333334 4.03043,12.333334 2.01301,0 4.97316,-1.223374 6.57811,-2.718607 z m 54.52987,25.885962 c -0.51982,-0.519823 -0.94513,-9.863963 -0.94513,-20.764757 0,-16.461613 0.34173,-19.950761 2.01697,-20.5936128 3.66138,-1.4049988 5.98303,2.1386038 5.98303,9.1320518 0,3.637985 0.53365,6.414519 1.18589,6.170073 0.65224,-0.244444 3.9852,-3.894444 7.40659,-8.111111 3.71088,-4.573455 7.26704,-7.6666665 8.81411,-7.6666665 4.45889,0 2.94841,4.6664745 -3.40659,10.5243135 -3.3,3.041833 -6,6.13424 -6,6.872014 0,1.284686 4.38665,6.567105 12.4098,14.943921 4.67433,4.880395 4.42524,9.485364 -0.54433,10.062464 -2.58234,0.29988 -4.08743,-0.55129 -5.89422,-3.333333 -1.33449,-2.054825 -4.87394,-7.036045 -7.86546,-11.069379 l -5.43912,-7.333333 -0.66667,10.666667 c -0.59137,9.461888 -0.97405,10.710668 -3.3882,11.056244 -1.49684,0.214266 -3.14684,-0.03573 -3.66667,-0.555556 z"
       id="path795" />
  </g>
</svg>
