<?xml version="1.0" encoding="UTF-8" standalone="no"?>
<!-- Created with Inkscape (http://www.inkscape.org/) -->

<svg
   version="1.1"
   id="svg52"
   width="510.66666"
   height="54.666668"
   viewBox="0 0 510.66666 54.666668"
   xmlns="http://www.w3.org/2000/svg"
   xmlns:svg="http://www.w3.org/2000/svg">
  <defs
     id="defs56" />
  <g
     id="g58">
    <path
       style="fill:#000000;stroke-width:1.33333"
       d="m 444.33333,50.930321 c -4.3511,-0.250506 -7,-1.01135 -7,-2.010608 0,-0.884178 1.47048,-4.369876 3.26772,-7.745996 4.94682,-9.292578 6.73445,-17.67337 4.77749,-22.397883 -2.03105,-4.903411 -7.57559,-7.395314 -12.38565,-5.566534 -6.9293,2.634514 -8.11334,10.871177 -3.65956,25.457368 3.85029,12.609764 4.1091,12.175367 -6.98587,11.72508 -8.21387,-0.333359 -9.72387,-0.765387 -10.13119,-2.898644 -0.66537,-3.484754 1.61958,-4.508282 8.52578,-3.819071 3.25853,0.325191 5.92461,0.271432 5.92461,-0.119467 0,-0.390893 -1.95,-3.848953 -4.33333,-7.684577 -10.2974,-16.572134 -1.28543,-32.2639489 17.1723,-29.9007747 9.46211,1.2114489 15.10978,7.6903237 15.13639,17.3641197 0.0156,5.659041 -3.84753,13.387063 -8.22692,16.457723 -4.04193,2.834055 -2.15597,4.632527 4.99045,4.758951 5.66716,0.100253 6.65138,0.515752 6.99931,2.954829 0.47051,3.298446 -2.73297,4.078283 -14.07153,3.425484 z M 307,49.722224 c -1.23728,-0.453668 -1.66667,-6.041463 -1.66667,-21.68879 V 6.955755 l 3.6144,-0.9071562 c 2.42727,-0.6092067 4.06949,-0.2939321 5,0.9599052 3.46487,4.66881 15.07384,19.081858 18.39323,22.835982 l 3.67428,4.155515 -0.17902,-13.095267 c -0.18333,-13.4104761 1.02972,-17.3892244 4.4406,-14.5648293 1.30674,1.0820465 1.62686,6.4496473 1.32464,22.2101583 -0.37053,19.322853 -0.57496,20.783272 -2.90921,20.783272 -1.38087,0 -3.85805,-1.950001 -5.50487,-4.333334 -1.64681,-2.383333 -5.73766,-7.333333 -9.0908,-11 -3.35312,-3.666667 -7.69077,-8.766667 -9.63921,-11.333334 L 310.91474,18 l -0.1192,15.261837 c -0.11906,15.250827 -0.66289,17.609023 -3.79553,16.460387 z m 42.89812,-0.840255 c -0.37667,-0.981584 2.00356,-9.231584 5.2894,-18.333334 3.28584,-9.101749 6.38186,-18.214461 6.88006,-20.250472 0.95864,-3.9176968 4.73451,-6.7453538 8.07762,-6.0491381 1.86262,0.3879005 6.49205,10.1319231 10.01722,21.0843091 0.82612,2.566667 2.92753,7.834448 4.6698,11.70618 3.90572,8.679406 3.99523,11.851498 0.36689,13.003086 -3.49377,1.10888 -4.26534,0.251447 -7.23725,-8.042599 -2.9179,-8.143336 -5.03205,-10 -11.38677,-10 -5.96377,0 -7.51847,1.679965 -8.69864,9.399485 -0.49895,3.263618 -1.49873,6.683849 -2.22173,7.600515 -1.7298,2.193114 -4.89463,2.128223 -5.7566,-0.118026 z m 21.34702,-23.881968 c -3.12314,-10.025527 -5.00893,-11.57349 -6.49725,-5.333334 -0.48099,2.016667 -1.18647,4.716667 -1.56773,6 -0.57082,1.9214 0.1624,2.333334 4.15317,2.333334 4.41388,0 4.76297,-0.267719 3.91181,-3 z m 24.56928,13.333333 c -0.10213,-6.783333 -0.25208,-16.233333 -0.33333,-21 -0.13347,-7.8281408 0.1216,-8.7051435 2.63558,-9.0643433 1.53083,-0.2187218 3.33676,0.3812782 4.01318,1.3333334 0.67641,0.9520549 1.02965,10.5810099 0.78496,21.3976769 l -0.44488,19.666667 h -3.23496 c -3.17788,0 -3.23826,-0.217664 -3.42055,-12.333334 z M 469.07171,48.3979 c -0.91781,-3.629295 -1.1833,-36.612523 -0.31668,-39.343006 0.45438,-1.4315834 2.05483,-2.3882272 3.99548,-2.3882272 2.41386,0 5.18946,2.4333562 10.91015,9.5649032 4.21997,5.260697 9.6148,11.710697 11.98852,14.333333 l 4.31585,4.768431 -0.75282,-14.333333 -0.75284,-14.3333342 h 3.43697 c 2.36011,0 3.45699,0.7310806 3.50083,2.3333334 0.1036,3.7848318 0.1272,38.1820378 0.0276,40.0000008 -0.26526,4.836975 -5.87478,0.405575 -17.46847,-13.799715 l -12.62297,-15.466383 -0.66667,15.118413 c -0.55307,12.542097 -1.03491,15.188711 -2.82761,15.530947 -1.20059,0.2292 -2.43043,-0.653123 -2.76734,-1.985363 z M 194.68585,48.026491 c -9.2632,-2.295181 -15.83891,-14.471713 -13.95617,-25.843321 1.81548,-10.965427 6.34069,-16.1521651 15.97274,-18.3077227 6.48471,-1.4512155 7.43684,-1.3308894 12.7513,1.6114491 10.1742,5.6329406 14.37626,18.2576736 9.94178,29.8692076 -3.97956,10.42032 -13.6916,15.400372 -24.70965,12.670387 z m 13.93461,-5.859082 c 5.73314,-5.733132 6.1287,-23.646135 0.67524,-30.579063 -4.98696,-6.3398951 -14.62869,-5.0630725 -18.6609,2.471204 -2.5172,4.703426 -2.27922,17.193596 0.45021,23.62817 3.32041,7.827805 11.97612,10.039032 17.53545,4.479689 z M 196.44244,27.229818 c -1.25391,-3.267644 3.10064,-6.234845 6.48885,-4.421527 3.64595,1.951252 2.45953,5.772191 -1.95028,6.281004 -2.49739,0.288155 -3.94148,-0.303498 -4.53857,-1.859477 z m 75.96906,21.071467 c -1.33082,-0.861839 -2.54876,-27.394152 -1.86529,-40.6346181 0.10407,-2.0158685 1.55856,-2.3333334 10.69035,-2.3333334 9.83073,0 10.76314,0.2456781 13.33333,3.513145 3.69412,4.6963135 3.68728,12.5708245 -0.0139,15.9202845 -1.6381,1.482459 -5.60314,2.797755 -9.66666,3.206651 L 278,28.666667 v 9.980853 c 0,7.827065 -0.43159,10.056555 -2,10.331663 -1.1,0.192945 -2.71483,-0.112107 -3.5885,-0.677898 z m 15.49172,-26.481096 c 5.38839,-6.850227 2.36318,-13.8201888 -5.99846,-13.8201888 h -4.57143 v 8.6666668 8.666667 h 3.90323 c 2.62862,0 4.80562,-1.147219 6.66666,-3.513145 z M 47.322675,46.649424 c -0.879124,-1.422452 2.974168,-12.973697 7.33306,-21.982757 1.419247,-2.933333 4.087546,-8.824611 5.929551,-13.091729 2.969716,-6.8795231 3.738693,-7.7102442 6.788277,-7.3333332 2.894739,0.3577728 4.17732,2.1136431 8.101991,11.0917292 2.564549,5.866667 6.481566,14.362901 8.704484,18.880523 3.370622,6.850092 3.78695,8.689801 2.50752,11.08044 -2.882942,5.386824 -5.629662,2.396343 -13.129136,-14.294296 -4.036411,-8.983334 -7.728812,-16.333334 -8.205335,-16.333334 -0.476524,0 -3.464413,6.75 -6.639753,15 -6.976263,18.125354 -8.906176,21.002734 -11.390659,16.982757 z M 105.60891,47.00991 C 98.074627,46.58477 97.087561,46.193842 95.942239,43.181412 93.975433,38.008325 94.299253,7.0513212 96.333332,5.7930685 97.249999,5.2260311 103.42179,4.5246608 110.04842,4.2344677 c 9.47815,-0.4150665 12.39715,-0.1074359 13.68311,1.4420494 2.64904,3.1918952 -0.77322,4.8094699 -11.12045,5.2562319 l -9.27775,0.400585 -0.41053,4.944829 -0.41053,4.94483 11.0772,0.388504 c 10.28045,0.36056 11.1074,0.600893 11.49709,3.341376 0.51719,3.637157 -2.50917,4.528936 -13.75323,4.05266 l -8,-0.338866 -0.41466,6.53585 -0.41466,6.535849 12.77869,-0.898252 c 10.98709,-0.772316 12.89267,-0.601208 13.5917,1.22044 0.44716,1.165282 0.28335,2.603827 -0.36402,3.196767 -1.60813,1.472908 -12.74882,2.325476 -22.90147,1.752589 z m 45.05775,-8.498113 c 0,-9.327732 -0.10946,-9.627483 -6.47158,-17.723139 -9.35367,-11.9023295 -10.41272,-14.1778133 -7.56703,-16.2586384 3.73187,-2.7288005 7.66773,-0.2110634 12.79624,8.1856074 2.61669,4.284201 5.43867,8.016472 6.27107,8.293938 0.8324,0.277465 3.649,-3.736179 6.25913,-8.919209 4.58749,-9.1095333 6.10337,-10.3410888 10.60312,-8.6143708 3.25856,1.2504236 2.65731,2.7322818 -5.22428,12.8758608 -7.1096,9.150033 -8.02696,11.656824 -7.45457,20.370444 0.43542,6.628652 -1.9744,11.277711 -5.84576,11.277711 -3.28419,0 -3.36634,-0.231537 -3.36634,-9.488204 z m 79.00492,5.769541 c -1.64114,-3.707614 -2.2576,-33.202764 -0.7747,-37.0671202 0.55718,-1.4520083 3.88148,-1.8808843 14.5791,-1.8808843 12.7074,0 13.85735,0.2094552 13.85735,2.524015 C 257.33333,11.19051 254.8369,12 244.55761,12 H 236 v 5.279411 5.27941 l 11,0.387257 c 9.98202,0.351419 11,0.634037 11,3.053923 0,2.388889 -1.11111,2.73611 -10.66667,3.333333 l -10.66667,0.666667 v 5.946319 5.946318 l 12.189,-0.385865 c 12.31007,-0.389699 14.54522,0.361807 13.00602,4.372905 -0.67644,1.762767 -3.32042,2.120323 -15.67886,2.120323 h -14.8652 z M 6.1844039,43.707544 C 4.5711839,37.685874 5.2335953,6.8862036 6.9999999,5.7853537 7.9166666,5.2140733 14.427076,4.5124772 21.467574,4.2262512 32.796489,3.765683 34.37323,3.9788084 35.179401,6.0796541 36.528785,9.5960926 33.810908,10.623391 23.097765,10.64625 c -10.249987,0.02187 -11.23746,0.781418 -9.993826,7.687084 0.509993,2.831899 1.171803,3 11.810898,3 10.925416,0 11.257581,0.09189 10.844564,3 -0.397231,2.796948 -1.170591,3.026211 -11.426068,3.387256 l -11,0.387257 v 6.728323 6.728323 L 26.106366,40.678217 38.879401,39.791941 38.439699,42.89597 C 38.011716,45.917289 37.586968,46.009973 22.49953,46.37421 7.3452166,46.740062 6.9808692,46.680512 6.1844039,43.707544 Z"
       id="path1720" />
  </g>
</svg>
