<?xml version="1.0" encoding="UTF-8" standalone="no"?>
<!-- Created with Inkscape (http://www.inkscape.org/) -->

<svg
   version="1.1"
   id="svg152"
   width="158.66667"
   height="53.333332"
   viewBox="0 0 158.66667 53.333332"
   xmlns="http://www.w3.org/2000/svg"
   xmlns:svg="http://www.w3.org/2000/svg">
  <defs
     id="defs156" />
  <g
     id="g158">
    <path
       style="fill:#000000;stroke-width:1.33333"
       d="m 61.647184,47.780515 c -3.555831,-3.555831 -1.823452,-5.113849 5.686151,-5.113849 6.285031,0 7.333333,-0.357863 7.333333,-2.503407 0,-1.376875 -0.939561,-3.283175 -2.087916,-4.236224 -6.0927,-5.056492 -7.682367,-16.340698 -3.311781,-23.508606 3.432064,-5.6287022 6.445056,-7.0603531 15.287952,-7.2642135 11.963614,-0.2758042 17.072347,4.6113881 16.982227,16.2457825 -0.054,6.971961 -2.394272,12.594309 -6.765472,16.253618 -4.447255,3.722978 -3.273345,5.01305 4.561657,5.01305 6.293065,0 7.333335,0.356218 7.333335,2.511158 0,2.811031 -3.41802,4.109484 -10.890952,4.137301 -5.758959,0.02144 -9.10905,-1.066997 -9.10905,-2.959505 0,-0.747492 1.823175,-4.946848 4.051499,-9.331902 6.55171,-12.89292 5.508771,-22.949344 -2.734142,-26.363669 -3.391914,-1.4049768 -4.720013,-1.3834388 -7.533265,0.122168 -6.464169,3.459519 -7.432145,12.063094 -3.022926,26.868422 1.51864,5.099311 2.444809,9.587829 2.058154,9.974484 -1.621045,1.621045 -16.245757,1.748438 -17.838804,0.155392 z M 24.950102,47.172323 C 24.427546,46.649767 24.000001,38.5922 24.000001,29.266619 24.000001,9.9550428 24.371611,10.50994 12.220686,11.67749 6.7108679,12.206914 5.2149161,11.909509 4.5399226,10.150504 2.566379,5.0075321 5.8460367,4.1840611 28.755606,4.0703227 42.633074,4.0014256 50.739997,4.4574526 50.866668,5.314104 c 0.656185,4.4376594 0.215224,4.703856 -8.866667,5.352562 l -9.333334,0.666667 -0.02076,18 -0.02076,17.999999 -3.362476,0.394547 c -1.849362,0.217 -3.790022,-0.033 -4.312578,-0.555556 z M 117.63228,27.104387 c 0.34999,-20.086539 0.49892,-21.1231679 3.08796,-21.4937935 1.99667,-0.2858274 5.07281,2.4338691 11.56475,10.2247085 4.86449,5.837764 9.85939,12.162997 11.09979,14.056073 4.11585,6.281584 4.91804,4.119671 3.9176,-10.558042 -0.911,-13.3655417 -0.83514,-13.9999998 1.67396,-13.9999998 2.45726,0 2.68881,1.3018174 3.56033,20.0177138 0.93733,20.128963 0.67811,22.648952 -2.32983,22.648952 -1.5298,0 -11.79221,-11.599881 -22.00125,-24.868592 -2.4536,-3.188941 -5.03866,-5.798074 -5.74459,-5.798074 -0.76573,0 -1.15191,6.050462 -0.95729,14.998117 0.28824,13.25235 0.0605,15.049286 -1.95647,15.437721 -2.08934,0.40237 -2.25153,-1.347883 -1.91496,-20.664784 z"
       id="path180" />
  </g>
</svg>
