<?xml version="1.0" encoding="UTF-8" standalone="no"?>
<!-- Created with Inkscape (http://www.inkscape.org/) -->

<svg
   version="1.1"
   id="svg2"
   width="358.66666"
   height="52"
   viewBox="0 0 358.66666 52"
   xmlns="http://www.w3.org/2000/svg"
   xmlns:svg="http://www.w3.org/2000/svg">
  <defs
     id="defs6" />
  <g
     id="g8">
    <path
       style="fill:#000000;stroke-width:1.33333"
       d="M 7.4267845,46.817875 C 6.5901507,45.464172 11.343301,17.900847 13.301578,12.750189 15.005557,8.2683855 18.39025,8.3933392 20.068353,13 c 1.735484,4.764184 5.693457,12.402227 6.788704,13.100748 0.471382,0.300636 2.232341,-3.349045 3.913241,-8.110401 2.463821,-6.979075 3.605355,-8.6570137 5.889524,-8.6570137 2.505691,0 3.412109,2.1025447 7.838275,18.1818157 3.557181,12.922447 4.59195,18.594803 3.577229,19.609524 C 45.291208,49.908791 41.784578,42.54964 38.04257,26.06954 36.955074,21.280117 35.744005,22.798941 32.516411,33 c -1.218132,3.85 -2.899137,7 -3.735568,7 -0.836429,0 -3.218062,-3.896 -5.292517,-8.657777 -2.074454,-4.761778 -4.222318,-8.379303 -4.773032,-8.038944 -0.550712,0.34036 -1.35594,3.613265 -1.789396,7.273124 C 15.643669,41.402824 13.223591,48 10.534306,48 9.2269957,48 7.8286112,47.468044 7.4267845,46.817875 Z m 61.9065475,-8.00603 c 0,-8.794389 -0.232439,-9.465797 -5.423723,-15.666666 -2.983047,-3.563182 -6.584166,-8.706803 -8.002486,-11.43027 -2.560745,-4.9171557 -2.560113,-4.9617389 0.09039,-6.3802447 3.89782,-2.0860499 7.180335,0.1748688 12.635923,8.7033267 2.566725,4.012438 5.301829,7.295342 6.078009,7.295342 0.776179,0 2.789768,-2.975424 4.474643,-6.612053 C 83.21112,6.0336599 85.02548,4 88.751236,4 95.066246,4 94.125138,7.0614272 83.693424,20.453064 79.089309,26.36356 78.666665,27.615575 78.666665,35.344013 78.666665,46.277864 77.921532,48 73.19068,48 H 69.333332 Z M 104,46.731325 100.66666,45.882717 100.2986,25.608025 99.930542,5.3333333 107.63194,5.0890867 C 122.63092,4.6133997 125.64623,5.8978484 127.14708,13.40206 128.82993,21.816328 122.35589,28 111.86367,28 h -4.22199 l 0.66995,9.363344 c 0.36847,5.149839 0.29909,9.555323 -0.15418,9.789965 -0.45326,0.234643 -2.32412,0.04475 -4.15745,-0.421984 z M 117.56168,21.793349 C 121.07093,18.617517 120.88365,9.9000719 117.26455,7.9631903 113.74019,6.0770069 109.29947,6.7579199 107.61781,9.4423652 106.86112,10.650273 106.69542,14.210848 107.23,17.775699 108.06706,23.357595 108.52256,24 111.64337,24 c 1.91399,0 4.57723,-0.992992 5.91831,-2.206651 z m 17.99388,25.317762 c -0.4889,-0.488888 -0.8889,-9.507719 -0.8889,-20.041846 0,-16.159959 0.32655,-19.2782637 2.08963,-19.9548215 1.14929,-0.441025 2.64973,-0.2417566 3.33431,0.4428188 0.68457,0.6845753 1.62477,10.0642447 2.08934,20.8437097 L 143.02461,48 h -3.29008 c -1.80955,0 -3.69009,-0.4 -4.17897,-0.888889 z m 15.69765,-0.839091 c -0.36469,-0.950389 -0.49587,-10.400389 -0.29148,-21 0.36441,-18.8993847 0.43019,-19.2803339 3.40144,-19.7019984 2.27215,-0.3224512 4.77291,1.4932835 10,7.2607394 3.83359,4.229895 9.20516,10.123386 11.93683,13.096646 l 4.96665,5.405926 L 181.3,17.666667 C 181.33057,5.1315475 181.54346,4 183.87132,4 c 2.90418,0 3.4444,3.8695884 3.95545,28.333333 0.28812,13.792091 0.19311,14.333334 -2.51641,14.333334 -1.54872,0 -4.42712,-1.942487 -6.39644,-4.316639 -1.96932,-2.374151 -6.05768,-7.024151 -9.08524,-10.333333 C 166.80112,28.707513 162.4047,23.9 160.05889,21.333333 l -4.26513,-4.666666 0.71592,13.698 c 0.39374,7.5339 0.37596,14.5839 -0.0396,15.666666 -0.93226,2.429404 -4.31711,2.585567 -5.21694,0.240687 z M 196,44.767411 c 0,-1.777924 1.74704,-7.627924 3.88232,-13 2.13528,-5.372076 5.28528,-13.841506 7,-18.820955 2.41974,-7.0267752 3.81113,-9.2286447 6.2153,-9.8357125 1.70368,-0.4301923 3.58147,-0.2560972 4.17283,0.3868777 2.21988,2.4136016 17.39621,37.4501508 17.39621,40.1614338 0,2.809865 -4.14501,5.232748 -6.48157,3.788672 -0.64465,-0.398419 -2.50064,-4.276878 -4.12441,-8.618795 -3.19191,-8.53508 -4.75164,-9.492543 -13.34775,-8.193717 C 205.82953,31.373069 206.16432,30.730201 203.23228,45 202.31609,49.458941 196,49.255817 196,44.767411 Z m 22.66666,-19.40594 c 0,-2.369959 -4.90022,-11.940336 -5.93874,-11.598636 -1.60435,0.527876 -3.77208,8.663585 -2.90822,10.914784 0.59628,1.553892 8.84696,2.191653 8.84696,0.683852 z m 24.94514,21.805884 c -0.51983,-0.519823 -0.94514,-9.845132 -0.94514,-20.722911 0,-18.6884359 0.14255,-19.7777773 2.58798,-19.7777773 1.42338,0 2.88376,0.4785872 3.24528,1.063527 0.3615,0.5849399 0.84692,9.7349393 1.07868,20.3333333 0.4055,18.543188 0.31877,19.284497 -2.30014,19.659384 -1.49684,0.214266 -3.14684,-0.03573 -3.66666,-0.555556 z m 15.15958,-0.929298 c -0.79093,-0.790932 -1.43805,-2.218057 -1.43805,-3.17139 0,-1.785054 2.34649,-2.160614 11,-1.760564 5.85766,0.270797 6.20073,-1.007852 1.70416,-6.351716 -8.65169,-10.28196 -7.633,-23.685482 2.21552,-29.1505723 3.97532,-2.2059708 16.85198,-2.2059708 20.8273,0 10.24111,5.6829413 10.80174,21.1406533 1.09152,30.0952703 -1.92784,1.777831 -3.50517,3.783272 -3.50517,4.456538 0,0.673264 3.45,1.018676 7.66667,0.767581 7.09718,-0.422625 7.69832,-0.233697 8.09273,2.543463 0.41341,2.910872 0.0867,3 -11,3 -6.28433,0 -11.42607,-0.374483 -11.42607,-0.832186 0,-0.457701 2.16664,-5.630813 4.81476,-11.495804 3.7686,-8.346628 4.64654,-11.714717 4.04055,-15.501148 -1.4792,-9.2426381 -11.40864,-12.7923374 -16.75853,-5.991051 -2.96428,3.768478 -3.72662,12.558413 -1.56896,18.090785 2.22173,5.696697 4.57337,14.406392 4.02112,14.892928 -1.52586,1.344284 -18.49125,1.694156 -19.77755,0.407866 z m 57.32069,-2.662524 c -1.40494,-3.695284 -1.02377,-35.6559931 0.45375,-38.0466802 1.72747,-2.7951041 5.83949,-1.5818581 9.50515,2.8044805 1.99176,2.3833337 6.56101,7.6333337 10.1539,11.6666667 3.5929,4.033333 7.26663,8.221031 8.16383,9.305993 1.31271,1.587402 1.70551,-0.691092 2.01127,-11.666666 C 346.72578,5.2264423 346.98938,4 349.31146,4 c 2.37751,0 2.57893,1.3200253 2.95336,19.354059 0.22101,10.644732 0.20184,19.944732 -0.0425,20.666666 -1.05759,3.12342 -5.64847,0.817502 -11.0585,-5.55449 -3.20672,-3.776906 -7.51517,-8.726906 -9.57434,-11 -2.05924,-2.273096 -4.67824,-5.482902 -5.82008,-7.132902 -1.14184,-1.65 -2.58676,-3 -3.21095,-3 -0.62419,0 -1.30517,6.401188 -1.51332,14.224862 -0.26273,9.875521 -0.88552,14.393082 -2.03691,14.775042 -0.91214,0.3026 -2.2244,-0.938366 -2.91612,-2.757704 z"
       id="path48" />
  </g>
</svg>
