<?xml version="1.0" encoding="UTF-8" standalone="no"?>
<!-- Created with Inkscape (http://www.inkscape.org/) -->

<svg
   version="1.1"
   id="svg42"
   width="245.33333"
   height="53.333332"
   viewBox="0 0 245.33333 53.333332"
   xmlns="http://www.w3.org/2000/svg"
   xmlns:svg="http://www.w3.org/2000/svg">
  <defs
     id="defs46" />
  <g
     id="g48">
    <path
       style="fill:#000000;stroke-width:1.33333"
       d="M 172.21152,49.340335 C 163.35118,47.245419 156,36.568439 156,25.794493 c 0,-5.82086 5.38216,-15.358641 10.66666,-18.9024946 3.82538,-2.5653469 5.93858,-3.0274206 11.72196,-2.5631461 4.18852,0.3362427 8.48552,1.6341997 10.57518,3.194348 9.27806,6.9270757 12.10041,24.0003287 5.41612,32.7638747 -3.11663,4.08612 -13.79158,10.634198 -16.69872,10.243109 -0.558,-0.07507 -3.01935,-0.610497 -5.46968,-1.189849 z m 14.2129,-8.810444 c 3.32906,-5.137653 3.7639,-14.511976 1.15598,-24.920351 -1.23947,-4.946841 -5.90476,-8.8036054 -9.91374,-8.1956295 -0.91666,0.1390157 -2.87548,0.327756 -4.35293,0.4194226 -6.53079,0.4051962 -9.86431,13.9250969 -6.41363,26.0119729 1.85758,6.50658 3.39723,8.737254 7.0536,10.219328 5.84426,2.368904 9.27554,1.396328 12.47072,-3.534743 z M 37.534531,48.124347 C 36.678194,47.5951 32.992364,40.409108 29.343797,32.155477 25.695232,23.901843 22.325281,16.526317 21.85502,15.765418 c -1.209036,-1.956262 -2.649074,0.705407 -5.897876,10.901248 -1.518852,4.766667 -3.630557,10.557344 -4.692679,12.868172 -1.062123,2.310828 -1.9311318,4.860828 -1.9311318,5.666666 0,0.805839 -1.2667745,1.465161 -2.8150545,1.465161 -2.5307093,0 -2.7203704,-0.505043 -1.8776688,-4.999999 0.5155622,-2.75 1.7515089,-6.5 2.7465483,-8.333333 C 8.3821975,31.499999 11.517765,24.599999 14.355085,18 18.683826,7.9307522 20.035649,5.9485795 22.756925,5.6804121 25.199768,5.4396831 26.740253,6.5317508 29,10.106199 c 1.65,2.609957 3,5.537391 3,6.505411 0,0.96802 2.348162,6.51522 5.218139,12.327112 5.245263,10.622 5.897414,12.551209 5.606504,16.585292 -0.184966,2.564954 -3.060408,3.978365 -5.290112,2.600333 z m 54.930545,-0.400496 c -0.709332,-0.948119 -1.426661,-9.528395 -1.594068,-19.06728 -0.233555,-13.308142 0.139033,-17.949819 1.601359,-19.9496696 1.634534,-2.235359 2.215792,-2.348916 4.08456,-0.7979765 1.867166,1.5496109 2.126206,4.5915551 1.81095,21.2662661 -0.312861,16.547984 -0.685324,19.518906 -2.490493,19.865256 -1.167437,0.22399 -2.702976,-0.368479 -3.412308,-1.316596 z M 51.365898,45.435939 C 49.872615,40.731019 49.383831,10.396997 50.759873,7.8258409 51.916619,5.6644401 53.748554,5.3333332 64.550318,5.3333332 c 9.533617,0 12.852249,0.4768544 14.143089,2.0322213 0.927627,1.1177217 1.451093,2.2407961 1.16326,2.4957207 -0.407048,0.3605088 -16.241481,1.9067758 -21.523334,2.1018008 -0.55,0.02031 -1,2.096492 -1,4.61374 0,5.393657 1.649786,6.179467 11.333333,5.398178 8.887728,-0.71708 11.589844,0.211339 11.077728,3.806192 -0.378194,2.654756 -1.290624,2.916445 -11.411062,3.272736 l -10.999999,0.387257 v 6.073677 6.073679 L 70.162136,41.1276 c 11.151764,-0.400678 13.025483,-0.150949 14.333334,1.910355 2.465109,3.885257 -1.177412,4.919405 -17.40562,4.941626 -13.550081,0.01856 -14.984383,-0.21347 -15.723952,-2.543642 z m 72.284552,0.971736 c -0.34174,-0.957555 -0.31964,-7.518471 0.0491,-14.579812 0.36874,-7.061341 0.28292,-14.382821 -0.19072,-16.269955 -0.79523,-3.168427 -1.49853,-3.461532 -9.185,-3.827865 C 106.43975,11.354292 106,11.15723 106,7.9999998 V 4.6666666 h 22.66666 c 22.49104,0 22.66998,0.023244 23.09274,2.9999999 0.37332,2.6286195 -0.20438,3.0301875 -4.66667,3.2438515 -2.801,0.134118 -6.70876,0.136442 -8.68391,0.0052 -1.97513,-0.131279 -4.07513,0.508989 -4.66666,1.422815 -0.59152,0.913831 -1.0755,9.161506 -1.0755,18.328173 v 16.666666 l -4.19744,0.407676 c -2.56079,0.248717 -4.43971,-0.271169 -4.81877,-1.333333 z m 95.90511,0.703434 c -0.4889,-0.488887 -0.8889,-4.707854 -0.8889,-9.375479 0,-8.216892 -0.23305,-8.796224 -7.33333,-18.229806 -7.25329,-9.6368737 -8.66643,-13.1912147 -5.91952,-14.8888944 3.01331,-1.862331 8.86279,2.3198322 12.73585,9.1056834 2.17466,3.810115 4.83062,7.091844 5.90212,7.292732 1.1942,0.223886 3.49634,-2.575985 5.94822,-7.234233 4.7405,-9.0063521 7.6891,-11.3301057 10.63661,-8.3825941 2.06117,2.0611783 1.24692,3.5283851 -10.65873,19.2060031 C 228.72114,26.259415 228,30.230331 228,35.49547 c 0,4.557536 -0.36419,9.235501 -0.80932,10.39548 -0.80479,2.097259 -5.93774,2.917549 -7.63512,1.220159 z"
       id="path517" />
  </g>
</svg>
