<?xml version="1.0" encoding="UTF-8" standalone="no"?>
<!-- Created with Inkscape (http://www.inkscape.org/) -->

<svg
   version="1.1"
   id="svg92"
   width="248"
   height="53.333332"
   viewBox="0 0 248 53.333332"
   xmlns="http://www.w3.org/2000/svg"
   xmlns:svg="http://www.w3.org/2000/svg">
  <defs
     id="defs96" />
  <g
     id="g98">
    <path
       style="fill:#000000;stroke-width:1.33333"
       d="m 213.79344,48.609161 c -0.43425,-1.131628 -0.56541,-2.242851 -0.29149,-2.469387 2.64346,-2.186116 15.38384,-10.139775 16.24216,-10.139775 1.71876,0 5.07188,-3.756513 3.93278,-4.405909 C 233.12127,31.277329 228.31667,29.689134 223,28.064767 209.02936,23.796411 209.82113,20.938993 228.14408,9.5003654 236.16647,4.4921602 243.98804,2.1166114 242.03139,5.2825499 241.59543,5.9879524 237.36001,9.115207 232.61936,12.232004 227.87872,15.348802 224,18.347569 224,18.895933 c 0,0.548363 2.55,1.680925 5.66667,2.516806 12.16177,3.261755 14.99422,4.6466 15.4128,7.535663 0.3352,2.313513 -2.27296,4.623014 -13.87226,12.283732 -7.85678,5.188992 -14.81137,9.434531 -15.45465,9.434531 -0.64327,0 -1.52488,-0.925877 -1.95912,-2.057504 z M 4.8888889,48.444443 C 4.4,47.955555 4,38.015702 4,26.355881 V 5.1562069 L 7.6666667,5.5781035 C 10.998361,5.9614571 11.365456,6.5481369 11.684958,12 c 0.710654,12.126347 0.596397,11.999999 10.851603,11.999999 10.385615,0 10.744291,-0.410414 10.778566,-12.333333 0.01661,-5.7789673 0.296372,-6.3333328 3.196104,-6.3333328 4.127238,0 4.45637,1.9355161 4.071168,23.9412458 -0.324003,18.509584 -1.324251,21.929592 -5.619098,19.212584 -1.54031,-0.974432 -2.362494,-3.379564 -2.496622,-7.303364 -0.11,-3.217757 -0.259995,-7.526752 -0.333334,-9.575546 L 32,27.883174 l -9.666667,0.391745 -9.666666,0.391747 -0.401012,9.29647 C 11.886402,46.755203 10.772144,49.262737 7.2222223,49.312915 6.4277777,49.324115 5.3777777,48.933332 4.8888889,48.444443 Z M 92.391507,48.288924 C 89.94944,46.708347 89.77536,8.0595462 92.203236,6.4898817 93.191456,5.85098 98.356369,5.5071851 103.68082,5.7258929 c 10.96556,0.4504228 13.33352,1.9419017 14.50052,9.1332671 1.16032,7.15023 -3.42988,11.75989 -12.87204,12.926609 L 98,28.688941 v 9.953021 c 0,7.794905 -0.43366,10.032706 -2,10.320525 -1.1,0.202126 -2.723823,-0.100974 -3.608493,-0.673563 z M 108,22.666666 c 3.33083,-3.330828 3.51465,-10.395638 0.33333,-12.8106049 C 107.05,8.8818723 104.05,8.0657267 101.66667,8.0424043 l -4.333337,-0.042404 v 7.7777767 c 0,4.277778 0.4,8.177778 0.88889,8.666666 1.795107,1.795104 7.184847,0.81515 9.777777,-1.777777 z m 16.45351,24.591971 c -0.43788,-1.141082 0.86523,-9.841082 2.8958,-19.333332 4.42553,-20.6879158 6.04906,-21.8683882 11.82904,-8.600861 2.07445,4.761777 4.22085,8.380206 4.76977,8.040954 0.54892,-0.339253 2.33044,-4.271051 3.95892,-8.737325 2.4954,-6.84388 3.41219,-8.055593 5.83153,-7.707621 2.4364,0.350423 3.34896,2.329015 6.03248,13.079547 4.32592,17.330209 5.08727,24.245677 2.56267,23.276896 -1.06945,-0.41039 -3.35123,-5.7873 -5.09663,-12.009977 -1.73812,-6.196805 -3.54928,-11.266919 -4.02478,-11.266919 -0.47551,0 -2.00566,3.404283 -3.40032,7.565074 -1.39467,4.160789 -3.27523,7.811561 -4.17902,8.112825 -0.97542,0.32514 -3.32658,-3.155807 -5.78517,-8.565073 l -4.14191,-9.112826 -2.59918,12.637152 c -2.36463,11.4968 -3.81358,14.616941 -6.81522,14.675764 -0.57302,0.0112 -1.40011,-0.913196 -1.83798,-2.054278 z M 49.135581,45.666666 C 48.261587,35.354155 48.538405,10.866985 49.550603,8.9541444 50.654593,6.8678341 52.483143,6.6216341 64.404787,6.9541445 75.432004,7.2617084 78,7.7111126 78,9.3333331 c 0,1.5174219 -1.930312,2.0828109 -8,2.3432009 -12.962083,0.556075 -14,1.02676 -14,6.348868 v 4.641264 h 10.503407 c 10.835814,0 14.487782,1.572176 12.210629,5.256689 -0.794461,1.285466 -4.260703,1.870215 -11.590397,1.955282 l -10.456972,0.121362 -0.424295,5.175705 c -0.233363,2.846638 0.06664,5.65562 0.666667,6.242183 0.600028,0.586563 6.048368,0.634903 12.10742,0.107427 11.424953,-0.994626 13.650208,-0.33037 13.650208,4.074685 0,2.18311 -1.506174,2.4 -16.666667,2.4 -14.908793,0 -16.687524,-0.246103 -16.864419,-2.333333 z M 173.49527,46.195119 C 171.67189,43.998087 171.09019,9.7098086 172.84649,7.9535026 174.62271,6.177287 198.59631,6.0629685 200.35565,7.8223246 202.82887,10.295531 200.21996,11.305188 189.56076,12 l -10.22743,0.666666 v 4.666667 4.666666 l 10.6259,0.394686 c 10.45649,0.388393 13.15017,1.566792 11.77476,5.151069 -0.49366,1.286455 -3.64796,1.787579 -11.25182,1.787579 -11.72928,0 -12.72438,0.73721 -11.29314,8.366381 0.89369,4.763816 -0.53294,4.459897 16.48873,3.512636 7.91548,-0.440499 11.14571,1.385577 8.36913,4.73114 -2.31418,2.788433 -28.26885,3.002199 -30.55162,0.251629 z"
       id="path1164" />
  </g>
</svg>
