<?xml version="1.0" encoding="UTF-8" standalone="no"?>
<!-- Created with Inkscape (http://www.inkscape.org/) -->

<svg
   version="1.1"
   id="svg112"
   width="884"
   height="58.666668"
   viewBox="0 0 884 58.666668"
   xmlns="http://www.w3.org/2000/svg"
   xmlns:svg="http://www.w3.org/2000/svg">
  <defs
     id="defs116" />
  <g
     id="g118">
    <path
       style="fill:#000000;stroke-width:1.33333"
       d="m 69.673933,50.333334 c -0.725588,-0.916666 -2.540633,-4.966666 -4.033432,-9 C 64.147703,37.300001 60.524328,28.476635 57.588557,21.725856 53.186223,11.602723 52.568088,9.1883818 54.061344,7.9490887 c 4.0391,-3.3521547 6.547469,-0.7312428 11.865547,12.3979143 2.893124,7.142483 5.705909,12.986331 6.250634,12.986331 0.544727,0 2.652063,-5.25 4.682971,-11.666667 C 78.891403,15.25 81.102084,9.2500002 81.77312,8.3333335 83.145795,6.4581965 87.486117,6.089832 88.518847,7.7608216 88.890769,8.3626069 86.770073,15.412607 83.806187,23.427489 80.8423,31.44237 77.841992,40.37638 77.138833,43.280842 c -1.921114,7.935352 -4.693112,10.554209 -7.4649,7.052492 z M 8.494228,48.698094 C 8.0371556,47.506982 9.3189872,42.212638 11.342743,36.932885 13.366499,31.653133 16.663792,22.853618 18.670063,17.378408 24.366111,1.833623 28.414315,1.3047543 34.21688,15.34733 c 1.814953,4.392302 5.358636,12.850628 7.874851,18.79628 5.122348,12.103775 5.507724,14.546476 2.478346,15.708958 -3.725101,1.429456 -6.634417,-1.486687 -9.013796,-9.034942 -2.136257,-6.776992 -2.714454,-7.455664 -7.043824,-8.267859 -7.642152,-1.433676 -10.567245,0.787555 -12.735344,9.670853 -1.926654,7.894037 -5.514702,11.085284 -7.282885,6.477474 z M 30.666667,27.360315 c 0,-0.351826 -0.965148,-3.051826 -2.144774,-6 -3.082964,-7.705087 -4.879125,-7.252609 -6.549234,1.64984 l -0.936102,4.989846 h 4.815055 c 2.64828,0 4.815055,-0.287859 4.815055,-0.639686 z m 82.794353,22.070129 c -1.47759,-0.927559 -1.81161,-4.856511 -1.58437,-18.63623 l 0.28794,-17.46088 -7.74896,-0.02042 C 95.820397,13.29027 92.55476,11.952109 93.715149,8.9281803 94.341216,7.2966788 98.186967,6.8303198 114.24277,6.4388765 137.61199,5.8691313 140,6.1462464 140,9.4278498 c 0,2.0972472 -1.2968,2.5071182 -9,2.8445642 l -9,0.394253 -0.66667,4.657429 c -0.36666,2.561586 -0.36666,10.272131 0,17.134545 0.36667,6.862413 0.36667,12.935701 0,13.496196 -1.17506,1.796231 -5.93906,2.689207 -7.87231,1.475607 z m 36.58946,-0.01543 c -0.48725,-0.788392 -0.99471,-10.279296 -1.12769,-21.090898 L 148.681,8.6666669 152.34049,8.2447705 c 3.53999,-0.4081169 3.66018,-0.2121482 3.67992,6.0000005 0.0329,10.35624 1.42966,10.677955 8.05503,1.855353 5.82605,-7.758187 8.28756,-9.5502269 11.59123,-8.4386712 2.97418,1.0007019 1.78933,3.4637142 -4.9533,10.2966212 l -6.61994,6.708593 7.94385,8.666667 c 10.80297,11.785928 11.69964,15.405815 4.03641,16.295015 -2.40712,0.279308 -3.9533,-0.787865 -6.22286,-4.295015 -1.66095,-2.566666 -5.00687,-7.496052 -7.43538,-10.954191 L 158,28.091619 157.61275,38.712477 c -0.213,5.841472 -0.91392,10.620857 -1.55762,10.620857 -0.6437,0 -2.05874,0.340904 -3.14454,0.757566 -1.0858,0.41666 -2.37286,0.11252 -2.86011,-0.675878 z M 188,47.260182 c 0,-1.873566 1.10029,-5.923566 2.44511,-9 1.34481,-3.076433 4.44397,-10.993515 6.88702,-17.593515 2.44306,-6.6 5.17586,-12.8116674 6.07288,-13.803705 2.66856,-2.9511971 6.71202,-0.5459187 9.24627,5.500224 1.29948,3.100248 4.15293,9.536814 6.341,14.303481 6.12207,13.336826 8.29297,21.449637 6.11525,22.853178 -4.12805,2.660548 -5.92813,0.954312 -10.39508,-9.853177 l -2.61769,-6.333334 h -7.38071 c -7.161,0 -7.38094,0.10916 -7.38816,3.666667 -0.004,2.016667 -0.63229,5.916667 -1.396,8.666667 -1.12238,4.041514 -2.01554,5 -4.65922,5 -2.61855,0 -3.27067,-0.679196 -3.27067,-3.406486 z m 22.66559,-19.593515 c -6e-4,-0.183333 -1.12334,-3.288278 -2.49495,-6.89988 -2.18517,-5.753751 -2.66063,-6.248863 -3.84117,-4 -0.74102,1.411601 -1.76596,4.516547 -2.27766,6.89988 -0.91356,4.255091 -0.84418,4.333334 3.84224,4.333334 2.62495,0 4.77212,-0.15 4.77154,-0.333334 z m 25.29998,21.671419 C 233.94469,48.2046 233.86232,46.539896 234.43132,18.333334 234.66316,6.8405371 234.71635,6.6666668 238,6.6666668 c 1.83333,0 3.40515,0.45 3.49291,1 0.0877,0.5500001 0.33782,9.8556172 0.55568,20.6791502 0.34973,17.374659 0.13186,19.820587 -1.86067,20.886944 -1.24123,0.664287 -3.14129,0.711684 -4.22235,0.10532 z m 14.03256,-0.338085 c -0.32166,-0.916667 1.04788,-9.766667 3.04344,-19.666667 3.04403,-15.101495 4.0148,-18 6.02855,-18 1.67631,0 3.35523,2.349652 5.56647,7.790286 1.74141,4.284659 3.5432,8.167283 4.00397,8.628054 1.19712,1.197116 3.13711,-2.23462 4.75896,-8.41834 2.21677,-8.452072 2.35452,-8.666777 5.55864,-8.664604 2.76112,0.0019 3.39245,1.386195 6.84088,15 5.55793,21.941684 5.73533,23.664604 2.43668,23.664604 -1.49748,0 -2.99896,-1.05 -3.33664,-2.333333 -0.84972,-3.229365 -3.24776,-13.540691 -4.23099,-18.19286 -1.05001,-4.968174 -2.62582,-3.370539 -5.75468,5.834402 -1.3467,3.961927 -3.01753,7.393166 -3.71297,7.624977 -0.69543,0.23181 -2.96553,-3.483324 -5.04468,-8.255857 -2.07913,-4.77253 -4.19773,-8.677329 -4.708,-8.677329 -0.51027,0 -1.7068,4.65 -2.65896,10.333333 -0.95216,5.683334 -2.29027,11.383334 -2.97357,12.666667 -1.43803,2.700772 -4.96162,3.104593 -5.8171,0.666667 z m 46.97071,-0.02667 c -0.96525,-2.515416 12.97495,-41.3139186 15.39172,-42.8383801 3.40628,-2.1486249 6.34388,0.2872518 9.86715,8.1818861 8.32445,18.652773 11.46805,26.639084 12.07758,30.683157 0.61051,4.050607 0.39852,4.333333 -3.24925,4.333333 -3.56025,0 -4.10469,-0.64181 -6.21005,-7.320765 -2.52571,-8.012491 -4.92539,-10.012564 -12.01298,-10.012564 -5.52276,0 -6.17521,0.850952 -8.119,10.588961 -1.17901,5.906574 -2.04386,7.493018 -4.26029,7.814868 -1.52953,0.222107 -3.09773,-0.421614 -3.48488,-1.430492 z m 21.69783,-22.143835 c 0,-2.875169 -4.28963,-11.06154 -5.24256,-10.00496 -1.67115,1.852904 -3.95607,9.532395 -3.09302,10.395446 1.2374,1.237393 8.33558,0.904874 8.33558,-0.390486 z m 24.93498,22.994373 c -1.14322,-1.143223 -1.25637,-38.101591 -0.1256,-41.0481551 1.54291,-4.0207432 6.74872,-2.390183 11.35826,3.5576171 5.34364,6.89504 17.17854,20.199305 18.40273,20.687512 0.48845,0.194799 0.63876,-5.346712 0.33401,-12.314468 -0.47681,-10.9020139 -0.2451,-12.7872126 1.66164,-13.5188966 1.21864,-0.467638 2.63984,-0.4262655 3.15822,0.091939 0.51837,0.5182043 1.14666,10.1923276 1.39622,21.4980526 l 0.45367,20.555861 h -3.15172 c -2.39055,0 -5.88132,-3.362242 -14.45373,-13.921508 -6.21611,-7.656831 -11.90695,-13.956831 -12.64632,-14 -0.82552,-0.0482 -1.34008,5.443112 -1.33334,14.229372 0.009,11.860954 -0.34218,14.37711 -2.05404,14.71276 -1.13576,0.222692 -2.48576,-0.01584 -3,-0.530086 z m 63.81922,-0.928318 c -2.2075,-1.614162 -2.4098,-3.056994 -1.71564,-12.235536 0.43284,-5.723069 0.44265,-13.312829 0.0219,-16.866132 l -0.7652,-6.460552 h -8.5228 c -6.50828,0 -8.71232,-0.493917 -9.32465,-2.089624 -0.44103,-1.149292 -0.27219,-2.5977247 0.37519,-3.218738 0.94629,-0.9077598 37.79701,-2.1833508 44.17704,-1.5291923 0.91666,0.093988 1.66666,1.3434731 1.66666,2.776634 0,2.2891443 -1.09352,2.6536493 -9,3.0000003 l -9,0.394253 0.17367,18.333334 c 0.0955,10.083333 -0.30541,18.333333 -0.89096,18.333333 -0.58553,0 -1.88089,0.31324 -2.87859,0.696088 -0.99768,0.382848 -2.94014,-0.127386 -4.31658,-1.133868 z m 35.8344,0.04847 c -0.36358,-0.947457 -0.49475,-10.997457 -0.2915,-22.333334 L 443.33333,6.0000001 458,5.2484449 c 16.08237,-0.8240997 19.71779,0.034873 19.08091,4.5084368 -0.38663,2.7158483 -1.22799,2.9352273 -12.6235,3.2915113 -8.09237,0.25301 -12.3912,0.927398 -12.74886,1.999999 -0.29679,0.890051 -0.20262,8.678013 0.20925,17.306581 0.41188,8.628568 0.54887,16.278568 0.30443,17 -0.65712,1.939361 -8.19768,1.593779 -8.96696,-0.410955 z m 51.45676,-0.612756 c -13.22668,-6.672317 -14.21972,-31.133518 -1.61172,-39.7008784 6.61733,-4.496593 17.85633,-4.6213342 24.36918,-0.2704727 6.88627,4.6003321 9.48152,10.6803101 8.77471,20.5567991 -1.03608,14.477333 -8.12856,21.752629 -21.20137,21.747885 -3.14023,-0.0011 -7.78908,-1.05114 -10.3308,-2.333333 z m 15.15194,-2.46356 c 4.19298,-1.608995 7.52235,-9.269528 7.6393,-17.577178 0.18361,-13.04376 -2.52714,-18.27803 -10.21259,-19.71983 -8.68208,-1.628768 -13.68793,4.600577 -14.15712,17.617325 -0.49773,13.808155 7.50384,23.220252 16.73041,19.679683 z m 55.88915,2.636385 c -0.90516,-2.358777 4.18479,-12.412817 14.09292,-27.83742 10.4096,-16.2052451 12.31917,-16.3851482 21.02724,-1.980995 15.09975,24.976731 17.09852,29.605707 13.39695,31.026134 -0.95138,0.365077 -12.06774,0.735705 -24.70303,0.823619 -20.17428,0.140366 -23.07569,-0.10712 -23.81408,-2.031338 z m 35.41355,-6.670756 c 2.29166,-0.458333 4.16666,-1.536469 4.16666,-2.395857 0,-0.859388 -2.55,-5.45281 -5.66666,-10.207602 C 596.55,24.475083 593.24139,18.90609 592.3142,16.854334 590.21159,12.201503 588.09145,12.808209 584.66667,19.042783 583.2,21.712746 579.75,27.610238 577,32.148321 c -2.75,4.538084 -5,8.7612 -5,9.384704 0,1.306964 22.9518,1.543284 29.16667,0.300309 z M 625,49.224096 c -2.05639,-1.195584 -2.33333,-3.704112 -2.33333,-21.134841 0,-18.2706166 0.19201,-19.828452 2.51906,-20.4369892 5.14676,-1.3459073 5.5674,0.4127813 5.18359,21.6724352 -0.21943,12.153871 -0.91047,20.618485 -1.70265,20.856088 -0.73334,0.219949 -2.38334,-0.210563 -3.66667,-0.956693 z m 13.67124,-2.224095 c 0.003,-2.016667 1.80711,-8.09012 4.0102,-13.496562 2.20311,-5.406442 4.97348,-13.206443 6.15639,-17.333333 2.5703,-8.9671312 3.89685,-10.8367725 7.68889,-10.8367725 3.42599,0 5.56199,3.9013582 16.74433,30.5830165 4.57366,10.912983 4.47488,13.416984 -0.52921,13.416984 -2.66079,0 -3.89212,-1.207897 -6.04185,-5.926848 C 665.215,40.14672 664,36.86783 664,36.120065 c 0,-2.482026 -5.10771,-4.141295 -10.25529,-3.331494 -2.79292,0.439374 -5.2984,1.01205 -5.56774,1.272615 -0.26933,0.260565 -0.7978,3.353394 -1.17438,6.872952 -0.77971,7.287083 -2.24522,9.73253 -5.83251,9.73253 -1.84321,0 -2.50221,-0.966974 -2.49884,-3.666667 z m 22.21757,-20 c -0.33104,-0.55 -1.58022,-3.356231 -2.77596,-6.236067 -2.4689,-5.94621 -4.11004,-5.277879 -5.49081,2.236067 l -0.91881,5 h 4.89374 c 2.69156,0 4.62288,-0.45 4.29184,-1 z m 26.23331,22.611145 c -2.05655,-1.275977 -2.12795,-2.154137 -1.94676,-23.944479 l 0.15797,-19.0000002 h 3.25806 c 2.20378,0 4.68461,1.7621899 7.66666,5.4458222 8.10043,10.00619 17.39112,19.887512 18.69879,19.887512 0.77585,0 1.11013,-4.936792 0.83509,-12.333334 C 715.36071,8.0693551 715.49247,7.3333335 718,7.3333335 c 2.50936,0 2.706,1.1111111 3.33333,18.8354175 0.36667,10.35948 0.47267,19.809481 0.23558,21.000001 -0.9119,4.578664 -5.45176,1.870304 -13.6928,-8.168751 -4.66544,-5.683334 -10.47392,-12.433334 -12.90774,-15 l -4.42513,-4.666667 0.30648,14.355237 c 0.29837,13.976167 -0.61011,17.856813 -3.7276,15.922575 z m 51.88619,-1.137353 c -12.54856,-6.186196 -14.55536,-30.265315 -3.24156,-38.8947664 3.67338,-2.8018302 6.3897,-3.6055862 13.41945,-3.9708059 8.18159,-0.425062 9.15883,-0.1686907 13.62387,3.5741116 11.66104,9.7748347 9.42148,34.1810457 -3.6372,39.6373117 -5.85592,2.44676 -14.81139,2.293161 -20.16456,-0.345851 z m 17.22248,-5.624925 C 761.15361,38.450321 762.86119,30.160642 760.93737,20 758.74292,8.4100054 748.80448,4.3237186 741.23077,11.897436 c -3.59972,3.599716 -3.89705,4.643695 -3.89245,13.666667 0.005,10.787783 2.85253,17.52591 8.33677,19.730799 4.74138,1.906228 6.01498,1.611103 10.5557,-2.446034 z m 33.81688,5.861394 C 779.21071,45.80181 773.90599,36.247006 777.13839,25.458203 779.55168,17.403384 787.77895,12 797.63007,12 c 6.52088,0 4.06941,4.063799 -4.13238,6.850248 -8.50438,2.889258 -10.73164,5.410015 -10.78862,12.210359 -0.0533,6.373561 4.30065,11.063249 11.47529,12.359863 2.83193,0.511792 6.30711,1.530538 7.7226,2.263878 2.50864,1.299676 2.51061,1.379421 0.0785,3.157833 -2.96154,2.165535 -3.39526,2.160741 -11.93778,-0.13192 z m -256.093,-1.014285 c -0.38506,-1.003415 -0.53238,-10.195496 -0.32738,-20.42685 0.36116,-18.0260511 0.46372,-18.6154069 3.30987,-19.0202925 2.74928,-0.3911063 2.96249,0.1632433 3.33333,8.6666675 l 0.39618,9.084499 4,-0.287894 c 9.47001,-0.681586 12.33364,-16.3787735 2.98797,-16.3787735 -1.36328,0 -2.12001,-0.5803472 -1.68163,-1.2896604 1.3707,-2.217837 9.21532,0.072329 12.48348,3.6444389 2.41712,2.641916 2.93788,4.34003 2.30358,7.511564 -1.16964,5.848167 -3.61032,7.718379 -12.3711,9.479542 l -7.7223,1.552401 v 9.217525 c 0,8.549217 -0.21795,9.248472 -3.00596,9.644373 -1.65328,0.234767 -3.321,-0.394127 -3.70604,-1.39754 z m 282.33504,-2.30606 c -14.21654,-10.298403 -6.50148,-30.932562 12.3605,-33.058582 5.5936,-0.630479 6.23232,-0.436913 5.80914,1.760469 -0.28702,1.49035 -2.0576,2.797776 -4.4674,3.298792 -11.39283,2.368658 -17.17079,9.601679 -13.92663,17.433765 1.99155,4.808025 8.37371,9.163451 13.43809,9.170656 3.57687,0.0051 7.17988,2.877252 5.59614,4.460996 -0.48254,0.482527 -3.68731,0.877321 -7.12172,0.877321 -4.80234,0 -7.50155,-0.910676 -11.68812,-3.943417 z m 27.78022,1.40742 c -2.13654,-3.992176 -1.83168,-35.448603 0.3612,-37.2685304 2.52135,-2.092525 23.26666,-2.7104366 25.91767,-0.7719731 1.91207,1.3981445 1.85024,1.7094845 -0.59987,3.0207415 -1.5024,0.804064 -3.06002,1.13356 -3.46137,0.732213 -0.40135,-0.401347 -4.031,-0.317255 -8.06589,0.186872 -6.18063,0.772219 -7.45823,1.402903 -8.11107,4.004016 -1.57187,6.262854 0.0217,7.299325 11.22273,7.299325 8.25972,0 10.54766,0.43333 11.19502,2.120322 1.44509,3.765871 -0.49027,4.546344 -11.27371,4.546344 h -10.58797 v 6.587339 6.587339 L 863,43.58734 c 11.52911,-0.237443 12.33333,-0.08012 12.33333,2.412661 0,2.485495 -1.01433,2.692236 -14.93006,3.043015 -13.69216,0.345142 -15.04642,0.158944 -16.33334,-2.245679 z"
       id="path870" />
  </g>
</svg>
