<?xml version="1.0" encoding="UTF-8" standalone="no"?>
<!-- Created with Inkscape (http://www.inkscape.org/) -->

<svg
   version="1.1"
   id="svg72"
   width="384"
   height="61.333332"
   viewBox="0 0 384 61.333332"
   xmlns="http://www.w3.org/2000/svg"
   xmlns:svg="http://www.w3.org/2000/svg">
  <defs
     id="defs76" />
  <g
     id="g78">
    <path
       style="fill:#000000;stroke-width:1.33333"
       d="m 325.54125,52.917195 c -1.07846,-1.299469 -0.31229,-4.814832 2.97863,-13.666667 2.4368,-6.554457 5.47341,-15.517195 6.74803,-19.917195 2.77526,-9.580302 4.0525,-11.3333332 8.25726,-11.3333332 2.24402,0 3.63762,1.0943292 4.66943,3.6666662 0.80892,2.016667 1.97949,4.866667 2.60127,6.333334 4.35428,10.271021 11.85729,31.05168 11.8634,32.857347 0.008,2.417351 -3.05954,4.086993 -5.65927,3.080145 -0.91667,-0.355013 -3.20599,-4.386182 -5.08739,-8.958153 l -3.4207,-8.312673 -6.02942,-0.397544 c -7.21986,-0.476037 -8.13029,0.469009 -10.33782,10.730877 -1.64607,7.651876 -3.64939,9.452476 -6.58342,5.917196 z M 346.66667,30.829498 C 346.66667,28.541215 342.61261,20 341.52649,20 c -0.94322,0 -4.19316,8.645526 -4.19316,11.154693 0,0.464918 2.1,0.845306 4.66667,0.845306 2.56667,0 4.66667,-0.526725 4.66667,-1.170501 z M 127.70594,51.211567 c -5.17015,-1.590316 -6.9158,-2.996941 -9.77588,-7.877299 -4.19228,-7.153585 -4.78139,-17.732323 -1.38594,-24.8877 4.9804,-10.4954144 18.56379,-14.9176714 27.33328,-8.898725 7.51599,5.158602 9.93735,9.527591 10.54185,19.021287 0.73647,11.565858 -2.79429,18.116656 -11.86853,22.020286 -7.3664,3.168939 -6.66121,3.139384 -14.84478,0.622151 z m 12.21571,-3.837721 c 2.11954,-1.096052 4.44046,-3.827586 5.26712,-6.198966 2.2446,-6.438837 1.81042,-18.503007 -0.8575,-23.827252 -4.28143,-8.5442065 -14.44863,-8.7900487 -19.30961,-0.466906 -4.94923,8.474249 -2.29492,27.391492 4.31167,30.729246 4.31526,2.180136 5.98792,2.142835 10.58832,-0.236122 z M 126.66667,29.999999 c 0,-3.185185 0.35555,-3.333333 8,-3.333333 7.64444,0 8,0.148148 8,3.333333 0,3.185186 -0.35556,3.333334 -8,3.333334 -7.64445,0 -8,-0.148148 -8,-3.333334 z m 35.72882,21.853164 c -0.29882,-0.896485 2.66995,-10.380192 6.59726,-21.074902 3.92732,-10.694711 7.40645,-20.233251 7.73141,-21.1967561 0.36351,-1.077789 2.18873,-1.5908068 4.74376,-1.3333333 4.05915,0.4090455 4.32875,0.883931 11.93997,21.0319214 7.96299,21.079179 8.28342,24.053239 2.59142,24.053239 -1.64326,0 -3.24472,-2.416969 -5.37398,-8.110524 -2.21625,-5.926194 -3.93257,-8.452489 -6.37278,-9.380258 -2.90243,-1.103501 -10.50272,-0.843512 -11.526,0.39428 -0.19543,0.236409 -1.21375,4.029836 -2.26291,8.429836 -1.51743,6.363852 -2.48197,8.083492 -4.71619,8.408236 -1.54474,0.224529 -3.05312,-0.325254 -3.35196,-1.221739 z m 21.57039,-24.609585 c -0.7158,-1.882699 -2.00456,-4.732698 -2.86389,-6.333333 -1.54358,-2.875129 -1.58306,-2.86198 -3.27207,1.089755 -2.95819,6.921185 -2.39351,8.666666 2.80375,8.666666 4.42404,0 4.57478,-0.154859 3.33221,-3.423088 z m 25.67304,24.52867 c -2.5752,-2.575194 -2.27217,-37.58684 0.34411,-39.758156 1.09065,-0.905168 2.90634,-1.291443 4.03488,-0.858388 3.03514,1.164696 2.35264,41.27832 -0.71232,41.866395 -1.11527,0.213985 -2.76527,-0.348447 -3.66667,-1.249851 z m 15.26187,0.463319 c -3.40378,-0.656797 -2.7176,-2.942997 3.07206,-10.235568 10.59175,-13.341182 10.20539,-11.793 4.42858,-17.745605 -6.14078,-6.327644 -9.02328,-11.37736 -8.00671,-14.026516 0.59983,-1.5630981 4.02219,-1.9635855 17.17717,-2.010084 18.79852,-0.066447 21.09478,0.3452633 21.09478,3.782206 0,3.449253 -2.90612,4.060309 -16.3339,3.434449 -13.19498,-0.615009 -13.4344,-0.157237 -4.44221,8.493773 2.62687,2.527189 4.77611,4.971051 4.77611,5.430803 0,0.459753 -3.04284,4.092053 -6.76188,8.071777 l -6.76188,7.235864 14.82069,0.377552 c 11.84876,0.301842 14.97809,0.787708 15.60559,2.422956 1.5509,4.041601 -1.92871,4.958266 -19.28183,5.079581 -9.43385,0.06595 -18.15781,-0.07408 -19.38657,-0.311188 z m 146.65477,0.208876 c -0.48889,-0.488888 -0.88889,-9.788888 -0.88889,-20.666666 V 12 H 374 c 3.53857,0 3.68044,0.343135 3.58308,8.666666 -0.0343,2.933333 -0.10453,11.483333 -0.15607,19 -0.0845,12.329572 -0.33284,13.666666 -2.53812,13.666666 -1.34445,0 -2.84445,-0.4 -3.33333,-0.888889 z M 84.716201,50.333332 c -0.29339,-0.916666 -0.760737,-5.266666 -1.038548,-9.666666 -0.457868,-7.251796 -1.21748,-8.989021 -8.121973,-18.57489 -4.189275,-5.81619 -7.406101,-11.21619 -7.148501,-12 0.658264,-2.0029299 5.636225,-2.5191595 8.664408,-0.8985251 1.398364,0.7483816 4.279316,4.6846301 6.402113,8.7472211 2.122799,4.062589 4.592056,7.38795 5.48724,7.389693 0.895183,0.0017 3.189397,-3.298189 5.098255,-7.333183 C 98.131239,9.3893897 100.553,6.6666665 104.13708,6.6666665 c 4.89068,0 4.18627,3.7812865 -2.2871,12.2772105 -3.515741,4.6142 -6.99864,8.804218 -7.739775,9.311152 -0.741136,0.506932 -1.58593,5.306932 -1.877322,10.666666 -0.540424,9.940335 -1.76522,13.078304 -5.104656,13.078304 -1.033223,0 -2.118634,-0.75 -2.412026,-1.666667 z m 204.463469,0.08448 c -0.0845,-0.963129 -0.0285,-7.852324 0.12426,-15.309321 C 289.69537,16.015186 289.68735,16 279.20164,16 c -6.76787,0 -8.79936,-0.470894 -9.46012,-2.192811 -1.85973,-4.8463691 2.98887,-5.890866 25.55653,-5.5054554 l 21.36862,0.3649329 V 12 c 0,3.187398 -0.39403,3.350593 -9,3.727586 -10.41178,0.456098 -9.44882,-1.648433 -9.58091,20.93908 l -0.0857,14.666666 -4.33334,0.417811 c -2.84813,0.274612 -4.386,-0.182372 -4.487,-1.333333 z M 17.047797,48.426067 C 16.890752,47.09173 16.740752,38.799999 16.714464,29.999999 16.674941,16.769876 16.320432,13.96892 14.666667,13.820466 13.566667,13.721722 11.916667,13.571722 11,13.487133 9.0438057,13.306615 8.7711077,9.0968705 10.597052,7.2666665 11.33491,6.5270873 22.431489,6.1619083 37.263719,6.3890891 L 62.666667,6.7781783 V 9.9671924 C 62.666667,12.45495 61.860376,13.248981 59,13.578104 L 55.333333,14 54.666667,31.999999 54,49.999999 h -3.333333 c -2.638594,0 -3.355275,-0.69474 -3.438608,-3.333333 -0.05789,-1.833334 -0.2079,-10.107599 -0.333334,-18.387256 l -0.228058,-15.053923 -11,0.387257 L 24.666667,14 24,31.999999 c -0.645163,17.419389 -0.763435,18.013743 -3.666667,18.426068 -2.095266,0.297575 -3.086112,-0.30558 -3.285536,-2 z"
       id="path845" />
  </g>
</svg>
