<?xml version="1.0" encoding="UTF-8" standalone="no"?>
<!-- Created with Inkscape (http://www.inkscape.org/) -->

<svg
   version="1.1"
   id="svg42"
   width="94.666664"
   height="53.333332"
   viewBox="0 0 94.666664 53.333332"
   xmlns="http://www.w3.org/2000/svg"
   xmlns:svg="http://www.w3.org/2000/svg">
  <defs
     id="defs46" />
  <g
     id="g48">
    <path
       style="fill:#000000;stroke-width:1.33333"
       d="m 15.333333,47.288672 c -2.2,-1.091166 -5.4999999,-4.183544 -7.3333332,-6.871948 -2.7886255,-4.089246 -3.3333333,-6.445117 -3.3333333,-14.416725 0,-7.907517 0.5518576,-10.334101 3.2435819,-14.262415 C 12.281956,5.3574943 15.104478,3.8237203 23.882349,3.0582586 30.162767,2.5105837 32.055151,2.900803 35.927911,5.5421169 c 6.708874,4.5756111 9.765456,10.6375521 9.867386,19.5694141 0.16439,14.405021 -8.109013,24.251886 -20.325808,24.191441 -3.374886,-0.0167 -7.936156,-0.923133 -10.136156,-2.0143 z m 17.858993,-5.82362 c 3.883668,-3.627889 4.141006,-4.459138 4.141006,-13.376157 0,-11.960985 -2.483649,-18.2467147 -8.15135,-20.6298045 -8.708404,-3.6616089 -15.316266,1.6516025 -16.71217,13.4378245 -1.126067,9.50788 0.289816,15.540249 4.7743,20.340907 5.025286,5.379585 10.351363,5.455471 15.948214,0.22723 z M 54.418633,28.999999 C 54.141569,18.55 54.15401,8.9499998 54.446281,7.6666665 c 0.771584,-3.3879531 6.217003,-2.9077074 9.109175,0.803362 8.355446,10.7212255 19.692039,23.5299705 20.825592,23.5299705 0.861426,0 1.008402,-4.720122 0.415176,-13.333333 -0.884557,-12.8431645 -0.81804,-13.3333328 1.809395,-13.3333328 2.509642,0 2.745516,0.8794033 2.950416,10.9999998 0.542976,26.819186 0.409662,30.778495 -1.052932,31.271322 -1.280664,0.431525 -6.454031,-5.013081 -24.012351,-25.271322 -5.599199,-6.46018 -6.289335,-5.021189 -5.275562,11 0.885148,13.988478 0.807355,14.666666 -1.68237,14.666666 -2.445995,0 -2.642166,-1.196858 -3.114187,-19 z"
       id="path1859" />
  </g>
</svg>
