<?xml version="1.0" encoding="UTF-8" standalone="no"?>
<!-- Created with Inkscape (http://www.inkscape.org/) -->

<svg
   version="1.1"
   id="svg2"
   width="337.33334"
   height="54.666668"
   viewBox="0 0 337.33334 54.666668"
   xmlns="http://www.w3.org/2000/svg"
   xmlns:svg="http://www.w3.org/2000/svg">
  <defs
     id="defs6" />
  <g
     id="g8">
    <path
       style="fill:#000000;stroke-width:1.33333"
       d="m 60.666668,48.139791 c -4.317692,-0.652881 -5.418831,-1.411023 -5.782295,-3.981153 -0.435772,-3.081437 -0.228483,-3.156412 7.056624,-2.552273 4.128072,0.342332 7.750087,0.226807 8.048924,-0.256721 C 70.288759,40.866116 68.413563,37.514638 65.82282,33.901918 61.553633,27.948651 61.164901,26.669493 61.673067,20.24676 62.414601,10.874434 66.393108,6.7332018 76.135111,5.1931984 84.855362,3.8147121 88.967744,4.717063 93.601886,9.0258085 100.57302,15.507447 100.08464,27.559562 92.526099,35.57395 c -2.508423,2.659703 -4.227316,5.169278 -3.819761,5.576831 0.407553,0.407553 3.865354,0.765355 7.684001,0.795113 6.502541,0.05067 6.943001,0.265567 6.943001,3.38744 0,3.136927 -0.46811,3.357383 -7.944447,3.741494 -9.506453,0.488411 -14.055558,-0.471163 -14.055558,-2.964835 0,-1.011563 1.885284,-5.350131 4.18952,-9.641264 5.724659,-10.660919 5.934324,-19.446207 0.574129,-24.056852 -4.744078,-4.0806852 -9.610006,-3.6090447 -13.247279,1.284021 -3.435481,4.621605 -3.301061,10.929153 0.50529,23.710167 1.558701,5.233828 2.641479,9.678979 2.406172,9.878113 -1.226942,1.03833 -10.434527,1.56025 -15.094499,0.855613 z M 253.89829,46.721457 C 241.28178,40.28921 238.35836,19.139526 248.61852,8.5246681 c 6.54102,-6.7671353 21.41725,-7.2929143 29.65917,-1.0482609 10.16412,7.7010528 8.81784,30.0579538 -2.29659,38.1377848 -5.355,3.892917 -15.61029,4.407133 -22.08281,1.107265 z m 17.39561,-6.680285 c 3.10107,-3.236818 3.89079,-5.405571 4.33009,-11.891373 0.79546,-11.743829 -1.40516,-18.4373445 -6.92734,-21.0706928 -3.84211,-1.8321751 -5.12363,-1.8924293 -8.70432,-0.4092576 -5.37154,2.2249612 -7.76171,5.9420724 -8.8293,13.7310374 -2.43483,17.763936 10.15792,30.049797 20.13087,19.640286 z m 19.83468,7.239352 c -0.66695,-1.738022 5.74041,-11.886979 11.87592,-18.810918 2.52476,-2.849204 2.50329,-2.906347 -4.23343,-11.26654 -3.72409,-4.621546 -6.77106,-9.1828687 -6.77106,-10.1362721 0,-1.2106923 2.31208,-1.7613402 7.66666,-1.8259074 4.21667,-0.050845 12.52916,-0.3677568 18.47222,-0.7042465 8.80816,-0.4987094 11.13373,-0.2163714 12.58093,1.5274008 2.99516,3.6089408 -0.90881,4.7279962 -15.05445,4.3152842 -7.15071,-0.208628 -13.00071,-0.144013 -13,0.143591 7.2e-4,0.287603 2.7013,3.683299 6.0013,7.54599 3.3,3.862691 6,7.314439 6,7.670552 0,0.356113 -2.7,3.505863 -6,6.999443 -3.3,3.493581 -6,6.863236 -6,7.488121 0,0.624886 6.75,0.979442 15,0.787902 14.66982,-0.340591 15.0094,-0.282087 15.42686,2.657705 0.23476,1.653279 -0.36524,3.255043 -1.33334,3.559476 -0.9681,0.304433 -10.34262,0.866274 -20.83228,1.248535 -15.71578,0.572709 -19.20008,0.361512 -19.79933,-1.200116 z M 5.3333334,45.943068 c 0,-2.193056 8.7851776,-14.721718 12.4636466,-17.774575 2.965192,-2.460891 2.809474,-3.305636 -1.463646,-7.940037 C 9.5998482,12.925677 6.4004408,7.9502851 7.1618936,5.9659707 8.3068823,2.9821781 45.059514,3.0683383 46.206565,6.0575043 46.640812,7.1891315 46.568858,8.5391315 46.04667,9.0575044 45.524481,9.575877 38.757231,9.8498517 31.008335,9.6663368 L 16.919436,9.3326732 19.416071,12.333004 c 1.373149,1.650182 4.481296,5.141008 6.906992,7.757394 l 4.410358,4.757065 -6.951205,7.242935 -6.951205,7.242936 15.236524,0.666667 c 13.561179,0.593363 15.289211,0.942315 15.715686,3.173564 0.263539,1.378793 -0.329875,3.019605 -1.318696,3.646249 C 45.475704,47.446458 35.816667,47.968355 25,47.979584 8.1566534,47.997071 5.3333334,47.70471 5.3333334,45.943068 Z M 129.83508,46.979584 c -0.9964,-0.651463 -1.44301,-6.785526 -1.33333,-18.312917 L 128.66667,11.333334 122,11.650651 c -9.1814,0.437013 -12.66666,-0.535211 -12.66666,-3.5334017 0,-1.3742369 0.94907,-2.8628057 2.10904,-3.3079308 1.15998,-0.4451251 11.95998,-0.8093184 24.00001,-0.8093184 20.55017,0 21.89095,0.1538025 21.89095,2.5111582 0,2.9497845 -3.44091,4.1116447 -12.25284,4.1373027 l -6.25286,0.01821 -0.41381,5 c -0.22761,2.75 -0.11387,9.990531 0.25284,16.090068 0.36667,6.099537 0.236,12.249537 -0.29037,13.666667 -0.96623,2.601351 -5.64018,3.45293 -8.54122,1.556182 z m 36.33516,-0.03747 C 165.6421,46.087546 164.87791,12.188649 165.23779,5.5780984 165.29832,4.4653878 166.67555,3.977308 169,4.244765 172.536,4.6516321 172.69043,4.999268 173.33334,14 L 174,23.333334 l 9.66667,0.391747 9.66667,0.391745 0.22626,-4.391746 c 0.12446,-2.415461 0.075,-6.941746 -0.11001,-10.0584131 -0.32357,-5.4526133 -0.18887,-5.6666668 3.56644,-5.6666668 h 3.90273 l 0.82206,20.0261939 c 0.45213,11.014407 0.48121,20.914407 0.0647,22 -0.41661,1.085594 -2.11474,1.973807 -3.77368,1.973807 -2.4496,0 -3.17148,-0.939291 -3.84266,-5 -0.45455,-2.75 -0.83306,-7.55 -0.84112,-10.666667 l -0.0147,-5.666667 H 183.2439 173.15444 l 0.19062,9.000001 c 0.1048,4.95 0.14511,9.75 0.0895,10.666666 -0.11027,1.815669 -6.20281,2.326263 -7.26427,0.608788 z m 44.76395,-0.619772 c -1.93064,-2.326287 -1.91528,-38.3130379 0.0174,-40.6556782 0.85833,-1.0404316 4.84332,-1.6666667 10.60565,-1.6666667 8.0227,0 9.65898,0.4282889 12.5034,3.2727274 2.34754,2.347525 3.27274,4.7318925 3.27274,8.4342475 0,7.148566 -3.97207,10.663346 -12.66667,11.208419 L 218,27.333334 v 10 c 0,9.123839 -0.24386,10.034843 -2.78334,10.397676 -1.53083,0.218722 -3.45795,-0.415174 -4.28247,-1.40866 z m 16.96904,-25.83549 c 5.36212,-6.816832 2.36729,-13.8201882 -5.90991,-13.8201882 -3.89922,0 -4.53778,0.477371 -4.90476,3.6666672 C 216.85652,12.35 216.8797,16.25 217.14003,19 c 0.42461,4.484929 0.86104,5.000001 4.23656,5.000001 2.47732,0 4.70741,-1.200414 6.52661,-3.513146 z"
       id="path1818" />
  </g>
</svg>
