<?xml version="1.0" encoding="UTF-8" standalone="no"?>
<!-- Created with Inkscape (http://www.inkscape.org/) -->

<svg
   version="1.1"
   id="svg72"
   width="270.66666"
   height="56"
   viewBox="0 0 270.66666 56"
   xmlns="http://www.w3.org/2000/svg"
   xmlns:svg="http://www.w3.org/2000/svg">
  <defs
     id="defs76" />
  <g
     id="g78">
    <path
       style="fill:#000000;stroke-width:1.33333"
       d="m 236.44777,49.910377 c -1.04492,-2.723012 -0.11054,-3.549816 10.21889,-9.042542 4.76667,-2.534695 8.66667,-5.381163 8.66667,-6.325484 0,-0.94432 -3.54532,-2.769411 -7.8785,-4.055755 -8.63758,-2.564159 -11.95202,-4.991664 -10.80897,-7.916541 1.42663,-3.650503 22.022,-17.0770722 26.35413,-17.1808343 4.22854,-0.10128 2.45447,2.0573153 -7,8.5172643 -5.13333,3.507451 -9.33333,6.780466 -9.33333,7.273364 0,0.4929 4.15833,1.967395 9.24075,3.276655 15.46614,3.984175 15.52021,7.094517 0.2862,16.465028 -5.6065,3.448573 -11.62454,7.352009 -13.37343,8.674301 -3.90267,2.950695 -5.33372,3.021332 -6.37241,0.314544 z M 103.33333,48.674099 C 95.745928,45.307117 91.622659,39.509979 90.937334,31.24586 c -0.79823,-9.6256 1.663744,-16.993353 7.34536,-21.9818787 3.983636,-3.4976824 5.440346,-3.930648 13.224646,-3.930648 10.53132,0 15.66411,2.5585275 19.28622,9.6135497 3.0084,5.85965 3.3437,16.585353 0.71161,22.762609 -4.49043,10.538568 -17.61811,15.647923 -28.17184,10.964607 z m 15.18939,-7.193514 c 2.93679,-3.00429 3.96375,-5.599056 4.66333,-11.78253 1.31401,-11.614236 -1.26103,-18.189269 -7.99386,-20.4113007 -5.12577,-1.691658 -8.20014,-0.4827548 -12.42212,4.8846297 -2.20234,2.799815 -2.770072,5.424945 -2.770072,12.808428 0,8.783743 0.245592,9.532447 4.533332,13.820188 5.54371,5.543705 9.06794,5.71516 13.98939,0.680585 z m 23.7192,7.527855 c -2.05254,-1.500845 -2.2746,-3.97532 -1.94608,-21.684639 L 140.66666,7.3333333 H 144 147.33333 V 28.555556 c 0,21.719109 -0.51739,23.797499 -5.09141,20.452884 z m 15.9803,0.769337 c -0.48889,-0.488888 -0.88889,-10.388888 -0.88889,-22 V 6.6666667 H 160.66666 164 V 23.380245 c 0,18.729019 -0.18014,18.532812 9.24014,10.064427 5.26366,-4.731772 7.50915,-5.155356 8.44092,-1.592269 0.9053,3.461841 0.3403,4.080273 -10.89017,11.920116 -10.16297,7.094637 -11.05371,7.520226 -12.56867,6.005258 z m 39.07287,-1.81393 c -2.58769,-1.549554 -6.10823,-4.865387 -7.8234,-7.36852 -2.67737,-3.907366 -3.04036,-5.778188 -2.56615,-13.225543 0.85406,-13.412648 7.48112,-20.5623792 19.91144,-21.4818345 8.82333,-0.6526499 15.08856,2.1538857 19.59735,8.7787175 2.7943,4.105698 3.10612,5.804634 2.59396,14.133366 -0.87018,14.150907 -6.53864,20.389206 -19.43836,21.39245 -6.04335,0.470006 -8.51875,0.02057 -12.27484,-2.228636 z m 19.38618,-6.891044 c 2.76435,-3.28523 3.31872,-5.341476 3.31872,-12.309472 0,-13.567039 -2.25269,-17.473176 -11.57694,-20.0742363 -2.08502,-0.5816278 -4.16452,0.3086172 -7.33333,3.1394273 -4.34976,3.885787 -4.42306,4.138529 -4.42306,15.251005 0,9.4216 0.44323,11.793006 2.66667,14.267477 5.48036,6.099115 12.07284,5.994915 17.34794,-0.274201 z M 22.465649,48.417811 C 22.355089,47.821348 22.139306,41.333333 21.98613,34 21.535839,12.442078 22.595398,14.666667 12.777777,14.666667 3.8318594,14.666667 1.9530112,13.421528 4.2270816,9 5.2988875,6.9160632 7.8547639,6.6666667 28.139646,6.6666667 h 22.712489 l -0.426068,3 c -0.38463,2.7082223 -1.33382,3.0648393 -9.759401,3.6666663 L 31.333333,14 v 17.333333 17.333334 l -4.333334,0.41781 c -2.383333,0.229798 -4.42379,-0.0702 -4.53435,-0.666666 z m 36.591134,-0.686802 c -2.018575,-2.538381 -2.290235,-36.77484 -0.310728,-39.1600001 1.10563,-1.3322037 4.506727,-1.9043422 11.32043,-1.9043422 8.934145,0 9.968594,0.2906542 12.503406,3.5131453 3.640922,4.628683 3.606302,11.597729 -0.07465,15.027057 -1.714285,1.597099 -5.718989,3.004028 -10.113594,3.553098 l -7.275503,0.909014 0.446927,9.498843 c 0.413316,8.784496 0.237609,9.528749 -2.336414,9.896519 -1.530837,0.218721 -3.402781,-0.381279 -4.159875,-1.333334 z m 17.12855,-25.324621 c 1.959638,-2.752059 2.484684,-4.878184 1.839489,-7.448847 C 76.909491,10.51371 75.218405,9.3799081 69.666665,9.3537504 l -4.333333,-0.020417 v 8.5774896 8.577489 l 4.0548,-0.115293 c 2.870777,-0.08163 4.855594,-1.2399 6.797201,-3.966636 z"
       id="path1442" />
  </g>
</svg>
