<?xml version="1.0" encoding="UTF-8" standalone="no"?>
<!-- Created with Inkscape (http://www.inkscape.org/) -->

<svg
   version="1.1"
   id="svg32"
   width="221.33333"
   height="56"
   viewBox="0 0 221.33333 56"
   xmlns="http://www.w3.org/2000/svg"
   xmlns:svg="http://www.w3.org/2000/svg">
  <defs
     id="defs36" />
  <g
     id="g38">
    <path
       style="fill:#000000;stroke-width:1.33333"
       d="m 186,50.666667 c -1.31136,-2.121823 0.14825,-3.480576 9.14161,-8.509948 11.01675,-6.160916 12.86191,-8.308027 8.66073,-10.077959 -1.72462,-0.726573 -5.65868,-1.957384 -8.74234,-2.735136 -6.38622,-1.610709 -9.9502,-4.543015 -8.88752,-7.312303 0.67334,-1.754724 8.87248,-8.697988 10.27124,-8.697988 0.3419,0 3.74222,-2.1 7.55628,-4.6666663 6.9475,-4.6753288 12.72,-6.1600027 11.6669,-3.0007051 -0.30542,0.9162788 -4.93718,4.6360314 -10.2928,8.2661174 -10.79272,7.315408 -10.90648,6.88048 2.7848,10.64669 12.73336,3.502708 13.29467,7.404374 2.03976,14.178262 -3.77593,2.272585 -10.13878,6.181948 -14.13968,8.687472 -7.88604,4.938562 -8.8144,5.235941 -10.05898,3.222164 z M 91.264999,49.222768 C 90.774191,48.428623 91.051831,41.078623 91.881976,32.889435 92.712123,24.700245 93.528283,16.2 93.695667,14 c 0.230174,-3.025309 1.03958,-4.1043755 3.321689,-4.4283425 2.61634,-0.3714144 3.748264,1.1348215 8.516904,11.3333335 L 111.03382,32.666667 116.42883,21 c 4.43843,-9.598061 5.92555,-11.6666667 8.38715,-11.6666667 2.66294,0 3.07827,0.8434847 3.77501,7.6666667 0.43059,4.216667 1.4093,12.709693 2.17493,18.873393 1.10745,8.915548 1.03516,11.563499 -0.3536,12.951782 -3.49022,3.489017 -5.01845,-0.105574 -5.9248,-13.935892 -0.492,-7.50757 -1.40296,-13.964346 -2.02437,-14.348394 -0.6214,-0.384046 -1.12982,0.162236 -1.12982,1.213963 C 121.33333,24.967197 112.16426,44 110.61671,44 109.12293,44 102.16784,29.789196 100.59548,23.524391 98.931768,16.895651 97.333472,19.994208 97.083291,30.333333 96.945768,36.016667 96.793471,42.166667 96.744853,44 c -0.147918,5.577799 -3.365281,8.64422 -5.479854,5.222768 z m 59.731061,0.502405 C 146.01572,48.76632 139.07656,41.1405 137.35008,34.728877 133.11382,18.996585 143.03965,4 157.68869,4 c 14.06227,0 23.94753,11.562936 21.74807,25.439013 -2.54984,16.086612 -12.68915,23.318768 -28.4407,20.28616 z m 14.65752,-8.228969 c 2.9066,-2.80138 3.81643,-5.154357 4.45011,-11.50876 1.12647,-11.296123 -1.31512,-17.942957 -7.74525,-21.0852616 -6.10491,-2.9833639 -9.43034,-2.0751384 -12.81508,3.4999896 -5.79299,9.541845 -5.2815,21.406133 1.26526,29.348493 3.38484,4.106399 4.6424,4.781544 7.6225,4.09229 1.96288,-0.45399 5.21298,-2.410027 7.22246,-4.346751 z M 6.3297498,46.732833 C 5.048681,44.903852 4.4039166,38.604092 4.1564877,25.498676 3.7425037,3.5714284 3.4524519,4 18.706517,4 c 7.516075,0 10.372764,0.5869317 13.420989,2.7574589 4.664261,3.3212471 5.264428,9.8948171 1.345284,14.7347561 -2.498713,3.08578 -2.491196,3.163773 0.666667,6.916678 3.408804,4.051135 3.976092,8.02679 1.917824,13.440446 -1.928896,5.073381 -7.914248,7.483994 -18.582129,7.483994 -7.7333709,0 -9.6346644,-0.443618 -11.1454022,-2.6005 z M 23.666666,41.408584 c 3.042888,-2.538476 3.876596,-7.294953 1.841302,-10.505008 -1.231026,-1.941565 -9.206423,-4.123995 -11.841302,-3.240316 -1.755903,0.588891 -2.421282,13.804345 -0.777777,15.447851 1.728923,1.728924 7.817352,0.767156 10.777777,-1.702527 z m 0.777012,-21.49484 C 26.812597,16.531639 25.919312,12.561646 22.203817,9.9592119 18.786097,7.5653476 13.361438,7.3879748 13.256797,9.6666667 13.214703,10.583333 12.915849,13.883333 12.592679,17 l -0.587583,5.666667 h 5.25518 c 3.798576,0 5.789634,-0.763042 7.183402,-2.752923 z m 27.9621,26.811593 c -7.127099,-4.345668 -9.072445,-8.646721 -9.072445,-20.05867 0,-7.50606 0.620918,-11.06492 2.405778,-13.78896 3.887639,-5.9332862 9.969769,-8.8670995 18.394171,-8.8727229 6.14783,-0.00411 8.420582,0.6860671 12.867736,3.9075682 6.758361,4.8957317 8.985962,10.9831367 7.778527,21.2565207 -1.026686,8.735502 -4.997164,15.301048 -10.981051,18.158171 -5.958174,2.844844 -16.213091,2.556311 -21.392716,-0.601907 z m 19.333698,-5.96566 C 75.5538,36.415403 75.74462,35.640845 75.544266,25.315613 75.340059,14.791864 75.191739,14.318735 70.893322,10.479414 64.953079,5.1736272 59.254404,5.5919001 55.199254,11.631331 c -5.896689,8.782077 -5.235425,23.010186 1.402289,30.172398 4.723551,5.096796 10.069953,4.728059 15.137933,-1.044052 z"
       id="path1866" />
  </g>
</svg>
