<?xml version="1.0" encoding="UTF-8" standalone="no"?>
<!-- Created with Inkscape (http://www.inkscape.org/) -->

<svg
   version="1.1"
   id="svg122"
   width="90.666664"
   height="50.666668"
   viewBox="0 0 90.666664 50.666668"
   xmlns="http://www.w3.org/2000/svg"
   xmlns:svg="http://www.w3.org/2000/svg">
  <defs
     id="defs126" />
  <g
     id="g128">
    <path
       style="fill:#000000;stroke-width:1.33333"
       d="M 3.1239451,45.935139 C 2.4396354,44.151856 7.2191961,15.680344 8.9885655,11 10.403632,7.2568587 13.427418,9.8158927 17.383122,18.104324 c 2.302304,4.824045 4.576992,8.380006 5.054861,7.902137 0.477871,-0.47787 1.792268,-3.81747 2.920886,-7.421334 l 2.052029,-6.552478 4.767286,3.391974 c 4.40702,3.135641 4.995532,4.398644 7.787565,16.712883 1.661155,7.3265 2.638423,13.702766 2.17171,14.169481 -1.652755,1.652754 -3.507659,-1.90408 -6.675619,-12.800699 -1.76347,-6.065694 -3.478172,-11.300395 -3.810446,-11.632671 -0.332276,-0.332275 -1.914711,2.990234 -3.516523,7.383354 -1.601812,4.393121 -3.499042,8.350066 -4.216069,8.793213 -0.717027,0.443146 -3.162491,-3.166454 -5.434363,-8.021334 -2.271873,-4.85488 -4.350934,-8.606799 -4.620138,-8.337596 -0.269203,0.269203 -1.466662,5.2488 -2.661021,11.065771 -2.3311104,11.353365 -3.8516165,15.242976 -5.958705,15.242976 -0.7305473,0 -1.6848308,-0.929188 -2.1206299,-2.064862 z m 46.7684229,0.265174 c -0.379833,-0.989828 1.056341,-6.239828 3.1915,-11.666667 2.135157,-5.426839 5.232949,-14.066979 6.88398,-19.200312 4.635339,-14.41205382 8.809631,-16.32082912 13.85034,-6.3333338 4.96339,9.8342998 14.181809,32.9181198 14.181809,35.5126318 0,1.746963 -0.900378,2.225433 -3.592831,1.909265 -2.966534,-0.348352 -4.098734,-1.684034 -6.494994,-7.662293 -3.226438,-8.049418 -6.44163,-10.117058 -13.639111,-8.771106 -4.718428,0.882361 -6.939729,4.456096 -6.939729,11.16497 0,5.676197 -5.712635,9.550801 -7.440964,5.046845 z M 71.269731,22.377098 c -1.005009,-4.575778 -3.359364,-9.043764 -4.765509,-9.043764 -0.716155,0 -3.837557,10.240833 -3.837557,12.590427 0,0.408598 2.147673,0.742906 4.772606,0.742906 4.680836,0 4.754491,-0.08248 3.83046,-4.289569 z"
       id="path613" />
  </g>
</svg>
