<?xml version="1.0" encoding="UTF-8" standalone="no"?>
<!-- Created with Inkscape (http://www.inkscape.org/) -->

<svg
   version="1.1"
   id="svg72"
   width="153.33333"
   height="53.333332"
   viewBox="0 0 153.33333 53.333332"
   xmlns="http://www.w3.org/2000/svg"
   xmlns:svg="http://www.w3.org/2000/svg">
  <defs
     id="defs76" />
  <g
     id="g78">
    <path
       style="fill:#000000;stroke-width:1.33333"
       d="M 9.8353491,46.40958 C 8.7231467,44.619575 6.7308547,8.1297114 7.6472458,6.3333332 c 0.280573,-0.55 2.2747224,-1 4.4314432,-1 3.903824,0 3.921311,0.035675 3.921311,7.9999998 0,4.4 0.507052,8 1.126782,8 0.619731,0 4.011371,-3.929028 7.536977,-8.731173 4.187138,-5.7031998 7.07099,-8.4776018 8.3156,-7.9999998 1.047974,0.4021451 2.456335,0.731173 3.12969,0.731173 2.839103,0 0.788682,3.6905596 -5.701794,10.2626748 l -6.926078,7.013194 3.227106,3.695399 c 1.774908,2.032469 5.849286,6.47453 9.054172,9.871247 6.862799,7.273576 7.06434,10.94572 0.63499,11.569699 -3.646928,0.353941 -4.566566,-0.21154 -6.505163,-4 C 26.678433,37.464954 17.34952,25.964306 17.249165,28.159162 c -0.04629,1.01246 -0.196292,5.740837 -0.333333,10.507504 -0.223303,7.76711 -0.547492,8.709178 -3.123352,9.076247 -1.580804,0.22527 -3.361512,-0.37473 -3.9571309,-1.333333 z M 63.382867,46.333332 C 63.089476,45.416666 62.629491,41.047584 62.360677,36.624262 61.903463,29.100782 61.381379,27.987145 54.269296,19.364836 46.53902,9.9930607 45.015142,5.8833895 48.740286,4.4539178 c 3.481634,-1.3360287 7.047493,1.2093801 12.283281,8.7681482 2.751408,3.972138 5.596682,7.220612 6.32283,7.218833 0.726147,-0.0017 3.197775,-3.487286 5.492504,-7.745575 4.352956,-8.0777009 7.333465,-10.7594652 10.575416,-9.5154121 3.402634,1.3057135 2.044034,5.294967 -4.8113,14.1274091 -7.441973,9.588269 -8.617175,12.64736 -7.501019,19.525419 1.009003,6.217756 -0.960726,11.167259 -4.444178,11.167259 -1.507833,0 -2.981561,-0.75 -3.274953,-1.666667 z m 30.606432,-0.176278 c -1.253601,-0.916656 -2.057829,-2.82699 -1.78717,-4.245184 0.419104,-2.196024 1.825165,-2.637023 9.478321,-2.972791 l 8.98621,-0.394253 V 24.469411 10.393998 l -8.83664,0.469667 c -7.24141,0.384881 -9.10143,0.05507 -10.303367,-1.826967 -2.815826,-4.4091136 0.883854,-5.6741208 17.989717,-6.1511059 19.43007,-0.541794 22.81556,0.091786 22.23685,4.1615353 -0.3702,2.6034354 -1.40871,3.0317646 -8.77582,3.6195386 -4.59576,0.366667 -8.34576,1.116667 -8.33333,1.666667 0.0124,0.55 0.0226,6.7 0.0226,13.666666 V 38.666666 H 124 c 9.09752,0 9.33333,0.08528 9.33333,3.37518 0,1.856348 -0.75,3.606989 -1.66667,3.890313 -0.91666,0.283324 -9.25623,0.824825 -18.53237,1.203337 -12.32227,0.502809 -17.479728,0.239227 -19.144991,-0.978442 z M 140.83333,42.499999 C 140.375,40.208332 140,30.866602 140,21.740598 c 0,-16.4446332 0.0268,-16.5889311 3,-16.1666661 2.94253,0.4179058 3.00705,0.8155938 3.36806,20.7594011 0.34792,19.220718 0.22936,20.333332 -2.16666,20.333332 -1.77224,0 -2.78542,-1.253419 -3.36807,-4.166666 z"
       id="path100" />
  </g>
</svg>
