<?xml version="1.0" encoding="UTF-8" standalone="no"?>
<!-- Created with Inkscape (http://www.inkscape.org/) -->

<svg
   version="1.1"
   id="svg62"
   width="41.333332"
   height="48"
   viewBox="0 0 41.333332 48"
   xmlns="http://www.w3.org/2000/svg"
   xmlns:svg="http://www.w3.org/2000/svg">
  <defs
     id="defs66" />
  <g
     id="g68">
    <path
       style="fill:#000000;stroke-width:1.33333"
       d="M 4.6400328,41 C 4.2307745,39.35 4.0693433,30.5 4.2812968,21.333333 L 4.6666665,4.6666667 H 18.555555 c 9.925925,0 14.047407,0.4755556 14.444444,1.6666666 C 33.399207,7.5309584 31.507407,8 26.277776,8 22.274999,8 17.124999,8.375 14.833333,8.8333333 c -3.788444,0.7576888 -4.166667,1.2927127 -4.166667,5.8940597 0,4.554612 0.405698,5.149832 4.05665,5.951716 2.231157,0.490044 7.170909,0.687718 10.977226,0.439274 5.745521,-0.375019 6.99764,-0.05553 7.374449,1.881617 0.401939,2.066344 -0.772471,2.333333 -10.263648,2.333333 -12.066911,0 -13.6883793,1.17843 -12.489116,9.076678 l 0.669612,4.41001 11.918782,-0.261976 C 34.55771,38.30204 38.636352,39.479647 36.738467,42.550491 36.177972,43.457389 30.141691,44 20.613379,44 5.9294573,44 5.3574941,43.892577 4.6400328,41 Z"
       id="path984" />
  </g>
</svg>
