<?xml version="1.0" encoding="UTF-8" standalone="no"?>
<!-- Created with Inkscape (http://www.inkscape.org/) -->

<svg
   version="1.1"
   id="svg142"
   width="60"
   height="54.666668"
   viewBox="0 0 60 54.666668"
   xmlns="http://www.w3.org/2000/svg"
   xmlns:svg="http://www.w3.org/2000/svg">
  <defs
     id="defs146" />
  <g
     id="g148">
    <path
       style="fill:#000000;stroke-width:1.33333"
       d="m 34.666667,50.464099 c 0,-0.640983 2.55,-2.405414 5.666666,-3.920959 C 50.874195,41.417422 55.762899,30.563839 51.994824,20.653053 50.320252,16.248595 48.828776,14.777963 41.333333,10.140566 l -6,-3.7121738 4.513732,0.7885504 C 56.976727,10.2095 62.907028,29.899674 50.675295,43.16954 45.883869,48.367623 34.666667,53.4789 34.666667,50.464099 Z M 16,47.405696 C 8.1636689,43.125009 3.0946133,30.724203 5.5484244,21.837231 7.9567003,13.115175 18.841512,4.0681018 27,4.007436 29.829009,3.9864 27.448645,6.5758838 23.928197,7.3491039 c -2.23949,0.4918748 -6.38036,3.0903971 -9.201932,5.7744941 -9.4773393,9.015576 -8.3178774,23.339484 2.470912,30.525474 2.491782,1.659678 6.277192,3.017596 8.412023,3.017596 2.248149,0 3.534749,0.561074 3.057467,1.333333 C 27.489344,49.904951 19.925536,49.550065 16,47.405696 Z M 27.333333,40.382349 C 22.545631,39.230342 17.332931,33.16401 17.338317,28.750546 17.354584,15.425832 33.817225,9.2317566 40.957436,19.863844 c 5.152776,7.67271 3.264159,15.990837 -4.536448,19.980104 -3.012392,1.540552 -4.545316,1.63137 -9.087655,0.538401 z"
       id="path335" />
  </g>
</svg>
