<?xml version="1.0" encoding="UTF-8" standalone="no"?>
<!-- Created with Inkscape (http://www.inkscape.org/) -->

<svg
   version="1.1"
   id="svg2"
   width="186.66667"
   height="54.666668"
   viewBox="0 0 186.66667 54.666668"
   xmlns="http://www.w3.org/2000/svg"
   xmlns:svg="http://www.w3.org/2000/svg">
  <defs
     id="defs6" />
  <g
     id="g8">
    <path
       style="fill:#000000;stroke-width:1.33333"
       d="M 55.969786,46.647994 C 54.544301,45.766996 55.355405,42.342344 59.9669,29.771354 69.112289,4.8409151 70.354135,2.261433 72.765568,3.186787 c 1.16556,0.4472672 2.54722,0.8132131 3.070355,0.8132131 0.523134,0 3.229505,5.5500001 6.014156,12.3333339 2.784652,6.783333 6.563736,15.504225 8.397965,19.37976 3.596499,7.599026 3.358732,10.953574 -0.776378,10.953574 -1.905936,0 -3.718951,-2.342804 -6.706833,-8.666667 l -4.094804,-8.666667 h -6.621436 c -7.573091,0 -8.583364,1.096215 -10.054935,10.91028 -0.95575,6.374004 -2.836933,8.374017 -6.023872,6.40438 z M 77.333335,24.162833 c 0,-2.376947 -4.074891,-10.829499 -5.220794,-10.829499 -1.244564,0 -4.11254,7.112486 -4.11254,10.198964 0,1.169437 1.636535,1.801036 4.666667,1.801036 2.566667,0 4.666667,-0.526725 4.666667,-1.170501 z M 7.4549547,45.530121 C 6.7838737,44.44429 12.288968,16.273006 14.08878,11.582772 c 1.545191,-4.0267047 4.059608,-2.3875419 7.287192,4.750562 4.883514,10.800347 5.364206,11.125961 7.931634,5.372792 1.236909,-2.771703 2.660137,-6.689459 3.162729,-8.706126 0.6596,-2.646667 1.75072,-3.6666664 3.922324,-3.6666664 2.745694,0 3.35052,1.4268964 6.923307,16.3333334 4.620576,19.278038 4.577162,18.855674 1.989389,19.354034 -1.501744,0.289209 -2.653912,-2.12794 -4.440162,-9.315073 -3.519372,-14.160495 -3.62689,-14.470941 -4.7676,-13.765942 -0.574064,0.354791 -2.363098,4.263503 -3.975631,8.686028 -1.612533,4.422524 -3.432136,8.040954 -4.043561,8.040954 -0.611427,0 -2.769207,-3.9 -4.795067,-8.666667 -3.81239,-8.970207 -5.95,-10.957754 -5.95,-5.532298 0,1.723903 -0.532195,4.873903 -1.182655,7 -0.650461,2.126098 -1.874545,6.415631 -2.720189,9.532298 -1.420564,5.235567 -4.2253808,7.361931 -5.9755353,4.53012 z M 100,45.311446 c 0,-0.745372 1.5,-8.893836 3.33334,-18.107697 1.83333,-9.213863 3.33333,-17.004013 3.33333,-17.3114464 0,-0.3074329 1.13495,-0.558969 2.52212,-0.558969 1.54354,0 2.83079,1.2298114 3.31765,3.1696174 1.14692,4.569709 7.06496,14.617302 7.82691,13.288459 0.35471,-0.618608 1.67493,-4.280455 2.93383,-8.137435 2.09727,-6.425591 6.3474,-11.1016488 7.86239,-8.6503362 C 131.83353,10.142665 140,42.604708 140,44.263937 c 0,0.588169 -0.85957,1.069397 -1.91014,1.069397 -2.05866,0 -2.03462,0.06142 -5.61168,-14.333333 -1.32118,-5.316667 -2.79646,-9.666667 -3.2784,-9.666667 -0.48194,0 -1.59874,1.95 -2.48178,4.333333 -3.41029,9.204417 -5.45141,13.116126 -6.5044,12.465347 -0.60229,-0.37224 -2.78957,-4.663776 -4.86061,-9.536747 -4.10302,-9.654037 -5.11389,-9.457187 -6.50731,1.267191 -1.54191,11.867172 -3.37239,16.80421 -6.2304,16.80421 -1.4384,0 -2.61528,-0.60985 -2.61528,-1.355222 z m 49.30034,-2.064912 C 148.58515,41.365462 148,32.686571 148,23.960113 148,4.9328045 147.62918,5.3333335 165.24568,5.3333335 c 9.78658,0 12.08766,0.3758956 12.08766,1.9745973 0,2.358487 -3.28518,3.2225342 -14,3.6822022 l -8,0.343201 -0.40938,4.925318 c -0.38534,4.636398 -0.1507,4.971989 4,5.72091 2.42516,0.437576 7.40938,0.621183 11.07604,0.408015 5.90698,-0.34341 6.66667,-0.08369 6.66667,2.27909 0,2.38889 -1.11111,2.736111 -10.66667,3.333334 l -10.66666,0.666666 v 5.980263 5.980262 l 10.08921,-0.421058 c 5.54907,-0.231581 11.24879,-0.5227 12.66603,-0.646929 1.70036,-0.149045 2.71389,0.733124 2.97986,2.593645 0.507,3.546587 -3.62181,4.513818 -19.2681,4.513818 -10.79527,0 -11.24663,-0.123494 -12.5,-3.420134 z"
       id="path2415" />
  </g>
</svg>
