<?xml version="1.0" encoding="UTF-8" standalone="no"?>
<!-- Created with Inkscape (http://www.inkscape.org/) -->

<svg
   version="1.1"
   id="svg92"
   width="461.33334"
   height="57.333332"
   viewBox="0 0 461.33334 57.333332"
   xmlns="http://www.w3.org/2000/svg"
   xmlns:svg="http://www.w3.org/2000/svg">
  <defs
     id="defs96" />
  <g
     id="g98">
    <path
       style="fill:#000000;stroke-width:1.33333"
       d="M 283.62752,51.720485 C 276.51647,49.833422 271.26727,44.061527 269.3343,36.004 c -1.86758,-7.784899 -1.09087,-13.537769 2.6574,-19.682854 8.66942,-14.2130576 28.87142,-12.214197 35.45806,3.508352 4.57755,10.926768 0.37342,24.484229 -9.36164,30.189346 -6.14346,3.600312 -6.94872,3.695071 -14.4606,1.701641 z m 12.79562,-6.340882 c 4.19834,-4.989465 5.38836,-12.021652 3.60617,-21.310213 -1.68708,-8.792866 -5.57311,-13.410628 -11.26172,-13.382307 -5.40059,0.02689 -6.59535,0.927334 -10.05367,7.577101 -2.76574,5.318053 -2.82494,6.110113 -1.1859,15.864607 1.53837,9.15538 2.16262,10.533861 5.76525,12.730832 5.70895,3.481468 9.2952,3.07722 13.12987,-1.48002 z m 102.50601,6.893886 c -11.17446,-0.451196 -10.95168,0.316802 -4.10586,-14.153821 4.65865,-9.847417 4.89686,-15.478825 0.84338,-19.937566 -4.87206,-5.359163 -8.41069,-5.643199 -13.00965,-1.044246 -4.91283,4.912823 -5.30853,11.946642 -1.32368,23.52881 1.46667,4.26294 2.66667,8.55687 2.66667,9.542066 0,2.723328 -17.76164,2.488321 -20.0469,-0.265242 -2.49258,-3.00337 -0.28214,-4.399078 7.70822,-4.867112 l 6.99465,-0.409712 -3.91768,-5.904758 c -5.19312,-7.827113 -6.26991,-14.536162 -3.32801,-20.735728 2.83114,-5.966219 8.15322,-8.8318314 16.52305,-8.8966642 15.44392,-0.1196293 23.08404,11.7855892 16.20855,25.2569342 -1.38864,2.720785 -3.80282,6.102708 -5.36484,7.515384 -3.58928,3.24608 -1.68591,4.715805 6.14426,4.744414 3.07339,0.0112 5.99439,0.677995 6.49111,1.481699 1.85839,3.006941 -2.75327,4.538414 -12.48327,4.145542 z M 317.9577,50.37056 c -0.3855,-1.004588 -0.53368,-10.49893 -0.3293,-21.098541 0.35746,-18.538658 0.48014,-19.2874952 3.22375,-19.678712 3.35548,-0.4784645 6.43796,2.253546 17.47896,15.491663 4.47324,5.363401 8.54356,9.863401 9.04518,10 0.5016,0.1366 0.99713,-5.451637 1.1012,-12.418304 0.15362,-10.286284 0.56504,-12.6666662 2.18918,-12.6666662 2.61496,0 3.7737,7.8340482 3.90118,26.3751792 0.0839,12.190884 -0.23568,14.503541 -2.10262,15.219953 -2.32948,0.893904 -4.79345,-1.514272 -19.79856,-19.350178 -4.4,-5.230087 -8.30711,-9.524783 -8.68247,-9.543769 -0.37536,-0.01899 -0.67536,6.40459 -0.66666,14.274613 0.0139,12.582225 -0.26628,14.364174 -2.32156,14.765209 -1.28556,0.250841 -2.65278,-0.365859 -3.03828,-1.370447 z m 102.66556,-0.0029 c -0.38611,-1.006177 -0.53429,-10.200521 -0.32929,-20.431874 l 0.3727,-18.60242 3.51182,-0.406953 c 3.00016,-0.347663 5.18554,1.563888 15,13.120482 l 11.48818,13.527437 V 24.022717 c 0,-12.188013 0.23479,-13.506512 2.33334,-13.103668 2.08085,0.399447 2.37316,2.646301 2.7014,20.764432 0.46612,25.729326 0.0716,25.866234 -16.41663,5.696621 -6.57329,-8.040944 -12.45892,-14.640944 -13.07917,-14.666667 -0.62027,-0.02572 -0.92259,6.39546 -0.67183,14.269296 0.40713,12.784083 0.20635,14.364129 -1.87629,14.765209 -1.28272,0.247028 -2.64812,-0.374095 -3.03423,-1.380273 z m -305.0677,-0.589851 c -0.48889,-0.488888 -0.88889,-2.31021 -0.88889,-4.047382 0,-2.478028 -1.3053,-3.718012 -6.05876,-5.755583 -7.14111,-3.061036 -10.689783,-9.512192 -9.446601,-17.173032 0.885461,-5.456481 5.742101,-10.834687 10.078961,-11.161373 1.81575,-0.136776 3.51727,-1.45928 4.2051,-3.2684035 0.7814,-2.0552422 2.24477,-3.0386693 4.52163,-3.0386693 2.70187,0 3.36634,0.6579527 3.36634,3.3333333 0,2.7367205 0.65627,3.3412725 3.66666,3.3776925 7.85743,0.09506 12.83522,7.504738 11.13947,16.581646 -1.35693,7.263338 -5.37825,12.088417 -11.01411,13.215589 -2.44292,0.488584 -3.78527,1.462473 -3.42011,2.481321 1.37084,3.824804 -3.47841,8.126149 -6.14969,5.454861 z M 114.22882,26.60513 c -0.31576,-5.900512 -0.96309,-11.117178 -1.4385,-11.592593 -0.47542,-0.475415 -2.14773,0.418944 -3.71624,1.987463 -5.47609,5.476083 -2.65026,20.333332 3.86737,20.333332 1.48642,0 1.7458,-2.161575 1.28737,-10.728202 z m 11.81809,8.574856 c 2.50394,-1.640641 3.28175,-3.30732 3.26677,-7 -0.0241,-5.937245 -2.59532,-11.338456 -5.6805,-11.932608 -2.02423,-0.389832 -2.29984,0.8471 -2.29984,10.321523 0,5.920437 0.3211,10.764431 0.71357,10.764431 0.39247,0 2.19247,-0.969005 4,-2.153346 z m 19.59673,13.86057 c -0.91588,-1.103557 -1.35893,-8.802208 -1.21072,-21.037659 0.2083,-17.196294 0.48736,-19.3461599 2.5632,-19.7470569 3.88184,-0.7496808 5.10486,5.5489529 4.70796,24.2462289 -0.31254,14.723413 -0.70394,17.528894 -2.49336,17.871987 -1.16744,0.223839 -2.77262,-0.376236 -3.56708,-1.3335 z m 16.42463,-0.04056 C 161.78518,48.083332 161.23884,38.82788 160.8542,28.43233 160.28494,13.046605 160.50927,9.2371945 162.06046,7.9498293 165.84544,4.8085679 168,7.47174 168,15.291486 c 0,4.05635 0.48775,7.37518 1.08388,7.37518 1.38812,0 7.09378,-6.252873 10.03734,-11 1.65541,-2.6697194 3.35281,-3.6666662 6.24285,-3.6666662 5.82559,0 4.98777,2.8989402 -2.6974,9.3333332 C 179,20.40324 176,23.51979 176,24.259002 c 0,0.739211 3.9,5.55638 8.66667,10.70482 4.76667,5.14844 8.66667,10.16665 8.66667,11.151577 0,2.384245 -4.85515,4.88331 -7.71703,3.972147 -1.25564,-0.399768 -3.67639,-3.357672 -5.37944,-6.57312 -1.70307,-3.215448 -4.82868,-7.871605 -6.94581,-10.347015 l -3.84935,-4.500745 -0.0541,9.4 c -0.0535,9.273348 -1.38131,12.599999 -5.02936,12.599999 -0.97636,0 -2.00682,-0.749999 -2.2899,-1.666666 z m 56.89128,0.570615 c -1.22656,-0.798488 -1.6584,-5.023142 -1.53405,-15.007637 0.29354,-23.569877 1.3297,-21.193184 -9.09216,-20.855012 -8.78899,0.285188 -9,0.213881 -9,-3.041299 V 7.3333332 l 22.5674,-0.366633 c 16.86233,-0.2739477 22.82601,0.051816 23.5904,1.2886155 2.01414,3.2589653 -1.66959,5.0780173 -10.28344,5.0780173 h -8.46578 l -0.37096,18.333333 c -0.34778,17.188361 -0.5375,18.354628 -3.03762,18.674303 -1.46667,0.187534 -3.43487,-0.159126 -4.37379,-0.770355 z m 35.26268,0.207162 c -0.48889,-0.488888 -0.88889,-9.507718 -0.88889,-20.041845 0,-16.159958 0.32654,-19.278263 2.08962,-19.9548211 1.1493,-0.4410249 2.59899,-0.2721941 3.22155,0.3751801 1.16119,1.207469 2.66073,35.928006 1.67891,38.873481 -0.58026,1.740757 -4.61391,2.235284 -6.10119,0.748005 z M 53.647107,47.666666 c -1.305976,-1.617012 -0.78141,-5.410526 4.10005,-29.650488 2.173552,-10.7932463 4.903635,-11.2439939 8.872672,-1.464913 3.552148,8.751925 6.283528,11.646041 7.486205,7.932233 3.383784,-10.448948 5.60978,-14.4834982 7.991033,-14.4834982 2.164988,0 3.236113,2.5996672 6.867072,16.6666662 5.038786,19.521189 5.248589,21.694513 2.035862,21.08934 C 89.359824,47.44705 88.010676,44.744407 86.458437,38.65824 85.243912,33.896209 83.662675,28.499999 82.94458,26.666666 l -1.305628,-3.333333 -1.626939,4 C 75.592476,38.199228 74.499077,40.166358 73.132217,39.710738 72.318086,39.43936 70.126096,35.497614 68.261128,30.951302 66.39616,26.404989 64.611892,22.943665 64.296086,23.25947 c -0.315805,0.315805 -1.36082,4.661617 -2.322254,9.65736 -2.890178,15.017761 -5.037813,18.822047 -8.326725,14.749836 z M 7.3570514,46.705042 C 6.5257434,45.359958 8.7278948,38.574162 16.785244,17.652638 18.55336,13.061589 20,8.4757827 20,7.4619568 c 0,-2.0382401 2.814468,-3.4619569 6.843752,-3.4619569 1.793355,0 3.253008,1.5849354 4.604774,4.9999999 C 32.537043,11.75 34.538155,16.4 35.895443,19.333333 c 5.11455,11.053426 9.582294,23.600094 9.172924,25.760126 -0.23938,1.263079 -1.915616,2.413928 -3.843753,2.638996 -3.070767,0.358444 -3.754065,-0.456903 -6.704371,-8 l -3.28512,-8.399122 -6.759959,-0.396391 -6.759957,-0.396392 -1.480905,5.729725 c -0.814499,3.151348 -1.65655,6.929724 -1.871224,8.396391 -0.427827,2.922914 -5.5400915,4.410309 -7.0060266,2.038376 z M 29.333334,25.496165 c 0,-2.342307 -4.066707,-10.829499 -5.189043,-10.829499 -1.35996,0 -4.164103,10.202411 -3.097341,11.269171 1.201693,1.201694 8.286384,0.825782 8.286384,-0.439672 z"
       id="path1032" />
  </g>
</svg>
