<?xml version="1.0" encoding="UTF-8" standalone="no"?>
<!-- Created with Inkscape (http://www.inkscape.org/) -->

<svg
   version="1.1"
   id="svg42"
   width="601.33331"
   height="60"
   viewBox="0 0 601.33331 60"
   xmlns="http://www.w3.org/2000/svg"
   xmlns:svg="http://www.w3.org/2000/svg">
  <defs
     id="defs46" />
  <g
     id="g48">
    <path
       style="fill:#000000;stroke-width:1.33333"
       d="m 460.53474,52.171635 c -11.41073,-5.277226 -14.79524,-17.280263 -8.76526,-31.085722 3.57933,-8.194806 7.32369,-10.539813 16.37725,-10.256719 10.06385,0.314684 12.50776,1.537624 16.42272,8.217991 4.36561,7.449366 4.76989,19.406623 0.87226,25.798596 -4.87473,7.994391 -16.23591,11.336038 -24.90697,7.325854 z m 13.44293,-2.82982 c 9.45975,-3.596588 9.75156,-29.310839 0.39263,-34.597831 -4.40196,-2.486727 -13.58528,-0.03553 -15.87154,4.236403 -4.1572,7.76779 -1.10764,28.051349 4.56049,30.333321 3.96965,1.598168 6.76989,1.605376 10.91842,0.02811 z m -11.97769,-15.19342 c -4.14352,-3.059278 -0.90232,-5.035315 7.47628,-4.558011 6.16496,0.3512 7.19039,0.789912 7.19039,3.076283 0,2.213536 -1.01955,2.73327 -6,3.058633 -3.75125,0.245061 -6.99944,-0.345948 -8.66667,-1.576905 z m 63.21809,19.243973 c -10.2798,-3.115299 -14.55142,-9.420224 -14.55142,-21.477949 0,-15.16892 7.16292,-22.5810857 21.82177,-22.5810857 6.36881,0 8.07427,0.575538 12.05043,4.0666467 5.83678,5.124769 8.00988,11.564573 7.04785,20.885788 -1.03124,9.99174 -5.52737,15.666031 -14.53217,18.340171 -7.6016,2.25743 -7.0371,2.220877 -11.83646,0.766429 z m 13.80211,-8.248149 c 3.63904,-4.89539 5.05313,-13.83632 3.41265,-21.577358 -1.06658,-5.033004 -2.27772,-6.994126 -5.56474,-9.010689 -3.95571,-2.426791 -9.4258,-2.683635 -12.79587,-0.600819 -5.77223,3.56743 -7.41145,19.552375 -2.90992,28.376106 3.15715,6.188516 4.40285,6.955934 10.70523,6.59493 3.16349,-0.181206 5.32578,-1.32458 7.15265,-3.78217 z m -320.68686,7.186345 c -2.09389,-0.472109 -2.33333,-2.558591 -2.33333,-20.333092 0,-16.460708 0.36404,-20.171031 2.15476,-21.961758 2.55936,-2.5593595 4.46952,-2.1494496 6.41665,1.376978 0.78572,1.423019 3.84291,5.587308 6.79374,9.253975 2.95084,3.666666 7.45084,9.498114 10,12.958772 2.54917,3.460658 5.1588,6.310658 5.79918,6.333333 C 247.80471,39.981448 248.07196,32.8 247.7582,24 247.1965,8.2454565 247.23262,8 250.11215,8 c 3.67913,0 4.18411,2.871073 4.51435,25.666667 0.20092,13.869325 -0.10054,17 -1.6368,17 -1.0357,0 -5.87012,-5.25 -10.74319,-11.666667 -4.87307,-6.416667 -10.96313,-14.066667 -13.53348,-17 L 224.03966,16.666667 223.83522,24 c -0.1124,4.033333 -0.0657,11.563699 0.10373,16.734144 0.32417,9.886931 -1.00376,12.634009 -5.60568,11.59642 z m 109,-0.814919 c -2.2,-1.021656 -5.78152,-3.750737 -7.95895,-6.064626 -3.435,-3.650298 -4.01892,-5.39224 -4.4122,-13.162379 -0.75046,-14.827348 5.57023,-22.8938801 18.79856,-23.9908757 9.0104,-0.7472128 15.7517,2.1865567 19.69854,8.5726957 2.35622,3.812443 2.74664,6.144207 2.31317,13.815428 -0.54837,9.704976 -2.66663,14.060075 -9.18817,18.890728 -4.4321,3.282949 -14.23154,4.269988 -19.25095,1.939029 z m 15.31007,-6.157404 c 8.50746,-9.107269 5.37161,-31.630442 -4.7578,-34.172763 -8.53635,-2.1424839 -15.21894,5.787113 -15.21894,18.058853 0,9.445686 2.88038,15.732678 8.28343,18.080193 6.24168,2.711885 7.5248,2.496123 11.69331,-1.966283 z m 73.00517,-12.334642 c -7.90612,-17.846831 -8.76162,-20.54505 -6.93804,-21.882568 4.31308,-3.1634549 6.73152,-0.551115 11.99364,12.955244 2.83646,7.280382 5.49638,13.237058 5.91096,13.237058 0.41456,0 2.50068,-5.25 4.6358,-11.666666 4.4095,-13.251845 5.439,-15 8.83364,-15 3.86061,0 4.11578,1.980312 1.14418,8.87955 -1.52885,3.54958 -3.571,8.553783 -4.5381,11.12045 -0.96711,2.566666 -3.22402,8.566666 -5.01535,13.333333 -1.79133,4.766667 -4.10109,8.827287 -5.13281,9.023599 -1.25699,0.23918 -4.85091,-6.358848 -10.89392,-20 z m 81.24031,19.420845 c -0.48889,-0.488888 -0.88889,-9.507719 -0.88889,-20.041845 0,-15.866526 0.34609,-19.285766 2.01697,-19.926946 3.89178,-1.493413 5.72084,1.887415 5.35855,9.904687 -0.18939,4.190813 -0.42635,12.86966 -0.52659,19.286327 -0.16182,10.357965 -0.45646,11.666666 -2.6267,11.666666 -1.34446,0 -2.84446,-0.4 -3.33334,-0.888889 z m 62.48861,-0.37296 c -0.4791,-0.775225 -0.4482,-10.108447 0.0687,-20.740492 C 560.36615,12.4079 560.44975,12 563.40787,12 c 2.09061,0 5.54813,2.927933 11.21941,9.500951 4.50866,5.225522 9.14548,10.947681 10.30407,12.715908 3.6838,5.6222 5.06863,2.97826 5.06863,-9.677142 0,-10.984161 0.19964,-11.87305 2.66666,-11.87305 2.54804,0 2.66667,0.888889 2.66667,19.980654 0,24.671048 -0.65169,25.23867 -12.73597,11.092899 C 567.64164,26.233189 565.64639,24 564.96032,24 c -0.37258,0 -0.59109,6.436984 -0.48556,14.304409 0.16563,12.347235 -0.1104,14.364076 -2.01713,14.740492 -1.21496,0.239844 -2.60103,-0.198193 -3.08015,-0.973417 z M 65.355876,50.708816 c -1.726673,-1.09178 -1.661589,-2.06148 0.513207,-7.646249 1.369862,-3.517746 4.290766,-11.4959 6.490894,-17.729234 C 77.015453,12.143593 79.260985,9.0531784 83.789422,9.6035557 86.494833,9.932366 87.961293,12.04722 92.385231,22 c 2.933652,6.6 6.447104,14.439435 7.807669,17.420965 3.49641,7.661991 3.27452,11.245702 -0.696311,11.245702 -3.817162,0 -5.264571,-1.650682 -7.599422,-8.666667 -2.388672,-7.177713 -2.899088,-7.633525 -9.260301,-8.269647 -7.005513,-0.70055 -8.789452,0.849578 -9.950035,8.645943 -1.296004,8.706076 -3.242023,10.917963 -7.330955,8.33252 z M 85.840957,25.666667 c -1.142434,-4.779076 -2.994979,-8.333334 -4.343488,-8.333334 -0.921825,0 -4.164139,8.685352 -4.164139,11.154694 0,0.464918 2.111431,0.845306 4.692069,0.845306 4.44222,0 4.645396,-0.195246 3.815558,-3.666666 z m 26.492123,25.23407 c -2.44704,-1.553774 -2.52199,-40.209237 -0.0809,-41.7367318 0.96131,-0.6015397 5.7913,-0.9084336 10.73331,-0.6819865 11.26523,0.5161822 14.34786,2.8475813 14.34786,10.8513143 0,7.335211 -3.36558,10.393227 -12.44394,11.306747 L 118,31.333333 l -0.0713,8.703375 c -0.09,10.981855 -1.40109,13.527383 -5.5956,10.864029 z m 16.25798,-25.864078 c 4.76785,-6.807066 0.79197,-14.369992 -7.55441,-14.369992 -3.66905,0 -3.70332,0.08021 -3.70332,8.666666 V 28 h 4.59106 c 3.23278,0 5.20514,-0.876713 6.66667,-2.963341 z m 17.36552,25.331009 c -0.38611,-1.006177 -0.53429,-10.200521 -0.32929,-20.431875 0.35241,-17.589334 0.51793,-18.60246 3.03937,-18.60246 2.54804,0 2.66667,0.888889 2.66667,19.98174 0,17.983287 -0.23378,20.02676 -2.33736,20.431876 -1.28556,0.247574 -2.65328,-0.373102 -3.03939,-1.379281 z m 15.10023,-0.700851 c -2.2737,-2.739641 0.18354,-4.137068 8.07184,-4.590438 l 7.12866,-0.409712 -4.0946,-5.140476 c -7.21828,-9.062039 -7.22484,-20.71254 -0.0151,-26.77915 3.3646,-2.8311247 5.41975,-3.4137077 12.04232,-3.4137077 13.01984,0 18.39762,4.3921667 18.44706,15.0662137 0.032,6.914766 -2.06936,12.133449 -6.50051,16.143584 -4.18449,3.786918 -3.50041,4.610701 4.19683,5.053856 5.97677,0.344102 7,0.792813 7,3.06968 0,2.385957 -1.0196,2.707945 -9.68595,3.058801 -12.03352,0.487177 -12.89151,-0.857455 -7.32415,-11.478399 5.43326,-10.365126 6.32838,-15.11941 3.77595,-20.055258 -3.05409,-5.905976 -10.91543,-7.739656 -15.24524,-3.556002 -3.06064,2.957335 -4.34336,13.329819 -2.26532,18.318274 1.00335,2.408588 2.25297,7.252488 2.77695,10.764221 l 0.95269,6.384971 -8.89216,-0.328312 c -5.42772,-0.200399 -9.46765,-1.021746 -10.36929,-2.108146 z m 120.65314,1.260836 c -1.09805,-0.697722 -1.74524,-6.407941 -2,-17.64625 l -0.37663,-16.614736 -9,-0.394254 c -8.55934,-0.374949 -9,-0.554477 -9,-3.666666 V 9.3333333 h 23.33334 c 21.92591,0 23.33333,0.1507936 23.33333,2.4999997 0,2.755072 -4.57358,4.166667 -13.5,4.166667 h -5.16667 v 16.4 c 0,18.392863 -1.62398,22.339752 -7.62337,18.527653 z m 81.98602,-18.59432 C 363.31189,20.528517 363.57651,12.000408 364.35797,11 c 0.92022,-1.1780757 6.28422,-1.6666667 18.29748,-1.6666667 h 16.99563 l 0.82644,4.9999997 c 0.45454,2.75 0.83305,8.45 0.84112,12.666667 0.0133,6.646315 -0.32222,7.666667 -2.51667,7.666667 -2.15589,0 -2.67037,-1.384344 -3.46865,-9.333334 L 394.39601,16 h -11.9955 -11.9955 l 0.46416,18.000728 0.46415,18.000728 -3.49873,-7.28e-4 L 364.33585,52 Z M 7.6888056,49.666667 C 7.4310906,49.116667 7.2456804,40.266667 7.2767829,30 l 0.05655,-18.666667 h 3.3333331 3.333333 l 0.211686,17.333334 C 14.328111,38.2 14.137685,47.05 13.788502,48.333333 c -0.62419,2.294083 -5.182617,3.29051 -6.0996964,1.333334 z M 25.856388,48.773216 C 25.456766,47.731819 25.025596,38.581819 24.898234,28.439883 L 24.666666,10 h 3.333333 c 2.971544,0 3.351865,0.578863 3.50407,5.333333 0.362898,11.335827 0.08981,10.840672 3.988794,7.232419 1.921076,-1.777831 4.928602,-5.482419 6.683393,-8.232419 2.252049,-3.529274 4.142946,-4.9999997 6.428446,-4.9999997 5.748275,0 5.065647,2.5550577 -2.539662,9.5058817 l -7.446432,6.805621 8.792373,9.823931 c 9.380221,10.480746 10.469658,14.2333 4.338538,14.944034 -3.107449,0.360223 -4.419413,-0.859298 -10.300545,-9.57476 -9.27647,-13.747133 -10.041781,-13.962344 -9.085419,-2.554876 0.79179,9.444474 -0.158828,12.383502 -4.005403,12.383502 -0.976348,0 -2.102142,-0.852052 -2.501764,-1.893451 z"
       id="path1727" />
  </g>
</svg>
