<?xml version="1.0" encoding="UTF-8" standalone="no"?>
<!-- Created with Inkscape (http://www.inkscape.org/) -->

<svg
   version="1.1"
   id="svg32"
   width="366.66666"
   height="54.666668"
   viewBox="0 0 366.66666 54.666668"
   xmlns="http://www.w3.org/2000/svg"
   xmlns:svg="http://www.w3.org/2000/svg">
  <defs
     id="defs36" />
  <g
     id="g38">
    <path
       style="fill:#000000;stroke-width:1.33333"
       d="m 5.3333332,48.275627 c 0,-1.315073 3,-5.939105 6.6666668,-10.275626 3.666666,-4.336522 6.666666,-8.737834 6.666666,-9.780691 0,-1.042859 -2.12754,-4.25104 -4.727866,-7.129291 C 7.52212,13.987522 5.5374194,9.530965 8.0758076,7.9249329 11.523491,5.7435915 12.933481,6.5614163 18.549666,14 c 3.045196,4.033334 5.744318,7.333334 5.998047,7.333334 0.253731,0 3.00726,-3.3 6.118953,-7.333334 5.278552,-6.8419833 9.426232,-9.0857553 11.272659,-6.0981742 0.419853,0.6793373 -2.244736,4.6726912 -5.921311,8.8741202 -3.676575,4.201428 -6.684681,8.097619 -6.684681,8.658203 0,0.560582 3.3,4.88493 7.333333,9.609663 7.356927,8.618058 9.062089,13.340833 5.333333,14.771691 -3.227405,1.238472 -4.972938,-0.13725 -11.698113,-9.219737 -3.500629,-4.72767 -6.80166,-8.595765 -7.335622,-8.595765 -0.533964,0 -2.444058,2.777036 -4.244652,6.171191 -1.800595,3.394156 -4.393114,7.594156 -5.761151,9.333333 -2.966826,3.771708 -7.6271278,4.242864 -7.6271278,0.771102 z M 52.809318,47.224285 C 51.283152,43.247162 51.904691,9.5496157 53.522656,8.5496582 c 0.837462,-0.5175797 7.137462,-1.2347446 14,-1.5936996 12.057409,-0.6306804 12.477343,-0.5567827 12.477343,2.195698 0,2.4598014 -0.772988,2.8503454 -5.666667,2.8630184 -3.116667,0.0081 -7.916667,0.386576 -10.666666,0.841123 -4.773864,0.78907 -5,1.05977 -5,5.985325 v 5.158878 h 11.426067 c 11.08661,0 11.41341,0.08913 11,3 -0.391845,2.759034 -1.282833,3.053548 -11.092734,3.666666 l -10.666667,0.666667 v 6 6 L 71.656243,42.863789 C 82.301432,42.45817 84.097788,42.703401 84.850532,44.665021 86.269221,48.362068 82.8624,49.29126 67.809317,49.312917 56.08668,49.329784 53.477879,48.966528 52.809318,47.224285 Z m 41.38269,-0.820992 C 93.739762,44.714816 93.361552,35.147528 93.351538,25.142653 93.330656,4.2780638 92.647654,5.3333335 106.17271,5.3333335 c 7.68637,0 8.98874,0.3964877 12.00974,3.656199 2.86491,3.0912925 3.2625,4.4818505 2.57329,8.9999995 -0.90296,5.919357 -4.746,10.010469 -9.40345,10.010469 -1.66043,0 -4.89119,0.374445 -7.17947,0.832102 l -4.16051,0.832102 0.32718,9.501232 c 0.30255,8.78625 0.1145,9.531579 -2.499022,9.904523 -2.007067,0.286404 -3.064518,-0.486488 -3.64846,-2.666667 z m 17.065722,-24.0333 c 2.66698,-3.807647 2.65771,-9.597403 -0.0196,-12.274755 -1.15238,-1.1523806 -4.15238,-2.0952378 -6.66666,-2.0952378 h -4.57143 v 8.6666668 8.666667 h 4.59106 c 3.23278,0 5.20514,-0.876713 6.66667,-2.963341 z m 51.28625,26.400331 c -0.49694,-0.493185 -12.77844,-2.523466 -27.87732,-4.608455 -5.16084,-0.712657 -6.05501,-1.299949 -6.39333,-4.199177 -0.34561,-2.96175 0.58443,-3.804675 7.66667,-6.948523 4.433,-1.967835 8.06,-4.158016 8.06,-4.86707 0,-0.709053 -3.3071,-2.029282 -7.3491,-2.933842 -8.12535,-1.818376 -10.6062,-3.819811 -9.40928,-7.590981 0.60324,-1.90061 4.98989,-3.697677 18.1655,-7.441806 9.55362,-2.7148626 17.94532,-4.580684 18.64821,-4.1462693 4.37044,2.7010788 -2.93873,6.3103083 -21.722,10.7261983 -2.01667,0.474112 -3.66667,1.278877 -3.66667,1.788368 0,0.509489 4.2,2.279046 9.33334,3.932347 5.25565,1.692693 9.33333,3.766645 9.33333,4.747025 0,0.957564 -3.6,3.35661 -8,5.331212 -4.4,1.974602 -8,4.073931 -8,4.665177 0,0.591244 3.45,1.477745 7.66667,1.970001 11.01426,1.285813 17.66666,3.304228 17.66666,5.360271 0,1.878502 -3.1904,5.140753 -4.12268,4.215524 z m 23.11875,-0.378483 c -1.65217,-0.318088 -5.03449,-2.493392 -7.51627,-4.834008 -10.54722,-9.947319 -9.66028,-29.578751 1.69179,-37.4457462 13.65392,-9.4621697 33.49508,1.0584851 33.49508,17.7605602 0,18.241775 -10.75873,27.775197 -27.6706,24.519194 z m 13.62536,-7.011285 C 203.85592,36.612769 205.61284,27.650058 203.87126,18 202.5019,10.412376 197.66353,5.3509092 191.76922,5.3399563 c -4.58073,-0.00851 -11.69466,6.9728217 -11.98601,11.7626077 -0.85436,14.045747 1.34631,22.068993 7.17251,26.149832 4.42457,3.099082 8.10514,2.540434 12.33237,-1.87184 z M 221.33333,26.666667 V 5.3333335 h 3.8398 c 3.06448,0 4.91915,1.4134321 9.18521,7.0000005 2.93998,3.85 6.51004,8.215403 7.93348,9.700895 1.42344,1.485493 3.6591,4.335493 4.96814,6.333333 1.30904,1.997841 2.91106,3.632439 3.56005,3.632439 0.64899,0 1.17999,-6.3 1.17999,-14.000001 0,-13.8094299 0.345,-15.0094353 3.70265,-12.8786565 2.19295,1.3916596 1.75433,41.7302895 -0.46175,42.4665745 -0.78417,0.260538 -7.2975,-6.476837 -14.47405,-14.971944 -7.17656,-8.495105 -13.35791,-15.136026 -13.73633,-14.7576 -0.37843,0.378425 -0.58258,7.315101 -0.45366,15.414836 0.22354,14.043556 0.10734,14.726791 -2.50456,14.726791 -2.64894,0 -2.73897,-0.701175 -2.73897,-21.333334 z m 45.33333,19.129409 c 0,-3.027014 11.95867,-39.2277346 13.69693,-41.4627426 0.71295,-0.9166666 2.65764,-1.6666667 4.32156,-1.6666667 2.24123,0 3.55854,1.2958471 5.0828,5.0000002 1.13163,2.7500001 5.10636,11.8923151 8.83274,20.3162541 3.72637,8.42394 6.48448,16.07394 6.12912,17 -0.35538,0.926061 -2.01495,1.675849 -3.68798,1.666196 -2.40773,-0.01389 -3.87568,-1.751064 -7.04184,-8.333333 -3.8438,-7.991053 -4.20826,-8.329369 -9.33333,-8.663665 -2.93333,-0.191336 -6.15239,0.186754 -7.15345,0.840196 -1.00107,0.653444 -2.52327,4.709991 -3.38265,9.01455 -1.2928,6.475476 -2.07187,7.900016 -4.51322,8.252537 -2.10616,0.304123 -2.95068,-0.257805 -2.95068,-1.963326 z m 20.45536,-26.129409 c -1.20435,-3.116667 -2.67719,-6.214371 -3.27299,-6.883786 -1.06074,-1.191808 -2.98673,2.650519 -4.64961,9.275924 -0.77261,3.078372 -0.49435,3.274529 4.64523,3.274529 h 5.46709 z m 40.44153,23.851735 C 307.28721,39.51307 306.45783,36.619996 323.33333,28.762314 l 5.33333,-2.483341 -8.66667,-2.806154 c -7.57729,-2.453429 -8.71881,-3.25782 -9.08149,-6.399484 -0.37307,-3.231671 0.16373,-3.739448 5.33333,-5.045074 3.1615,-0.798458 10.63599,-2.9314581 16.61,-4.740001 11.26112,-3.4091344 15.15266,-3.9981669 15.11775,-2.2882599 -0.0569,2.7865954 -3.03905,4.4086668 -14.30589,7.7813369 -6.77411,2.027798 -12.08923,3.914242 -11.81138,4.192098 0.27786,0.277856 4.28706,1.866153 8.90934,3.52955 4.62226,1.663396 8.6299,3.701708 8.90586,4.52958 0.27596,0.827873 -3.28506,3.416796 -7.91337,5.753161 -9.3924,4.741267 -9.02651,5.395822 3.95472,7.074615 9.97313,1.289772 13.61447,2.923063 13.61447,6.106659 0,3.408528 -2.50502,3.356908 -21.76978,-0.448598 z m 28.18644,-13.518401 c -0.13749,-9.166667 -0.2875,-18.316667 -0.33333,-20.3333341 -0.0631,-2.7780089 0.5484,-3.6666668 2.52323,-3.6666668 3.67252,0 4.43974,3.9525487 4.59386,23.6666669 l 0.13291,17.000001 h -3.33333 -3.33334 z"
       id="path1998" />
  </g>
</svg>
