<?xml version="1.0" encoding="UTF-8" standalone="no"?>
<!-- Created with Inkscape (http://www.inkscape.org/) -->

<svg
   version="1.1"
   id="svg122"
   width="200"
   height="45.333332"
   viewBox="0 0 200 45.333332"
   xmlns="http://www.w3.org/2000/svg"
   xmlns:svg="http://www.w3.org/2000/svg">
  <defs
     id="defs126" />
  <g
     id="g128">
    <path
       style="fill:#000000;stroke-width:1.33333"
       d="M 5.8918535,36.865635 C 4.9464567,34.40197 19.782483,6.6666665 22.045731,6.6666665 c 1.739665,0 15.287602,25.4771205 15.287602,28.7485915 0,2.194744 -6.350837,3.251408 -19.541846,3.251408 -8.1827965,0 -11.3950798,-0.486186 -11.8996335,-1.801031 z M 27.030037,23.333333 c -2.721472,-5.5 -5.287781,-10 -5.702909,-10 C 20.409304,13.333333 12,30.185888 12,32.025244 c 0,0.738827 4.347105,1.308088 9.989085,1.308088 h 9.989084 z M 51.008427,37.2949 C 45.580952,35.112832 42.460431,28.256577 43.007944,19.716631 43.56026,11.101752 45.787807,7.7809634 52.339144,5.8058324 57.090987,4.3732227 62.861455,5.2510289 63.61832,7.5216258 c 0.296433,0.8893002 -1.687584,1.4480709 -5.141641,1.4480709 -4.221859,0 -6.229319,0.7471266 -8.050506,2.9961963 -4.16481,5.143324 -3.142973,6.529789 5.135155,6.967568 10.855217,0.574065 11.320459,3.733205 0.549783,3.733205 -7.063676,0 -8.111111,0.325287 -8.111111,2.518955 0,1.385425 1.140035,3.926838 2.533411,5.647585 1.961536,2.422393 3.767404,3.096273 8,2.98529 C 62.127523,33.724255 64,34.252814 64,35.361592 64,38.563975 56.821919,39.632163 51.008427,37.2949 Z m 61.392813,-1.237901 c -0.38746,-1.481624 -2.64889,-3.258651 -5.2317,-4.111056 -5.37751,-1.774737 -8.964305,-7.643209 -7.71466,-12.622193 0.98586,-3.92798 6.48039,-8.657084 10.05827,-8.657084 1.59796,0 2.48685,-0.9531595 2.48685,-2.6666662 0,-1.7777777 0.88889,-2.6666666 2.66667,-2.6666666 1.77777,0 2.66666,0.8888889 2.66666,2.6666666 0,1.5525121 0.88889,2.6666662 2.12751,2.6666662 3.50161,0 9.51446,5.05862 10.45175,8.79308 1.13305,4.514433 -1.98508,9.315477 -7.87397,12.12369 -2.47363,1.179595 -4.78809,3.255883 -5.14324,4.613974 -0.84996,3.250241 -3.63018,3.163378 -4.49414,-0.140411 z M 112,21.999999 c 0,-6.472441 -0.46503,-8.666666 -1.83674,-8.666666 -2.41323,0 -4.40361,2.503835 -5.51711,6.940361 -0.7043,2.806161 -0.15755,4.33612 2.49887,6.992541 1.87024,1.870237 3.72771,3.400431 4.12771,3.400431 0.4,0 0.72727,-3.9 0.72727,-8.666667 z m 11.25773,4.369992 C 126.0513,22.381615 125.87015,19.203483 122.66667,16 c -4.26828,-4.268275 -5.33334,-3.203216 -5.33334,5.333333 0,8.792207 2.06454,10.547382 5.9244,5.036658 z m 47.00724,11.392077 c -0.60888,-0.985193 -1.39662,-23.496876 -1.0531,-30.0954016 0.27474,-5.2777098 5.1324,-2.094987 12.21004,7.9999996 l 7.24476,10.333333 0.66666,-9.895131 c 0.41932,-6.2239326 1.28502,-10.0989327 2.33334,-10.4444444 1.27168,-0.419132 1.66666,3.2688316 1.66666,15.5617984 0,13.432098 -0.33257,16.11111 -2,16.11111 -1.1,0 -2,-0.494557 -2,-1.099016 0,-1.329916 -14.40189,-20.761131 -15.74078,-21.237662 -0.52028,-0.185174 -0.72546,4.518841 -0.45595,10.453368 0.43975,9.683657 -0.9126,15.481827 -2.87163,12.312046 z M 69.333333,35.447707 c 0,-1.037095 2.1155,-7.487094 4.701111,-14.333333 2.585611,-6.84624 4.962899,-13.1875922 5.282861,-14.0918958 0.941196,-2.6600807 4.368548,-0.4631623 5.315686,3.4073318 0.480506,1.963604 3.002353,8.552492 5.604102,14.641972 2.601748,6.08948 4.388632,11.413604 3.970851,11.831385 -1.294832,1.294831 -4.874611,-0.715169 -4.874611,-2.737032 0,-1.054656 -1.851409,-6.023486 -4.114241,-11.041846 L 81.104849,14 l -2.5711,6.666666 c -1.414105,3.666667 -3.185822,8.916666 -3.93715,11.666666 -1.311818,4.801503 -5.263266,7.139648 -5.263266,3.114375 z m 66.025117,0.592941 c -0.51876,-0.839385 0.82322,-2.040832 3.2082,-2.872245 4.79238,-1.670628 4.99719,-2.681316 1.53118,-7.555728 -1.41287,-1.986972 -2.89436,-6.15654 -3.29222,-9.265707 -0.59405,-4.642385 -0.20904,-6.132216 2.15359,-8.3333336 3.93244,-3.6636228 13.38325,-3.6711847 17.0408,-0.013635 4.05345,4.0534546 3.99053,13.6468866 -0.11867,18.0859346 -3.36557,3.635766 -3.21888,5.633321 0.45196,6.154664 3.93411,0.558732 3.8776,4.301658 -0.0733,4.861753 -3.42691,0.485799 -6.92663,-1.814452 -6.92663,-4.55264 0,-0.98474 1.71882,-4.500724 3.81959,-7.813297 4.32619,-6.8217 4.20985,-11.825131 -0.36388,-15.6491537 -3.86377,-3.2304418 -7.01453,-2.9829806 -10.84964,0.852133 -4.18109,4.1810907 -4.13792,8.0021407 0.16051,14.2047647 2.21128,3.190887 3.27904,6.301014 3,8.738334 -0.36162,3.158591 -1.12892,3.851702 -4.64144,4.192652 -2.31451,0.224663 -4.60952,-0.24086 -5.10002,-1.034496 z"
       id="path150" />
  </g>
</svg>
