<?xml version="1.0" encoding="UTF-8" standalone="no"?>
<!-- Created with Inkscape (http://www.inkscape.org/) -->

<svg
   version="1.1"
   id="svg82"
   width="357.33334"
   height="57.333332"
   viewBox="0 0 357.33334 57.333332"
   xmlns="http://www.w3.org/2000/svg"
   xmlns:svg="http://www.w3.org/2000/svg">
  <defs
     id="defs86" />
  <g
     id="g88">
    <path
       style="fill:#000000;stroke-width:1.33333"
       d="m 256.70019,49.370374 c -1.11844,-1.235859 -2.03352,-2.625047 -2.03352,-3.087084 0,-1.390394 -10.97267,-15.616624 -12.04508,-15.616624 -0.54697,0 -0.75235,3.401421 -0.45639,7.558713 0.73008,10.255465 -0.13461,12.441286 -4.92172,12.441286 h -3.91014 V 29.333333 7.9999998 h 4 4 V 16 c 0,4.4 0.56493,7.999999 1.2554,7.999999 0.69048,0 4.02554,-3.599999 7.41126,-7.999999 4.47591,-5.816772 7.0228,-8.0000002 9.33258,-8.0000002 6.1076,0 5.34097,3.0001612 -2.61392,10.2293932 l -7.75636,7.048804 6.51885,7.442177 c 10.39071,11.862438 11.35391,13.289388 10.49001,15.540644 -1.19472,3.113394 -6.84542,3.789553 -9.27097,1.109356 z m 60.96648,1.746583 c -1.80024,-0.726412 -2.38513,-27.259319 -0.81086,-36.783624 1.31994,-7.9856889 5.2039,-6.8109886 15.42957,4.666667 4.73672,5.316666 9.67927,11.316666 10.98343,13.333333 1.30417,2.016666 2.90222,3.666666 3.55121,3.666666 0.64899,0 1.17999,-6 1.17999,-13.333333 0,-13.0940494 1.09973,-16.0858619 3.95309,-10.754322 2.16319,4.041952 1.80673,38.305356 -0.40733,39.154976 -2.22904,0.855363 -3.503,-0.02087 -7.36747,-5.067321 -1.68471,-2.2 -5.28617,-6.4 -8.00325,-9.333333 -2.71707,-2.933333 -6.65166,-7.599664 -8.74352,-10.369624 -2.09186,-2.76996 -4.14016,-4.699512 -4.55178,-4.287893 -0.41162,0.411617 -0.57896,6.100961 -0.37185,12.642984 0.36619,11.56739 -0.40732,17.457383 -2.26441,17.242603 -0.50058,-0.05789 -1.66015,-0.407895 -2.57682,-0.777779 z M 5.5870894,48.972423 C 3.2794241,46.191856 18.302534,6.6867932 22.218482,5.23819 c 2.03836,-0.7540386 3.47664,-0.3817268 4.991407,1.2920709 3.012764,3.3290669 17.01266,38.9666101 16.17017,41.1621031 -0.41017,1.068887 -2.145002,1.6452 -4.205076,1.39693 -2.834565,-0.341608 -3.99976,-1.700663 -6.07806,-7.089295 -3.217534,-8.342453 -5.325973,-9.996557 -11.544992,-9.057237 -6.310859,0.953191 -6.438655,1.097076 -8.646927,9.735578 -1.90467,7.450843 -4.5030972,9.685731 -7.3179146,6.294083 z M 26.666667,27.154693 C 26.666667,24.802673 23.446467,16 22.586051,16 c -1.09438,0 -3.919384,7.351183 -3.919384,10.198963 0,1.112263 1.529728,1.801036 4,1.801036 2.2,0 4,-0.380388 4,-0.845306 z M 152.30368,49.721803 C 147.81128,48.859236 140.18363,40.33472 139.19664,35.073637 136.13176,18.736438 144.78558,6.2113269 159.23542,6.0704663 168.0577,5.9844649 172.6921,8.9298105 177,17.360576 c 5.78132,11.314281 3.03419,23.427766 -6.75205,29.773284 -5.26327,3.412765 -10.05171,4.10336 -17.94427,2.587943 z m 13.23019,-4.495792 C 172.16758,41.675759 173.96959,26.236617 168.94504,16 c -2.89209,-5.892129 -3.0623,-6.0000002 -9.46781,-6.0000002 -5.49468,0 -6.93633,0.5539192 -9.14661,3.5143522 -1.44312,1.932893 -2.92599,6.195004 -3.29528,9.471357 -0.81406,7.222272 2.71682,20.34795 5.98614,22.252846 3.06287,1.784604 9.16582,1.778485 12.51239,-0.01253 z M 151.17334,30.063849 c -1.35538,-3.532047 0.90078,-4.730516 8.90536,-4.730516 7.5605,0 7.9213,0.151828 7.9213,3.333333 0,3.187112 -0.35276,3.333333 -8.04184,3.333333 -5.80046,0 -8.24893,-0.539636 -8.78482,-1.93615 z m 37.37665,19.000493 c -0.66916,-0.952055 -1.21665,-10.73101 -1.21665,-21.731009 V 7.3333332 L 191.66667,6.9155218 196,6.4977105 v 9.4178115 9.417811 h 9.93908 9.93908 l 0.39426,-9 c 0.38268,-8.7357578 0.50289,-9.0124816 4.09438,-9.4251258 l 3.70014,-0.425126 -0.3668,21.7584578 -0.3668,21.75846 H 220 c -3.23532,0 -3.34478,-0.303845 -3.72274,-10.333333 L 215.88783,29.333333 H 206 196.11218 l -0.38943,10.333333 c -0.35097,9.313425 -0.66413,10.372584 -3.17276,10.731009 -1.53083,0.218721 -3.33083,-0.381279 -4,-1.333333 z m 86.96082,0.556129 C 274.80413,48.477043 274.40706,35.87618 274.5655,19.621557 l 0.10117,-10.3784417 14.33334,0.3784422 C 300.68366,9.9300404 303.33334,10.369722 303.33334,12 c 0,1.555556 -2.37037,2.148148 -10.66667,2.666666 l -10.66666,0.666667 -0.41054,4.944829 -0.41053,4.944829 11.0772,0.388504 c 10.33513,0.362478 11.10575,0.589475 11.50327,3.388504 0.33413,2.352691 -0.24126,3.018995 -2.66667,3.08803 -1.701,0.04841 -6.69273,0.198416 -11.09273,0.333333 l -8,0.245304 -0.41,5.666666 -0.41,5.666667 h 12.66465 c 12.79223,0 14.82881,0.69354 13.35036,4.546344 -0.67755,1.765632 -3.34161,2.120322 -15.92564,2.120322 -8.3116,0 -15.40296,-0.470788 -15.75857,-1.046194 z M 52.17519,48.13523 c -1.433177,-0.906924 -1.657266,-3.978431 -1.044138,-14.311659 0.429369,-7.236297 0.800533,-16.306905 0.82481,-20.156905 0.04338,-6.8790796 0.113236,-6.9999995 4.044139,-6.9999995 2.2,0 4,0.5181819 4,1.1515152 0,0.6333333 1.388633,2.5833333 3.085851,4.3333333 1.697219,1.749999 6.647219,7.636529 11,13.081174 l 7.91415,9.899357 0.379344,-14.321594 c 0.336306,-12.6967482 0.63885,-14.2717742 2.666666,-13.8824694 2.026384,0.3890299 2.329212,2.8328924 2.654514,21.4222384 0.338498,19.343491 0.182218,20.98405 -2,20.995131 -2.46417,0.01251 -3.075646,-0.612949 -18.367191,-18.787302 L 58.000001,19.46517 57.333334,33.958945 C 56.679864,48.165834 55.845829,50.458036 52.17519,48.13523 Z M 98.25095,47.393804 C 96.672434,45.815288 96.435675,42.030563 96.978968,27.060471 97.346119,16.943878 98.227116,8.2996951 98.936741,7.8511748 99.646365,7.4026544 106.0259,7.1026544 113.11348,7.1845081 125.0615,7.3224945 126,7.5275408 126,9.9999998 c 0,2.3888892 -1.11111,2.7361112 -10.66666,3.3333332 L 104.66667,14 v 4.666666 4.666667 l 10.87728,0.385273 c 7.40862,0.262415 11.08967,0.938751 11.54331,2.120912 1.35447,3.529699 -1.38105,4.712327 -11.7947,5.099129 l -10.62589,0.394686 -0.41927,5.856507 -0.41928,5.856507 11.75261,-0.653108 c 13.43019,-0.746333 15.08594,-0.428517 15.08594,2.895696 0,3.208337 -3.60616,4.004424 -18.2381,4.026191 -8.95024,0.01333 -12.759159,-0.502862 -14.17762,-1.921322 z"
       id="path1171" />
  </g>
</svg>
