<?xml version="1.0" encoding="UTF-8" standalone="no"?>
<!-- Created with Inkscape (http://www.inkscape.org/) -->

<svg
   version="1.1"
   id="svg2"
   width="53.333332"
   height="54.666668"
   viewBox="0 0 53.333332 54.666668"
   xmlns="http://www.w3.org/2000/svg"
   xmlns:svg="http://www.w3.org/2000/svg">
  <defs
     id="defs6" />
  <g
     id="g8">
    <path
       style="fill:#000000;stroke-width:1.33333"
       d="m 5.3333332,47.166444 c 0,-1.19179 2.6999999,-9.345826 5.9999998,-18.120079 3.3,-8.774255 6,-16.684477 6,-17.578272 0,-0.893794 0.793075,-2.7096747 1.762388,-4.0352898 2.182982,-2.9854071 15.777994,-4.1978935 23.563325,-2.1015216 4.520907,1.217354 5.47779,2.1493892 6.825759,6.6485104 2.138975,7.139262 -0.588964,11.409198 -8.099687,12.678126 -2.961815,0.500396 -5.385119,1.180975 -5.385119,1.512397 0,0.331423 1.242252,3.037602 2.760559,6.01373 1.518306,2.976128 2.868306,7.902224 3,10.946881 0.202502,4.681738 -0.187784,5.596809 -2.529874,5.931581 -2.732744,0.39061 -3.667086,-1.12488 -8.712833,-14.132078 -1.064433,-2.743954 -1.932969,-3.026831 -8.187632,-2.666667 l -6.996886,0.402905 -1.996705,8.333334 c -1.716727,7.164827 -2.41783,8.333334 -5.0000005,8.333334 -1.8835099,0 -3.0032943,-0.80793 -3.0032943,-2.166891 z M 26.610778,25.666667 c -0.03073,-1.283333 -1.141481,-4.371002 -2.468319,-6.861487 l -2.41243,-4.528152 -1.531682,4.393784 c -2.569347,7.370438 -2.051101,9.329189 2.468319,9.329189 2.941925,0 3.985217,-0.617211 3.944112,-2.333334 z m 14.722554,-9.118781 c 0,-4.343894 -3.486346,-7.2145524 -8.761905,-7.2145524 -2.514285,0 -4.571428,0.329796 -4.571428,0.7328794 0,1.037144 4.08306,8.952953 5.601225,10.85907 2.023627,2.540743 7.732108,-0.691015 7.732108,-4.377397 z"
       id="path2419" />
  </g>
</svg>
