<?xml version="1.0" encoding="UTF-8" standalone="no"?>
<!-- Created with Inkscape (http://www.inkscape.org/) -->

<svg
   version="1.1"
   id="svg72"
   width="386.66666"
   height="60"
   viewBox="0 0 386.66666 60"
   xmlns="http://www.w3.org/2000/svg"
   xmlns:svg="http://www.w3.org/2000/svg">
  <defs
     id="defs76" />
  <g
     id="g78">
    <path
       style="fill:#000000;stroke-width:1.33333"
       d="m 231.4877,33.93054 c -0.99514,-21.061315 -0.26026,-24.484736 4.68758,-21.836736 2.37582,1.271509 2.53514,2.794849 2.19332,20.971983 -0.35255,18.747157 -0.49032,19.618265 -3.16326,20.000037 -2.69326,0.384679 -2.82812,-0.309429 -3.71764,-19.135284 z m 48.83894,17.862768 c -1.0855,-1.085491 -1.29742,-6.06712 -0.71802,-16.878427 0.49166,-9.174181 0.33112,-15.03502 -0.39945,-14.583498 -0.6718,0.415196 -3.58883,5.610488 -6.48228,11.545093 -2.89345,5.934605 -5.89069,10.767863 -6.66052,10.740572 -0.76984,-0.02729 -3.79971,-5.181732 -6.73304,-11.454313 -2.93333,-6.272583 -5.73003,-11.652716 -6.21487,-11.955854 -0.48484,-0.303136 -0.78484,6.801306 -0.66666,15.787647 0.21045,16.003277 0.15325,16.347555 -2.78514,16.764873 -2.94453,0.41819 -2.99732,0.183984 -2.85529,-12.666666 0.0796,-7.201004 0.5296,-16.692735 1,-21.092735 0.83211,-7.783101 0.96891,-8.0110392 5.04585,-8.4071628 3.93843,-0.3826655 4.50583,0.161278 9.43059,9.0407198 l 5.24003,9.447883 5.39944,-9.04072 C 277.89337,10.7256 278.68816,10 282.83002,10 h 4.50331 l 0.36932,20.56574 c 0.2794,15.559375 -0.0452,20.828772 -1.33333,21.646249 -2.37736,1.508687 -4.2447,1.379304 -6.04268,-0.418681 z m 24.34002,-0.651855 c -6.82717,-3.449998 -9.25927,-8.07138 -9.72272,-18.474786 C 294.24447,16.965365 301.53249,8 314.99566,8 c 17.08672,0 26.04191,13.793737 20.45721,31.510415 -3.1669,10.046552 -8.40492,13.851432 -18.91206,13.737646 -4.33079,-0.0469 -9.67415,-0.994873 -11.87415,-2.106608 z m 19.55833,-7.457433 c 2.56872,-3.607436 3.07324,-6.000656 3.07324,-14.577921 0,-9.010174 -0.39214,-10.679375 -3.21486,-13.684022 -2.43587,-2.592856 -4.53168,-3.419869 -8.64912,-3.412966 -4.62992,0.0078 -5.86983,0.649146 -8.37711,4.333333 -5.85744,8.606876 -4.91164,23.623131 1.82147,28.919399 5.42294,4.265688 11.64064,3.626424 15.34638,-1.577823 z m 33.99723,8.760424 c -0.48889,-0.488888 -0.90117,-4.538888 -0.91617,-9 -0.0259,-7.708135 -0.39026,-8.606593 -7.33334,-18.084199 -4.01833,-5.485197 -7.30605,-10.999788 -7.30605,-12.254643 0,-6.4555367 7.59713,-3.3780179 13.19471,5.345031 6.76174,10.537264 7.0632,10.572754 12.2021,1.436498 2.49119,-4.428979 5.26724,-8.665009 6.169,-9.413401 1.98935,-1.65102 7.10376,-0.245449 7.09343,1.949454 -0.004,0.867249 -3.30409,5.706699 -7.33333,10.754335 -7.2287,9.05573 -7.32591,9.295477 -7.32591,18.066666 0,5.136004 -0.67555,9.564695 -1.6,10.489148 -1.74324,1.743247 -5.42933,2.126218 -6.84444,0.711111 z M 8.5632649,50.211335 C 7.4176796,47.225987 22.767393,8.1477311 25.415774,7.3071676 c 4.279495,-1.3582589 6.525099,1.0418983 10.431967,11.1499454 2.170356,5.615255 5.815518,14.366818 8.100362,19.447919 4.663091,10.369916 4.471009,13.144152 -0.866688,12.517596 -2.97038,-0.348673 -4.103164,-1.676944 -6.473456,-7.590591 -3.387889,-8.452452 -5.616273,-10.013274 -12.609178,-8.831832 -5.116888,0.864494 -5.221995,1.000896 -7.016256,9.105384 -1.495652,6.755707 -2.343929,8.304112 -4.741331,8.654594 C 10.574823,52.003793 8.9959522,51.3389 8.5632649,50.211335 Z M 31.333333,29.141583 c 0,-1.992464 -5.225225,-11.62042 -6.034964,-11.119975 -1.355621,0.837821 -2.944083,9.727593 -2.008624,11.241199 0.717455,1.160865 8.043588,1.050453 8.043588,-0.121224 z M 79.942101,51.133944 C 78.810259,50.827748 77.178856,48.947348 76.316764,46.955279 74.118757,41.876263 66.256995,31.615957 64.730106,31.833651 c -0.698442,0.09957 -1.298442,4.227744 -1.333334,9.173701 -0.06209,8.801027 -0.141572,9.001639 -3.730106,9.414544 l -3.666667,0.421897 V 30.088563 9.3333333 h 3.333333 c 3.185186,0 3.333334,0.3555556 3.333334,7.9999997 0,4.4 0.500821,8 1.112936,8 1.246417,0 6.022261,-5.134842 10.853179,-11.669008 2.006219,-2.713557 4.353251,-4.3309917 6.284628,-4.3309917 5.021591,0 3.66105,3.7971297 -3.808324,10.6286387 l -6.890913,6.302448 8.922192,10.230335 c 7.640036,8.760192 8.71935,10.609346 7.510668,12.867789 -1.38234,2.582927 -2.559871,2.893837 -6.708931,1.7714 z m 57.796999,-1.74194 c -6.79958,-4.145971 -8.91698,-8.538235 -8.99952,-18.668252 -0.0626,-7.682089 0.452,-9.707041 3.6338,-14.299385 4.81483,-6.9493094 8.19979,-8.6326899 17.80262,-8.853445 9.72821,-0.2236376 14.50598,2.734938 19.02328,11.779923 2.44974,4.905143 2.95158,7.526295 2.32132,12.124531 -1.09734,8.005948 -5.12811,15.388072 -9.93276,18.191291 -5.61783,3.277654 -18.26158,3.132037 -23.84874,-0.274663 z M 157.88148,43.8977 c 3.52994,-4.195107 4.24041,-8.174892 3.5521,-19.8977 -0.39957,-6.805107 -2.81662,-10.209465 -9.15186,-12.890145 -4.85422,-2.0540041 -7.88999,-0.832753 -11.79748,4.745973 -2.39388,3.417739 -3.789,14.324775 -2.62556,20.526475 2.11648,11.281809 13.31632,15.485582 20.0228,7.515397 z m 36.80278,2.522443 c 0.12627,-3.164412 0.17406,-11.34796 0.106,-18.185662 l -0.1236,-12.432185 -6.33333,0.217333 C 176.5263,16.424795 176,16.281712 176,12.666667 c 0,-1.833334 0.45,-3.4083423 1,-3.5000197 4.68409,-0.7807741 44.32401,-0.6631173 45.61604,0.1353947 1.01002,0.6242369 1.31418,2.150631 0.77012,3.86483 C 222.5824,15.699328 221.49838,16 213.17194,16 h -9.31501 l 0.40487,17.666667 0.40486,17.666666 -5.10604,0.420143 -5.10604,0.420141 z M 95.736926,31.666667 c -0.255545,-10.45 0.02021,-20.05 0.6128,-21.333334 C 97.212248,8.4654155 99.13397,8 105.98417,8 c 4.70636,0 10.0679,0.6884009 11.91452,1.5297799 5.95113,2.7115161 7.60559,14.4553601 2.61943,18.5935051 -1.03781,0.8613 -5.32894,1.935911 -9.53585,2.388024 l -7.64894,0.822024 -0.2453,8 c -0.13492,4.4 -0.28492,8.75 -0.33334,9.666667 -0.0484,0.916667 -1.54267,1.666667 -3.32058,1.666667 h -3.232554 z m 17.929734,-6.047411 c 2.59572,-2.261117 3.06997,-8.418151 0.95309,-12.373578 -1.00832,-1.884061 -2.80474,-2.579011 -6.66666,-2.579011 h -5.28643 v 8.444444 c 0,4.644445 0.31411,8.758546 0.69801,9.142448 1.19827,1.19827 7.85691,-0.504395 10.30199,-2.634303 z"
       id="path1310" />
  </g>
</svg>
