<?xml version="1.0" encoding="UTF-8" standalone="no"?>
<!-- Created with Inkscape (http://www.inkscape.org/) -->

<svg
   version="1.1"
   id="svg22"
   width="376"
   height="56"
   viewBox="0 0 376 56"
   xmlns="http://www.w3.org/2000/svg"
   xmlns:svg="http://www.w3.org/2000/svg">
  <defs
     id="defs26" />
  <g
     id="g28">
    <path
       style="fill:#000000;stroke-width:1.33333"
       d="M 57.563475,50.808903 C 56.407316,50.094356 55.919537,44.097697 55.87584,30.061413 55.811531,9.4047509 56.626265,6.0556169 61.036699,8.8466265 c 2.003604,1.2679205 2.296634,3.9597585 2.296634,21.0973465 0,16.397672 -0.342388,19.82792 -2.071842,20.756975 -1.139514,0.612141 -2.80362,0.660721 -3.698016,0.10796 z m 251.285695,0.11188 c -6.4424,-0.409892 -6.47896,-0.438518 -5.67756,-4.445544 0.44364,-2.218148 2.12003,-5.87752 3.72531,-8.131939 1.81992,-2.555829 3.14312,-6.804989 3.5148,-11.286961 0.50948,-6.143788 0.15015,-7.662699 -2.47357,-10.455514 -5.60167,-5.9627 -13.11007,-3.836676 -15.85822,4.490298 -1.46716,4.445556 -1.41974,6.25446 0.30795,11.748408 1.12317,3.57159 2.39281,8.08806 2.82144,10.036598 0.42861,1.94854 1.15625,4.525118 1.61697,5.725728 0.73943,1.9269 -0.39369,2.136907 -9.66097,1.790535 -9.47896,-0.35428 -10.49865,-0.651393 -10.49865,-3.059059 0,-2.275965 0.92948,-2.684506 6.34398,-2.788432 3.4892,-0.06697 6.69979,-0.477564 7.13466,-0.912428 0.43486,-0.434864 -0.73591,-2.792097 -2.60172,-5.238297 -7.38938,-9.687972 -6.95684,-22.321721 0.97125,-28.368773 7.97071,-6.0795554 24.51088,-3.6251821 28.5506,4.236582 0.67959,1.322575 1.6262,4.962299 2.10356,8.088275 0.95803,6.273583 -1.96285,13.707412 -7.06072,17.970024 -4.44168,3.713932 -3.48948,5.468129 2.45243,4.51798 2.87505,-0.45974 6.17505,-0.472232 7.33333,-0.02776 2.09509,0.80396 3.01365,5.757837 1.10596,5.964484 -4.1924,0.454128 -8.59217,0.499459 -14.15083,0.145795 z M 6.6666667,48.594572 c 0,-2.302311 4.9484183,-9.515683 11.0881083,-16.163276 l 3.91177,-4.235371 -7.56155,-8.913129 C 9.9461423,14.380575 6.7682679,9.6864916 7.043052,8.8514999 7.9310388,6.1531581 42.844523,4.2125864 46.666667,6.6491283 c 1.551489,0.9890441 1.66715,1.8067346 0.515756,3.6462497 -1.172039,1.872497 -3.415732,2.402159 -10.666667,2.518049 -5.050332,0.08072 -10.88284,0.230718 -12.961128,0.333334 l -3.778707,0.186572 4.445374,5.450328 c 2.444954,2.99768 5.004646,6.237982 5.688205,7.200672 0.884368,1.2455 -0.607968,3.807587 -5.174072,8.883006 L 18.318524,42 33.159263,42.377001 C 47.759701,42.747899 48,42.804959 48,45.901016 c 0,1.730857 -0.75,3.424271 -1.666667,3.763141 -0.916666,0.338871 -10.216666,0.710654 -20.666666,0.826186 C 9.1536183,50.672907 6.6666667,50.424764 6.6666667,48.594572 Z M 72.371047,49.044407 C 71.59552,48.070483 70.955249,38.834879 70.884849,27.606689 70.752065,6.4287515 71.072045,5.4635673 77.669648,7.1411164 c 2.596025,0.6600821 9.572839,8.8345236 18.997019,22.2580126 5.046813,7.188514 5.705143,6.010484 5.003383,-8.953206 l -0.65687,-14.0066797 3.16008,0.4470451 c 3.14997,0.445616 3.16125,0.5127784 3.52939,21.0127846 0.356,19.824334 -0.10564,22.640422 -3.72895,22.747176 -0.38113,0.0112 -3.08113,-3.037873 -5.999997,-6.775785 -2.91887,-3.737911 -8.75223,-10.487911 -12.96302,-15 L 77.354697,20.666667 77.20816,27.333333 C 77.12756,31 76.972756,37.545523 76.864144,41.87894 c -0.195945,7.817811 -1.860199,10.471916 -4.493097,7.165467 z m 45.851173,0.73337 c -0.48889,-0.488888 -0.88889,-1.988888 -0.88889,-3.333333 0,-2.098765 1.13132,-2.444444 8,-2.444444 4.4,0 8,-0.495412 8,-1.100915 0,-0.605502 -1.46946,-2.4814 -3.26546,-4.16866 -3.91866,-3.681388 -6.93045,-12.427494 -6.33318,-18.391268 0.26506,-2.646624 2.14505,-6.142392 4.84012,-9 4.22484,-4.4796314 4.7934,-4.6724903 13.77495,-4.6724903 8.45736,0 9.76343,0.369175 13.43287,3.7969423 4.87285,4.551928 6.15009,8.89186 4.95744,16.84497 -0.61576,4.106189 -2.10302,7.085117 -4.8155,9.645258 -5.81206,5.485666 -5.22497,7.83547 1.81775,7.275339 3.9862,-0.317035 6.264,0.171868 7.44812,1.598653 2.99475,3.608442 0.2988,4.838838 -10.60247,4.838838 -12.14502,0 -12.35262,-0.283975 -7.23881,-9.901722 6.94228,-13.05664 6.66772,-22.964002 -0.74259,-26.796022 -4.31957,-2.233738 -7.61081,-1.462167 -10.91025,2.557716 -2.89496,3.527064 -2.97315,10.46486 -0.23,20.408308 4.18441,15.167833 4.85605,13.73172 -6.42199,13.73172 -5.46327,0 -10.33322,-0.4 -10.82211,-0.88889 z M 180,32.088563 V 13.51046 l -3.66667,-0.421897 c -2.90972,-0.3348 -3.66666,-1.110033 -3.66666,-3.7552297 V 6 L 199,5.6384801 l 26.33333,-0.36152 v 3.36152 c 0,1.8488359 -0.6,3.4365199 -1.33333,3.5281869 -0.73333,0.09167 -2.07316,0.241666 -2.97739,0.333333 -2.25048,0.228144 -3.48598,8.479735 -3.45665,23.085887 0.0269,13.402125 -0.45299,15.08078 -4.31132,15.08078 -2.43361,0 -2.58797,-1.070848 -2.58797,-17.953088 0,-20.944201 0.34232,-20.451745 -13.66667,-19.660828 l -9,0.508121 -0.21125,12.886231 c -0.11614,7.087426 -0.0928,14.08623 0.052,15.552897 0.54444,5.515248 -1.1038,8.666667 -4.53279,8.666667 H 180 Z m 54.27164,17.738638 c -0.51607,-0.516072 -0.93831,-10.054737 -0.93831,-21.197036 V 8.3714425 l 6.33334,-0.6658148 C 243.15,7.3394295 249.6,7.1058549 254,7.1865731 c 7.05743,0.129468 8.04715,0.4769569 8.40019,2.9492529 0.36892,2.583562 -0.39634,2.862733 -9.79584,3.573617 -5.60782,0.424117 -10.38063,0.962996 -10.60624,1.197506 -0.22562,0.234511 -0.6175,2.526384 -0.87083,5.093051 l -0.46061,4.666667 11.00064,0.111746 c 6.05034,0.06147 11.35513,0.466246 11.7884,0.899519 0.43328,0.433273 0.37977,2.073256 -0.11894,3.644405 -0.79697,2.511038 -1.81988,2.832598 -8.45508,2.657948 -14.2899,-0.376134 -13.54836,-0.715025 -13.54836,6.191694 v 6.17198 l 12.00334,-0.939004 c 10.30072,-0.805811 12.11858,-0.63867 12.81584,1.178333 1.74253,4.540975 -1.69768,5.782345 -16.58892,5.985961 -7.8945,0.107947 -14.77587,-0.225976 -15.29195,-0.742048 z m 99.85817,-0.283836 c -1.02746,-1.662458 -1.1877,-39.8316583 -0.17412,-41.4716842 1.94454,-3.1463033 6.20176,-1.1273697 11.34612,5.3807362 2.95011,3.732164 8.40074,10.182164 12.1125,14.333334 l 6.74865,7.547582 -0.17567,-10.666666 C 363.70231,7.3614664 363.62888,7.7618232 367,8.2405987 c 2.94793,0.4186738 3.00637,0.7905068 3.36719,21.4260683 l 0.3672,21 -3.03387,-0.04123 c -2.0104,-0.02732 -4.55989,-2.066608 -7.55757,-6.045153 -5.63016,-7.472403 -18.85228,-22.42727 -20.35696,-23.024731 -0.61563,-0.244445 -1.11932,6.205555 -1.11932,14.333333 0,11.977918 -0.36402,14.777778 -1.92131,14.777778 -1.05672,0 -2.23372,-0.505486 -2.61555,-1.123302 z"
       id="path2005" />
  </g>
</svg>
