<?xml version="1.0" encoding="UTF-8" standalone="no"?>
<!-- Created with Inkscape (http://www.inkscape.org/) -->

<svg
   version="1.1"
   id="svg102"
   width="336"
   height="54.666668"
   viewBox="0 0 336 54.666668"
   xmlns="http://www.w3.org/2000/svg"
   xmlns:svg="http://www.w3.org/2000/svg">
  <defs
     id="defs106" />
  <g
     id="g108">
    <path
       style="fill:#000000;stroke-width:1.33333"
       d="M 5.7078801,48.617341 C 4.1305979,47.464505 4.6303223,45.7 8.7142999,38.0018 11.408278,32.923715 15.781068,25.445913 18.431609,21.384459 21.082151,17.323007 23.887072,12.8 24.664765,11.333334 c 0.91109,-1.7182406 2.774208,-2.6666671 5.238482,-2.6666671 3.479492,0 4.765261,1.5636071 14.253369,17.3333341 5.735883,9.533333 10.447141,18.683333 10.469464,20.333333 0.03977,2.939546 -0.288552,3.003955 -16.292747,3.196265 C 29.35,49.637545 18.759911,49.787544 14.799801,49.862932 10.839692,49.938319 6.7483276,49.377804 5.7078801,48.617341 Z M 44.634367,41.385598 C 45.069825,40.681009 42.923719,36.031009 39.86524,31.052265 36.80676,26.073519 33.12662,20.05 31.687149,17.666667 30.24768,15.283334 28.573231,13.333334 27.966153,13.333334 c -0.607078,0 -3.051376,3.45 -5.431773,7.666667 -2.380397,4.216666 -6.024431,10.174772 -8.097853,13.240233 -2.073424,3.065463 -3.76986,6.215463 -3.76986,7 0,1.824971 32.84278,1.96552 33.9677,0.145364 z m 89.134823,8.420437 c -1.59362,-0.347216 -4.52762,-2.245617 -6.52001,-4.218667 -10.33622,-10.235927 -9.4856,-28.642278 1.67543,-36.2540344 6.3412,-4.3246649 17.22684,-4.5540254 22.73867,-0.4791037 11.59935,8.5754731 11.68499,29.5599871 0.15571,38.1530121 -3.49518,2.605027 -12.51788,4.004082 -18.0498,2.798793 z m 12.8248,-4.433803 c 3.03581,-1.62472 6.73934,-10.686906 6.73934,-16.490545 0,-6.811646 -3.80045,-18.014402 -6.62386,-19.5254453 -3.20319,-1.7142975 -8.82815,-1.7433412 -11.97012,-0.061806 -7.88383,4.2192983 -8.81904,28.9670003 -1.32411,35.0388983 3.16651,2.565288 9.40739,3.057266 13.17875,1.038898 z M 132.44778,29.910378 c -1.2172,-3.171953 1.08274,-4.585291 7.9479,-4.884076 6.78355,-0.295233 9.50195,1.285083 8.17204,4.750743 -1.18979,3.100542 -14.93768,3.214256 -16.11994,0.133333 z m 48.83611,16.422956 c -0.93846,-2.383333 -3.0642,-7.333333 -4.72385,-11 C 174.9004,31.666667 171.94756,24.766667 169.9982,20 c -1.94937,-4.766666 -3.84297,-9.370651 -4.208,-10.2310768 -0.98567,-2.3233465 4.43297,-4.816286 7.15616,-3.2923166 1.2344,0.6908034 3.26917,4.1661684 4.52172,7.7230334 4.22285,11.991642 7.17339,19.133694 7.90455,19.133694 0.39982,0 2.67518,-5.943721 5.05633,-13.20827 4.43,-13.5152493 6.27636,-15.853219 10.23423,-12.9591576 2.1153,1.5467563 2.11626,1.9767392 0.0153,6.9084216 -1.23223,2.892454 -4.37003,11.559006 -6.97289,19.259006 -2.60287,7.7 -5.3249,14.750001 -6.04895,15.666667 -2.24157,2.837848 -4.59265,1.85404 -6.37273,-2.666667 z m 82.85352,1.998243 c -8.65313,-3.441392 -11.34313,-7.851511 -11.83274,-19.399222 -0.34178,-8.060617 0.082,-10.431532 2.64417,-14.793553 7.54404,-12.8435528 26.44523,-13.63481024 35.94429,-1.504731 4.48499,5.727237 4.45052,20.332492 -0.0667,28.228613 -5.01575,8.767689 -15.8205,11.791377 -26.68908,7.468893 z m 14.71175,-5.318141 c 4.76049,-2.812091 5.77625,-6.109944 5.73827,-18.630389 -0.0248,-8.162236 -0.49071,-10.108227 -3.08028,-12.864695 -5.7038,-6.0714127 -13.33319,-5.6464149 -17.3511,0.966549 -5.51101,9.070413 -4.61926,23.173105 1.876,29.668369 3.77346,3.773448 7.46583,4.021247 12.81711,0.860166 z m 22.71975,5.469575 c 0.23709,-1.201011 4.60581,-4.725166 9.70824,-7.831454 5.10244,-3.106288 9.48014,-6.256784 9.72825,-7.001102 0.24811,-0.744318 -3.74616,-2.628184 -8.87613,-4.186369 -9.93614,-3.018005 -11.39783,-4.133887 -10.23092,-7.810472 0.92408,-2.91152 22.84573,-17.6536139 26.2511,-17.6536139 4.64046,0 2.58472,2.6408774 -6.67686,8.5774039 -5.05674,3.24129 -9.5528,6.473688 -9.99124,7.18311 -0.44343,0.717484 3.30161,2.294317 8.43953,3.553432 11.45052,2.806093 14.65411,4.904459 12.63292,8.274629 -1.99961,3.334231 -25.87225,19.078093 -28.92837,19.078093 -1.5908,0 -2.33222,-0.787235 -2.05652,-2.183657 z M 63.102432,47.212409 c -1.423983,-3.71084 -1.213969,-36.291592 0.243359,-37.7537438 0.740184,-0.7426351 7.040184,-1.5246401 14,-1.7377887 C 89.240292,7.3566 90,7.4934295 90,10 c 0,2.403778 -1.018695,2.705057 -10.333333,3.056086 l -10.333334,0.38942 v 5.277246 5.277249 h 11.426068 c 11.08661,0 11.41341,0.08913 11,3 -0.391845,2.759034 -1.282833,3.053548 -11.092734,3.666666 L 70,31.333334 v 6 6 h 12.666667 c 11.777777,0 12.666666,0.187135 12.666666,2.666667 0,2.494322 -1.014178,2.690959 -15.69219,3.042535 -13.58875,0.325485 -15.805663,0.08017 -16.538711,-1.830127 z M 104,28.000001 V 6.4895406 l 3.66667,0.4218965 3.66666,0.4218964 V 28.000001 48.666668 L 107.66667,49.088564 104,49.510461 Z m 104.88889,20.444444 c -1.15928,-1.159279 -0.90072,-33.446649 0.30248,-37.770776 1.15063,-4.1352294 5.3644,-5.120979 7.7742,-1.8186563 5.4235,7.4322353 20.86088,24.4296303 21.55607,23.7343903 0.44644,-0.446464 0.60235,-6.461722 0.34647,-13.367244 -0.44507,-12.0116038 -0.34399,-12.5554922 2.33333,-12.5554922 2.67263,0 2.80737,0.7049726 2.99436,15.6666672 0.10773,8.616667 0.25769,17.766667 0.33333,20.333334 0.11094,3.762293 -0.39892,4.743349 -2.63065,5.062357 -2.09801,0.299894 -5.61233,-3.0006 -14.5158,-13.63259 -6.46117,-7.715554 -12.34849,-13.656908 -13.08292,-13.203008 -0.82089,0.507338 -1.03733,5.047676 -0.56184,11.785478 0.4254,6.028113 0.43843,12.241405 0.0289,13.807317 -0.72744,2.781757 -3.10141,3.73477 -4.87796,1.958223 z"
       id="path1009" />
  </g>
</svg>
