<?xml version="1.0" encoding="UTF-8" standalone="no"?>
<!-- Created with Inkscape (http://www.inkscape.org/) -->

<svg
   version="1.1"
   id="svg22"
   width="338.66666"
   height="52"
   viewBox="0 0 338.66666 52"
   xmlns="http://www.w3.org/2000/svg"
   xmlns:svg="http://www.w3.org/2000/svg">
  <defs
     id="defs26" />
  <g
     id="g28">
    <path
       style="fill:#000000;stroke-width:1.33333"
       d="m 292.27333,48.313332 c -0.88367,-0.294555 -1.60667,-1.452285 -1.60667,-2.572736 0,-2.059889 9.87043,-14.839521 12.98087,-16.806849 2.77129,-1.752822 2.01025,-3.475696 -5.01911,-11.362471 -9.69192,-10.8740864 -9.16048,-11.4965711 10.19709,-11.9441171 18.0056,-0.4162885 24.65152,0.9865456 21.67347,4.5748791 -1.52181,1.833672 -3.74693,2.029652 -14.81159,1.304543 -7.1614,-0.469315 -13.02073,-0.375212 -13.02073,0.209116 0,0.584328 2.7,3.712264 6,6.95097 3.3,3.238705 6,6.385449 6,6.992766 0,0.607316 -2.7,3.921908 -6,7.365759 -3.3,3.443849 -6,6.579495 -6,6.968099 0,0.388605 6.25356,0.501748 13.89679,0.251429 13.15972,-0.430985 13.97953,-0.300517 15.45685,2.459891 1.11665,2.086481 1.15096,3.32412 0.12067,4.354364 -1.36915,1.369142 -36.23262,2.466052 -39.8677,1.254357 z M 166.22222,47.111111 c -0.48889,-0.488888 -0.88889,-10.388888 -0.88889,-22 V 4 h 4 4 v 9.333333 9.333334 H 184 194.66666 V 13.333333 C 194.66666,4.3483653 194.7872,4 197.89405,4 c 4.03109,0 4.42749,2.0008569 4.5864,23.150593 0.12867,17.122591 -0.98328,21.252095 -5.54609,20.596986 -2.6484,-0.380246 -2.88723,-1.198531 -2.90979,-9.969787 -0.0135,-5.255547 -0.35271,-9.883679 -0.75376,-10.284736 -1.13544,-1.135467 -16.70657,-1.332485 -18.48416,-0.233876 -1.00395,0.620472 -1.48725,4.044421 -1.31629,9.325224 0.14858,4.589613 -0.15688,9.035692 -0.6788,9.880173 -1.0323,1.670296 -5.14119,2.074682 -6.56934,0.646534 z m 45.7943,-0.406019 c -1.61552,-1.021425 -1.933,-4.506943 -1.71139,-18.788457 0.14965,-9.643912 0.61196,-18.6051883 1.02735,-19.9139483 0.79093,-2.492015 8.25238,-4.419732 9.47158,-2.4470455 0.37766,0.611064 -0.27928,1.1110255 -1.45985,1.1110255 -1.90716,0 -2.07164,2.2168494 -1.47513,19.8815643 0.57593,17.055132 0.38052,19.993177 -1.37458,20.666666 -2.48898,0.955118 -2.089,1.000656 -4.47798,-0.509805 z m 41.98347,0.01559 C 248.2456,44.324801 243.77085,37.824641 242.80432,30.457479 240.73309,14.669985 249.28221,4 264.00287,4 c 17.13176,0 25.73143,14.657537 18.7746,32 -3.36472,8.387796 -9.05337,12.023969 -18.64132,11.915485 -4.10822,-0.04648 -8.66949,-0.584144 -10.13616,-1.1948 z m 16.17728,-5.083666 c 4.43588,-3.593203 5.82272,-7.465687 5.82272,-16.258855 0,-10.486597 -2.49106,-16.4296233 -7.8101,-18.6328424 -9.49074,-3.9311887 -16.80121,3.2621874 -16.83573,16.5660554 -0.0251,9.649772 2.15518,15.352036 7.02437,18.371748 4.62505,2.868307 8.21817,2.854266 11.79874,-0.04611 z M 5.3333332,44.718477 c 0,-1.108748 3.368012,-5.986089 7.4844708,-10.838536 6.713217,-7.913484 7.334446,-9.1519 6.028585,-12.017953 -0.800737,-1.757427 -1.989017,-3.195321 -2.640623,-3.195321 -1.626222,0 -8.2057662,-10.1334586 -8.2057662,-12.6380799 0,-1.7148539 2.7322562,-2.0254295 17.6666662,-2.00817 17.759897,0.020525 22.23294,0.9059544 20.308356,4.0199976 C 45.203499,9.2887643 41.613599,9.509546 31.804201,8.9119315 16.539481,7.9819643 15.829021,8.68792 24,16.666667 c 2.933333,2.864324 5.333333,5.901618 5.333333,6.749544 0,0.847925 -2.4,4.268226 -5.333333,7.600669 -2.933334,3.332443 -5.333334,6.396617 -5.333334,6.809277 0,0.41266 6.45,0.920591 14.333333,1.128734 14.299083,0.377538 14.333333,0.386408 14.333333,3.711776 V 46 L 26.333333,46.367191 C 8.3200124,46.682159 5.3333332,46.447673 5.3333332,44.718477 Z m 49.4526428,-1.05181 c -1.49601,-3.978432 1.053187,-5.387352 8.653753,-4.782855 6.748662,0.536743 7.159754,-0.327463 2.685284,-5.645067 C 56.817682,22.177609 62.362399,5.8790771 76.187419,3.660604 88.161793,1.7391003 97.15111,7.4771771 98.312806,17.78372 c 0.739068,6.556993 -2.629041,14.318904 -7.778461,17.925699 -4.578604,3.206978 -2.879864,4.557562 5.13232,4.080452 C 103.16845,39.343152 103.3424,39.412189 103.75523,43 l 0.42189,3.666667 H 92.588561 80.999998 l 0.862303,-4.311516 c 0.474267,-2.371334 2.275531,-6.447046 4.002807,-9.057138 C 92.68443,22.993323 90.972229,10.490875 82.486442,8.6270831 71.682977,6.2542441 67.814364,17.329883 73.316131,34.881208 74.773336,39.529877 75.973336,44.083333 75.982797,45 c 0.01227,1.187341 -2.871106,1.666667 -10.025764,1.666667 -9.191789,0 -10.138575,-0.25426 -11.171057,-3 z m 74.382694,2 c -0.0906,-0.55 -0.0292,-8.65 0.13642,-18 l 0.30108,-17 h -9.46975 c -9.21218,0 -9.46976,-0.09066 -9.46976,-3.3333337 0,-3.1830346 0.37575,-3.3405048 8.33334,-3.4923836 4.58333,-0.087478 13.73333,-0.3889729 20.33333,-0.6699896 14.49901,-0.6173433 18,0.041396 18,3.386851 0,2.0158366 -1.18881,2.6015558 -6.06789,2.9896049 -3.33735,0.2654296 -7.00879,-0.043955 -8.15879,-0.6875196 -3.63091,-2.0319623 -4.53533,1.8125066 -4.34591,18.4734366 0.1,8.8 0.11974,16.75 0.0439,17.666667 -0.14736,1.779923 -9.34786,2.41646 -9.63598,0.666667 z m 97.49799,-21.095239 c 0,-1.15238 0.9,-2.995237 2,-4.095237 4.1284,-4.128404 1.72218,-12.7424246 -4,-14.3195355 C 223.2,5.7524216 224.7,5.7218036 228,6.0886155 c 7.24513,0.805333 9.33333,3.2213806 9.33333,10.7986495 0,4.975555 -0.50653,5.97286 -3.93379,7.745162 -5.00061,2.58592 -6.73288,2.570226 -6.73288,-0.061 z"
       id="path1540" />
  </g>
</svg>
