<?xml version="1.0" encoding="UTF-8" standalone="no"?>
<!-- Created with Inkscape (http://www.inkscape.org/) -->

<svg
   version="1.1"
   id="svg62"
   width="298.66666"
   height="53.333332"
   viewBox="0 0 298.66666 53.333332"
   xmlns="http://www.w3.org/2000/svg"
   xmlns:svg="http://www.w3.org/2000/svg">
  <defs
     id="defs66" />
  <g
     id="g68">
    <path
       style="fill:#000000;stroke-width:1.33333"
       d="m 3.9999999,47.980737 c 0,-1.73867 4.493711,-8.242738 10.4167641,-15.076926 4.543077,-5.241934 4.504794,-6.340816 -0.379872,-10.903812 C 9.8957043,18.131522 4.1245098,8.6754899 5.2299943,7.5700054 5.9083543,6.8916454 14.469456,6.031124 24.254662,5.6577356 39.441127,5.0782435 42.303408,5.2890663 43.804427,7.0976838 47.008054,10.957817 44.19837,12 30.587977,12 c -7.290055,0 -13.254644,0.42939 -13.254644,0.954201 0,0.524811 2.828473,3.825855 6.285496,7.335653 l 6.285494,6.381451 -7.20737,7.298026 c -3.964055,4.013915 -6.825297,7.680103 -6.358316,8.147083 0.46698,0.466981 6.9173,0.313092 14.334042,-0.341975 10.870347,-0.960097 13.777865,-0.838133 14.995503,0.629028 1.069389,1.288535 1.101845,2.468839 0.111133,4.041629 -1.187507,1.885217 -4.456201,2.277295 -21.589348,2.589631 C 10.54908,49.283399 3.9999999,48.941513 3.9999999,47.980737 Z M 54.715139,47.391739 c -2.844671,-3.427619 -0.181848,-5.012389 7.44176,-4.42894 7.908175,0.605229 9.113427,-0.796544 4.373261,-5.086336 -4.378055,-3.962085 -6.530161,-9.201464 -6.530161,-15.897906 0,-7.614364 1.384776,-10.302146 7.140512,-13.8593875 9.119887,-5.6363998 23.79582,-2.8101002 28.389006,5.4671715 3.714197,6.693268 1.254701,17.548234 -5.35768,23.646077 -1.927846,1.77783 -3.505172,3.72783 -3.505172,4.333333 0,0.605503 3.64173,1.100915 8.092734,1.100915 7.629821,0 8.068361,0.171604 7.666671,3 -0.39197,2.759873 -1.21615,3.031686 -10.296872,3.395866 -5.42894,0.217727 -10.45572,-0.189053 -11.170621,-0.903955 -0.844204,-0.844204 0.17574,-4.453018 2.909789,-10.295546 2.401881,-5.132702 4.320143,-11.535458 4.467007,-14.909937 0.216882,-4.983288 -0.325639,-6.415718 -3.446674,-9.10032 -2.037238,-1.752359 -4.737109,-3.186108 -5.99971,-3.186108 -4.043339,0 -8.105668,3.948486 -9.539073,9.271746 -1.39983,5.198569 -1.257959,5.977523 4.077353,22.387147 0.773511,2.379059 1.0334,4.929058 0.577533,5.666666 -1.338601,2.165903 -17.408951,1.665632 -19.289663,-0.600486 z m 73.875421,-0.848212 c -0.54703,-0.885113 -0.90921,-9.019499 -0.80485,-18.076412 L 127.97546,12 h -9.98773 C 108.29682,12 108,11.903608 108,8.7565167 108,6.8211718 108.94106,5.2326933 110.33333,4.8179396 112.3209,4.2258474 146.71177,3.4712916 153.66666,3.867181 155.19344,3.954089 156,5.0895865 156,7.1521012 c 0,2.7350914 -0.81114,3.2632788 -6.1312,3.9924748 -3.37215,0.462206 -7.55483,0.483064 -9.29483,0.04635 l -3.16363,-0.794022 -0.37184,18.468213 -0.37184,18.468213 -3.54075,0.409747 c -1.94741,0.22536 -3.98832,-0.314439 -4.53535,-1.199552 z m 36.73229,-1.904435 c -1.52104,-4.000628 -1.77336,-35.2367816 -0.30244,-37.4390579 0.53877,-0.8066479 6.8434,-1.869729 14.01028,-2.3624026 11.13921,-0.7657444 13.14692,-0.5928928 13.83139,1.1908031 1.24004,3.2314884 -0.33923,3.9202226 -10.63544,4.6382314 l -9.55998,0.666667 -0.41382,5 -0.41382,5 h 10.789 c 8.5659,0 10.95423,0.430573 11.59087,2.089622 1.32461,3.45188 -1.11592,4.485623 -11.5832,4.906323 l -9.96903,0.400676 -0.4131,6.466229 -0.41311,6.466229 12.56136,-0.941764 c 11.25745,-0.844005 12.65447,-0.699145 13.45827,1.395528 1.2571,3.275966 -1.311,4.486658 -9.86008,4.648373 -4.03334,0.07629 -10.48806,0.412135 -14.34382,0.746311 -6.57601,0.569936 -7.09246,0.391957 -8.33333,-2.871768 z m 43.10467,2.320012 c -1.06532,-0.67752 -1.66935,-7.228845 -1.87282,-20.312915 L 206.25437,7.3333332 h 3.20615 3.20614 l 0.36807,20.3333328 c 0.37481,20.706711 0.0107,22.229602 -4.60721,19.292438 z m 47.56274,-0.533037 c -0.0161,-2.903737 12.12475,-39.4070126 13.9258,-41.8701026 1.15173,-1.5750918 2.6846,-2.0276287 4.94577,-1.4601102 2.73224,0.6857481 4.68292,4.0757506 11.73882,20.4003158 8.64665,20.005 9.1199,23.179694 3.61686,24.263043 -1.53389,0.301966 -3.3306,-2.122705 -6.17513,-8.333333 l -4.0118,-8.759214 h -7.11527 -7.11526 l -1.90003,8.333333 c -1.57971,6.928431 -2.40579,8.405164 -4.90003,8.759401 -1.8075,0.256707 -3.00386,-0.273291 -3.00973,-1.333333 z m 22.17269,-21.617588 c 0.0896,-0.078 -0.97888,-2.79331 -2.37445,-6.034029 -2.88505,-6.699502 -4.4132,-6.11246 -5.76675,2.215309 l -0.91936,5.656427 4.4488,-0.847947 c 2.44684,-0.466372 4.52214,-0.911764 4.61176,-0.98976 z m -54.69614,20.740839 c -0.3798,-0.614542 -1.10201,-9.825486 -1.60491,-20.468764 -0.74497,-15.7666864 -0.57286,-19.5624693 0.92912,-20.4907462 1.01391,-0.626632 6.00813,-1.1011962 11.09828,-1.0545871 8.34728,0.076433 9.55825,0.4375339 12.34941,3.6824463 5.91138,6.872375 2.40054,18.115666 -5.6568,18.115666 -1.60338,0 -4.79025,0.375 -7.08192,0.833333 l -4.16666,0.833333 v 9.833333 c 0,8.844782 -0.26018,9.833333 -2.58798,9.833333 -1.42338,0 -2.89873,-0.502806 -3.27854,-1.117347 z M 237.7347,22.776307 c 0.58741,-0.06031 1.9692,-2.266445 3.07063,-4.902539 1.80305,-4.315287 1.78826,-5.120029 -0.14836,-8.0756977 -1.74531,-2.6636578 -3.0676,-3.2056551 -7.01107,-2.8737681 -4.35475,0.3665016 -4.84548,0.7902753 -4.71965,4.0756978 0.0772,2.016666 0.20041,5.787193 0.27374,8.378946 0.12374,4.374429 0.39622,4.669075 3.8,4.109641 2.01667,-0.331452 4.14728,-0.651978 4.73471,-0.71228 z"
       id="path239" />
  </g>
</svg>
