<?xml version="1.0" encoding="UTF-8" standalone="no"?>
<!-- Created with Inkscape (http://www.inkscape.org/) -->

<svg
   version="1.1"
   id="svg132"
   width="44"
   height="50.666668"
   viewBox="0 0 44 50.666668"
   xmlns="http://www.w3.org/2000/svg"
   xmlns:svg="http://www.w3.org/2000/svg">
  <defs
     id="defs136" />
  <g
     id="g138">
    <path
       style="fill:#000000;stroke-width:1.33333"
       d="M 5.3333333,25.333334 V 4.0000001 h 3.0790331 c 3.1721156,0 9.7884006,6.8463659 20.2942656,21.0000009 2.857753,3.85 5.739284,7 6.403404,7 0.674467,0 0.990263,-6.020019 0.715393,-13.637549 -0.424124,-11.7538164 -0.193806,-13.6964936 1.667412,-14.06429 1.880068,-0.3715214 2.284254,2.160171 3.12355,19.564964 0.530222,10.995438 0.573034,20.624367 0.09513,21.397623 -1.851613,2.995979 -4.467339,0.905943 -16.600215,-13.264028 -6.905445,-8.064863 -13.114795,-14.663387 -13.798554,-14.663387 -0.700351,0 -1.1144954,5.385391 -0.9484509,12.333333 0.3891663,16.284212 0.3036518,17.000001 -2.0309708,17.000001 -1.6944444,0 -2,-3.259259 -2,-21.333334 z"
       id="path458" />
  </g>
</svg>
